<svg xmlns="http://www.w3.org/2000/svg" xmlns:xlink="http://www.w3.org/1999/xlink" width="800" height="495.98999999999995"><rect width="800" height="495.98999999999995" rx="0" ry="0" class="a"></rect><svg height="495.98999999999995" viewBox="0 0 80 49.599" width="800" xmlns="http://www.w3.org/2000/svg" xmlns:xlink="http://www.w3.org/1999/xlink"><style>.a{fill:rgb(40,44,52)}.b{font-family:Consolas,"Courier New",Courier,"Liberation Mono",monospace}.c{fill:rgb(171,178,191);white-space:pre}.d{fill:rgb(86,182,194);white-space:pre}.e{fill:rgb(152,195,121);white-space:pre}.f{fill:transparent}.g{fill:rgb(82,139,255)}.i{animation-duration:28.065621s;animation-iteration-count:infinite;animation-name:h;animation-timing-function:steps(1,end)}@keyframes h{0%{transform:translateX(-0px)}0.31%{transform:translateX(-80px)}2.11%{transform:translateX(-160px)}2.31%{transform:translateX(-240px)}2.5%{transform:translateX(-320px)}2.68%{transform:translateX(-400px)}2.92%{transform:translateX(-480px)}3.09%{transform:translateX(-560px)}3.27%{transform:translateX(-640px)}3.45%{transform:translateX(-720px)}3.64%{transform:translateX(-800px)}3.83%{transform:translateX(-880px)}4.02%{transform:translateX(-960px)}5.64%{transform:translateX(-1040px)}8.45%{transform:translateX(-1120px)}8.57%{transform:translateX(-1200px)}10.47%{transform:translateX(-1280px)}50.24%{transform:translateX(-1360px)}51.94%{transform:translateX(-1440px)}99.05%{transform:translateX(-1520px)}99.85%{transform:translateX(-1600px)}99.96%{transform:translateX(-1680px)}99.97%{transform:translateX(-1760px)}}</style><g font-family="Consolas, &quot;Courier New&quot;, Courier, &quot;Liberation Mono&quot;, monospace" font-size="1.67" class="b"><defs><symbol id="1"><text x="0" y="1.67" class="c">$</text><text x="2.004" y="1.67" class="c">ahoy</text></symbol><symbol id="2"><text x="0" y="1.67" class="c">$</text><text x="2.004" y="1.67" class="c">ahoy</text><text x="7.013999999999999" y="1.67" class="c">doctor</text></symbol><symbol id="3"><text x="0" y="1.67" class="d">[INFO]</text><text x="7.013999999999999" y="1.67" class="d">Checking</text><text x="16.032" y="1.67" class="d">project</text><text x="24.048" y="1.67" class="d">requirements.</text></symbol><symbol id="4"><text x="0" y="1.67" class="e">[</text><text x="2.004" y="1.67" class="e">OK</text><text x="5.01" y="1.67" class="e">]</text><text x="7.013999999999999" y="1.67" class="e">All</text><text x="11.021999999999998" y="1.67" class="e">required</text><text x="20.04" y="1.67" class="e">tools</text><text x="26.052" y="1.67" class="e">are</text><text x="30.059999999999995" y="1.67" class="e">present.</text></symbol><symbol id="5"><text x="0" y="1.67" class="e">[</text><text x="2.004" y="1.67" class="e">OK</text><text x="5.01" y="1.67" class="e">]</text><text x="7.013999999999999" y="1.67" class="e">Port</text><text x="12.024" y="1.67" class="e">80</text><text x="15.029999999999998" y="1.67" class="e">is</text><text x="18.035999999999998" y="1.67" class="e">available.</text></symbol><symbol id="6"><text x="0" y="1.67" class="e">[</text><text x="2.004" y="1.67" class="e">OK</text><text x="5.01" y="1.67" class="e">]</text><text x="7.013999999999999" y="1.67" class="e">Pygmy</text><text x="13.026" y="1.67" class="e">is</text><text x="16.032" y="1.67" class="e">running.</text></symbol><symbol id="7"><text x="0" y="1.67" class="e">[</text><text x="2.004" y="1.67" class="e">OK</text><text x="5.01" y="1.67" class="e">]</text><text x="7.013999999999999" y="1.67" class="e">All</text><text x="11.021999999999998" y="1.67" class="e">containers</text><text x="22.043999999999997" y="1.67" class="e">are</text><text x="26.052" y="1.67" class="e">running.</text></symbol><symbol id="8"><text x="0" y="1.67" class="e">[</text><text x="2.004" y="1.67" class="e">OK</text><text x="5.01" y="1.67" class="e">]</text><text x="7.013999999999999" y="1.67" class="e">SSH</text><text x="11.021999999999998" y="1.67" class="e">key</text><text x="15.029999999999998" y="1.67" class="e">is</text><text x="18.035999999999998" y="1.67" class="e">available</text><text x="28.055999999999997" y="1.67" class="e">within</text><text x="35.06999999999999" y="1.67" class="e">the</text><text x="39.077999999999996" y="1.67" class="e">CLI</text><text x="43.086" y="1.67" class="e">container.</text></symbol><symbol id="9"><text x="0" y="1.67" class="e">[</text><text x="2.004" y="1.67" class="e">OK</text><text x="5.01" y="1.67" class="e">]</text><text x="7.013999999999999" y="1.67" class="e">Web</text><text x="11.021999999999998" y="1.67" class="e">server</text><text x="18.035999999999998" y="1.67" class="e">is</text><text x="21.041999999999998" y="1.67" class="e">running</text><text x="29.058" y="1.67" class="e">and</text><text x="33.065999999999995" y="1.67" class="e">accessible</text><text x="44.087999999999994" y="1.67" class="e">at</text><text x="47.093999999999994" y="1.67" class="e">http://vortex_videos.docker.amaze</text></symbol><symbol id="10"><text x="0" y="1.67" class="e">e.io.</text></symbol><symbol id="11"><text x="0" y="1.67" class="e">[</text><text x="2.004" y="1.67" class="e">OK</text><text x="5.01" y="1.67" class="e">]</text><text x="7.013999999999999" y="1.67" class="e">Bootstrapped</text><text x="20.04" y="1.67" class="e">website</text><text x="28.055999999999997" y="1.67" class="e">at</text><text x="31.061999999999998" y="1.67" class="e">http://vortex_videos.docker.amazee.io.</text></symbol><symbol id="a"><rect height="27" width="80" x="0" y="0" class="f"></rect></symbol><symbol id="b"><rect height="1.837" width="1.1022" class="g"></rect></symbol></defs><rect height="49.599" width="80" class="a"></rect><g class="i"><svg x="0" y="0" width="1840"><svg x="0"><use xlink:href="#a"></use><use xlink:href="#b" x="-0.0040000000000000036" y="0"></use></svg><svg x="80"><use xlink:href="#a"></use><use xlink:href="#b" x="1.996" y="0"></use><text x="0" y="1.67" class="c">$</text></svg><svg x="160"><use xlink:href="#a"></use><use xlink:href="#b" x="2.996" y="0"></use><text x="0" y="1.67" class="c">$</text><text x="2.004" y="1.67" class="c">a</text></svg><svg x="240"><use xlink:href="#a"></use><use xlink:href="#b" x="3.996" y="0"></use><text x="0" y="1.67" class="c">$</text><text x="2.004" y="1.67" class="c">ah</text></svg><svg x="320"><use xlink:href="#a"></use><use xlink:href="#b" x="4.996" y="0"></use><text x="0" y="1.67" class="c">$</text><text x="2.004" y="1.67" class="c">aho</text></svg><svg x="400"><use xlink:href="#a"></use><use xlink:href="#b" x="5.996" y="0"></use><use xlink:href="#1" y="0"></use></svg><svg x="480"><use xlink:href="#a"></use><use xlink:href="#b" x="6.996" y="0"></use><use xlink:href="#1" y="0"></use></svg><svg x="560"><use xlink:href="#a"></use><use xlink:href="#b" x="7.996" y="0"></use><text x="0" y="1.67" class="c">$</text><text x="2.004" y="1.67" class="c">ahoy</text><text x="7.013999999999999" y="1.67" class="c">d</text></svg><svg x="640"><use xlink:href="#a"></use><use xlink:href="#b" x="8.996" y="0"></use><text x="0" y="1.67" class="c">$</text><text x="2.004" y="1.67" class="c">ahoy</text><text x="7.013999999999999" y="1.67" class="c">do</text></svg><svg x="720"><use xlink:href="#a"></use><use xlink:href="#b" x="9.996" y="0"></use><text x="0" y="1.67" class="c">$</text><text x="2.004" y="1.67" class="c">ahoy</text><text x="7.013999999999999" y="1.67" class="c">doc</text></svg><svg x="800"><use xlink:href="#a"></use><use xlink:href="#b" x="10.996" y="0"></use><text x="0" y="1.67" class="c">$</text><text x="2.004" y="1.67" class="c">ahoy</text><text x="7.013999999999999" y="1.67" class="c">doct</text></svg><svg x="880"><use xlink:href="#a"></use><use xlink:href="#b" x="11.996" y="0"></use><text x="0" y="1.67" class="c">$</text><text x="2.004" y="1.67" class="c">ahoy</text><text x="7.013999999999999" y="1.67" class="c">docto</text></svg><svg x="960"><use xlink:href="#a"></use><use xlink:href="#b" x="12.996" y="0"></use><use xlink:href="#2" y="0"></use></svg><svg x="1040"><use xlink:href="#a"></use><use xlink:href="#b" x="-0.0040000000000000036" y="1.662"></use><use xlink:href="#2" y="0"></use></svg><svg x="1120"><use xlink:href="#a"></use><use xlink:href="#b" x="-0.0040000000000000036" y="3.499"></use><use xlink:href="#2" y="0"></use><use xlink:href="#3" y="1.837"></use></svg><svg x="1200"><use xlink:href="#a"></use><use xlink:href="#b" x="-0.0040000000000000036" y="5.336"></use><use xlink:href="#2" y="0"></use><use xlink:href="#3" y="1.837"></use><use xlink:href="#4" y="3.674"></use></svg><svg x="1280"><use xlink:href="#a"></use><use xlink:href="#b" x="-0.0040000000000000036" y="7.173"></use><use xlink:href="#2" y="0"></use><use xlink:href="#3" y="1.837"></use><use xlink:href="#4" y="3.674"></use><use xlink:href="#5" y="5.511"></use></svg><svg x="1360"><use xlink:href="#a"></use><use xlink:href="#b" x="-0.0040000000000000036" y="9.01"></use><use xlink:href="#2" y="0"></use><use xlink:href="#3" y="1.837"></use><use xlink:href="#4" y="3.674"></use><use xlink:href="#5" y="5.511"></use><use xlink:href="#6" y="7.348"></use></svg><svg x="1440"><use xlink:href="#a"></use><use xlink:href="#b" x="-0.0040000000000000036" y="10.847"></use><use xlink:href="#2" y="0"></use><use xlink:href="#3" y="1.837"></use><use xlink:href="#4" y="3.674"></use><use xlink:href="#5" y="5.511"></use><use xlink:href="#6" y="7.348"></use><use xlink:href="#7" y="9.185"></use></svg><svg x="1520"><use xlink:href="#a"></use><use xlink:href="#b" x="-0.0040000000000000036" y="12.684"></use><use xlink:href="#2" y="0"></use><use xlink:href="#3" y="1.837"></use><use xlink:href="#4" y="3.674"></use><use xlink:href="#5" y="5.511"></use><use xlink:href="#6" y="7.348"></use><use xlink:href="#7" y="9.185"></use><use xlink:href="#8" y="11.022"></use></svg><svg x="1600"><use xlink:href="#a"></use><use xlink:href="#b" x="-0.0040000000000000036" y="16.358"></use><use xlink:href="#2" y="0"></use><use xlink:href="#3" y="1.837"></use><use xlink:href="#4" y="3.674"></use><use xlink:href="#5" y="5.511"></use><use xlink:href="#6" y="7.348"></use><use xlink:href="#7" y="9.185"></use><use xlink:href="#8" y="11.022"></use><use xlink:href="#9" y="12.859"></use><use xlink:href="#10" y="14.696"></use></svg><svg x="1680"><use xlink:href="#a"></use><use xlink:href="#b" x="-0.0040000000000000036" y="18.195"></use><use xlink:href="#2" y="0"></use><use xlink:href="#3" y="1.837"></use><use xlink:href="#4" y="3.674"></use><use xlink:href="#5" y="5.511"></use><use xlink:href="#6" y="7.348"></use><use xlink:href="#7" y="9.185"></use><use xlink:href="#8" y="11.022"></use><use xlink:href="#9" y="12.859"></use><use xlink:href="#10" y="14.696"></use><use xlink:href="#11" y="16.533"></use></svg><svg x="1760"><use xlink:href="#a"></use><use xlink:href="#b" x="-0.0040000000000000036" y="21.869"></use><use xlink:href="#2" y="0"></use><use xlink:href="#3" y="1.837"></use><use xlink:href="#4" y="3.674"></use><use xlink:href="#5" y="5.511"></use><use xlink:href="#6" y="7.348"></use><use xlink:href="#7" y="9.185"></use><use xlink:href="#8" y="11.022"></use><use xlink:href="#9" y="12.859"></use><use xlink:href="#10" y="14.696"></use><use xlink:href="#11" y="16.533"></use><text x="0" y="20.04" class="e">[</text><text x="2.004" y="20.04" class="e">OK</text><text x="5.01" y="20.04" class="e">]</text><text x="7.013999999999999" y="20.04" class="e">All</text><text x="11.021999999999998" y="20.04" class="e">required</text><text x="20.04" y="20.04" class="e">checks</text><text x="27.054" y="20.04" class="e">have</text><text x="32.064" y="20.04" class="e">passed.</text></svg></svg></g></g></svg></svg>