<svg xmlns="http://www.w3.org/2000/svg" xmlns:xlink="http://www.w3.org/1999/xlink" width="800" height="771.5400000000001"><rect width="800" height="771.5400000000001" rx="0" ry="0" class="a"></rect><svg height="771.5400000000001" viewBox="0 0 80 77.15400000000001" width="800" xmlns="http://www.w3.org/2000/svg" xmlns:xlink="http://www.w3.org/1999/xlink"><style>.a{fill:rgb(40,44,52)}.b{font-family:Consolas,"Courier New",Courier,"Liberation Mono",monospace}.c{fill:rgb(171,178,191);white-space:pre}.d{fill:rgb(86,182,194);white-space:pre}.e{fill:transparent}.f{fill:rgb(82,139,255)}.h{animation-duration:2.009735s;animation-iteration-count:infinite;animation-name:g;animation-timing-function:steps(1,end)}@keyframes g{0%{transform:translateX(-0px)}3.2%{transform:translateX(-80px)}28.3%{transform:translateX(-160px)}30.8%{transform:translateX(-240px)}33.4%{transform:translateX(-320px)}36.1%{transform:translateX(-400px)}38.8%{transform:translateX(-480px)}41.5%{transform:translateX(-560px)}44.2%{transform:translateX(-640px)}46.7%{transform:translateX(-720px)}49.4%{transform:translateX(-800px)}72.1%{transform:translateX(-880px)}97.8%{transform:translateX(-960px)}97.8%{transform:translateX(-1040px)}97.8%{transform:translateX(-1120px)}97.8%{transform:translateX(-1200px)}99.3%{transform:translateX(-1280px)}}</style><g font-family="Consolas, &quot;Courier New&quot;, Courier, &quot;Liberation Mono&quot;, monospace" font-size="1.67" class="b"><defs><symbol id="1"><text x="0" y="1.67" class="c">$</text><text x="2.004" y="1.67" class="c">ahoy</text></symbol><symbol id="2"><text x="0" y="1.67" class="c">$</text><text x="2.004" y="1.67" class="c">ahoy</text><text x="7.013999999999999" y="1.67" class="c">info</text></symbol><symbol id="3"><text x="0" y="1.67" class="d">[INFO]</text><text x="7.013999999999999" y="1.67" class="d">Project</text><text x="15.029999999999998" y="1.67" class="d">information:</text></symbol><symbol id="4"><text x="7.013999999999999" y="1.67" class="c">Project</text><text x="15.029999999999998" y="1.67" class="c">name</text><text x="35.06999999999999" y="1.67" class="c">:</text><text x="37.074" y="1.67" class="c">star_wars</text></symbol><symbol id="5"><text x="7.013999999999999" y="1.67" class="c">Docker</text><text x="14.027999999999999" y="1.67" class="c">Compose</text><text x="22.043999999999997" y="1.67" class="c">project</text><text x="30.059999999999995" y="1.67" class="c">name</text><text x="35.06999999999999" y="1.67" class="c">:</text><text x="37.074" y="1.67" class="c">vortex_videos</text></symbol><symbol id="6"><text x="7.013999999999999" y="1.67" class="c">Site</text><text x="12.024" y="1.67" class="c">local</text><text x="18.035999999999998" y="1.67" class="c">URL</text><text x="35.06999999999999" y="1.67" class="c">:</text><text x="37.074" y="1.67" class="c">http://vortex_videos.docker.amazee.io</text></symbol><symbol id="7"><text x="7.013999999999999" y="1.67" class="c">Path</text><text x="12.024" y="1.67" class="c">to</text><text x="15.029999999999998" y="1.67" class="c">web</text><text x="19.037999999999997" y="1.67" class="c">root</text><text x="35.06999999999999" y="1.67" class="c">:</text><text x="37.074" y="1.67" class="c">/app/web</text></symbol><symbol id="8"><text x="7.013999999999999" y="1.67" class="c">DB</text><text x="10.02" y="1.67" class="c">host</text><text x="35.06999999999999" y="1.67" class="c">:</text><text x="37.074" y="1.67" class="c">database</text></symbol><symbol id="9"><text x="7.013999999999999" y="1.67" class="c">DB</text><text x="10.02" y="1.67" class="c">username</text><text x="35.06999999999999" y="1.67" class="c">:</text><text x="37.074" y="1.67" class="c">drupal</text></symbol><symbol id="10"><text x="7.013999999999999" y="1.67" class="c">DB</text><text x="10.02" y="1.67" class="c">password</text><text x="35.06999999999999" y="1.67" class="c">:</text><text x="37.074" y="1.67" class="c">drupal</text></symbol><symbol id="11"><text x="7.013999999999999" y="1.67" class="c">DB</text><text x="10.02" y="1.67" class="c">port</text><text x="35.06999999999999" y="1.67" class="c">:</text><text x="37.074" y="1.67" class="c">3306</text></symbol><symbol id="12"><text x="7.013999999999999" y="1.67" class="c">DB</text><text x="10.02" y="1.67" class="c">port</text><text x="15.029999999999998" y="1.67" class="c">on</text><text x="18.035999999999998" y="1.67" class="c">host</text><text x="35.06999999999999" y="1.67" class="c">:</text><text x="37.074" y="1.67" class="c">51391</text><text x="43.086" y="1.67" class="c">(&#x27;ahoy</text><text x="50.1" y="1.67" class="c">db&#x27;</text><text x="54.108" y="1.67" class="c">to</text><text x="57.114" y="1.67" class="c">start</text><text x="63.12599999999999" y="1.67" class="c">SequelAce)</text></symbol><symbol id="13"><text x="7.013999999999999" y="1.67" class="c">Solr</text><text x="12.024" y="1.67" class="c">URL</text><text x="16.032" y="1.67" class="c">on</text><text x="19.037999999999997" y="1.67" class="c">host</text><text x="35.06999999999999" y="1.67" class="c">:</text><text x="37.074" y="1.67" class="c">http://127.0.0.1:51389</text></symbol><symbol id="14"><text x="7.013999999999999" y="1.67" class="c">Selenium</text><text x="16.032" y="1.67" class="c">VNC</text><text x="20.04" y="1.67" class="c">URL</text><text x="24.048" y="1.67" class="c">on</text><text x="27.054" y="1.67" class="c">host</text><text x="35.06999999999999" y="1.67" class="c">:</text><text x="37.074" y="1.67" class="c">http://localhost:51399/?autoconnect=1&amp;passw</text></symbol><symbol id="15"><text x="0" y="1.67" class="c">ord=secret</text></symbol><symbol id="16"><text x="7.013999999999999" y="1.67" class="c">Mailhog</text><text x="15.029999999999998" y="1.67" class="c">URL</text><text x="35.06999999999999" y="1.67" class="c">:</text><text x="37.074" y="1.67" class="c">http://mailhog.docker.amazee.io/</text></symbol><symbol id="a"><rect height="42" width="80" x="0" y="0" class="e"></rect></symbol><symbol id="b"><rect height="1.837" width="1.1022" class="f"></rect></symbol></defs><rect height="77.15400000000001" width="80" class="a"></rect><g class="h"><svg x="0" y="0" width="1360"><svg x="0"><use xlink:href="#a"></use><use xlink:href="#b" x="-0.0040000000000000036" y="0"></use></svg><svg x="80"><use xlink:href="#a"></use><use xlink:href="#b" x="1.996" y="0"></use><text x="0" y="1.67" class="c">$</text></svg><svg x="160"><use xlink:href="#a"></use><use xlink:href="#b" x="2.996" y="0"></use><text x="0" y="1.67" class="c">$</text><text x="2.004" y="1.67" class="c">a</text></svg><svg x="240"><use xlink:href="#a"></use><use xlink:href="#b" x="3.996" y="0"></use><text x="0" y="1.67" class="c">$</text><text x="2.004" y="1.67" class="c">ah</text></svg><svg x="320"><use xlink:href="#a"></use><use xlink:href="#b" x="4.996" y="0"></use><text x="0" y="1.67" class="c">$</text><text x="2.004" y="1.67" class="c">aho</text></svg><svg x="400"><use xlink:href="#a"></use><use xlink:href="#b" x="5.996" y="0"></use><use xlink:href="#1" y="0"></use></svg><svg x="480"><use xlink:href="#a"></use><use xlink:href="#b" x="6.996" y="0"></use><use xlink:href="#1" y="0"></use></svg><svg x="560"><use xlink:href="#a"></use><use xlink:href="#b" x="7.996" y="0"></use><text x="0" y="1.67" class="c">$</text><text x="2.004" y="1.67" class="c">ahoy</text><text x="7.013999999999999" y="1.67" class="c">i</text></svg><svg x="640"><use xlink:href="#a"></use><use xlink:href="#b" x="8.996" y="0"></use><text x="0" y="1.67" class="c">$</text><text x="2.004" y="1.67" class="c">ahoy</text><text x="7.013999999999999" y="1.67" class="c">in</text></svg><svg x="720"><use xlink:href="#a"></use><use xlink:href="#b" x="9.996" y="0"></use><text x="0" y="1.67" class="c">$</text><text x="2.004" y="1.67" class="c">ahoy</text><text x="7.013999999999999" y="1.67" class="c">inf</text></svg><svg x="800"><use xlink:href="#a"></use><use xlink:href="#b" x="10.996" y="0"></use><use xlink:href="#2" y="0"></use></svg><svg x="880"><use xlink:href="#a"></use><use xlink:href="#b" x="-0.0040000000000000036" y="1.662"></use><use xlink:href="#2" y="0"></use></svg><svg x="960"><use xlink:href="#a"></use><use xlink:href="#b" x="-0.0040000000000000036" y="10.847"></use><use xlink:href="#2" y="0"></use><use xlink:href="#3" y="1.837"></use><use xlink:href="#4" y="5.511"></use><use xlink:href="#5" y="7.348"></use><use xlink:href="#6" y="9.185"></use></svg><svg x="1040"><use xlink:href="#a"></use><use xlink:href="#b" x="-0.0040000000000000036" y="18.195"></use><use xlink:href="#2" y="0"></use><use xlink:href="#3" y="1.837"></use><use xlink:href="#4" y="5.511"></use><use xlink:href="#5" y="7.348"></use><use xlink:href="#6" y="9.185"></use><use xlink:href="#7" y="11.022"></use><use xlink:href="#8" y="12.859"></use><use xlink:href="#9" y="14.696"></use><use xlink:href="#10" y="16.533"></use></svg><svg x="1120"><use xlink:href="#a"></use><use xlink:href="#b" x="-0.0040000000000000036" y="21.869"></use><use xlink:href="#2" y="0"></use><use xlink:href="#3" y="1.837"></use><use xlink:href="#4" y="5.511"></use><use xlink:href="#5" y="7.348"></use><use xlink:href="#6" y="9.185"></use><use xlink:href="#7" y="11.022"></use><use xlink:href="#8" y="12.859"></use><use xlink:href="#9" y="14.696"></use><use xlink:href="#10" y="16.533"></use><use xlink:href="#11" y="18.37"></use><use xlink:href="#12" y="20.206999999999997"></use></svg><svg x="1200"><use xlink:href="#a"></use><use xlink:href="#b" x="-0.0040000000000000036" y="29.217"></use><use xlink:href="#2" y="0"></use><use xlink:href="#3" y="1.837"></use><use xlink:href="#4" y="5.511"></use><use xlink:href="#5" y="7.348"></use><use xlink:href="#6" y="9.185"></use><use xlink:href="#7" y="11.022"></use><use xlink:href="#8" y="12.859"></use><use xlink:href="#9" y="14.696"></use><use xlink:href="#10" y="16.533"></use><use xlink:href="#11" y="18.37"></use><use xlink:href="#12" y="20.206999999999997"></use><use xlink:href="#13" y="22.044"></use><use xlink:href="#14" y="23.881000000000004"></use><use xlink:href="#15" y="25.718"></use><use xlink:href="#16" y="27.555"></use></svg><svg x="1280"><use xlink:href="#a"></use><use xlink:href="#b" x="-0.0040000000000000036" y="36.565000000000005"></use><use xlink:href="#2" y="0"></use><use xlink:href="#3" y="1.837"></use><use xlink:href="#4" y="5.511"></use><use xlink:href="#5" y="7.348"></use><use xlink:href="#6" y="9.185"></use><use xlink:href="#7" y="11.022"></use><use xlink:href="#8" y="12.859"></use><use xlink:href="#9" y="14.696"></use><use xlink:href="#10" y="16.533"></use><use xlink:href="#11" y="18.37"></use><use xlink:href="#12" y="20.206999999999997"></use><use xlink:href="#13" y="22.044"></use><use xlink:href="#14" y="23.881000000000004"></use><use xlink:href="#15" y="25.718"></use><use xlink:href="#16" y="27.555"></use><text x="7.013999999999999" y="31.061999999999998" class="c">Xdebug</text><text x="35.06999999999999" y="31.061999999999998" class="c">:</text><text x="37.074" y="31.061999999999998" class="c">Disabled</text><text x="46.09199999999999" y="31.061999999999998" class="c">(&#x27;ahoy</text><text x="53.105999999999995" y="31.061999999999998" class="c">debug&#x27;</text><text x="60.11999999999999" y="31.061999999999998" class="c">to</text><text x="63.12599999999999" y="31.061999999999998" class="c">enable)</text><text x="7.013999999999999" y="34.736000000000004" class="c">Use</text><text x="11.021999999999998" y="34.736000000000004" class="c">&#x27;ahoy</text><text x="17.034" y="34.736000000000004" class="c">login&#x27;</text><text x="24.048" y="34.736000000000004" class="c">to</text><text x="27.054" y="34.736000000000004" class="c">generate</text><text x="36.071999999999996" y="34.736000000000004" class="c">Drupal</text><text x="43.086" y="34.736000000000004" class="c">login</text><text x="49.098" y="34.736000000000004" class="c">link.</text></svg></svg></g></g></svg></svg>