<svg xmlns="http://www.w3.org/2000/svg" xmlns:xlink="http://www.w3.org/1999/xlink" width="800" height="771.5400000000001"><rect width="800" height="771.5400000000001" rx="0" ry="0" class="a"></rect><svg height="771.5400000000001" viewBox="0 0 80 77.15400000000001" width="800" xmlns="http://www.w3.org/2000/svg" xmlns:xlink="http://www.w3.org/1999/xlink"><style>.a{fill:rgb(40,44,52)}.b{font-family:Consolas,"Courier New",Courier,"Liberation Mono",monospace}.c{fill:rgb(171,178,191);white-space:pre}.d{fill:transparent}.e{fill:rgb(82,139,255)}.g{animation-duration:41.809506s;animation-iteration-count:infinite;animation-name:f;animation-timing-function:steps(1,end)}@keyframes f{0%{transform:translateX(-0px)}0.07%{transform:translateX(-80px)}0.67%{transform:translateX(-160px)}0.74%{transform:translateX(-240px)}0.8%{transform:translateX(-320px)}0.86%{transform:translateX(-400px)}0.93%{transform:translateX(-480px)}0.99%{transform:translateX(-560px)}1.05%{transform:translateX(-640px)}1.12%{transform:translateX(-720px)}1.18%{transform:translateX(-800px)}1.72%{transform:translateX(-880px)}3.89%{transform:translateX(-960px)}3.91%{transform:translateX(-1040px)}3.92%{transform:translateX(-1120px)}4%{transform:translateX(-1200px)}4.02%{transform:translateX(-1280px)}4.08%{transform:translateX(-1360px)}4.08%{transform:translateX(-1440px)}4.13%{transform:translateX(-1520px)}4.51%{transform:translateX(-1600px)}4.51%{transform:translateX(-1680px)}5.43%{transform:translateX(-1760px)}9.1%{transform:translateX(-1840px)}19.7%{transform:translateX(-1920px)}21.33%{transform:translateX(-2000px)}21.33%{transform:translateX(-2080px)}22.25%{transform:translateX(-2160px)}22.28%{transform:translateX(-2240px)}22.29%{transform:translateX(-2320px)}22.29%{transform:translateX(-2400px)}27.86%{transform:translateX(-2480px)}78.22%{transform:translateX(-2560px)}86.13%{transform:translateX(-2640px)}87.89%{transform:translateX(-2720px)}91.07%{transform:translateX(-2800px)}91.15%{transform:translateX(-2880px)}91.15%{transform:translateX(-2960px)}91.62%{transform:translateX(-3040px)}91.62%{transform:translateX(-3120px)}91.92%{transform:translateX(-3200px)}91.94%{transform:translateX(-3280px)}92.11%{transform:translateX(-3360px)}94.6%{transform:translateX(-3440px)}95.72%{transform:translateX(-3520px)}96.02%{transform:translateX(-3600px)}96.07%{transform:translateX(-3680px)}96.18%{transform:translateX(-3760px)}96.18%{transform:translateX(-3840px)}96.2%{transform:translateX(-3920px)}98.27%{transform:translateX(-4000px)}98.27%{transform:translateX(-4080px)}98.28%{transform:translateX(-4160px)}99.61%{transform:translateX(-4240px)}99.89%{transform:translateX(-4320px)}99.98%{transform:translateX(-4400px)}}</style><g font-family="Consolas, &quot;Courier New&quot;, Courier, &quot;Liberation Mono&quot;, monospace" font-size="1.67" class="b"><defs><symbol id="1"><text x="0" y="1.67" class="c">$</text><text x="2.004" y="1.67" class="c">ahoy</text></symbol><symbol id="2"><text x="0" y="1.67" class="c">$</text><text x="2.004" y="1.67" class="c">ahoy</text><text x="7.013999999999999" y="1.67" class="c">lint</text></symbol><symbol id="3"><text x="0" y="1.67" class="c">.........</text><text x="10.02" y="1.67" class="c">9</text><text x="12.024" y="1.67" class="c">/</text><text x="14.027999999999999" y="1.67" class="c">9</text><text x="16.032" y="1.67" class="c">(100%)</text></symbol><symbol id="4"><text x="0" y="1.67" class="c">Time:</text><text x="6.012" y="1.67" class="c">2.04</text><text x="11.021999999999998" y="1.67" class="c">secs;</text><text x="17.034" y="1.67" class="c">Memory:</text><text x="25.05" y="1.67" class="c">16MB</text></symbol><symbol id="5"><text x="0" y="1.67" class="c">Note:</text><text x="6.012" y="1.67" class="c">Using</text><text x="12.024" y="1.67" class="c">configuration</text><text x="26.052" y="1.67" class="c">file</text><text x="31.061999999999998" y="1.67" class="c">/app/phpstan.neon.</text></symbol><symbol id="6"><text x="2.004" y="1.67" class="c">0/61</text><text x="7.013999999999999" y="1.67" class="c">[░░░░░░░░░░░░░░░░░░░░░░░░░░░░]</text><text x="40.08" y="1.67" class="c">0%</text></symbol><symbol id="7"><text x="1.002" y="1.67" class="c">16/61</text><text x="7.013999999999999" y="1.67" class="c">[▓▓▓▓▓▓▓░░░░░░░░░░░░░░░░░░░░░]</text><text x="39.077999999999996" y="1.67" class="c">26%</text></symbol><symbol id="8"><text x="1.002" y="1.67" class="c">61/61</text><text x="7.013999999999999" y="1.67" class="c">[▓▓▓▓▓▓▓▓▓▓▓▓▓▓▓▓▓▓▓▓▓▓▓▓▓▓▓▓]</text><text x="38.07599999999999" y="1.67" class="c">100%</text></symbol><symbol id="9"><text x="1.002" y="1.67" class="c">[OK]</text><text x="6.012" y="1.67" class="c">No</text><text x="9.017999999999999" y="1.67" class="c">errors</text></symbol><symbol id="10"><text x="1.002" y="1.67" class="c">[OK]</text><text x="6.012" y="1.67" class="c">Rector</text><text x="13.026" y="1.67" class="c">is</text><text x="16.032" y="1.67" class="c">done!</text></symbol><symbol id="11"><text x="1.002" y="1.67" class="c">[OK]</text><text x="6.012" y="1.67" class="c">Files</text><text x="12.024" y="1.67" class="c">linted:</text><text x="20.04" y="1.67" class="c">3,</text><text x="23.045999999999996" y="1.67" class="c">notices:</text><text x="32.064" y="1.67" class="c">0,</text><text x="35.06999999999999" y="1.67" class="c">warnings:</text><text x="45.089999999999996" y="1.67" class="c">0,</text><text x="48.096" y="1.67" class="c">errors:</text><text x="56.111999999999995" y="1.67" class="c">0</text></symbol><symbol id="12"><text x="0" y="1.67" class="c">yarn</text><text x="5.01" y="1.67" class="c">run</text><text x="9.017999999999999" y="1.67" class="c">v1.22.22</text></symbol><symbol id="13"><text x="0" y="1.67" class="c">$</text><text x="2.004" y="1.67" class="c">yarn</text><text x="7.013999999999999" y="1.67" class="c">run</text><text x="11.021999999999998" y="1.67" class="c">lint-js</text><text x="19.037999999999997" y="1.67" class="c">&amp;&amp;</text><text x="22.043999999999997" y="1.67" class="c">yarn</text><text x="27.054" y="1.67" class="c">run</text><text x="31.061999999999998" y="1.67" class="c">lint-css</text></symbol><symbol id="14"><text x="0" y="1.67" class="c">$</text><text x="2.004" y="1.67" class="c">eslint</text><text x="9.017999999999999" y="1.67" class="c">web/modules/custom</text><text x="28.055999999999997" y="1.67" class="c">--ext</text><text x="34.068" y="1.67" class="c">.js</text><text x="38.07599999999999" y="1.67" class="c">--max-warnings=0</text><text x="55.10999999999999" y="1.67" class="c">--no-error-on-unmatched-p</text></symbol><symbol id="15"><text x="0" y="1.67" class="c">attern</text></symbol><symbol id="16"><text x="0" y="1.67" class="c">$</text><text x="2.004" y="1.67" class="c">stylelint</text><text x="12.024" y="1.67" class="c">--allow-empty-input</text><text x="32.064" y="1.67" class="c">&quot;web/modules/custom/**/*.css&quot;</text></symbol><symbol id="17"><text x="0" y="1.67" class="c">Done</text><text x="5.01" y="1.67" class="c">in</text><text x="8.016" y="1.67" class="c">3.18s.</text></symbol><symbol id="18"><text x="0" y="1.67" class="c">$</text><text x="2.004" y="1.67" class="c">npm</text><text x="6.012" y="1.67" class="c">run</text><text x="10.02" y="1.67" class="c">lint-js</text><text x="18.035999999999998" y="1.67" class="c">&amp;&amp;</text><text x="21.041999999999998" y="1.67" class="c">npm</text><text x="25.05" y="1.67" class="c">run</text><text x="29.058" y="1.67" class="c">lint-css</text></symbol><symbol id="19"><text x="0" y="1.67" class="c">npm</text><text x="4.008" y="1.67" class="c">warn</text><text x="9.017999999999999" y="1.67" class="c">Unknown</text><text x="17.034" y="1.67" class="c">env</text><text x="21.041999999999998" y="1.67" class="c">config</text><text x="28.055999999999997" y="1.67" class="c">&quot;version-commit-hooks&quot;.</text><text x="52.104" y="1.67" class="c">This</text><text x="57.114" y="1.67" class="c">will</text><text x="62.123999999999995" y="1.67" class="c">stop</text><text x="67.134" y="1.67" class="c">working</text><text x="75.14999999999999" y="1.67" class="c">in</text><text x="78.15599999999999" y="1.67" class="c">th</text></symbol><symbol id="20"><text x="0" y="1.67" class="c">e</text><text x="2.004" y="1.67" class="c">next</text><text x="7.013999999999999" y="1.67" class="c">major</text><text x="13.026" y="1.67" class="c">version</text><text x="21.041999999999998" y="1.67" class="c">of</text><text x="24.048" y="1.67" class="c">npm.</text><text x="29.058" y="1.67" class="c">See</text><text x="33.065999999999995" y="1.67" class="c">`npm</text><text x="38.07599999999999" y="1.67" class="c">help</text><text x="43.086" y="1.67" class="c">npmrc`</text><text x="50.1" y="1.67" class="c">for</text><text x="54.108" y="1.67" class="c">supported</text><text x="64.128" y="1.67" class="c">config</text><text x="71.142" y="1.67" class="c">options.</text></symbol><symbol id="21"><text x="0" y="1.67" class="c">npm</text><text x="4.008" y="1.67" class="c">warn</text><text x="9.017999999999999" y="1.67" class="c">Unknown</text><text x="17.034" y="1.67" class="c">env</text><text x="21.041999999999998" y="1.67" class="c">config</text><text x="28.055999999999997" y="1.67" class="c">&quot;version-tag-prefix&quot;.</text><text x="50.1" y="1.67" class="c">This</text><text x="55.10999999999999" y="1.67" class="c">will</text><text x="60.11999999999999" y="1.67" class="c">stop</text><text x="65.13" y="1.67" class="c">working</text><text x="73.146" y="1.67" class="c">in</text><text x="76.15199999999999" y="1.67" class="c">the</text></symbol><symbol id="22"><text x="0" y="1.67" class="c">next</text><text x="5.01" y="1.67" class="c">major</text><text x="11.021999999999998" y="1.67" class="c">version</text><text x="19.037999999999997" y="1.67" class="c">of</text><text x="22.043999999999997" y="1.67" class="c">npm.</text><text x="27.054" y="1.67" class="c">See</text><text x="31.061999999999998" y="1.67" class="c">`npm</text><text x="36.071999999999996" y="1.67" class="c">help</text><text x="41.082" y="1.67" class="c">npmrc`</text><text x="48.096" y="1.67" class="c">for</text><text x="52.104" y="1.67" class="c">supported</text><text x="62.123999999999995" y="1.67" class="c">config</text><text x="69.13799999999999" y="1.67" class="c">options.</text></symbol><symbol id="23"><text x="0" y="1.67" class="c">npm</text><text x="4.008" y="1.67" class="c">warn</text><text x="9.017999999999999" y="1.67" class="c">Unknown</text><text x="17.034" y="1.67" class="c">env</text><text x="21.041999999999998" y="1.67" class="c">config</text><text x="28.055999999999997" y="1.67" class="c">&quot;version-git-message&quot;.</text><text x="51.102" y="1.67" class="c">This</text><text x="56.111999999999995" y="1.67" class="c">will</text><text x="61.12199999999999" y="1.67" class="c">stop</text><text x="66.13199999999999" y="1.67" class="c">working</text><text x="74.148" y="1.67" class="c">in</text><text x="77.154" y="1.67" class="c">the</text></symbol><symbol id="24"><text x="1.002" y="1.67" class="c">next</text><text x="6.012" y="1.67" class="c">major</text><text x="12.024" y="1.67" class="c">version</text><text x="20.04" y="1.67" class="c">of</text><text x="23.045999999999996" y="1.67" class="c">npm.</text><text x="28.055999999999997" y="1.67" class="c">See</text><text x="32.064" y="1.67" class="c">`npm</text><text x="37.074" y="1.67" class="c">help</text><text x="42.083999999999996" y="1.67" class="c">npmrc`</text><text x="49.098" y="1.67" class="c">for</text><text x="53.105999999999995" y="1.67" class="c">supported</text><text x="63.12599999999999" y="1.67" class="c">config</text><text x="70.13999999999999" y="1.67" class="c">options.</text></symbol><symbol id="25"><text x="0" y="1.67" class="c">npm</text><text x="4.008" y="1.67" class="c">warn</text><text x="9.017999999999999" y="1.67" class="c">Unknown</text><text x="17.034" y="1.67" class="c">env</text><text x="21.041999999999998" y="1.67" class="c">config</text><text x="28.055999999999997" y="1.67" class="c">&quot;argv&quot;.</text><text x="36.071999999999996" y="1.67" class="c">This</text><text x="41.082" y="1.67" class="c">will</text><text x="46.09199999999999" y="1.67" class="c">stop</text><text x="51.102" y="1.67" class="c">working</text><text x="59.117999999999995" y="1.67" class="c">in</text><text x="62.123999999999995" y="1.67" class="c">the</text><text x="66.13199999999999" y="1.67" class="c">next</text><text x="71.142" y="1.67" class="c">major</text><text x="77.154" y="1.67" class="c">ver</text></symbol><symbol id="26"><text x="0" y="1.67" class="c">sion</text><text x="5.01" y="1.67" class="c">of</text><text x="8.016" y="1.67" class="c">npm.</text><text x="13.026" y="1.67" class="c">See</text><text x="17.034" y="1.67" class="c">`npm</text><text x="22.043999999999997" y="1.67" class="c">help</text><text x="27.054" y="1.67" class="c">npmrc`</text><text x="34.068" y="1.67" class="c">for</text><text x="38.07599999999999" y="1.67" class="c">supported</text><text x="48.096" y="1.67" class="c">config</text><text x="55.10999999999999" y="1.67" class="c">options.</text></symbol><symbol id="27"><text x="0" y="1.67" class="c">npm</text><text x="4.008" y="1.67" class="c">warn</text><text x="9.017999999999999" y="1.67" class="c">Unknown</text><text x="17.034" y="1.67" class="c">env</text><text x="21.041999999999998" y="1.67" class="c">config</text><text x="28.055999999999997" y="1.67" class="c">&quot;unsafe-perm&quot;.</text><text x="43.086" y="1.67" class="c">This</text><text x="48.096" y="1.67" class="c">will</text><text x="53.105999999999995" y="1.67" class="c">stop</text><text x="58.116" y="1.67" class="c">working</text><text x="66.13199999999999" y="1.67" class="c">in</text><text x="69.13799999999999" y="1.67" class="c">the</text><text x="73.146" y="1.67" class="c">next</text><text x="78.15599999999999" y="1.67" class="c">ma</text></symbol><symbol id="28"><text x="0" y="1.67" class="c">jor</text><text x="4.008" y="1.67" class="c">version</text><text x="12.024" y="1.67" class="c">of</text><text x="15.029999999999998" y="1.67" class="c">npm.</text><text x="20.04" y="1.67" class="c">See</text><text x="24.048" y="1.67" class="c">`npm</text><text x="29.058" y="1.67" class="c">help</text><text x="34.068" y="1.67" class="c">npmrc`</text><text x="41.082" y="1.67" class="c">for</text><text x="45.089999999999996" y="1.67" class="c">supported</text><text x="55.10999999999999" y="1.67" class="c">config</text><text x="62.123999999999995" y="1.67" class="c">options.</text></symbol><symbol id="29"><text x="0" y="1.67" class="c">npm</text><text x="4.008" y="1.67" class="c">warn</text><text x="9.017999999999999" y="1.67" class="c">Unknown</text><text x="17.034" y="1.67" class="c">env</text><text x="21.041999999999998" y="1.67" class="c">config</text><text x="28.055999999999997" y="1.67" class="c">&quot;version-git-tag&quot;.</text><text x="47.093999999999994" y="1.67" class="c">This</text><text x="52.104" y="1.67" class="c">will</text><text x="57.114" y="1.67" class="c">stop</text><text x="62.123999999999995" y="1.67" class="c">working</text><text x="70.13999999999999" y="1.67" class="c">in</text><text x="73.146" y="1.67" class="c">the</text><text x="77.154" y="1.67" class="c">nex</text></symbol><symbol id="30"><text x="0" y="1.67" class="c">t</text><text x="2.004" y="1.67" class="c">major</text><text x="8.016" y="1.67" class="c">version</text><text x="16.032" y="1.67" class="c">of</text><text x="19.037999999999997" y="1.67" class="c">npm.</text><text x="24.048" y="1.67" class="c">See</text><text x="28.055999999999997" y="1.67" class="c">`npm</text><text x="33.065999999999995" y="1.67" class="c">help</text><text x="38.07599999999999" y="1.67" class="c">npmrc`</text><text x="45.089999999999996" y="1.67" class="c">for</text><text x="49.098" y="1.67" class="c">supported</text><text x="59.117999999999995" y="1.67" class="c">config</text><text x="66.13199999999999" y="1.67" class="c">options.</text></symbol><symbol id="31"><text x="0" y="1.67" class="c">npm</text><text x="4.008" y="1.67" class="c">warn</text><text x="9.017999999999999" y="1.67" class="c">Unknown</text><text x="17.034" y="1.67" class="c">project</text><text x="25.05" y="1.67" class="c">config</text><text x="32.064" y="1.67" class="c">&quot;unsafe-perm&quot;.</text><text x="47.093999999999994" y="1.67" class="c">This</text><text x="52.104" y="1.67" class="c">will</text><text x="57.114" y="1.67" class="c">stop</text><text x="62.123999999999995" y="1.67" class="c">working</text><text x="70.13999999999999" y="1.67" class="c">in</text><text x="73.146" y="1.67" class="c">the</text><text x="77.154" y="1.67" class="c">nex</text></symbol><symbol id="32"><text x="0" y="1.67" class="c">&gt;</text><text x="2.004" y="1.67" class="c">star_wars@1.0.0</text><text x="18.035999999999998" y="1.67" class="c">lint-js</text></symbol><symbol id="33"><text x="0" y="1.67" class="c">&gt;</text><text x="2.004" y="1.67" class="c">eslint</text><text x="9.017999999999999" y="1.67" class="c">&#x27;js/**/*.js&#x27;</text><text x="22.043999999999997" y="1.67" class="c">--ignore-pattern</text><text x="39.077999999999996" y="1.67" class="c">&#x27;*.min.js&#x27;</text></symbol><symbol id="34"><text x="0" y="1.67" class="c">&gt;</text><text x="2.004" y="1.67" class="c">star_wars@1.0.0</text><text x="18.035999999999998" y="1.67" class="c">lint-css</text></symbol><symbol id="35"><text x="0" y="1.67" class="c">&gt;</text><text x="2.004" y="1.67" class="c">stylelint</text><text x="12.024" y="1.67" class="c">&#x27;scss/**/*.scss&#x27;</text></symbol><symbol id="36"><text x="0" y="1.67" class="c">Done</text><text x="5.01" y="1.67" class="c">in</text><text x="8.016" y="1.67" class="c">3.00s.</text></symbol><symbol id="37"><text x="0" y="1.67" class="c">Using</text><text x="6.012" y="1.67" class="c">config</text><text x="13.026" y="1.67" class="c">file</text><text x="18.035999999999998" y="1.67" class="c">&quot;gherkinlint.json&quot;</text></symbol><symbol id="a"><rect height="42" width="80" x="0" y="0" class="d"></rect></symbol><symbol id="b"><rect height="1.837" width="1.1022" class="e"></rect></symbol></defs><rect height="77.15400000000001" width="80" class="a"></rect><g class="g"><svg x="0" y="0" width="4480"><svg x="0"><use xlink:href="#a"></use><use xlink:href="#b" x="-0.0040000000000000036" y="0"></use></svg><svg x="80"><use xlink:href="#a"></use><use xlink:href="#b" x="1.996" y="0"></use><text x="0" y="1.67" class="c">$</text></svg><svg x="160"><use xlink:href="#a"></use><use xlink:href="#b" x="2.996" y="0"></use><text x="0" y="1.67" class="c">$</text><text x="2.004" y="1.67" class="c">a</text></svg><svg x="240"><use xlink:href="#a"></use><use xlink:href="#b" x="3.996" y="0"></use><text x="0" y="1.67" class="c">$</text><text x="2.004" y="1.67" class="c">ah</text></svg><svg x="320"><use xlink:href="#a"></use><use xlink:href="#b" x="4.996" y="0"></use><text x="0" y="1.67" class="c">$</text><text x="2.004" y="1.67" class="c">aho</text></svg><svg x="400"><use xlink:href="#a"></use><use xlink:href="#b" x="5.996" y="0"></use><use xlink:href="#1" y="0"></use></svg><svg x="480"><use xlink:href="#a"></use><use xlink:href="#b" x="6.996" y="0"></use><use xlink:href="#1" y="0"></use></svg><svg x="560"><use xlink:href="#a"></use><use xlink:href="#b" x="7.996" y="0"></use><text x="0" y="1.67" class="c">$</text><text x="2.004" y="1.67" class="c">ahoy</text><text x="7.013999999999999" y="1.67" class="c">l</text></svg><svg x="640"><use xlink:href="#a"></use><use xlink:href="#b" x="8.996" y="0"></use><text x="0" y="1.67" class="c">$</text><text x="2.004" y="1.67" class="c">ahoy</text><text x="7.013999999999999" y="1.67" class="c">li</text></svg><svg x="720"><use xlink:href="#a"></use><use xlink:href="#b" x="9.996" y="0"></use><text x="0" y="1.67" class="c">$</text><text x="2.004" y="1.67" class="c">ahoy</text><text x="7.013999999999999" y="1.67" class="c">lin</text></svg><svg x="800"><use xlink:href="#a"></use><use xlink:href="#b" x="10.996" y="0"></use><use xlink:href="#2" y="0"></use></svg><svg x="880"><use xlink:href="#a"></use><use xlink:href="#b" x="-0.0040000000000000036" y="1.662"></use><use xlink:href="#2" y="0"></use></svg><svg x="960"><use xlink:href="#a"></use><use xlink:href="#b" x="0.996" y="1.662"></use><use xlink:href="#2" y="0"></use><text x="0" y="3.5069999999999997" class="c">.</text></svg><svg x="1040"><use xlink:href="#a"></use><use xlink:href="#b" x="1.996" y="1.662"></use><use xlink:href="#2" y="0"></use><text x="0" y="3.5069999999999997" class="c">..</text></svg><svg x="1120"><use xlink:href="#a"></use><use xlink:href="#b" x="2.996" y="1.662"></use><use xlink:href="#2" y="0"></use><text x="0" y="3.5069999999999997" class="c">...</text></svg><svg x="1200"><use xlink:href="#a"></use><use xlink:href="#b" x="3.996" y="1.662"></use><use xlink:href="#2" y="0"></use><text x="0" y="3.5069999999999997" class="c">....</text></svg><svg x="1280"><use xlink:href="#a"></use><use xlink:href="#b" x="4.996" y="1.662"></use><use xlink:href="#2" y="0"></use><text x="0" y="3.5069999999999997" class="c">.....</text></svg><svg x="1360"><use xlink:href="#a"></use><use xlink:href="#b" x="5.996" y="1.662"></use><use xlink:href="#2" y="0"></use><text x="0" y="3.5069999999999997" class="c">......</text></svg><svg x="1440"><use xlink:href="#a"></use><use xlink:href="#b" x="6.996" y="1.662"></use><use xlink:href="#2" y="0"></use><text x="0" y="3.5069999999999997" class="c">.......</text></svg><svg x="1520"><use xlink:href="#a"></use><use xlink:href="#b" x="7.996" y="1.662"></use><use xlink:href="#2" y="0"></use><text x="0" y="3.5069999999999997" class="c">........</text></svg><svg x="1600"><use xlink:href="#a"></use><use xlink:href="#b" x="-0.0040000000000000036" y="7.173"></use><use xlink:href="#2" y="0"></use><use xlink:href="#3" y="1.837"></use></svg><svg x="1680"><use xlink:href="#a"></use><use xlink:href="#b" x="-0.0040000000000000036" y="9.01"></use><use xlink:href="#2" y="0"></use><use xlink:href="#3" y="1.837"></use><use xlink:href="#4" y="7.348"></use></svg><svg x="1760"><use xlink:href="#a"></use><use xlink:href="#b" x="-0.0040000000000000036" y="10.847"></use><use xlink:href="#2" y="0"></use><use xlink:href="#3" y="1.837"></use><use xlink:href="#4" y="7.348"></use><use xlink:href="#5" y="9.185"></use></svg><svg x="1840"><use xlink:href="#a"></use><use xlink:href="#b" x="41.996" y="10.847"></use><use xlink:href="#2" y="0"></use><use xlink:href="#3" y="1.837"></use><use xlink:href="#4" y="7.348"></use><use xlink:href="#5" y="9.185"></use><use xlink:href="#6" y="11.022"></use></svg><svg x="1920"><use xlink:href="#a"></use><use xlink:href="#b" x="41.996" y="10.847"></use><use xlink:href="#2" y="0"></use><use xlink:href="#3" y="1.837"></use><use xlink:href="#4" y="7.348"></use><use xlink:href="#5" y="9.185"></use><use xlink:href="#7" y="11.022"></use></svg><svg x="2000"><use xlink:href="#a"></use><use xlink:href="#b" x="-0.0040000000000000036" y="10.847"></use><use xlink:href="#2" y="0"></use><use xlink:href="#3" y="1.837"></use><use xlink:href="#4" y="7.348"></use><use xlink:href="#5" y="9.185"></use></svg><svg x="2080"><use xlink:href="#a"></use><use xlink:href="#b" x="41.996" y="10.847"></use><use xlink:href="#2" y="0"></use><use xlink:href="#3" y="1.837"></use><use xlink:href="#4" y="7.348"></use><use xlink:href="#5" y="9.185"></use><text x="1.002" y="12.692" class="c">46/61</text><text x="7.013999999999999" y="12.692" class="c">[▓▓▓▓▓▓▓▓▓▓▓▓▓▓▓▓▓▓▓▓▓░░░░░░░]</text><text x="39.077999999999996" y="12.692" class="c">75%</text></svg><svg x="2160"><use xlink:href="#a"></use><use xlink:href="#b" x="41.996" y="10.847"></use><use xlink:href="#2" y="0"></use><use xlink:href="#3" y="1.837"></use><use xlink:href="#4" y="7.348"></use><use xlink:href="#5" y="9.185"></use><use xlink:href="#8" y="11.022"></use></svg><svg x="2240"><use xlink:href="#a"></use><use xlink:href="#b" x="-0.0040000000000000036" y="14.520999999999999"></use><use xlink:href="#2" y="0"></use><use xlink:href="#3" y="1.837"></use><use xlink:href="#4" y="7.348"></use><use xlink:href="#5" y="9.185"></use><use xlink:href="#8" y="11.022"></use></svg><svg x="2320"><use xlink:href="#a"></use><use xlink:href="#b" x="-0.0040000000000000036" y="16.358"></use><use xlink:href="#2" y="0"></use><use xlink:href="#3" y="1.837"></use><use xlink:href="#4" y="7.348"></use><use xlink:href="#5" y="9.185"></use><use xlink:href="#8" y="11.022"></use></svg><svg x="2400"><use xlink:href="#a"></use><use xlink:href="#b" x="-0.0040000000000000036" y="20.031999999999996"></use><use xlink:href="#2" y="0"></use><use xlink:href="#3" y="1.837"></use><use xlink:href="#4" y="7.348"></use><use xlink:href="#5" y="9.185"></use><use xlink:href="#8" y="11.022"></use><use xlink:href="#9" y="16.533"></use></svg><svg x="2480"><use xlink:href="#a"></use><use xlink:href="#b" x="41.996" y="20.031999999999996"></use><use xlink:href="#2" y="0"></use><use xlink:href="#3" y="1.837"></use><use xlink:href="#4" y="7.348"></use><use xlink:href="#5" y="9.185"></use><use xlink:href="#8" y="11.022"></use><use xlink:href="#9" y="16.533"></use><use xlink:href="#6" y="20.206999999999997"></use></svg><svg x="2560"><use xlink:href="#a"></use><use xlink:href="#b" x="41.996" y="20.031999999999996"></use><use xlink:href="#2" y="0"></use><use xlink:href="#3" y="1.837"></use><use xlink:href="#4" y="7.348"></use><use xlink:href="#5" y="9.185"></use><use xlink:href="#8" y="11.022"></use><use xlink:href="#9" y="16.533"></use><use xlink:href="#7" y="20.206999999999997"></use></svg><svg x="2640"><use xlink:href="#a"></use><use xlink:href="#b" x="41.996" y="20.031999999999996"></use><use xlink:href="#2" y="0"></use><use xlink:href="#3" y="1.837"></use><use xlink:href="#4" y="7.348"></use><use xlink:href="#5" y="9.185"></use><use xlink:href="#8" y="11.022"></use><use xlink:href="#9" y="16.533"></use><text x="1.002" y="21.876999999999995" class="c">29/61</text><text x="7.013999999999999" y="21.876999999999995" class="c">[▓▓▓▓▓▓▓▓▓▓▓▓▓░░░░░░░░░░░░░░░]</text><text x="39.077999999999996" y="21.876999999999995" class="c">47%</text></svg><svg x="2720"><use xlink:href="#a"></use><use xlink:href="#b" x="41.996" y="20.031999999999996"></use><use xlink:href="#2" y="0"></use><use xlink:href="#3" y="1.837"></use><use xlink:href="#4" y="7.348"></use><use xlink:href="#5" y="9.185"></use><use xlink:href="#8" y="11.022"></use><use xlink:href="#9" y="16.533"></use><text x="1.002" y="21.876999999999995" class="c">45/61</text><text x="7.013999999999999" y="21.876999999999995" class="c">[▓▓▓▓▓▓▓▓▓▓▓▓▓▓▓▓▓▓▓▓░░░░░░░░]</text><text x="39.077999999999996" y="21.876999999999995" class="c">73%</text></svg><svg x="2800"><use xlink:href="#a"></use><use xlink:href="#b" x="41.996" y="20.031999999999996"></use><use xlink:href="#2" y="0"></use><use xlink:href="#3" y="1.837"></use><use xlink:href="#4" y="7.348"></use><use xlink:href="#5" y="9.185"></use><use xlink:href="#8" y="11.022"></use><use xlink:href="#9" y="16.533"></use><use xlink:href="#8" y="20.206999999999997"></use></svg><svg x="2880"><use xlink:href="#a"></use><use xlink:href="#b" x="-0.0040000000000000036" y="23.706000000000003"></use><use xlink:href="#2" y="0"></use><use xlink:href="#3" y="1.837"></use><use xlink:href="#4" y="7.348"></use><use xlink:href="#5" y="9.185"></use><use xlink:href="#8" y="11.022"></use><use xlink:href="#9" y="16.533"></use><use xlink:href="#8" y="20.206999999999997"></use></svg><svg x="2960"><use xlink:href="#a"></use><use xlink:href="#b" x="-0.0040000000000000036" y="27.38"></use><use xlink:href="#2" y="0"></use><use xlink:href="#3" y="1.837"></use><use xlink:href="#4" y="7.348"></use><use xlink:href="#5" y="9.185"></use><use xlink:href="#8" y="11.022"></use><use xlink:href="#9" y="16.533"></use><use xlink:href="#8" y="20.206999999999997"></use><use xlink:href="#10" y="23.881000000000004"></use></svg><svg x="3040"><use xlink:href="#a"></use><use xlink:href="#b" x="-0.0040000000000000036" y="29.217"></use><use xlink:href="#2" y="0"></use><use xlink:href="#3" y="1.837"></use><use xlink:href="#4" y="7.348"></use><use xlink:href="#5" y="9.185"></use><use xlink:href="#8" y="11.022"></use><use xlink:href="#9" y="16.533"></use><use xlink:href="#8" y="20.206999999999997"></use><use xlink:href="#10" y="23.881000000000004"></use></svg><svg x="3120"><use xlink:href="#a"></use><use xlink:href="#b" x="-0.0040000000000000036" y="32.891000000000005"></use><use xlink:href="#2" y="0"></use><use xlink:href="#3" y="1.837"></use><use xlink:href="#4" y="7.348"></use><use xlink:href="#5" y="9.185"></use><use xlink:href="#8" y="11.022"></use><use xlink:href="#9" y="16.533"></use><use xlink:href="#8" y="20.206999999999997"></use><use xlink:href="#10" y="23.881000000000004"></use><use xlink:href="#11" y="29.392"></use></svg><svg x="3200"><use xlink:href="#a"></use><use xlink:href="#b" x="-0.0040000000000000036" y="34.728"></use><use xlink:href="#2" y="0"></use><use xlink:href="#3" y="1.837"></use><use xlink:href="#4" y="7.348"></use><use xlink:href="#5" y="9.185"></use><use xlink:href="#8" y="11.022"></use><use xlink:href="#9" y="16.533"></use><use xlink:href="#8" y="20.206999999999997"></use><use xlink:href="#10" y="23.881000000000004"></use><use xlink:href="#11" y="29.392"></use><use xlink:href="#12" y="33.066"></use></svg><svg x="3280"><use xlink:href="#a"></use><use xlink:href="#b" x="-0.0040000000000000036" y="36.565000000000005"></use><use xlink:href="#2" y="0"></use><use xlink:href="#3" y="1.837"></use><use xlink:href="#4" y="7.348"></use><use xlink:href="#5" y="9.185"></use><use xlink:href="#8" y="11.022"></use><use xlink:href="#9" y="16.533"></use><use xlink:href="#8" y="20.206999999999997"></use><use xlink:href="#10" y="23.881000000000004"></use><use xlink:href="#11" y="29.392"></use><use xlink:href="#12" y="33.066"></use><use xlink:href="#13" y="34.903"></use></svg><svg x="3360"><use xlink:href="#a"></use><use xlink:href="#b" x="-0.0040000000000000036" y="40.239"></use><use xlink:href="#2" y="0"></use><use xlink:href="#3" y="1.837"></use><use xlink:href="#4" y="7.348"></use><use xlink:href="#5" y="9.185"></use><use xlink:href="#8" y="11.022"></use><use xlink:href="#9" y="16.533"></use><use xlink:href="#8" y="20.206999999999997"></use><use xlink:href="#10" y="23.881000000000004"></use><use xlink:href="#11" y="29.392"></use><use xlink:href="#12" y="33.066"></use><use xlink:href="#13" y="34.903"></use><use xlink:href="#14" y="36.74"></use><use xlink:href="#15" y="38.577000000000005"></use></svg><svg x="3440"><use xlink:href="#a"></use><use xlink:href="#b" x="-0.0040000000000000036" y="42.076"></use><use xlink:href="#2" y="0"></use><use xlink:href="#3" y="1.837"></use><use xlink:href="#4" y="7.348"></use><use xlink:href="#5" y="9.185"></use><use xlink:href="#8" y="11.022"></use><use xlink:href="#9" y="16.533"></use><use xlink:href="#8" y="20.206999999999997"></use><use xlink:href="#10" y="23.881000000000004"></use><use xlink:href="#11" y="29.392"></use><use xlink:href="#12" y="33.066"></use><use xlink:href="#13" y="34.903"></use><use xlink:href="#14" y="36.74"></use><use xlink:href="#15" y="38.577000000000005"></use><use xlink:href="#16" y="40.413999999999994"></use></svg><svg x="3520"><use xlink:href="#a"></use><use xlink:href="#b" x="-0.0040000000000000036" y="43.913000000000004"></use><use xlink:href="#2" y="0"></use><use xlink:href="#3" y="1.837"></use><use xlink:href="#4" y="7.348"></use><use xlink:href="#5" y="9.185"></use><use xlink:href="#8" y="11.022"></use><use xlink:href="#9" y="16.533"></use><use xlink:href="#8" y="20.206999999999997"></use><use xlink:href="#10" y="23.881000000000004"></use><use xlink:href="#11" y="29.392"></use><use xlink:href="#12" y="33.066"></use><use xlink:href="#13" y="34.903"></use><use xlink:href="#14" y="36.74"></use><use xlink:href="#15" y="38.577000000000005"></use><use xlink:href="#16" y="40.413999999999994"></use><use xlink:href="#17" y="42.251"></use></svg><svg x="3600"><use xlink:href="#a"></use><use xlink:href="#b" x="-0.0040000000000000036" y="45.75000000000001"></use><use xlink:href="#2" y="0"></use><use xlink:href="#3" y="1.837"></use><use xlink:href="#4" y="7.348"></use><use xlink:href="#5" y="9.185"></use><use xlink:href="#8" y="11.022"></use><use xlink:href="#9" y="16.533"></use><use xlink:href="#8" y="20.206999999999997"></use><use xlink:href="#10" y="23.881000000000004"></use><use xlink:href="#11" y="29.392"></use><use xlink:href="#12" y="33.066"></use><use xlink:href="#13" y="34.903"></use><use xlink:href="#14" y="36.74"></use><use xlink:href="#15" y="38.577000000000005"></use><use xlink:href="#16" y="40.413999999999994"></use><use xlink:href="#17" y="42.251"></use><use xlink:href="#12" y="44.088"></use></svg><svg x="3680"><use xlink:href="#a"></use><use xlink:href="#b" x="-0.0040000000000000036" y="47.58700000000001"></use><use xlink:href="#2" y="0"></use><use xlink:href="#3" y="1.837"></use><use xlink:href="#4" y="7.348"></use><use xlink:href="#5" y="9.185"></use><use xlink:href="#8" y="11.022"></use><use xlink:href="#9" y="16.533"></use><use xlink:href="#8" y="20.206999999999997"></use><use xlink:href="#10" y="23.881000000000004"></use><use xlink:href="#11" y="29.392"></use><use xlink:href="#12" y="33.066"></use><use xlink:href="#13" y="34.903"></use><use xlink:href="#14" y="36.74"></use><use xlink:href="#15" y="38.577000000000005"></use><use xlink:href="#16" y="40.413999999999994"></use><use xlink:href="#17" y="42.251"></use><use xlink:href="#12" y="44.088"></use><use xlink:href="#18" y="45.925000000000004"></use></svg><svg x="3760"><use xlink:href="#a"></use><use xlink:href="#b" x="10.996" y="71.468"></use><use xlink:href="#2" y="0"></use><use xlink:href="#3" y="1.837"></use><use xlink:href="#4" y="7.348"></use><use xlink:href="#5" y="9.185"></use><use xlink:href="#8" y="11.022"></use><use xlink:href="#9" y="16.533"></use><use xlink:href="#8" y="20.206999999999997"></use><use xlink:href="#10" y="23.881000000000004"></use><use xlink:href="#11" y="29.392"></use><use xlink:href="#12" y="33.066"></use><use xlink:href="#13" y="34.903"></use><use xlink:href="#14" y="36.74"></use><use xlink:href="#15" y="38.577000000000005"></use><use xlink:href="#16" y="40.413999999999994"></use><use xlink:href="#17" y="42.251"></use><use xlink:href="#12" y="44.088"></use><use xlink:href="#18" y="45.925000000000004"></use><use xlink:href="#19" y="47.76200000000001"></use><use xlink:href="#20" y="49.599"></use><use xlink:href="#21" y="51.436"></use><use xlink:href="#22" y="53.273"></use><use xlink:href="#23" y="55.11"></use><use xlink:href="#24" y="56.947"></use><use xlink:href="#25" y="58.784"></use><use xlink:href="#26" y="60.621"></use><use xlink:href="#27" y="62.458000000000006"></use><use xlink:href="#28" y="64.295"></use><use xlink:href="#29" y="66.132"></use><use xlink:href="#30" y="67.96900000000001"></use><use xlink:href="#31" y="69.806"></use><text x="0" y="73.313" class="c">t</text><text x="2.004" y="73.313" class="c">major</text><text x="8.016" y="73.313" class="c">ver</text></svg><svg x="3840"><use xlink:href="#a"></use><use xlink:href="#b" x="-0.0040000000000000036" y="73.305"></use><use xlink:href="#2" y="0"></use><use xlink:href="#3" y="1.837"></use><use xlink:href="#4" y="7.348"></use><use xlink:href="#5" y="9.185"></use><use xlink:href="#8" y="11.022"></use><use xlink:href="#9" y="16.533"></use><use xlink:href="#8" y="20.206999999999997"></use><use xlink:href="#10" y="23.881000000000004"></use><use xlink:href="#11" y="29.392"></use><use xlink:href="#12" y="33.066"></use><use xlink:href="#13" y="34.903"></use><use xlink:href="#14" y="36.74"></use><use xlink:href="#15" y="38.577000000000005"></use><use xlink:href="#16" y="40.413999999999994"></use><use xlink:href="#17" y="42.251"></use><use xlink:href="#12" y="44.088"></use><use xlink:href="#18" y="45.925000000000004"></use><use xlink:href="#19" y="47.76200000000001"></use><use xlink:href="#20" y="49.599"></use><use xlink:href="#21" y="51.436"></use><use xlink:href="#22" y="53.273"></use><use xlink:href="#23" y="55.11"></use><use xlink:href="#24" y="56.947"></use><use xlink:href="#25" y="58.784"></use><use xlink:href="#26" y="60.621"></use><use xlink:href="#27" y="62.458000000000006"></use><use xlink:href="#28" y="64.295"></use><use xlink:href="#29" y="66.132"></use><use xlink:href="#30" y="67.96900000000001"></use><use xlink:href="#31" y="69.806"></use><use xlink:href="#30" y="71.643"></use></svg><svg x="3920"><use xlink:href="#a"></use><use xlink:href="#b" x="-0.0040000000000000036" y="75.14200000000001"></use><use xlink:href="#4" y="1.837"></use><use xlink:href="#5" y="3.674"></use><use xlink:href="#8" y="5.511"></use><use xlink:href="#9" y="11.022"></use><use xlink:href="#8" y="14.696"></use><use xlink:href="#10" y="18.37"></use><use xlink:href="#11" y="23.881000000000004"></use><use xlink:href="#12" y="27.555"></use><use xlink:href="#13" y="29.392"></use><use xlink:href="#14" y="31.229000000000003"></use><use xlink:href="#15" y="33.066"></use><use xlink:href="#16" y="34.903"></use><use xlink:href="#17" y="36.74"></use><use xlink:href="#12" y="38.577000000000005"></use><use xlink:href="#18" y="40.413999999999994"></use><use xlink:href="#19" y="42.251"></use><use xlink:href="#20" y="44.088"></use><use xlink:href="#21" y="45.925000000000004"></use><use xlink:href="#22" y="47.76200000000001"></use><use xlink:href="#23" y="49.599"></use><use xlink:href="#24" y="51.436"></use><use xlink:href="#25" y="53.273"></use><use xlink:href="#26" y="55.11"></use><use xlink:href="#27" y="56.947"></use><use xlink:href="#28" y="58.784"></use><use xlink:href="#29" y="60.621"></use><use xlink:href="#30" y="62.458000000000006"></use><use xlink:href="#31" y="64.295"></use><use xlink:href="#30" y="66.132"></use><use xlink:href="#32" y="69.806"></use><use xlink:href="#33" y="71.643"></use></svg><svg x="4000"><use xlink:href="#a"></use><use xlink:href="#b" x="-0.0040000000000000036" y="75.14200000000001"></use><use xlink:href="#5" y="0"></use><use xlink:href="#8" y="1.837"></use><use xlink:href="#9" y="7.348"></use><use xlink:href="#8" y="11.022"></use><use xlink:href="#10" y="14.696"></use><use xlink:href="#11" y="20.206999999999997"></use><use xlink:href="#12" y="23.881000000000004"></use><use xlink:href="#13" y="25.718"></use><use xlink:href="#14" y="27.555"></use><use xlink:href="#15" y="29.392"></use><use xlink:href="#16" y="31.229000000000003"></use><use xlink:href="#17" y="33.066"></use><use xlink:href="#12" y="34.903"></use><use xlink:href="#18" y="36.74"></use><use xlink:href="#19" y="38.577000000000005"></use><use xlink:href="#20" y="40.413999999999994"></use><use xlink:href="#21" y="42.251"></use><use xlink:href="#22" y="44.088"></use><use xlink:href="#23" y="45.925000000000004"></use><use xlink:href="#24" y="47.76200000000001"></use><use xlink:href="#25" y="49.599"></use><use xlink:href="#26" y="51.436"></use><use xlink:href="#27" y="53.273"></use><use xlink:href="#28" y="55.11"></use><use xlink:href="#29" y="56.947"></use><use xlink:href="#30" y="58.784"></use><use xlink:href="#31" y="60.621"></use><use xlink:href="#30" y="62.458000000000006"></use><use xlink:href="#32" y="66.132"></use><use xlink:href="#33" y="67.96900000000001"></use><use xlink:href="#19" y="71.643"></use><use xlink:href="#20" y="73.48"></use></svg><svg x="4080"><use xlink:href="#a"></use><use xlink:href="#b" x="-0.0040000000000000036" y="75.14200000000001"></use><use xlink:href="#12" y="1.837"></use><use xlink:href="#13" y="3.674"></use><use xlink:href="#14" y="5.511"></use><use xlink:href="#15" y="7.348"></use><use xlink:href="#16" y="9.185"></use><use xlink:href="#17" y="11.022"></use><use xlink:href="#12" y="12.859"></use><use xlink:href="#18" y="14.696"></use><use xlink:href="#19" y="16.533"></use><use xlink:href="#20" y="18.37"></use><use xlink:href="#21" y="20.206999999999997"></use><use xlink:href="#22" y="22.044"></use><use xlink:href="#23" y="23.881000000000004"></use><use xlink:href="#24" y="25.718"></use><use xlink:href="#25" y="27.555"></use><use xlink:href="#26" y="29.392"></use><use xlink:href="#27" y="31.229000000000003"></use><use xlink:href="#28" y="33.066"></use><use xlink:href="#29" y="34.903"></use><use xlink:href="#30" y="36.74"></use><use xlink:href="#31" y="38.577000000000005"></use><use xlink:href="#30" y="40.413999999999994"></use><use xlink:href="#32" y="44.088"></use><use xlink:href="#33" y="45.925000000000004"></use><use xlink:href="#19" y="49.599"></use><use xlink:href="#20" y="51.436"></use><use xlink:href="#21" y="53.273"></use><use xlink:href="#22" y="55.11"></use><use xlink:href="#23" y="56.947"></use><use xlink:href="#24" y="58.784"></use><use xlink:href="#25" y="60.621"></use><use xlink:href="#26" y="62.458000000000006"></use><use xlink:href="#27" y="64.295"></use><use xlink:href="#28" y="66.132"></use><use xlink:href="#29" y="67.96900000000001"></use><use xlink:href="#30" y="69.806"></use><use xlink:href="#31" y="71.643"></use><use xlink:href="#30" y="73.48"></use></svg><svg x="4160"><use xlink:href="#a"></use><use xlink:href="#b" x="-0.0040000000000000036" y="75.14200000000001"></use><use xlink:href="#15" y="0"></use><use xlink:href="#16" y="1.837"></use><use xlink:href="#17" y="3.674"></use><use xlink:href="#12" y="5.511"></use><use xlink:href="#18" y="7.348"></use><use xlink:href="#19" y="9.185"></use><use xlink:href="#20" y="11.022"></use><use xlink:href="#21" y="12.859"></use><use xlink:href="#22" y="14.696"></use><use xlink:href="#23" y="16.533"></use><use xlink:href="#24" y="18.37"></use><use xlink:href="#25" y="20.206999999999997"></use><use xlink:href="#26" y="22.044"></use><use xlink:href="#27" y="23.881000000000004"></use><use xlink:href="#28" y="25.718"></use><use xlink:href="#29" y="27.555"></use><use xlink:href="#30" y="29.392"></use><use xlink:href="#31" y="31.229000000000003"></use><use xlink:href="#30" y="33.066"></use><use xlink:href="#32" y="36.74"></use><use xlink:href="#33" y="38.577000000000005"></use><use xlink:href="#19" y="42.251"></use><use xlink:href="#20" y="44.088"></use><use xlink:href="#21" y="45.925000000000004"></use><use xlink:href="#22" y="47.76200000000001"></use><use xlink:href="#23" y="49.599"></use><use xlink:href="#24" y="51.436"></use><use xlink:href="#25" y="53.273"></use><use xlink:href="#26" y="55.11"></use><use xlink:href="#27" y="56.947"></use><use xlink:href="#28" y="58.784"></use><use xlink:href="#29" y="60.621"></use><use xlink:href="#30" y="62.458000000000006"></use><use xlink:href="#31" y="64.295"></use><use xlink:href="#30" y="66.132"></use><use xlink:href="#34" y="69.806"></use><use xlink:href="#35" y="71.643"></use></svg><svg x="4240"><use xlink:href="#a"></use><use xlink:href="#b" x="-0.0040000000000000036" y="75.14200000000001"></use><use xlink:href="#16" y="0"></use><use xlink:href="#17" y="1.837"></use><use xlink:href="#12" y="3.674"></use><use xlink:href="#18" y="5.511"></use><use xlink:href="#19" y="7.348"></use><use xlink:href="#20" y="9.185"></use><use xlink:href="#21" y="11.022"></use><use xlink:href="#22" y="12.859"></use><use xlink:href="#23" y="14.696"></use><use xlink:href="#24" y="16.533"></use><use xlink:href="#25" y="18.37"></use><use xlink:href="#26" y="20.206999999999997"></use><use xlink:href="#27" y="22.044"></use><use xlink:href="#28" y="23.881000000000004"></use><use xlink:href="#29" y="25.718"></use><use xlink:href="#30" y="27.555"></use><use xlink:href="#31" y="29.392"></use><use xlink:href="#30" y="31.229000000000003"></use><use xlink:href="#32" y="34.903"></use><use xlink:href="#33" y="36.74"></use><use xlink:href="#19" y="40.413999999999994"></use><use xlink:href="#20" y="42.251"></use><use xlink:href="#21" y="44.088"></use><use xlink:href="#22" y="45.925000000000004"></use><use xlink:href="#23" y="47.76200000000001"></use><use xlink:href="#24" y="49.599"></use><use xlink:href="#25" y="51.436"></use><use xlink:href="#26" y="53.273"></use><use xlink:href="#27" y="55.11"></use><use xlink:href="#28" y="56.947"></use><use xlink:href="#29" y="58.784"></use><use xlink:href="#30" y="60.621"></use><use xlink:href="#31" y="62.458000000000006"></use><use xlink:href="#30" y="64.295"></use><use xlink:href="#34" y="67.96900000000001"></use><use xlink:href="#35" y="69.806"></use><use xlink:href="#36" y="73.48"></use></svg><svg x="4320"><use xlink:href="#a"></use><use xlink:href="#b" x="-0.0040000000000000036" y="75.14200000000001"></use><use xlink:href="#17" y="0"></use><use xlink:href="#12" y="1.837"></use><use xlink:href="#18" y="3.674"></use><use xlink:href="#19" y="5.511"></use><use xlink:href="#20" y="7.348"></use><use xlink:href="#21" y="9.185"></use><use xlink:href="#22" y="11.022"></use><use xlink:href="#23" y="12.859"></use><use xlink:href="#24" y="14.696"></use><use xlink:href="#25" y="16.533"></use><use xlink:href="#26" y="18.37"></use><use xlink:href="#27" y="20.206999999999997"></use><use xlink:href="#28" y="22.044"></use><use xlink:href="#29" y="23.881000000000004"></use><use xlink:href="#30" y="25.718"></use><use xlink:href="#31" y="27.555"></use><use xlink:href="#30" y="29.392"></use><use xlink:href="#32" y="33.066"></use><use xlink:href="#33" y="34.903"></use><use xlink:href="#19" y="38.577000000000005"></use><use xlink:href="#20" y="40.413999999999994"></use><use xlink:href="#21" y="42.251"></use><use xlink:href="#22" y="44.088"></use><use xlink:href="#23" y="45.925000000000004"></use><use xlink:href="#24" y="47.76200000000001"></use><use xlink:href="#25" y="49.599"></use><use xlink:href="#26" y="51.436"></use><use xlink:href="#27" y="53.273"></use><use xlink:href="#28" y="55.11"></use><use xlink:href="#29" y="56.947"></use><use xlink:href="#30" y="58.784"></use><use xlink:href="#31" y="60.621"></use><use xlink:href="#30" y="62.458000000000006"></use><use xlink:href="#34" y="66.132"></use><use xlink:href="#35" y="67.96900000000001"></use><use xlink:href="#36" y="71.643"></use><use xlink:href="#37" y="73.48"></use></svg><svg x="4400"><use xlink:href="#a"></use><use xlink:href="#b" x="-0.0040000000000000036" y="75.14200000000001"></use><use xlink:href="#12" y="0"></use><use xlink:href="#18" y="1.837"></use><use xlink:href="#19" y="3.674"></use><use xlink:href="#20" y="5.511"></use><use xlink:href="#21" y="7.348"></use><use xlink:href="#22" y="9.185"></use><use xlink:href="#23" y="11.022"></use><use xlink:href="#24" y="12.859"></use><use xlink:href="#25" y="14.696"></use><use xlink:href="#26" y="16.533"></use><use xlink:href="#27" y="18.37"></use><use xlink:href="#28" y="20.206999999999997"></use><use xlink:href="#29" y="22.044"></use><use xlink:href="#30" y="23.881000000000004"></use><use xlink:href="#31" y="25.718"></use><use xlink:href="#30" y="27.555"></use><use xlink:href="#32" y="31.229000000000003"></use><use xlink:href="#33" y="33.066"></use><use xlink:href="#19" y="36.74"></use><use xlink:href="#20" y="38.577000000000005"></use><use xlink:href="#21" y="40.413999999999994"></use><use xlink:href="#22" y="42.251"></use><use xlink:href="#23" y="44.088"></use><use xlink:href="#24" y="45.925000000000004"></use><use xlink:href="#25" y="47.76200000000001"></use><use xlink:href="#26" y="49.599"></use><use xlink:href="#27" y="51.436"></use><use xlink:href="#28" y="53.273"></use><use xlink:href="#29" y="55.11"></use><use xlink:href="#30" y="56.947"></use><use xlink:href="#31" y="58.784"></use><use xlink:href="#30" y="60.621"></use><use xlink:href="#34" y="64.295"></use><use xlink:href="#35" y="66.132"></use><use xlink:href="#36" y="69.806"></use><use xlink:href="#37" y="71.643"></use><text x="0" y="75.15" class="c">No</text><text x="3.006" y="75.15" class="c">problems</text><text x="12.024" y="75.15" class="c">found</text><text x="18.035999999999998" y="75.15" class="c">in</text><text x="21.041999999999998" y="75.15" class="c">11</text><text x="24.048" y="75.15" class="c">feature</text><text x="32.064" y="75.15" class="c">files</text><text x="38.07599999999999" y="75.15" class="c">(took</text><text x="44.087999999999994" y="75.15" class="c">0.039977073669434</text><text x="62.123999999999995" y="75.15" class="c">seconds)</text></svg></svg></g></g></svg></svg>