<svg xmlns="http://www.w3.org/2000/svg" xmlns:xlink="http://www.w3.org/1999/xlink" width="1400" height="771.5400000000001"><rect width="1400" height="771.5400000000001" rx="0" ry="0" class="a"></rect><svg height="771.5400000000001" viewBox="0 0 140 77.15400000000001" width="1400" xmlns="http://www.w3.org/2000/svg" xmlns:xlink="http://www.w3.org/1999/xlink"><style>.a{fill:rgb(40,44,52)}.b{font-family:Consolas,"Courier New",Courier,"Liberation Mono",monospace}.c{fill:rgb(171,178,191);white-space:pre}.d{fill:transparent}.e{fill:rgb(82,139,255)}.g{animation-duration:57.493076s;animation-iteration-count:infinite;animation-name:f;animation-timing-function:steps(1,end)}@keyframes f{0%{transform:translateX(-0px)}0.07%{transform:translateX(-140px)}0.51%{transform:translateX(-280px)}0.56%{transform:translateX(-420px)}0.6%{transform:translateX(-560px)}0.65%{transform:translateX(-700px)}0.69%{transform:translateX(-840px)}0.74%{transform:translateX(-980px)}0.79%{transform:translateX(-1120px)}0.83%{transform:translateX(-1260px)}0.88%{transform:translateX(-1400px)}1.28%{transform:translateX(-1540px)}3.52%{transform:translateX(-1680px)}3.55%{transform:translateX(-1820px)}3.56%{transform:translateX(-1960px)}3.58%{transform:translateX(-2100px)}3.62%{transform:translateX(-2240px)}3.62%{transform:translateX(-2380px)}3.67%{transform:translateX(-2520px)}3.85%{transform:translateX(-2660px)}3.85%{transform:translateX(-2800px)}4.74%{transform:translateX(-2940px)}8.35%{transform:translateX(-3080px)}16.08%{transform:translateX(-3220px)}17.81%{transform:translateX(-3360px)}19.19%{transform:translateX(-3500px)}19.23%{transform:translateX(-3640px)}19.24%{transform:translateX(-3780px)}24.11%{transform:translateX(-3920px)}67.64%{transform:translateX(-4060px)}73.16%{transform:translateX(-4200px)}74.9%{transform:translateX(-4340px)}78.04%{transform:translateX(-4480px)}78.1%{transform:translateX(-4620px)}78.1%{transform:translateX(-4760px)}91.24%{transform:translateX(-4900px)}91.25%{transform:translateX(-5040px)}91.49%{transform:translateX(-5180px)}91.51%{transform:translateX(-5320px)}91.63%{transform:translateX(-5460px)}94.09%{transform:translateX(-5600px)}95.17%{transform:translateX(-5740px)}95.52%{transform:translateX(-5880px)}95.57%{transform:translateX(-6020px)}95.69%{transform:translateX(-6160px)}95.69%{transform:translateX(-6300px)}95.7%{transform:translateX(-6440px)}98.19%{transform:translateX(-6580px)}98.19%{transform:translateX(-6720px)}98.21%{transform:translateX(-6860px)}99.57%{transform:translateX(-7000px)}99.91%{transform:translateX(-7140px)}99.98%{transform:translateX(-7280px)}}</style><g font-family="Consolas, &quot;Courier New&quot;, Courier, &quot;Liberation Mono&quot;, monospace" font-size="1.67" class="b"><defs><symbol id="1"><text x="0" y="1.67" class="c">$</text><text x="2.004" y="1.67" class="c">ahoy</text></symbol><symbol id="2"><text x="0" y="1.67" class="c">$</text><text x="2.004" y="1.67" class="c">ahoy</text><text x="7.013999999999999" y="1.67" class="c">lint</text></symbol><symbol id="3"><text x="0" y="1.67" class="c">..........</text><text x="11.021999999999998" y="1.67" class="c">10</text><text x="14.027999999999999" y="1.67" class="c">/</text><text x="16.032" y="1.67" class="c">10</text><text x="19.037999999999997" y="1.67" class="c">(100%)</text></symbol><symbol id="4"><text x="0" y="1.67" class="c">Time:</text><text x="6.012" y="1.67" class="c">2.61</text><text x="11.021999999999998" y="1.67" class="c">secs;</text><text x="17.034" y="1.67" class="c">Memory:</text><text x="25.05" y="1.67" class="c">16MB</text></symbol><symbol id="5"><text x="0" y="1.67" class="c">Note:</text><text x="6.012" y="1.67" class="c">Using</text><text x="12.024" y="1.67" class="c">configuration</text><text x="26.052" y="1.67" class="c">file</text><text x="31.061999999999998" y="1.67" class="c">/app/phpstan.neon.</text></symbol><symbol id="6"><text x="2.004" y="1.67" class="c">0/58</text><text x="7.013999999999999" y="1.67" class="c">[░░░░░░░░░░░░░░░░░░░░░░░░░░░░]</text><text x="40.08" y="1.67" class="c">0%</text></symbol><symbol id="7"><text x="1.002" y="1.67" class="c">58/58</text><text x="7.013999999999999" y="1.67" class="c">[▓▓▓▓▓▓▓▓▓▓▓▓▓▓▓▓▓▓▓▓▓▓▓▓▓▓▓▓]</text><text x="38.07599999999999" y="1.67" class="c">100%</text></symbol><symbol id="8"><text x="1.002" y="1.67" class="c">[OK]</text><text x="6.012" y="1.67" class="c">No</text><text x="9.017999999999999" y="1.67" class="c">errors</text></symbol><symbol id="9"><text x="1.002" y="1.67" class="c">[OK]</text><text x="6.012" y="1.67" class="c">Rector</text><text x="13.026" y="1.67" class="c">is</text><text x="16.032" y="1.67" class="c">done!</text></symbol><symbol id="10"><text x="1.002" y="1.67" class="c">[OK]</text><text x="6.012" y="1.67" class="c">Files</text><text x="12.024" y="1.67" class="c">linted:</text><text x="20.04" y="1.67" class="c">1,</text><text x="23.045999999999996" y="1.67" class="c">notices:</text><text x="32.064" y="1.67" class="c">0,</text><text x="35.06999999999999" y="1.67" class="c">warnings:</text><text x="45.089999999999996" y="1.67" class="c">0,</text><text x="48.096" y="1.67" class="c">errors:</text><text x="56.111999999999995" y="1.67" class="c">0</text></symbol><symbol id="11"><text x="0" y="1.67" class="c">yarn</text><text x="5.01" y="1.67" class="c">run</text><text x="9.017999999999999" y="1.67" class="c">v1.22.22</text></symbol><symbol id="12"><text x="0" y="1.67" class="c">$</text><text x="2.004" y="1.67" class="c">yarn</text><text x="7.013999999999999" y="1.67" class="c">run</text><text x="11.021999999999998" y="1.67" class="c">lint-js</text><text x="19.037999999999997" y="1.67" class="c">&amp;&amp;</text><text x="22.043999999999997" y="1.67" class="c">yarn</text><text x="27.054" y="1.67" class="c">run</text><text x="31.061999999999998" y="1.67" class="c">lint-css</text></symbol><symbol id="13"><text x="0" y="1.67" class="c">$</text><text x="2.004" y="1.67" class="c">eslint</text><text x="9.017999999999999" y="1.67" class="c">web/modules/custom</text><text x="28.055999999999997" y="1.67" class="c">--ext</text><text x="34.068" y="1.67" class="c">.js</text><text x="38.07599999999999" y="1.67" class="c">--max-warnings=0</text><text x="55.10999999999999" y="1.67" class="c">--no-error-on-unmatched-pattern</text></symbol><symbol id="14"><text x="0" y="1.67" class="c">$</text><text x="2.004" y="1.67" class="c">stylelint</text><text x="12.024" y="1.67" class="c">--allow-empty-input</text><text x="32.064" y="1.67" class="c">&quot;web/modules/custom/**/*.css&quot;</text></symbol><symbol id="15"><text x="0" y="1.67" class="c">Done</text><text x="5.01" y="1.67" class="c">in</text><text x="8.016" y="1.67" class="c">4.24s.</text></symbol><symbol id="16"><text x="0" y="1.67" class="c">$</text><text x="2.004" y="1.67" class="c">npm</text><text x="6.012" y="1.67" class="c">run</text><text x="10.02" y="1.67" class="c">lint-js</text><text x="18.035999999999998" y="1.67" class="c">&amp;&amp;</text><text x="21.041999999999998" y="1.67" class="c">npm</text><text x="25.05" y="1.67" class="c">run</text><text x="29.058" y="1.67" class="c">lint-css</text></symbol><symbol id="17"><text x="0" y="1.67" class="c">npm</text><text x="4.008" y="1.67" class="c">warn</text><text x="9.017999999999999" y="1.67" class="c">Unknown</text><text x="17.034" y="1.67" class="c">env</text><text x="21.041999999999998" y="1.67" class="c">config</text><text x="28.055999999999997" y="1.67" class="c">&quot;version-commit-hooks&quot;.</text><text x="52.104" y="1.67" class="c">This</text><text x="57.114" y="1.67" class="c">will</text><text x="62.123999999999995" y="1.67" class="c">stop</text><text x="67.134" y="1.67" class="c">working</text><text x="75.14999999999999" y="1.67" class="c">in</text><text x="78.15599999999999" y="1.67" class="c">the</text><text x="82.164" y="1.67" class="c">next</text><text x="87.17399999999999" y="1.67" class="c">major</text><text x="93.18599999999999" y="1.67" class="c">version</text><text x="101.20199999999998" y="1.67" class="c">of</text><text x="104.208" y="1.67" class="c">npm.</text><text x="109.218" y="1.67" class="c">See</text><text x="113.22599999999998" y="1.67" class="c">`npm</text><text x="118.23599999999999" y="1.67" class="c">help</text><text x="123.246" y="1.67" class="c">npmrc`</text><text x="130.26" y="1.67" class="c">for</text><text x="134.268" y="1.67" class="c">suppor</text></symbol><symbol id="18"><text x="0" y="1.67" class="c">ted</text><text x="4.008" y="1.67" class="c">config</text><text x="11.021999999999998" y="1.67" class="c">options.</text></symbol><symbol id="19"><text x="0" y="1.67" class="c">npm</text><text x="4.008" y="1.67" class="c">warn</text><text x="9.017999999999999" y="1.67" class="c">Unknown</text><text x="17.034" y="1.67" class="c">env</text><text x="21.041999999999998" y="1.67" class="c">config</text><text x="28.055999999999997" y="1.67" class="c">&quot;version-tag-prefix&quot;.</text><text x="50.1" y="1.67" class="c">This</text><text x="55.10999999999999" y="1.67" class="c">will</text><text x="60.11999999999999" y="1.67" class="c">stop</text><text x="65.13" y="1.67" class="c">working</text><text x="73.146" y="1.67" class="c">in</text><text x="76.15199999999999" y="1.67" class="c">the</text><text x="80.16" y="1.67" class="c">next</text><text x="85.16999999999999" y="1.67" class="c">major</text><text x="91.182" y="1.67" class="c">version</text><text x="99.198" y="1.67" class="c">of</text><text x="102.204" y="1.67" class="c">npm.</text><text x="107.214" y="1.67" class="c">See</text><text x="111.222" y="1.67" class="c">`npm</text><text x="116.232" y="1.67" class="c">help</text><text x="121.24199999999999" y="1.67" class="c">npmrc`</text><text x="128.256" y="1.67" class="c">for</text><text x="132.26399999999998" y="1.67" class="c">supporte</text></symbol><symbol id="20"><text x="0" y="1.67" class="c">d</text><text x="2.004" y="1.67" class="c">config</text><text x="9.017999999999999" y="1.67" class="c">options.</text></symbol><symbol id="21"><text x="0" y="1.67" class="c">npm</text><text x="4.008" y="1.67" class="c">warn</text><text x="9.017999999999999" y="1.67" class="c">Unknown</text><text x="17.034" y="1.67" class="c">env</text><text x="21.041999999999998" y="1.67" class="c">config</text><text x="28.055999999999997" y="1.67" class="c">&quot;version-git-message&quot;.</text><text x="51.102" y="1.67" class="c">This</text><text x="56.111999999999995" y="1.67" class="c">will</text><text x="61.12199999999999" y="1.67" class="c">stop</text><text x="66.13199999999999" y="1.67" class="c">working</text><text x="74.148" y="1.67" class="c">in</text><text x="77.154" y="1.67" class="c">the</text><text x="81.16199999999999" y="1.67" class="c">next</text><text x="86.172" y="1.67" class="c">major</text><text x="92.18399999999998" y="1.67" class="c">version</text><text x="100.2" y="1.67" class="c">of</text><text x="103.20599999999999" y="1.67" class="c">npm.</text><text x="108.216" y="1.67" class="c">See</text><text x="112.22399999999999" y="1.67" class="c">`npm</text><text x="117.23399999999998" y="1.67" class="c">help</text><text x="122.24399999999999" y="1.67" class="c">npmrc`</text><text x="129.25799999999998" y="1.67" class="c">for</text><text x="133.266" y="1.67" class="c">support</text></symbol><symbol id="22"><text x="0" y="1.67" class="c">ed</text><text x="3.006" y="1.67" class="c">config</text><text x="10.02" y="1.67" class="c">options.</text></symbol><symbol id="23"><text x="0" y="1.67" class="c">npm</text><text x="4.008" y="1.67" class="c">warn</text><text x="9.017999999999999" y="1.67" class="c">Unknown</text><text x="17.034" y="1.67" class="c">env</text><text x="21.041999999999998" y="1.67" class="c">config</text><text x="28.055999999999997" y="1.67" class="c">&quot;argv&quot;.</text><text x="36.071999999999996" y="1.67" class="c">This</text><text x="41.082" y="1.67" class="c">will</text><text x="46.09199999999999" y="1.67" class="c">stop</text><text x="51.102" y="1.67" class="c">working</text><text x="59.117999999999995" y="1.67" class="c">in</text><text x="62.123999999999995" y="1.67" class="c">the</text><text x="66.13199999999999" y="1.67" class="c">next</text><text x="71.142" y="1.67" class="c">major</text><text x="77.154" y="1.67" class="c">version</text><text x="85.16999999999999" y="1.67" class="c">of</text><text x="88.17599999999999" y="1.67" class="c">npm.</text><text x="93.18599999999999" y="1.67" class="c">See</text><text x="97.19399999999999" y="1.67" class="c">`npm</text><text x="102.204" y="1.67" class="c">help</text><text x="107.214" y="1.67" class="c">npmrc`</text><text x="114.228" y="1.67" class="c">for</text><text x="118.23599999999999" y="1.67" class="c">supported</text><text x="128.256" y="1.67" class="c">config</text><text x="135.26999999999998" y="1.67" class="c">optio</text></symbol><symbol id="24"><text x="0" y="1.67" class="c">ns.</text></symbol><symbol id="25"><text x="0" y="1.67" class="c">npm</text><text x="4.008" y="1.67" class="c">warn</text><text x="9.017999999999999" y="1.67" class="c">Unknown</text><text x="17.034" y="1.67" class="c">env</text><text x="21.041999999999998" y="1.67" class="c">config</text><text x="28.055999999999997" y="1.67" class="c">&quot;unsafe-perm&quot;.</text><text x="43.086" y="1.67" class="c">This</text><text x="48.096" y="1.67" class="c">will</text><text x="53.105999999999995" y="1.67" class="c">stop</text><text x="58.116" y="1.67" class="c">working</text><text x="66.13199999999999" y="1.67" class="c">in</text><text x="69.13799999999999" y="1.67" class="c">the</text><text x="73.146" y="1.67" class="c">next</text><text x="78.15599999999999" y="1.67" class="c">major</text><text x="84.16799999999999" y="1.67" class="c">version</text><text x="92.18399999999998" y="1.67" class="c">of</text><text x="95.19" y="1.67" class="c">npm.</text><text x="100.2" y="1.67" class="c">See</text><text x="104.208" y="1.67" class="c">`npm</text><text x="109.218" y="1.67" class="c">help</text><text x="114.228" y="1.67" class="c">npmrc`</text><text x="121.24199999999999" y="1.67" class="c">for</text><text x="125.25" y="1.67" class="c">supported</text><text x="135.26999999999998" y="1.67" class="c">confi</text></symbol><symbol id="26"><text x="0" y="1.67" class="c">g</text><text x="2.004" y="1.67" class="c">options.</text></symbol><symbol id="27"><text x="0" y="1.67" class="c">npm</text><text x="4.008" y="1.67" class="c">warn</text><text x="9.017999999999999" y="1.67" class="c">Unknown</text><text x="17.034" y="1.67" class="c">env</text><text x="21.041999999999998" y="1.67" class="c">config</text><text x="28.055999999999997" y="1.67" class="c">&quot;version-git-tag&quot;.</text><text x="47.093999999999994" y="1.67" class="c">This</text><text x="52.104" y="1.67" class="c">will</text><text x="57.114" y="1.67" class="c">stop</text><text x="62.123999999999995" y="1.67" class="c">working</text><text x="70.13999999999999" y="1.67" class="c">in</text><text x="73.146" y="1.67" class="c">the</text><text x="77.154" y="1.67" class="c">next</text><text x="82.164" y="1.67" class="c">major</text><text x="88.17599999999999" y="1.67" class="c">version</text><text x="96.192" y="1.67" class="c">of</text><text x="99.198" y="1.67" class="c">npm.</text><text x="104.208" y="1.67" class="c">See</text><text x="108.216" y="1.67" class="c">`npm</text><text x="113.22599999999998" y="1.67" class="c">help</text><text x="118.23599999999999" y="1.67" class="c">npmrc`</text><text x="125.25" y="1.67" class="c">for</text><text x="129.25799999999998" y="1.67" class="c">supported</text><text x="139.278" y="1.67" class="c">c</text></symbol><symbol id="28"><text x="0" y="1.67" class="c">onfig</text><text x="6.012" y="1.67" class="c">options.</text></symbol><symbol id="29"><text x="0" y="1.67" class="c">npm</text><text x="4.008" y="1.67" class="c">warn</text><text x="9.017999999999999" y="1.67" class="c">Unknown</text><text x="17.034" y="1.67" class="c">project</text><text x="25.05" y="1.67" class="c">config</text><text x="32.064" y="1.67" class="c">&quot;unsafe-perm&quot;.</text><text x="47.093999999999994" y="1.67" class="c">This</text><text x="52.104" y="1.67" class="c">will</text><text x="57.114" y="1.67" class="c">stop</text><text x="62.123999999999995" y="1.67" class="c">working</text><text x="70.13999999999999" y="1.67" class="c">in</text><text x="73.146" y="1.67" class="c">the</text><text x="77.154" y="1.67" class="c">next</text><text x="82.164" y="1.67" class="c">major</text><text x="88.17599999999999" y="1.67" class="c">version</text><text x="96.192" y="1.67" class="c">of</text><text x="99.198" y="1.67" class="c">npm.</text><text x="104.208" y="1.67" class="c">See</text><text x="108.216" y="1.67" class="c">`npm</text><text x="113.22599999999998" y="1.67" class="c">help</text><text x="118.23599999999999" y="1.67" class="c">npmrc`</text><text x="125.25" y="1.67" class="c">for</text><text x="129.25799999999998" y="1.67" class="c">supported</text><text x="139.278" y="1.67" class="c">c</text></symbol><symbol id="30"><text x="0" y="1.67" class="c">&gt;</text><text x="2.004" y="1.67" class="c">star_wars@1.0.0</text><text x="18.035999999999998" y="1.67" class="c">lint-js</text></symbol><symbol id="31"><text x="0" y="1.67" class="c">&gt;</text><text x="2.004" y="1.67" class="c">eslint</text><text x="9.017999999999999" y="1.67" class="c">&#x27;js/**/*.js&#x27;</text><text x="22.043999999999997" y="1.67" class="c">--ignore-pattern</text><text x="39.077999999999996" y="1.67" class="c">&#x27;*.min.js&#x27;</text></symbol><symbol id="32"><text x="0" y="1.67" class="c">&gt;</text><text x="2.004" y="1.67" class="c">star_wars@1.0.0</text><text x="18.035999999999998" y="1.67" class="c">lint-css</text></symbol><symbol id="33"><text x="0" y="1.67" class="c">&gt;</text><text x="2.004" y="1.67" class="c">stylelint</text><text x="12.024" y="1.67" class="c">&#x27;scss/**/*.scss&#x27;</text></symbol><symbol id="34"><text x="0" y="1.67" class="c">Done</text><text x="5.01" y="1.67" class="c">in</text><text x="8.016" y="1.67" class="c">4.66s.</text></symbol><symbol id="35"><text x="0" y="1.67" class="c">Using</text><text x="6.012" y="1.67" class="c">config</text><text x="13.026" y="1.67" class="c">file</text><text x="18.035999999999998" y="1.67" class="c">&quot;gherkinlint.json&quot;</text></symbol><symbol id="a"><rect height="42" width="140" x="0" y="0" class="d"></rect></symbol><symbol id="b"><rect height="1.837" width="1.1022" class="e"></rect></symbol></defs><rect height="77.15400000000001" width="140" class="a"></rect><g class="g"><svg x="0" y="0" width="7420"><svg x="0"><use xlink:href="#a"></use><use xlink:href="#b" x="-0.0040000000000000036" y="0"></use></svg><svg x="140"><use xlink:href="#a"></use><use xlink:href="#b" x="1.996" y="0"></use><text x="0" y="1.67" class="c">$</text></svg><svg x="280"><use xlink:href="#a"></use><use xlink:href="#b" x="2.996" y="0"></use><text x="0" y="1.67" class="c">$</text><text x="2.004" y="1.67" class="c">a</text></svg><svg x="420"><use xlink:href="#a"></use><use xlink:href="#b" x="3.996" y="0"></use><text x="0" y="1.67" class="c">$</text><text x="2.004" y="1.67" class="c">ah</text></svg><svg x="560"><use xlink:href="#a"></use><use xlink:href="#b" x="4.996" y="0"></use><text x="0" y="1.67" class="c">$</text><text x="2.004" y="1.67" class="c">aho</text></svg><svg x="700"><use xlink:href="#a"></use><use xlink:href="#b" x="5.996" y="0"></use><use xlink:href="#1" y="0"></use></svg><svg x="840"><use xlink:href="#a"></use><use xlink:href="#b" x="6.996" y="0"></use><use xlink:href="#1" y="0"></use></svg><svg x="980"><use xlink:href="#a"></use><use xlink:href="#b" x="7.996" y="0"></use><text x="0" y="1.67" class="c">$</text><text x="2.004" y="1.67" class="c">ahoy</text><text x="7.013999999999999" y="1.67" class="c">l</text></svg><svg x="1120"><use xlink:href="#a"></use><use xlink:href="#b" x="8.996" y="0"></use><text x="0" y="1.67" class="c">$</text><text x="2.004" y="1.67" class="c">ahoy</text><text x="7.013999999999999" y="1.67" class="c">li</text></svg><svg x="1260"><use xlink:href="#a"></use><use xlink:href="#b" x="9.996" y="0"></use><text x="0" y="1.67" class="c">$</text><text x="2.004" y="1.67" class="c">ahoy</text><text x="7.013999999999999" y="1.67" class="c">lin</text></svg><svg x="1400"><use xlink:href="#a"></use><use xlink:href="#b" x="10.996" y="0"></use><use xlink:href="#2" y="0"></use></svg><svg x="1540"><use xlink:href="#a"></use><use xlink:href="#b" x="-0.0040000000000000036" y="1.662"></use><use xlink:href="#2" y="0"></use></svg><svg x="1680"><use xlink:href="#a"></use><use xlink:href="#b" x="1.996" y="1.662"></use><use xlink:href="#2" y="0"></use><text x="0" y="3.5069999999999997" class="c">..</text></svg><svg x="1820"><use xlink:href="#a"></use><use xlink:href="#b" x="2.996" y="1.662"></use><use xlink:href="#2" y="0"></use><text x="0" y="3.5069999999999997" class="c">...</text></svg><svg x="1960"><use xlink:href="#a"></use><use xlink:href="#b" x="3.996" y="1.662"></use><use xlink:href="#2" y="0"></use><text x="0" y="3.5069999999999997" class="c">....</text></svg><svg x="2100"><use xlink:href="#a"></use><use xlink:href="#b" x="4.996" y="1.662"></use><use xlink:href="#2" y="0"></use><text x="0" y="3.5069999999999997" class="c">.....</text></svg><svg x="2240"><use xlink:href="#a"></use><use xlink:href="#b" x="5.996" y="1.662"></use><use xlink:href="#2" y="0"></use><text x="0" y="3.5069999999999997" class="c">......</text></svg><svg x="2380"><use xlink:href="#a"></use><use xlink:href="#b" x="7.996" y="1.662"></use><use xlink:href="#2" y="0"></use><text x="0" y="3.5069999999999997" class="c">........</text></svg><svg x="2520"><use xlink:href="#a"></use><use xlink:href="#b" x="8.996" y="1.662"></use><use xlink:href="#2" y="0"></use><text x="0" y="3.5069999999999997" class="c">.........</text></svg><svg x="2660"><use xlink:href="#a"></use><use xlink:href="#b" x="-0.0040000000000000036" y="7.173"></use><use xlink:href="#2" y="0"></use><use xlink:href="#3" y="1.837"></use></svg><svg x="2800"><use xlink:href="#a"></use><use xlink:href="#b" x="-0.0040000000000000036" y="9.01"></use><use xlink:href="#2" y="0"></use><use xlink:href="#3" y="1.837"></use><use xlink:href="#4" y="7.348"></use></svg><svg x="2940"><use xlink:href="#a"></use><use xlink:href="#b" x="-0.0040000000000000036" y="10.847"></use><use xlink:href="#2" y="0"></use><use xlink:href="#3" y="1.837"></use><use xlink:href="#4" y="7.348"></use><use xlink:href="#5" y="9.185"></use></svg><svg x="3080"><use xlink:href="#a"></use><use xlink:href="#b" x="41.996" y="10.847"></use><use xlink:href="#2" y="0"></use><use xlink:href="#3" y="1.837"></use><use xlink:href="#4" y="7.348"></use><use xlink:href="#5" y="9.185"></use><use xlink:href="#6" y="11.022"></use></svg><svg x="3220"><use xlink:href="#a"></use><use xlink:href="#b" x="41.996" y="10.847"></use><use xlink:href="#2" y="0"></use><use xlink:href="#3" y="1.837"></use><use xlink:href="#4" y="7.348"></use><use xlink:href="#5" y="9.185"></use><text x="1.002" y="12.692" class="c">20/58</text><text x="7.013999999999999" y="12.692" class="c">[▓▓▓▓▓▓▓▓▓░░░░░░░░░░░░░░░░░░░]</text><text x="39.077999999999996" y="12.692" class="c">34%</text></svg><svg x="3360"><use xlink:href="#a"></use><use xlink:href="#b" x="41.996" y="10.847"></use><use xlink:href="#2" y="0"></use><use xlink:href="#3" y="1.837"></use><use xlink:href="#4" y="7.348"></use><use xlink:href="#5" y="9.185"></use><text x="1.002" y="12.692" class="c">40/58</text><text x="7.013999999999999" y="12.692" class="c">[▓▓▓▓▓▓▓▓▓▓▓▓▓▓▓▓▓▓▓░░░░░░░░░]</text><text x="39.077999999999996" y="12.692" class="c">68%</text></svg><svg x="3500"><use xlink:href="#a"></use><use xlink:href="#b" x="41.996" y="10.847"></use><use xlink:href="#2" y="0"></use><use xlink:href="#3" y="1.837"></use><use xlink:href="#4" y="7.348"></use><use xlink:href="#5" y="9.185"></use><use xlink:href="#7" y="11.022"></use></svg><svg x="3640"><use xlink:href="#a"></use><use xlink:href="#b" x="-0.0040000000000000036" y="14.520999999999999"></use><use xlink:href="#2" y="0"></use><use xlink:href="#3" y="1.837"></use><use xlink:href="#4" y="7.348"></use><use xlink:href="#5" y="9.185"></use><use xlink:href="#7" y="11.022"></use></svg><svg x="3780"><use xlink:href="#a"></use><use xlink:href="#b" x="-0.0040000000000000036" y="20.031999999999996"></use><use xlink:href="#2" y="0"></use><use xlink:href="#3" y="1.837"></use><use xlink:href="#4" y="7.348"></use><use xlink:href="#5" y="9.185"></use><use xlink:href="#7" y="11.022"></use><use xlink:href="#8" y="16.533"></use></svg><svg x="3920"><use xlink:href="#a"></use><use xlink:href="#b" x="41.996" y="20.031999999999996"></use><use xlink:href="#2" y="0"></use><use xlink:href="#3" y="1.837"></use><use xlink:href="#4" y="7.348"></use><use xlink:href="#5" y="9.185"></use><use xlink:href="#7" y="11.022"></use><use xlink:href="#8" y="16.533"></use><use xlink:href="#6" y="20.206999999999997"></use></svg><svg x="4060"><use xlink:href="#a"></use><use xlink:href="#b" x="41.996" y="20.031999999999996"></use><use xlink:href="#2" y="0"></use><use xlink:href="#3" y="1.837"></use><use xlink:href="#4" y="7.348"></use><use xlink:href="#5" y="9.185"></use><use xlink:href="#7" y="11.022"></use><use xlink:href="#8" y="16.533"></use><text x="1.002" y="21.876999999999995" class="c">16/58</text><text x="7.013999999999999" y="21.876999999999995" class="c">[▓▓▓▓▓▓▓░░░░░░░░░░░░░░░░░░░░░]</text><text x="39.077999999999996" y="21.876999999999995" class="c">27%</text></svg><svg x="4200"><use xlink:href="#a"></use><use xlink:href="#b" x="41.996" y="20.031999999999996"></use><use xlink:href="#2" y="0"></use><use xlink:href="#3" y="1.837"></use><use xlink:href="#4" y="7.348"></use><use xlink:href="#5" y="9.185"></use><use xlink:href="#7" y="11.022"></use><use xlink:href="#8" y="16.533"></use><text x="1.002" y="21.876999999999995" class="c">26/58</text><text x="7.013999999999999" y="21.876999999999995" class="c">[▓▓▓▓▓▓▓▓▓▓▓▓░░░░░░░░░░░░░░░░]</text><text x="39.077999999999996" y="21.876999999999995" class="c">44%</text></svg><svg x="4340"><use xlink:href="#a"></use><use xlink:href="#b" x="41.996" y="20.031999999999996"></use><use xlink:href="#2" y="0"></use><use xlink:href="#3" y="1.837"></use><use xlink:href="#4" y="7.348"></use><use xlink:href="#5" y="9.185"></use><use xlink:href="#7" y="11.022"></use><use xlink:href="#8" y="16.533"></use><text x="1.002" y="21.876999999999995" class="c">42/58</text><text x="7.013999999999999" y="21.876999999999995" class="c">[▓▓▓▓▓▓▓▓▓▓▓▓▓▓▓▓▓▓▓▓░░░░░░░░]</text><text x="39.077999999999996" y="21.876999999999995" class="c">72%</text></svg><svg x="4480"><use xlink:href="#a"></use><use xlink:href="#b" x="41.996" y="20.031999999999996"></use><use xlink:href="#2" y="0"></use><use xlink:href="#3" y="1.837"></use><use xlink:href="#4" y="7.348"></use><use xlink:href="#5" y="9.185"></use><use xlink:href="#7" y="11.022"></use><use xlink:href="#8" y="16.533"></use><use xlink:href="#7" y="20.206999999999997"></use></svg><svg x="4620"><use xlink:href="#a"></use><use xlink:href="#b" x="-0.0040000000000000036" y="23.706000000000003"></use><use xlink:href="#2" y="0"></use><use xlink:href="#3" y="1.837"></use><use xlink:href="#4" y="7.348"></use><use xlink:href="#5" y="9.185"></use><use xlink:href="#7" y="11.022"></use><use xlink:href="#8" y="16.533"></use><use xlink:href="#7" y="20.206999999999997"></use></svg><svg x="4760"><use xlink:href="#a"></use><use xlink:href="#b" x="-0.0040000000000000036" y="27.38"></use><use xlink:href="#2" y="0"></use><use xlink:href="#3" y="1.837"></use><use xlink:href="#4" y="7.348"></use><use xlink:href="#5" y="9.185"></use><use xlink:href="#7" y="11.022"></use><use xlink:href="#8" y="16.533"></use><use xlink:href="#7" y="20.206999999999997"></use><use xlink:href="#9" y="23.881000000000004"></use></svg><svg x="4900"><use xlink:href="#a"></use><use xlink:href="#b" x="-0.0040000000000000036" y="29.217"></use><use xlink:href="#2" y="0"></use><use xlink:href="#3" y="1.837"></use><use xlink:href="#4" y="7.348"></use><use xlink:href="#5" y="9.185"></use><use xlink:href="#7" y="11.022"></use><use xlink:href="#8" y="16.533"></use><use xlink:href="#7" y="20.206999999999997"></use><use xlink:href="#9" y="23.881000000000004"></use></svg><svg x="5040"><use xlink:href="#a"></use><use xlink:href="#b" x="-0.0040000000000000036" y="32.891000000000005"></use><use xlink:href="#2" y="0"></use><use xlink:href="#3" y="1.837"></use><use xlink:href="#4" y="7.348"></use><use xlink:href="#5" y="9.185"></use><use xlink:href="#7" y="11.022"></use><use xlink:href="#8" y="16.533"></use><use xlink:href="#7" y="20.206999999999997"></use><use xlink:href="#9" y="23.881000000000004"></use><use xlink:href="#10" y="29.392"></use></svg><svg x="5180"><use xlink:href="#a"></use><use xlink:href="#b" x="-0.0040000000000000036" y="34.728"></use><use xlink:href="#2" y="0"></use><use xlink:href="#3" y="1.837"></use><use xlink:href="#4" y="7.348"></use><use xlink:href="#5" y="9.185"></use><use xlink:href="#7" y="11.022"></use><use xlink:href="#8" y="16.533"></use><use xlink:href="#7" y="20.206999999999997"></use><use xlink:href="#9" y="23.881000000000004"></use><use xlink:href="#10" y="29.392"></use><use xlink:href="#11" y="33.066"></use></svg><svg x="5320"><use xlink:href="#a"></use><use xlink:href="#b" x="-0.0040000000000000036" y="36.565000000000005"></use><use xlink:href="#2" y="0"></use><use xlink:href="#3" y="1.837"></use><use xlink:href="#4" y="7.348"></use><use xlink:href="#5" y="9.185"></use><use xlink:href="#7" y="11.022"></use><use xlink:href="#8" y="16.533"></use><use xlink:href="#7" y="20.206999999999997"></use><use xlink:href="#9" y="23.881000000000004"></use><use xlink:href="#10" y="29.392"></use><use xlink:href="#11" y="33.066"></use><use xlink:href="#12" y="34.903"></use></svg><svg x="5460"><use xlink:href="#a"></use><use xlink:href="#b" x="-0.0040000000000000036" y="38.40200000000001"></use><use xlink:href="#2" y="0"></use><use xlink:href="#3" y="1.837"></use><use xlink:href="#4" y="7.348"></use><use xlink:href="#5" y="9.185"></use><use xlink:href="#7" y="11.022"></use><use xlink:href="#8" y="16.533"></use><use xlink:href="#7" y="20.206999999999997"></use><use xlink:href="#9" y="23.881000000000004"></use><use xlink:href="#10" y="29.392"></use><use xlink:href="#11" y="33.066"></use><use xlink:href="#12" y="34.903"></use><use xlink:href="#13" y="36.74"></use></svg><svg x="5600"><use xlink:href="#a"></use><use xlink:href="#b" x="-0.0040000000000000036" y="40.239"></use><use xlink:href="#2" y="0"></use><use xlink:href="#3" y="1.837"></use><use xlink:href="#4" y="7.348"></use><use xlink:href="#5" y="9.185"></use><use xlink:href="#7" y="11.022"></use><use xlink:href="#8" y="16.533"></use><use xlink:href="#7" y="20.206999999999997"></use><use xlink:href="#9" y="23.881000000000004"></use><use xlink:href="#10" y="29.392"></use><use xlink:href="#11" y="33.066"></use><use xlink:href="#12" y="34.903"></use><use xlink:href="#13" y="36.74"></use><use xlink:href="#14" y="38.577000000000005"></use></svg><svg x="5740"><use xlink:href="#a"></use><use xlink:href="#b" x="-0.0040000000000000036" y="42.076"></use><use xlink:href="#2" y="0"></use><use xlink:href="#3" y="1.837"></use><use xlink:href="#4" y="7.348"></use><use xlink:href="#5" y="9.185"></use><use xlink:href="#7" y="11.022"></use><use xlink:href="#8" y="16.533"></use><use xlink:href="#7" y="20.206999999999997"></use><use xlink:href="#9" y="23.881000000000004"></use><use xlink:href="#10" y="29.392"></use><use xlink:href="#11" y="33.066"></use><use xlink:href="#12" y="34.903"></use><use xlink:href="#13" y="36.74"></use><use xlink:href="#14" y="38.577000000000005"></use><use xlink:href="#15" y="40.413999999999994"></use></svg><svg x="5880"><use xlink:href="#a"></use><use xlink:href="#b" x="-0.0040000000000000036" y="43.913000000000004"></use><use xlink:href="#2" y="0"></use><use xlink:href="#3" y="1.837"></use><use xlink:href="#4" y="7.348"></use><use xlink:href="#5" y="9.185"></use><use xlink:href="#7" y="11.022"></use><use xlink:href="#8" y="16.533"></use><use xlink:href="#7" y="20.206999999999997"></use><use xlink:href="#9" y="23.881000000000004"></use><use xlink:href="#10" y="29.392"></use><use xlink:href="#11" y="33.066"></use><use xlink:href="#12" y="34.903"></use><use xlink:href="#13" y="36.74"></use><use xlink:href="#14" y="38.577000000000005"></use><use xlink:href="#15" y="40.413999999999994"></use><use xlink:href="#11" y="42.251"></use></svg><svg x="6020"><use xlink:href="#a"></use><use xlink:href="#b" x="-0.0040000000000000036" y="45.75000000000001"></use><use xlink:href="#2" y="0"></use><use xlink:href="#3" y="1.837"></use><use xlink:href="#4" y="7.348"></use><use xlink:href="#5" y="9.185"></use><use xlink:href="#7" y="11.022"></use><use xlink:href="#8" y="16.533"></use><use xlink:href="#7" y="20.206999999999997"></use><use xlink:href="#9" y="23.881000000000004"></use><use xlink:href="#10" y="29.392"></use><use xlink:href="#11" y="33.066"></use><use xlink:href="#12" y="34.903"></use><use xlink:href="#13" y="36.74"></use><use xlink:href="#14" y="38.577000000000005"></use><use xlink:href="#15" y="40.413999999999994"></use><use xlink:href="#11" y="42.251"></use><use xlink:href="#16" y="44.088"></use></svg><svg x="6160"><use xlink:href="#a"></use><use xlink:href="#b" x="-0.0040000000000000036" y="56.772000000000006"></use><use xlink:href="#2" y="0"></use><use xlink:href="#3" y="1.837"></use><use xlink:href="#4" y="7.348"></use><use xlink:href="#5" y="9.185"></use><use xlink:href="#7" y="11.022"></use><use xlink:href="#8" y="16.533"></use><use xlink:href="#7" y="20.206999999999997"></use><use xlink:href="#9" y="23.881000000000004"></use><use xlink:href="#10" y="29.392"></use><use xlink:href="#11" y="33.066"></use><use xlink:href="#12" y="34.903"></use><use xlink:href="#13" y="36.74"></use><use xlink:href="#14" y="38.577000000000005"></use><use xlink:href="#15" y="40.413999999999994"></use><use xlink:href="#11" y="42.251"></use><use xlink:href="#16" y="44.088"></use><use xlink:href="#17" y="45.925000000000004"></use><use xlink:href="#18" y="47.76200000000001"></use><use xlink:href="#19" y="49.599"></use><use xlink:href="#20" y="51.436"></use><use xlink:href="#21" y="53.273"></use><use xlink:href="#22" y="55.11"></use></svg><svg x="6300"><use xlink:href="#a"></use><use xlink:href="#b" x="-0.0040000000000000036" y="71.468"></use><use xlink:href="#2" y="0"></use><use xlink:href="#3" y="1.837"></use><use xlink:href="#4" y="7.348"></use><use xlink:href="#5" y="9.185"></use><use xlink:href="#7" y="11.022"></use><use xlink:href="#8" y="16.533"></use><use xlink:href="#7" y="20.206999999999997"></use><use xlink:href="#9" y="23.881000000000004"></use><use xlink:href="#10" y="29.392"></use><use xlink:href="#11" y="33.066"></use><use xlink:href="#12" y="34.903"></use><use xlink:href="#13" y="36.74"></use><use xlink:href="#14" y="38.577000000000005"></use><use xlink:href="#15" y="40.413999999999994"></use><use xlink:href="#11" y="42.251"></use><use xlink:href="#16" y="44.088"></use><use xlink:href="#17" y="45.925000000000004"></use><use xlink:href="#18" y="47.76200000000001"></use><use xlink:href="#19" y="49.599"></use><use xlink:href="#20" y="51.436"></use><use xlink:href="#21" y="53.273"></use><use xlink:href="#22" y="55.11"></use><use xlink:href="#23" y="56.947"></use><use xlink:href="#24" y="58.784"></use><use xlink:href="#25" y="60.621"></use><use xlink:href="#26" y="62.458000000000006"></use><use xlink:href="#27" y="64.295"></use><use xlink:href="#28" y="66.132"></use><use xlink:href="#29" y="67.96900000000001"></use><use xlink:href="#28" y="69.806"></use></svg><svg x="6440"><use xlink:href="#a"></use><use xlink:href="#b" x="-0.0040000000000000036" y="75.14200000000001"></use><use xlink:href="#4" y="3.674"></use><use xlink:href="#5" y="5.511"></use><use xlink:href="#7" y="7.348"></use><use xlink:href="#8" y="12.859"></use><use xlink:href="#7" y="16.533"></use><use xlink:href="#9" y="20.206999999999997"></use><use xlink:href="#10" y="25.718"></use><use xlink:href="#11" y="29.392"></use><use xlink:href="#12" y="31.229000000000003"></use><use xlink:href="#13" y="33.066"></use><use xlink:href="#14" y="34.903"></use><use xlink:href="#15" y="36.74"></use><use xlink:href="#11" y="38.577000000000005"></use><use xlink:href="#16" y="40.413999999999994"></use><use xlink:href="#17" y="42.251"></use><use xlink:href="#18" y="44.088"></use><use xlink:href="#19" y="45.925000000000004"></use><use xlink:href="#20" y="47.76200000000001"></use><use xlink:href="#21" y="49.599"></use><use xlink:href="#22" y="51.436"></use><use xlink:href="#23" y="53.273"></use><use xlink:href="#24" y="55.11"></use><use xlink:href="#25" y="56.947"></use><use xlink:href="#26" y="58.784"></use><use xlink:href="#27" y="60.621"></use><use xlink:href="#28" y="62.458000000000006"></use><use xlink:href="#29" y="64.295"></use><use xlink:href="#28" y="66.132"></use><use xlink:href="#30" y="69.806"></use><use xlink:href="#31" y="71.643"></use></svg><svg x="6580"><use xlink:href="#a"></use><use xlink:href="#b" x="-0.0040000000000000036" y="75.14200000000001"></use><use xlink:href="#9" y="1.837"></use><use xlink:href="#10" y="7.348"></use><use xlink:href="#11" y="11.022"></use><use xlink:href="#12" y="12.859"></use><use xlink:href="#13" y="14.696"></use><use xlink:href="#14" y="16.533"></use><use xlink:href="#15" y="18.37"></use><use xlink:href="#11" y="20.206999999999997"></use><use xlink:href="#16" y="22.044"></use><use xlink:href="#17" y="23.881000000000004"></use><use xlink:href="#18" y="25.718"></use><use xlink:href="#19" y="27.555"></use><use xlink:href="#20" y="29.392"></use><use xlink:href="#21" y="31.229000000000003"></use><use xlink:href="#22" y="33.066"></use><use xlink:href="#23" y="34.903"></use><use xlink:href="#24" y="36.74"></use><use xlink:href="#25" y="38.577000000000005"></use><use xlink:href="#26" y="40.413999999999994"></use><use xlink:href="#27" y="42.251"></use><use xlink:href="#28" y="44.088"></use><use xlink:href="#29" y="45.925000000000004"></use><use xlink:href="#28" y="47.76200000000001"></use><use xlink:href="#30" y="51.436"></use><use xlink:href="#31" y="53.273"></use><use xlink:href="#17" y="56.947"></use><use xlink:href="#18" y="58.784"></use><use xlink:href="#19" y="60.621"></use><use xlink:href="#20" y="62.458000000000006"></use><use xlink:href="#21" y="64.295"></use><use xlink:href="#22" y="66.132"></use><use xlink:href="#23" y="67.96900000000001"></use><use xlink:href="#24" y="69.806"></use><use xlink:href="#25" y="71.643"></use><use xlink:href="#26" y="73.48"></use></svg><svg x="6720"><use xlink:href="#a"></use><use xlink:href="#b" x="-0.0040000000000000036" y="75.14200000000001"></use><use xlink:href="#10" y="0"></use><use xlink:href="#11" y="3.674"></use><use xlink:href="#12" y="5.511"></use><use xlink:href="#13" y="7.348"></use><use xlink:href="#14" y="9.185"></use><use xlink:href="#15" y="11.022"></use><use xlink:href="#11" y="12.859"></use><use xlink:href="#16" y="14.696"></use><use xlink:href="#17" y="16.533"></use><use xlink:href="#18" y="18.37"></use><use xlink:href="#19" y="20.206999999999997"></use><use xlink:href="#20" y="22.044"></use><use xlink:href="#21" y="23.881000000000004"></use><use xlink:href="#22" y="25.718"></use><use xlink:href="#23" y="27.555"></use><use xlink:href="#24" y="29.392"></use><use xlink:href="#25" y="31.229000000000003"></use><use xlink:href="#26" y="33.066"></use><use xlink:href="#27" y="34.903"></use><use xlink:href="#28" y="36.74"></use><use xlink:href="#29" y="38.577000000000005"></use><use xlink:href="#28" y="40.413999999999994"></use><use xlink:href="#30" y="44.088"></use><use xlink:href="#31" y="45.925000000000004"></use><use xlink:href="#17" y="49.599"></use><use xlink:href="#18" y="51.436"></use><use xlink:href="#19" y="53.273"></use><use xlink:href="#20" y="55.11"></use><use xlink:href="#21" y="56.947"></use><use xlink:href="#22" y="58.784"></use><use xlink:href="#23" y="60.621"></use><use xlink:href="#24" y="62.458000000000006"></use><use xlink:href="#25" y="64.295"></use><use xlink:href="#26" y="66.132"></use><use xlink:href="#27" y="67.96900000000001"></use><use xlink:href="#28" y="69.806"></use><use xlink:href="#29" y="71.643"></use><use xlink:href="#28" y="73.48"></use></svg><svg x="6860"><use xlink:href="#a"></use><use xlink:href="#b" x="-0.0040000000000000036" y="75.14200000000001"></use><use xlink:href="#13" y="0"></use><use xlink:href="#14" y="1.837"></use><use xlink:href="#15" y="3.674"></use><use xlink:href="#11" y="5.511"></use><use xlink:href="#16" y="7.348"></use><use xlink:href="#17" y="9.185"></use><use xlink:href="#18" y="11.022"></use><use xlink:href="#19" y="12.859"></use><use xlink:href="#20" y="14.696"></use><use xlink:href="#21" y="16.533"></use><use xlink:href="#22" y="18.37"></use><use xlink:href="#23" y="20.206999999999997"></use><use xlink:href="#24" y="22.044"></use><use xlink:href="#25" y="23.881000000000004"></use><use xlink:href="#26" y="25.718"></use><use xlink:href="#27" y="27.555"></use><use xlink:href="#28" y="29.392"></use><use xlink:href="#29" y="31.229000000000003"></use><use xlink:href="#28" y="33.066"></use><use xlink:href="#30" y="36.74"></use><use xlink:href="#31" y="38.577000000000005"></use><use xlink:href="#17" y="42.251"></use><use xlink:href="#18" y="44.088"></use><use xlink:href="#19" y="45.925000000000004"></use><use xlink:href="#20" y="47.76200000000001"></use><use xlink:href="#21" y="49.599"></use><use xlink:href="#22" y="51.436"></use><use xlink:href="#23" y="53.273"></use><use xlink:href="#24" y="55.11"></use><use xlink:href="#25" y="56.947"></use><use xlink:href="#26" y="58.784"></use><use xlink:href="#27" y="60.621"></use><use xlink:href="#28" y="62.458000000000006"></use><use xlink:href="#29" y="64.295"></use><use xlink:href="#28" y="66.132"></use><use xlink:href="#32" y="69.806"></use><use xlink:href="#33" y="71.643"></use></svg><svg x="7000"><use xlink:href="#a"></use><use xlink:href="#b" x="-0.0040000000000000036" y="75.14200000000001"></use><use xlink:href="#14" y="0"></use><use xlink:href="#15" y="1.837"></use><use xlink:href="#11" y="3.674"></use><use xlink:href="#16" y="5.511"></use><use xlink:href="#17" y="7.348"></use><use xlink:href="#18" y="9.185"></use><use xlink:href="#19" y="11.022"></use><use xlink:href="#20" y="12.859"></use><use xlink:href="#21" y="14.696"></use><use xlink:href="#22" y="16.533"></use><use xlink:href="#23" y="18.37"></use><use xlink:href="#24" y="20.206999999999997"></use><use xlink:href="#25" y="22.044"></use><use xlink:href="#26" y="23.881000000000004"></use><use xlink:href="#27" y="25.718"></use><use xlink:href="#28" y="27.555"></use><use xlink:href="#29" y="29.392"></use><use xlink:href="#28" y="31.229000000000003"></use><use xlink:href="#30" y="34.903"></use><use xlink:href="#31" y="36.74"></use><use xlink:href="#17" y="40.413999999999994"></use><use xlink:href="#18" y="42.251"></use><use xlink:href="#19" y="44.088"></use><use xlink:href="#20" y="45.925000000000004"></use><use xlink:href="#21" y="47.76200000000001"></use><use xlink:href="#22" y="49.599"></use><use xlink:href="#23" y="51.436"></use><use xlink:href="#24" y="53.273"></use><use xlink:href="#25" y="55.11"></use><use xlink:href="#26" y="56.947"></use><use xlink:href="#27" y="58.784"></use><use xlink:href="#28" y="60.621"></use><use xlink:href="#29" y="62.458000000000006"></use><use xlink:href="#28" y="64.295"></use><use xlink:href="#32" y="67.96900000000001"></use><use xlink:href="#33" y="69.806"></use><use xlink:href="#34" y="73.48"></use></svg><svg x="7140"><use xlink:href="#a"></use><use xlink:href="#b" x="-0.0040000000000000036" y="75.14200000000001"></use><use xlink:href="#15" y="0"></use><use xlink:href="#11" y="1.837"></use><use xlink:href="#16" y="3.674"></use><use xlink:href="#17" y="5.511"></use><use xlink:href="#18" y="7.348"></use><use xlink:href="#19" y="9.185"></use><use xlink:href="#20" y="11.022"></use><use xlink:href="#21" y="12.859"></use><use xlink:href="#22" y="14.696"></use><use xlink:href="#23" y="16.533"></use><use xlink:href="#24" y="18.37"></use><use xlink:href="#25" y="20.206999999999997"></use><use xlink:href="#26" y="22.044"></use><use xlink:href="#27" y="23.881000000000004"></use><use xlink:href="#28" y="25.718"></use><use xlink:href="#29" y="27.555"></use><use xlink:href="#28" y="29.392"></use><use xlink:href="#30" y="33.066"></use><use xlink:href="#31" y="34.903"></use><use xlink:href="#17" y="38.577000000000005"></use><use xlink:href="#18" y="40.413999999999994"></use><use xlink:href="#19" y="42.251"></use><use xlink:href="#20" y="44.088"></use><use xlink:href="#21" y="45.925000000000004"></use><use xlink:href="#22" y="47.76200000000001"></use><use xlink:href="#23" y="49.599"></use><use xlink:href="#24" y="51.436"></use><use xlink:href="#25" y="53.273"></use><use xlink:href="#26" y="55.11"></use><use xlink:href="#27" y="56.947"></use><use xlink:href="#28" y="58.784"></use><use xlink:href="#29" y="60.621"></use><use xlink:href="#28" y="62.458000000000006"></use><use xlink:href="#32" y="66.132"></use><use xlink:href="#33" y="67.96900000000001"></use><use xlink:href="#34" y="71.643"></use><use xlink:href="#35" y="73.48"></use></svg><svg x="7280"><use xlink:href="#a"></use><use xlink:href="#b" x="-0.0040000000000000036" y="75.14200000000001"></use><use xlink:href="#11" y="0"></use><use xlink:href="#16" y="1.837"></use><use xlink:href="#17" y="3.674"></use><use xlink:href="#18" y="5.511"></use><use xlink:href="#19" y="7.348"></use><use xlink:href="#20" y="9.185"></use><use xlink:href="#21" y="11.022"></use><use xlink:href="#22" y="12.859"></use><use xlink:href="#23" y="14.696"></use><use xlink:href="#24" y="16.533"></use><use xlink:href="#25" y="18.37"></use><use xlink:href="#26" y="20.206999999999997"></use><use xlink:href="#27" y="22.044"></use><use xlink:href="#28" y="23.881000000000004"></use><use xlink:href="#29" y="25.718"></use><use xlink:href="#28" y="27.555"></use><use xlink:href="#30" y="31.229000000000003"></use><use xlink:href="#31" y="33.066"></use><use xlink:href="#17" y="36.74"></use><use xlink:href="#18" y="38.577000000000005"></use><use xlink:href="#19" y="40.413999999999994"></use><use xlink:href="#20" y="42.251"></use><use xlink:href="#21" y="44.088"></use><use xlink:href="#22" y="45.925000000000004"></use><use xlink:href="#23" y="47.76200000000001"></use><use xlink:href="#24" y="49.599"></use><use xlink:href="#25" y="51.436"></use><use xlink:href="#26" y="53.273"></use><use xlink:href="#27" y="55.11"></use><use xlink:href="#28" y="56.947"></use><use xlink:href="#29" y="58.784"></use><use xlink:href="#28" y="60.621"></use><use xlink:href="#32" y="64.295"></use><use xlink:href="#33" y="66.132"></use><use xlink:href="#34" y="69.806"></use><use xlink:href="#35" y="71.643"></use><text x="0" y="75.15" class="c">No</text><text x="3.006" y="75.15" class="c">problems</text><text x="12.024" y="75.15" class="c">found</text><text x="18.035999999999998" y="75.15" class="c">in</text><text x="21.041999999999998" y="75.15" class="c">10</text><text x="24.048" y="75.15" class="c">feature</text><text x="32.064" y="75.15" class="c">files</text><text x="38.07599999999999" y="75.15" class="c">(took</text><text x="44.087999999999994" y="75.15" class="c">0.052089929580688</text><text x="62.123999999999995" y="75.15" class="c">seconds)</text></svg></svg></g></g></svg></svg>