<?xml version="1.0" encoding="UTF-8"?>
<svg width="963px" height="228px" viewBox="0 0 963 228" version="1.1" xmlns="http://www.w3.org/2000/svg" xmlns:xlink="http://www.w3.org/1999/xlink">
    <!-- Generator: Sketch 62 (91390) - https://sketch.com -->
    <title>Group</title>
    <desc>Created with Sketch.</desc>
    <g id="Page-1" stroke="none" stroke-width="1" fill="none" fill-rule="evenodd">
        <g id="Black" transform="translate(-83.000000, -131.000000)" fill="#FFFFFF" fill-rule="nonzero">
            <g id="Group" transform="translate(83.000000, 131.000000)">
                <path d="M94.7067901,0 L165.95679,70.6274576 L177.685185,87.038747 L185.895062,105.794506 L189.41358,122.791913 L190,136.272615 L189.41358,136.858732 L189.41358,143.892142 L188.82716,144.47826 L188.240741,151.511669 L185.895062,160.889549 L182.376543,170.267429 C176.981481,182.497747 169.846708,192.950175 160.972222,201.624714 C152.527778,209.595911 142.558642,216.043203 131.064815,220.96659 L114.058642,226.241648 L110.540123,226.241648 L105.848765,227.413883 L99.9845679,227.413883 L99.3981481,228 L90.6018519,228 L90.0154321,227.413883 L79.4598765,226.827765 L68.904321,224.483295 L53.6574074,218.62212 C43.2582305,213.386138 34.1687243,206.841159 26.3888889,198.987185 C18.3353909,190.625242 11.8847737,180.661245 7.03703704,169.095194 L1.75925926,152.097787 L1.17283951,145.064377 L0.586419753,144.47826 L0,130.41144 L0.586419753,129.825323 L1.17283951,118.102973 L4.10493827,105.794506 L10.5555556,89.9693343 L17.0061728,79.4192198 L23.4567901,71.2135751 L94.7067901,0 Z M93.5,20 L69.9963504,42.8784195 L34.7408759,78.0759878 L27.689781,86.8753799 C24.1642336,91.177305 21.2262774,96.4569402 18.8759124,102.714286 L14.1751825,117.379939 L13.5875912,124.419453 L13,125.006079 L13,141.431611 L14.7627737,151.404255 L18.2883212,162.550152 C22.2055961,171.93617 27.4939173,180.344478 34.1532847,187.775076 C39.6374696,193.641337 46.296837,198.725431 54.1313869,203.027356 L70.5839416,210.066869 L85.2737226,213 L102.313869,213 L118.766423,209.480243 C130.518248,205.178318 140.703163,199.116515 149.321168,191.294833 C156.372263,184.646403 162.052311,176.824721 166.361314,167.829787 L171.062044,155.510638 L174,140.844985 L174,125.592705 L172.824818,117.966565 L169.886861,107.407295 C165.577859,95.2836879 159.506083,85.3110436 151.671533,77.4893617 L134.631387,59.8905775 L124.642336,69.8632219 L142.857664,88.0486322 L151.671533,99.781155 C154.413625,104.08308 156.568127,109.167173 158.135036,115.033435 L159.89781,124.419453 L160,130 L159.89781,142.604863 L157.547445,153.75076 L152.846715,164.896657 L145.79562,175.455927 C140.311436,182.495441 133.456204,188.16616 125.229927,192.468085 L111.715328,197.74772 L99.3759124,200.094225 L88.2116788,200.094225 L75.8722628,197.74772 C66.4708029,195.010132 58.636253,191.099291 52.3686131,186.015198 C44.9257908,180.148936 38.8540146,173.109422 34.1532847,164.896657 L29.4525547,153.75076 L27.1021898,142.604863 L27.1021898,136.738602 L26.5145985,136.151976 L27.1021898,124.419453 L28.8649635,115.033435 C30.823601,107.211753 33.9574209,100.563323 38.2664234,95.0881459 L44.1423358,88.0486322 L102.90146,29.3860182 L93.5,20 Z M115.146067,38 L73.8539326,78.296 C74.247191,79.0746667 74.0505618,79.2693333 73.2640449,78.88 L54.9775281,96.984 L50.8483146,102.24 C46.5224719,107.690667 43.5730337,114.893333 42,123.848 L42,140.2 L44.3595506,149.544 C46.7191011,156.162667 50.258427,162.002667 54.9775281,167.064 C58.5168539,171.346667 63.0393258,174.850667 68.5449438,177.576 L81.5224719,182.832 L88.6011236,184 L100.398876,184 L108.067416,182.832 L121.044944,177.576 L129.893258,171.152 C138.544944,163.365333 144.247191,152.658667 147,139.032 L147,124.432 L144.640449,115.088 C141.494382,106.522667 135.587345,99.279793 131.073034,94.356 C128.989417,91.8468151 123.680428,86.4934818 115.146067,78.296 L104.52809,88.808 L126.353933,112.168 L129.893258,119.176 L131.662921,125.016 L131.662921,138.448 L129.893258,144.872 C127.926966,149.544 125.370787,153.632 122.224719,157.136 L114.55618,163.56 L102.168539,168.232 L87.4213483,168.232 L78.5730337,165.312 L70.3146067,160.056 L62.6460674,151.88 L59.1067416,144.872 L57.3370787,139.032 L57.3370787,125.016 L59.1067416,119.176 L62.6460674,112.168 L67.3651685,106.328 L125.174157,49.096 L125.174157,47.928 L115.146067,38 Z M95.2277228,98 L76.4405941,117.907975 L72.4554455,127.560327 C71.6963696,132.386503 71.8861386,136.408316 73.0247525,139.625767 C74.1633663,143.64758 76.0610561,147.066121 78.7178218,149.881391 C81.7541254,153.098841 85.9290429,155.310838 91.2425743,156.517382 C95.4174917,157.321745 99.0231023,157.120654 102.059406,155.91411 L108.321782,152.897751 L111.737624,149.881391 L116.861386,141.435583 L118,136.609407 L118,128.163599 L114.584158,118.511247 L95.2277228,98 Z" id="Shape"></path>
                <path d="M298.9875,176 C306.9075,176 314.8575,174.68 322.8375,172.04 C330.8175,169.4 338.0175,165.41 344.4375,160.07 C350.8575,154.73 356.0475,148.1 360.0075,140.18 C363.9675,132.26 365.9475,122.96 365.9475,112.28 C365.9475,101.72 363.9675,92.45 360.0075,84.47 C356.0475,76.49 350.8575,69.83 344.4375,64.49 C338.0175,59.15 330.8175,55.16 322.8375,52.52 C314.8575,49.88 306.9075,48.56 298.9875,48.56 L298.9875,48.56 L256.6875,48.56 L256.6875,176 L298.9875,176 Z M294.8475,164.12 L269.6475,164.12 L269.6475,60.44 L294.8475,60.44 C304.5675,60.44 312.9975,61.91 320.1375,64.85 C327.2775,67.79 333.2175,71.69 337.9575,76.55 C342.6975,81.41 346.2075,86.93 348.4875,93.11 C350.7675,99.29 351.9075,105.68 351.9075,112.28 C351.9075,118.88 350.7675,125.27 348.4875,131.45 C346.2075,137.63 342.6975,143.15 337.9575,148.01 C333.2175,152.87 327.2775,156.77 320.1375,159.71 C312.9975,162.65 304.5675,164.12 294.8475,164.12 L294.8475,164.12 Z M402.9825,176 L402.9825,128.48 C402.9825,125.6 403.4925,122.6 404.5125,119.48 C405.5325,116.36 407.1225,113.45 409.2825,110.75 C411.4425,108.05 414.1425,105.83 417.3825,104.09 C420.6225,102.35 424.5225,101.48 429.0825,101.48 C432.0825,101.48 434.3625,101.78 435.9225,102.38 L435.9225,102.38 L438.2625,90.68 C435.7425,89.96 432.8025,89.6 429.4425,89.6 C425.7225,89.6 422.3925,90.11 419.4525,91.13 C416.5125,92.15 413.9325,93.5 411.7125,95.18 C409.4925,96.86 407.6025,98.75 406.0425,100.85 C404.4825,102.95 403.2825,105.14 402.4425,107.42 L402.4425,107.42 L402.0825,107.42 L402.0825,91.76 L390.3825,91.76 C390.5025,97.88 390.6525,102.86 390.8325,106.7 C391.0125,110.54 391.1025,114.32 391.1025,118.04 L391.1025,118.04 L391.1025,176 L402.9825,176 Z M487.8975,178.16 C494.8575,178.16 501.3675,176.78 507.4275,174.02 C513.4875,171.26 519.0375,166.7 524.0775,160.34 L524.0775,160.34 L514.8975,152.78 C512.4975,156.62 508.9875,160.01 504.3675,162.95 C499.7475,165.89 494.2575,167.36 487.8975,167.36 C483.6975,167.36 479.7975,166.58 476.1975,165.02 C472.5975,163.46 469.4175,161.33 466.6575,158.63 C463.8975,155.93 461.6775,152.72 459.9975,149 C458.3175,145.28 457.2975,141.32 456.9375,137.12 L456.9375,137.12 L527.1375,137.12 L527.1375,131.72 C527.1375,125.96 526.2375,120.53 524.4375,115.43 C522.6375,110.33 520.0275,105.89 516.6075,102.11 C513.1875,98.33 508.9575,95.3 503.9175,93.02 C498.8775,90.74 493.1775,89.6 486.8175,89.6 C480.8175,89.6 475.2375,90.71 470.0775,92.93 C464.9175,95.15 460.4175,98.24 456.5775,102.2 C452.7375,106.16 449.7375,110.84 447.5775,116.24 C445.4175,121.64 444.3375,127.52 444.3375,133.88 C444.3375,140.24 445.4475,146.12 447.6675,151.52 C449.8875,156.92 452.9175,161.6 456.7575,165.56 C460.5975,169.52 465.1875,172.61 470.5275,174.83 C475.8675,177.05 481.6575,178.16 487.8975,178.16 Z M514.1775,127.4 L457.2975,127.4 C457.2975,123.92 458.1075,120.56 459.7275,117.32 C461.3475,114.08 463.5075,111.2 466.2075,108.68 C468.9075,106.16 472.0575,104.15 475.6575,102.65 C479.2575,101.15 482.9775,100.4 486.8175,100.4 C495.4575,100.4 502.1775,102.89 506.9775,107.87 C511.7775,112.85 514.1775,119.36 514.1775,127.4 L514.1775,127.4 Z M588.1125,176 L622.3125,91.76 L608.8125,91.76 L581.9925,162.68 L581.6325,162.68 L554.8125,91.76 L540.5925,91.76 L574.7925,176 L588.1125,176 Z M702.1875,179.24 C711.6675,179.24 720.4575,177.56 728.5575,174.2 C736.6575,170.84 743.6775,166.19 749.6175,160.25 C755.5575,154.31 760.2075,147.26 763.5675,139.1 C766.9275,130.94 768.6075,122 768.6075,112.28 C768.6075,102.56 766.9275,93.62 763.5675,85.46 C760.2075,77.3 755.5575,70.25 749.6175,64.31 C743.6775,58.37 736.6575,53.72 728.5575,50.36 C720.4575,47 711.6675,45.32 702.1875,45.32 C692.7075,45.32 683.9175,47 675.8175,50.36 C667.7175,53.72 660.6975,58.37 654.7575,64.31 C648.8175,70.25 644.1675,77.3 640.8075,85.46 C637.4475,93.62 635.7675,102.56 635.7675,112.28 C635.7675,122 637.4475,130.94 640.8075,139.1 C644.1675,147.26 648.8175,154.31 654.7575,160.25 C660.6975,166.19 667.7175,170.84 675.8175,174.2 C683.9175,177.56 692.7075,179.24 702.1875,179.24 Z M702.1875,167.36 C694.0275,167.36 686.7075,165.86 680.2275,162.86 C673.7475,159.86 668.2575,155.84 663.7575,150.8 C659.2575,145.76 655.8075,139.91 653.4075,133.25 C651.0075,126.59 649.8075,119.6 649.8075,112.28 C649.8075,104.96 651.0075,97.97 653.4075,91.31 C655.8075,84.65 659.2575,78.8 663.7575,73.76 C668.2575,68.72 673.7475,64.7 680.2275,61.7 C686.7075,58.7 694.0275,57.2 702.1875,57.2 C710.3475,57.2 717.6675,58.7 724.1475,61.7 C730.6275,64.7 736.1175,68.72 740.6175,73.76 C745.1175,78.8 748.5675,84.65 750.9675,91.31 C753.3675,97.97 754.5675,104.96 754.5675,112.28 C754.5675,119.6 753.3675,126.59 750.9675,133.25 C748.5675,139.91 745.1175,145.76 740.6175,150.8 C736.1175,155.84 730.6275,159.86 724.1475,162.86 C717.6675,165.86 710.3475,167.36 702.1875,167.36 Z M804.3825,227.84 L804.3825,161.96 L804.7425,161.96 C806.6625,164.84 808.9425,167.3 811.5825,169.34 C814.2225,171.38 816.9825,173.06 819.8625,174.38 C822.7425,175.7 825.7125,176.66 828.7725,177.26 C831.8325,177.86 834.7425,178.16 837.5025,178.16 C844.1025,178.16 850.1325,177.05 855.5925,174.83 C861.0525,172.61 865.7625,169.52 869.7225,165.56 C873.6825,161.6 876.7725,156.92 878.9925,151.52 C881.2125,146.12 882.3225,140.24 882.3225,133.88 C882.3225,127.52 881.2125,121.64 878.9925,116.24 C876.7725,110.84 873.6825,106.16 869.7225,102.2 C865.7625,98.24 861.0525,95.15 855.5925,92.93 C850.1325,90.71 844.1025,89.6 837.5025,89.6 C834.7425,89.6 831.8325,89.9 828.7725,90.5 C825.7125,91.1 822.7425,92.06 819.8625,93.38 C816.9825,94.7 814.2225,96.38 811.5825,98.42 C808.9425,100.46 806.6625,102.92 804.7425,105.8 L804.7425,105.8 L804.3825,105.8 L804.3825,91.76 L792.5025,91.76 L792.5025,227.84 L804.3825,227.84 Z M837.5025,167.36 C832.5825,167.36 828.0825,166.49 824.0025,164.75 C819.9225,163.01 816.3825,160.64 813.3825,157.64 C810.3825,154.64 808.0425,151.1 806.3625,147.02 C804.6825,142.94 803.8425,138.56 803.8425,133.88 C803.8425,129.2 804.6825,124.82 806.3625,120.74 C808.0425,116.66 810.3825,113.12 813.3825,110.12 C816.3825,107.12 819.9225,104.75 824.0025,103.01 C828.0825,101.27 832.5825,100.4 837.5025,100.4 C842.4225,100.4 846.8325,101.27 850.7325,103.01 C854.6325,104.75 857.9625,107.12 860.7225,110.12 C863.4825,113.12 865.6125,116.66 867.1125,120.74 C868.6125,124.82 869.3625,129.2 869.3625,133.88 C869.3625,138.56 868.6125,142.94 867.1125,147.02 C865.6125,151.1 863.4825,154.64 860.7225,157.64 C857.9625,160.64 854.6325,163.01 850.7325,164.75 C846.8325,166.49 842.4225,167.36 837.5025,167.36 Z M930.1575,178.16 C934.2375,178.16 938.2575,177.68 942.2175,176.72 C946.1775,175.76 949.6875,174.23 952.7475,172.13 C955.8075,170.03 958.2675,167.33 960.1275,164.03 C961.9875,160.73 962.9175,156.8 962.9175,152.24 C962.9175,146.24 960.9675,141.23 957.0675,137.21 C953.1675,133.19 948.2775,130.52 942.3975,129.2 L942.3975,129.2 L930.3375,126.32 C924.8175,125 920.6775,123.44 917.9175,121.64 C915.1575,119.84 913.7775,116.96 913.7775,113 C913.7775,110.72 914.2875,108.8 915.3075,107.24 C916.3275,105.68 917.6775,104.39 919.3575,103.37 C921.0375,102.35 922.9275,101.6 925.0275,101.12 C927.1275,100.64 929.1975,100.4 931.2375,100.4 C935.5575,100.4 939.2175,101.42 942.2175,103.46 C945.2175,105.5 947.6175,108.26 949.4175,111.74 L949.4175,111.74 L960.0375,104.72 C957.2775,99.2 953.3775,95.3 948.3375,93.02 C943.2975,90.74 937.8375,89.6 931.9575,89.6 C927.9975,89.6 924.1575,90.11 920.4375,91.13 C916.7175,92.15 913.3875,93.68 910.4475,95.72 C907.5075,97.76 905.1675,100.4 903.4275,103.64 C901.6875,106.88 900.8175,110.66 900.8175,114.98 C900.8175,118.94 901.6575,122.27 903.3375,124.97 C905.0175,127.67 907.0275,129.86 909.3675,131.54 C911.7075,133.22 914.1075,134.48 916.5675,135.32 C919.0275,136.16 920.9775,136.76 922.4175,137.12 L922.4175,137.12 L933.9375,139.82 C938.3775,140.9 942.1575,142.37 945.2775,144.23 C948.3975,146.09 949.9575,149.12 949.9575,153.32 C949.9575,155.72 949.3875,157.82 948.2475,159.62 C947.1075,161.42 945.6075,162.89 943.7475,164.03 C941.8875,165.17 939.7575,166.01 937.3575,166.55 C934.9575,167.09 932.5575,167.36 930.1575,167.36 C925.1175,167.36 920.7675,166.22 917.1075,163.94 C913.4475,161.66 910.4175,158.6 908.0175,154.76 L908.0175,154.76 L897.7575,161.78 C901.7175,167.78 906.4875,172.01 912.0675,174.47 C917.6475,176.93 923.6775,178.16 930.1575,178.16 Z" id="DrevOps"></path>
            </g>
        </g>
    </g>
</svg>