<svg width="5267" height="1247" viewBox="0 0 5267 1247" fill="none" xmlns="http://www.w3.org/2000/svg">
<path d="M1011.19 597.403C988.318 508.771 942.368 429.419 880.123 366.132L514.068 0.0761719L146.414 367.726C-10.518 528.674 -41.1878 767.448 56.2944 958.829C141.151 1125.42 314.272 1239.52 514.051 1239.52C713.829 1239.52 886.957 1125.41 971.82 958.812C984.806 933.317 1060.17 787.162 1011.19 597.4L1011.19 597.403ZM614.259 200.469L664.358 250.568L338.975 575.951C335.175 579.75 331.62 583.797 328.4 588.1C276.857 656.973 282.457 730.538 282.511 732.616C285.752 857.493 388.011 957.732 513.677 957.732C639.343 957.732 742.013 857.085 744.849 731.844C744.972 726.467 749.67 636.471 680.886 567.69L564.163 450.967L564.554 450.57L614.266 400.868C614.266 400.868 732.514 517.708 741.842 528.444C841.247 642.89 813.129 771.868 807.793 794.785C776.712 928.266 656.999 1027.71 514.054 1027.71C371.109 1027.71 251.403 928.273 220.322 794.806C182.536 632.548 289.442 524.837 291.475 522.584C291.561 522.491 614.255 200.472 614.259 200.465V200.469ZM620.092 607.084C629.878 615.807 673.904 656.504 673.613 727.163C673.25 815.36 599.339 887.768 511.153 886.404C423.985 885.052 353.737 813.974 353.737 726.488C353.737 688.137 367.231 652.944 389.739 625.391C396.56 617.035 514.071 501.059 514.071 501.059L620.095 607.084H620.092ZM945.139 831.157C945.063 831.473 919.523 906.299 919.455 906.447C850.359 1061.57 694.832 1169.7 514.051 1169.7C333.269 1169.7 177.76 1061.58 108.663 906.46C108.612 906.333 108.55 906.213 108.499 906.086C67.9019 807.548 70.8063 743.767 70.7686 742.937C70.7686 742.937 56.0132 576.757 179.354 434.977C185.815 427.55 192.518 420.346 199.459 413.367L514.068 100.271L564.167 150.37L237.175 477.361C190.324 529.466 157.987 594.866 146.493 667.202C146.425 667.607 146.359 668.018 146.298 668.423C111.444 903.645 292.881 1098.31 514.054 1098.31C675.592 1098.31 813.095 995.407 864.586 851.571C884.471 796.02 890.801 726.2 881.807 668.403C870.457 595.452 837.914 529.507 790.668 477.07L664.358 350.759L714.457 300.66C714.457 300.66 834.424 418.525 848.634 434.837C959.256 561.82 973.045 716.293 945.135 831.151L945.139 831.157Z" fill="white"/>
<path d="M1403.5 264.233H1635.17C1809.67 264.233 2001.91 380.561 2001.91 613.222C2001.91 845.882 1809.67 962.211 1635.17 962.211H1403.5V264.233ZM1474.48 897.147H1612.5C1825.44 897.147 1925.02 757.158 1925.02 613.222C1925.02 469.286 1825.44 329.3 1612.5 329.3H1474.48V897.147Z" fill="white"/>
<path d="M2138.94 644.769C2138.94 603.363 2136.97 567.872 2135 500.837H2199.07V586.605H2201.05C2219.78 537.312 2268.09 489.006 2348.92 489.006C2367.65 489.006 2383.43 490.978 2397.23 494.922L2384.41 559.001C2376.53 556.045 2364.7 554.073 2346.95 554.073C2248.36 554.073 2204 639.842 2204 701.949V962.214H2138.94V644.773L2138.94 644.769Z" fill="white"/>
<path d="M2498.77 749.271C2506.65 841.942 2576.65 914.893 2668.33 914.893C2737.34 914.893 2790.58 876.446 2816.21 835.039L2866.49 876.446C2812.26 945.456 2744.24 974.044 2668.33 974.044C2531.3 974.044 2429.75 870.53 2429.75 731.525C2429.75 592.52 2531.3 489.006 2662.41 489.006C2802.4 489.99 2883.24 593.504 2883.24 719.695V749.271H2498.76H2498.77ZM2812.27 696.034C2812.27 608.294 2756.08 548.158 2662.42 548.158C2577.64 548.158 2500.74 620.124 2500.74 696.034H2812.27H2812.27Z" fill="white"/>
<path d="M3216.46 962.214H3143.5L2956.19 500.837H3034.08L3180.97 889.26H3182.94L3329.83 500.837H3403.77L3216.46 962.214Z" fill="white"/>
<path d="M3840.49 979.959C3632.48 979.959 3476.72 825.181 3476.72 613.225C3476.72 401.27 3632.48 246.491 3840.49 246.491C4048.51 246.491 4204.27 401.27 4204.27 613.225C4204.27 825.181 4048.51 979.959 3840.49 979.959ZM3840.49 311.554C3661.07 311.554 3553.61 452.531 3553.61 613.222C3553.61 773.912 3661.07 914.893 3840.49 914.893C4019.92 914.893 4127.38 773.916 4127.38 613.222C4127.38 452.528 4019.92 311.554 3840.49 311.554Z" fill="white"/>
<path d="M4334.4 500.837H4399.47V577.734H4401.44C4443.83 515.626 4519.74 489.01 4580.86 489.01C4724.8 489.01 4826.34 592.524 4826.34 731.529C4826.34 870.534 4724.8 974.048 4580.86 974.048C4519.74 974.048 4443.83 947.431 4401.44 885.32H4399.47V1246.14H4334.4V500.837ZM4580.86 548.158C4474.39 548.158 4396.51 628.011 4396.51 731.525C4396.51 835.039 4474.39 914.893 4580.86 914.893C4687.33 914.893 4755.36 835.039 4755.36 731.525C4755.36 628.011 4688.32 548.158 4580.86 548.158Z" fill="white"/>
<path d="M5193.06 610.266C5173.34 572.803 5140.81 548.158 5093.49 548.158C5046.17 548.158 4997.86 567.875 4997.86 617.169C4997.86 660.547 5028.42 676.32 5088.56 690.123L5154.61 705.896C5218.69 720.683 5267 767.02 5267 832.083C5267 932.638 5177.29 974.044 5087.58 974.044C5017.58 974.044 4953.5 949.399 4910.12 884.332L4966.32 845.886C4992.93 887.292 5033.36 914.896 5087.58 914.896C5141.8 914.896 5196.02 891.235 5196.02 837.999C5196.02 791.665 5156.58 775.891 5108.28 764.061L5045.18 749.271C5013.63 741.384 4926.88 715.752 4926.88 628.011C4926.88 532.384 5010.68 489.006 5097.43 489.006C5161.51 489.006 5221.65 511.679 5251.22 571.819L5193.06 610.266H5193.06Z" fill="white"/>
</svg>
