<svg width="526" height="526" viewBox="0 0 526 526" fill="none" xmlns="http://www.w3.org/2000/svg">
<path d="M262.82 525.64C192.62 525.64 126.62 498.3 76.98 448.66C27.34 399.02 0 333.02 0 262.82C0 192.62 27.34 126.62 76.98 76.98C126.62 27.34 192.62 0 262.82 0C333.02 0 399.02 27.34 448.66 76.98C498.3 126.62 525.64 192.62 525.64 262.82C525.64 333.02 498.3 399.02 448.66 448.66C399.02 498.3 333.02 525.64 262.82 525.64ZM262.82 38.78C139.29 38.78 38.78 139.28 38.78 262.82C38.78 386.35 139.28 486.86 262.82 486.86C386.35 486.86 486.86 386.36 486.86 262.82C486.86 139.29 386.36 38.78 262.82 38.78Z" fill="#3A8393"/>
<path d="M165.26 179.87C-0.259995 321.69 167.82 532.47 346.62 451.09C153.29 466.3 93.43 265.62 165.26 179.87Z" fill="#3A8393"/>
<path d="M333.81 141.34C173.11 -5.90999 -15.9199 186.3 86.3801 354.01C48.0201 163.91 240.04 80.35 333.81 141.34Z" fill="#3A8393"/>
<path d="M348.93 354.83C525.78 227.43 376.02 3.25999 191.01 69.33C384.94 70.42 427.71 275.42 348.93 354.83Z" fill="#3A8393"/>
<path d="M195.97 383.01C361.04 525.35 544.19 327.53 436.88 162.98C480.95 351.84 291.54 441.15 195.97 383.01Z" fill="#3A8393"/>
<path d="M295.45 216.93C293.57 206.49 290.11 196.75 285.89 187.07C278.6 170.36 269.32 154.9 258.58 140.24C257.35 138.55 256.32 137.88 255.28 138.02C254.68 138.11 254.18 138.53 253.86 139.03C221.44 190.3 156.89 208.55 155.52 285.28C155.66 291.44 156.44 297.66 158 303.9C164.16 328.59 177.81 348.13 199.04 362.28C204.96 365.74 211.22 368.59 217.6 370.86C217.75 368.93 216.63 367.98 215.78 366.93C213.5 364.09 210.87 361.46 208.96 358.39C200.76 345.2 197.17 331.2 200.05 315.42C202.12 304.03 208.54 295.72 216.8 289.03C226.99 280.79 239.09 275.78 252.04 272.95C260.73 271.06 269.68 269.59 277.32 264.62C291.34 255.5 298.65 234.66 295.44 216.93H295.45ZM214.41 238.85C206.16 248.5 194.63 252.19 188.65 247.08C182.67 241.98 184.49 230 192.73 220.35C200.97 210.69 212.51 207 218.49 212.11C224.47 217.22 222.64 229.19 214.41 238.85Z" fill="#009CDE"/>
<path d="M356.37 283.88V283.93C356.25 287.94 355.92 291.98 355.45 296.05C352.48 309.59 348.25 322.22 340.87 333.75C316.29 372.16 271.4 384.74 246.23 370.38C245.78 370.13 245.33 369.86 244.88 369.58C231.75 361.54 223.45 349.96 222.88 334.32C222.26 317.2 231.3 305.69 246.42 298.6C254.81 294.67 263.84 292.74 272.83 290.83C283.8 288.48 293.85 284.14 302.09 276.57C312.59 266.94 318.91 254.98 319.63 240.5C320.51 222.81 314.26 207.18 305.89 192.19C304.99 190.57 304.3 188.85 303.86 187.05C303.86 187.04 303.86 187.03 303.86 187.02C330.63 211.65 355.11 236.58 356.38 283.87L356.37 283.88Z" fill="#006AA9"/>
</svg>
