<svg width="598" height="595" viewBox="0 0 598 595" fill="none" xmlns="http://www.w3.org/2000/svg">
<path d="M299.82 560.64C229.62 560.64 163.62 533.3 113.98 483.66C64.34 434.02 37 368.02 37 297.82C37 227.62 64.34 161.62 113.98 111.98C163.62 62.34 229.62 35 299.82 35C370.02 35 436.02 62.34 485.66 111.98C535.3 161.62 562.64 227.62 562.64 297.82C562.64 368.02 535.3 434.02 485.66 483.66C436.02 533.3 370.02 560.64 299.82 560.64ZM299.82 73.78C176.29 73.78 75.78 174.28 75.78 297.82C75.78 421.35 176.28 521.86 299.82 521.86C423.35 521.86 523.86 421.36 523.86 297.82C523.86 174.29 423.36 73.78 299.82 73.78Z" fill="#3A8393"/>
<path d="M202.26 214.87C36.74 356.69 204.82 567.47 383.62 486.09C190.29 501.3 130.43 300.62 202.26 214.87Z" fill="#3A8393"/>
<path d="M370.81 176.34C210.11 29.09 21.0801 221.3 123.38 389.01C85.0201 198.91 277.04 115.35 370.81 176.34Z" fill="#3A8393"/>
<path d="M385.93 389.83C562.78 262.43 413.02 38.26 228.01 104.33C421.94 105.42 464.71 310.42 385.93 389.83Z" fill="#3A8393"/>
<path d="M232.97 418.01C398.04 560.35 581.19 362.53 473.88 197.98C517.95 386.84 328.54 476.15 232.97 418.01Z" fill="#3A8393"/>
<path d="M336.934 253.587C335.135 243.589 331.823 234.261 327.784 224.991C320.806 208.988 311.924 194.183 301.644 180.143C300.467 178.525 299.481 177.883 298.486 178.017C297.911 178.103 297.433 178.506 297.126 178.985C266.096 228.084 204.311 245.561 203 319.043C203.134 324.942 203.881 330.899 205.374 336.875C211.27 360.52 224.335 379.232 244.655 392.783C250.322 396.097 256.313 398.826 262.42 401C262.564 399.152 261.492 398.242 260.678 397.236C258.496 394.517 255.978 391.998 254.15 389.058C246.302 376.426 242.865 363.019 245.622 347.907C247.603 336.999 253.748 329.041 261.654 322.634C271.408 314.743 282.989 309.945 295.384 307.235C303.702 305.425 312.269 304.017 319.581 299.258C333.001 290.524 339.997 270.566 336.925 253.587H336.934ZM259.367 274.579C251.47 283.82 240.434 287.354 234.711 282.46C228.987 277.576 230.729 266.103 238.616 256.862C246.503 247.611 257.548 244.077 263.272 248.971C268.996 253.864 267.244 265.328 259.367 274.579Z" fill="#009CDE"/>
<path d="M397.59 312.737V312.785C397.475 316.621 397.161 320.486 396.713 324.38C393.882 337.333 389.85 349.415 382.815 360.445C359.386 397.191 316.598 409.225 292.606 395.488C292.177 395.249 291.748 394.99 291.319 394.722C278.804 387.031 270.893 375.953 270.349 360.991C269.758 344.613 278.375 333.602 292.787 326.819C300.784 323.059 309.392 321.213 317.961 319.386C328.417 317.138 337.997 312.986 345.851 305.744C355.859 296.531 361.883 285.09 362.57 271.237C363.408 254.314 357.451 239.362 349.473 225.021C348.615 223.472 347.957 221.826 347.538 220.104C347.538 220.095 347.538 220.085 347.538 220.075C373.055 243.638 396.389 267.487 397.599 312.728L397.59 312.737Z" fill="#006AA9"/>
</svg>
