<svg width="527" height="526" viewBox="0 0 527 526" fill="none" xmlns="http://www.w3.org/2000/svg">
<path d="M263.6 525.84C193.4 525.84 127.4 498.5 77.76 448.86C28.12 399.22 0.780029 333.22 0.780029 263.02C0.780029 192.82 28.12 126.82 77.76 77.1801C127.4 27.5401 193.4 0.199951 263.6 0.199951C333.8 0.199951 399.8 27.5401 449.44 77.1801C499.08 126.82 526.42 192.82 526.42 263.02C526.42 333.22 499.08 399.22 449.44 448.86C399.8 498.5 333.8 525.84 263.6 525.84ZM263.6 38.98C140.07 38.98 39.5601 139.48 39.5601 263.02C39.5601 386.56 140.06 487.06 263.6 487.06C387.13 487.06 487.64 386.56 487.64 263.02C487.64 139.49 387.14 38.98 263.6 38.98Z" fill="#65ACBC"/>
<path d="M166.04 180.07C0.520058 321.89 168.6 532.67 347.4 451.29C154.07 466.5 94.2101 265.82 166.04 180.07Z" fill="#65ACBC"/>
<path d="M334.59 141.54C173.89 -5.70994 -15.1402 186.5 87.1598 354.21C48.7998 164.11 240.82 80.5501 334.59 141.54Z" fill="#65ACBC"/>
<path d="M349.71 355.03C526.56 227.63 376.8 3.46003 191.79 69.53C385.72 70.62 428.49 275.62 349.71 355.03Z" fill="#65ACBC"/>
<path d="M196.76 383.21C361.83 525.55 544.98 327.73 437.67 163.18C481.74 352.04 292.33 441.35 196.76 383.21Z" fill="#65ACBC"/>
<path d="M296.23 217.13C294.35 206.69 290.89 196.95 286.67 187.27C279.38 170.56 270.1 155.1 259.36 140.44C258.13 138.75 257.1 138.08 256.06 138.22C255.46 138.31 254.96 138.73 254.64 139.23C222.22 190.5 157.67 208.75 156.3 285.48C156.44 291.64 157.22 297.86 158.78 304.1C164.94 328.79 178.59 348.33 199.82 362.48C205.74 365.94 212 368.79 218.38 371.06C218.53 369.13 217.41 368.18 216.56 367.13C214.28 364.29 211.65 361.66 209.74 358.59C201.54 345.4 197.95 331.4 200.83 315.62C202.9 304.23 209.32 295.92 217.58 289.23C227.77 280.99 239.87 275.98 252.82 273.15C261.51 271.26 270.46 269.79 278.1 264.82C292.12 255.7 299.43 234.86 296.22 217.13H296.23ZM215.19 239.05C206.94 248.7 195.41 252.39 189.43 247.28C183.45 242.18 185.27 230.2 193.51 220.55C201.75 210.89 213.29 207.2 219.27 212.31C225.25 217.42 223.42 229.39 215.19 239.05Z" fill="#0678BE"/>
<path d="M357.15 284.08V284.13C357.03 288.14 356.7 292.18 356.23 296.25C353.26 309.79 349.03 322.42 341.65 333.95C317.07 372.36 272.18 384.94 247.01 370.58C246.56 370.33 246.11 370.06 245.66 369.78C232.53 361.74 224.23 350.16 223.66 334.52C223.04 317.4 232.08 305.89 247.2 298.8C255.59 294.87 264.62 292.94 273.61 291.03C284.58 288.68 294.63 284.34 302.87 276.77C313.37 267.14 319.69 255.18 320.41 240.7C321.29 223.01 315.04 207.38 306.67 192.39C305.77 190.77 305.08 189.05 304.64 187.25C304.64 187.24 304.64 187.23 304.64 187.22C331.41 211.85 355.89 236.78 357.16 284.07L357.15 284.08Z" fill="#53B0EB"/>
</svg>
