<svg width="599" height="595" viewBox="0 0 599 595" fill="none" xmlns="http://www.w3.org/2000/svg">
<path d="M1.81447 329.66C0.126084 315.002 -0.523678 300.784 0.46646 286.383C1.4268 272.415 3.28616 258.655 5.85773 244.928C13.1908 205.785 27.9919 169.789 50.3636 136.774C63.0596 118.038 76.83 100.233 93.1056 84.5097C117.539 60.9059 145.248 42.0367 176.23 27.9004C196.372 18.7099 217.074 11.5561 238.752 6.81478C265.49 0.966682 292.488 -1.06869 319.66 0.520748C346.818 2.1094 373.431 7.24966 399.069 16.7117C432.093 28.9003 461.996 46.1911 489.407 68.4821C522.718 95.5718 547.541 129.074 567.499 166.427C581.647 192.905 590.783 221.205 595.925 250.938C599.619 272.293 600.679 293.696 599.598 315.127C598.229 342.281 592.828 368.746 583.667 394.538C573.671 422.677 559.945 448.633 542.036 472.448C510.403 514.512 470.939 546.818 422.812 568.581C398.848 579.417 374.065 587.395 348.094 591.212C335.816 593.016 323.381 593.933 310.918 594.592C282.537 596.094 254.689 592.774 227.253 586.257C181.08 575.291 140.96 552.505 104.736 522.252C74.6142 497.096 51.4123 466.47 32.9083 432.235C19.517 407.46 10.7429 380.862 5.27738 353.24C3.76318 345.587 2.95637 337.794 1.81447 329.66ZM59.2905 215.024C51.3214 235.508 46.5511 256.782 44.9797 278.63C43.3039 301.929 43.6568 325.218 48.6915 348.232C58.7582 394.247 80.0427 434.334 112.485 468.448C140.141 497.531 171.979 520.62 209.432 535.808C234.688 546.049 260.913 551.742 287.951 553.35C312.979 554.838 337.775 551.983 362.039 545.653C391.485 537.971 418.254 524.538 443.158 507.151C467.19 490.372 488.031 470.362 505.801 447.099C522.463 425.287 534.291 401.04 543.725 375.341C552.787 350.657 556.583 325.278 556.899 299.204C557.023 288.962 555.927 278.794 554.896 268.61C552.481 244.744 545.09 222.316 535.326 200.616C526.743 181.541 516.07 163.646 503.356 146.986C488.87 128.005 472.531 110.869 453.4 96.4772C432.34 80.6354 409.293 68.506 384.711 59.0419C360.885 49.8693 336.063 44.9798 310.827 43.6962C293.063 42.7926 275.163 43.7166 257.345 47.474C230.997 53.03 205.87 61.3259 182.361 74.3365C153.688 90.2049 128.132 110.001 106.739 134.992C86.4266 158.721 70.3666 184.928 59.2905 215.024Z" fill="#A963E8"/>
<path d="M290.782 504.689C320.56 514.068 350.73 516.653 381.667 514.817C376.985 518.554 371.816 520.821 366.459 522.573C338.961 531.57 310.571 534.332 281.985 531.79C244.857 528.488 210.94 515.864 180.756 493.455C162.567 479.953 144.916 466.159 132.245 446.942C117.771 424.99 109.632 401.216 107.476 374.851C104.988 344.42 108.162 314.926 117.993 286.175C126.14 262.349 138.798 240.924 154.784 221.475C162.727 211.809 171.094 202.575 182.333 196.515C183.515 195.877 184.51 194.792 186.369 195.18C187.005 197.651 184.975 199.124 183.859 200.79C172.893 217.152 162.811 233.974 156.004 252.567C152.468 262.225 150.755 272.22 149.56 282.413C148.183 294.169 148.275 305.912 148.575 317.677C149.373 348.98 158.093 378.008 173.653 405.136C186.725 427.927 203.98 447.347 223.243 464.825C240.546 480.525 260.7 492.23 282.46 500.999C285.154 502.085 287.777 503.348 290.782 504.689Z" fill="#A963E8"/>
<path d="M396.428 149.196C374.031 123.478 346.814 105.048 315.276 93.6995C297.725 87.3839 279.253 83.7414 260.431 82.0165C248.429 80.9166 236.537 81.8064 224.602 81.5339C222.912 81.4954 221.193 81.6832 219.667 80.5514C220.069 78.2737 222.096 78.3848 223.572 77.9066C237.856 73.2776 252.055 67.9964 266.996 66.1821C282.537 64.2953 298.137 63.054 313.94 64.6671C336.181 66.9376 357.53 72.3088 378.326 80.2503C394.274 86.3405 408.567 95.4596 422.502 105.044C449.619 123.695 471.491 146.998 484.473 177.726C491.162 193.559 493.767 210.236 495.427 227.288C497.656 250.19 495.786 272.709 489.676 294.623C484.226 314.171 476.348 332.884 465.987 350.612C455.873 367.919 443.003 382.331 426.94 394.084C425.658 395.022 424.535 396.576 422.095 396.101C424.053 392.12 427.002 389.183 429.853 386.177C436.536 379.13 441.324 370.952 444.7 361.869C453.77 337.473 456.509 312.156 455.299 286.377C453.929 257.173 448.047 228.942 434.873 202.595C426.569 185.984 414.588 171.842 403.381 157.204C401.309 154.498 398.924 152.033 396.428 149.196Z" fill="#A963E8"/>
<path d="M441.88 474.505C424.415 485.642 405.837 492.025 385.437 493.833C374.838 494.772 364.154 495.485 353.718 494.794C328.429 493.119 303.805 487.665 280.471 477.298C272.338 473.684 264.284 469.938 256.831 465.019C249.624 460.262 243.662 454.164 238.115 447.642C236.826 446.127 235.596 444.404 235.67 441.876C239.021 441.522 242.078 442.592 244.923 443.847C261.822 451.295 279.562 454.413 297.908 456.034C324.545 458.388 350.447 455.321 375.832 447.771C396.575 441.602 414.61 429.96 432.05 417.474C458.036 398.87 477.383 374.793 491.576 346.238C501.601 326.07 509.595 305.261 513.146 283.032C516.082 264.65 516.738 246.094 514.919 227.455C514.348 221.603 513.008 215.795 512.859 209.747C515.585 209.952 516.232 211.905 517.089 213.455C527.059 231.507 531.864 251.017 534.107 271.398C534.833 277.999 536.667 294.312 534.578 318.73C533.232 334.468 529.508 349.939 524.849 365.156C517.64 388.708 506.018 409.771 490.565 428.825C476.501 446.165 460.881 461.865 441.88 474.505Z" fill="#A963E8"/>
<path d="M203.04 104.225C211.438 102.373 219.633 101.786 227.762 101.369C236.092 100.941 244.507 101.456 252.847 102.07C266.888 103.103 280.916 104.605 294.571 108.158C313.401 113.057 331.101 120.634 347.148 131.776C349.069 133.109 351.181 134.342 352 136.805C350.689 138.312 349.107 137.751 347.675 137.519C333.592 135.241 319.583 132.096 305.411 130.937C297.979 130.329 290.207 130.644 282.503 131.496C270.237 132.853 258.25 135.141 246.435 138.379C220.577 145.467 196.935 157.045 175.889 173.791C163.043 184.012 150.461 194.433 139.495 206.773C123.908 224.31 111.537 243.731 102.361 265.3C96.5186 279.034 92.4218 293.272 89.4717 307.809C87.9248 315.432 87.1601 323.327 87.0816 331.11C86.8773 351.379 86.0704 371.71 89.9036 391.809C90.046 392.556 89.6607 393.404 89.5262 394.177C87.0345 394.377 86.5078 392.506 85.6811 391.11C76.7967 376.114 71.8561 359.773 68.614 342.747C66.2847 330.515 64.6863 318.212 64.6666 305.818C64.5842 253.122 81.2535 206.02 113.442 164.432C129.477 143.716 148.057 125.733 172.04 114.099C181.789 109.37 192.008 106.194 203.04 104.225Z" fill="#A963E8"/>
<path d="M274.903 169.055C281.892 161.085 288.778 153.499 295.287 145.603C298.059 142.241 299.946 141.641 302.724 145.435C315.267 162.565 326.112 180.618 334.622 200.137C339.549 211.438 343.589 222.814 345.793 235.005C349.539 255.72 341.005 280.059 324.629 290.707C315.709 296.507 305.256 298.224 295.108 300.441C279.985 303.744 265.855 309.596 253.955 319.216C244.296 327.023 236.808 336.738 234.388 350.038C231.034 368.464 235.221 384.813 244.804 400.23C247.034 403.817 250.096 406.886 252.76 410.206C253.891 411.616 255.446 412.863 254.697 415.832C246.991 412.656 239.68 409.136 232.928 404.607C208.29 388.083 192.433 365.329 185.258 336.59C179.757 314.556 182.513 292.973 189.394 271.729C195.632 252.47 207.199 236.613 220.813 221.844C234.396 207.11 250.876 195.52 264.285 180.662C267.717 176.859 271.191 173.095 274.903 169.055ZM251.716 264.439C253.558 260.78 255.718 257.24 257.148 253.426C258.418 250.039 260.235 246.413 257.559 242.726C253.462 237.081 244.2 234.145 237.767 237.156C224.491 243.369 215.921 253.953 211.764 267.813C209.317 275.97 218.638 285.547 226.759 283.199C237.019 280.232 245.545 274.366 251.716 264.439Z" fill="#0678BE"/>
<path d="M415.864 327.426C412.395 343.237 407.448 357.984 398.826 371.458C384.729 393.489 366.504 410.014 340.967 417.873C322.141 423.668 303.935 423.839 286.72 413.304C271.385 403.92 261.695 390.394 261.035 372.123C260.313 352.126 270.861 338.683 288.525 330.406C298.319 325.817 308.87 323.567 319.367 321.325C332.182 318.588 343.917 313.519 353.543 304.681C365.801 293.428 373.188 279.457 374.029 262.549C375.107 240.865 367.025 221.847 356.534 203.557C355.977 202.587 354.767 201.836 355.407 200.099C357.651 199.965 359.049 201.743 360.343 203.011C371.931 214.367 384.347 224.966 393.904 238.226C405.929 254.911 412.787 273.837 415.88 293.904C417.554 304.767 417.186 315.989 415.864 327.426Z" fill="#53B0EB"/>
</svg>
