<svg xmlns="http://www.w3.org/2000/svg" xmlns:xlink="http://www.w3.org/1999/xlink" width="1400" height="771.5400000000001"><rect width="1400" height="771.5400000000001" rx="0" ry="0" class="a"></rect><svg height="771.5400000000001" viewBox="0 0 140 77.15400000000001" width="1400" xmlns="http://www.w3.org/2000/svg" xmlns:xlink="http://www.w3.org/1999/xlink"><style>.a{fill:rgb(40,44,52)}.b{font-family:Consolas,"Courier New",Courier,"Liberation Mono",monospace}.c{fill:rgb(0,128,0);white-space:pre}.d{fill:rgb(171,178,191);white-space:pre}.e{fill:transparent}.f{fill:rgb(82,139,255)}.h{animation-duration:34.25343s;animation-iteration-count:infinite;animation-name:g;animation-timing-function:steps(1,end)}@keyframes g{0%{transform:translateX(-0px)}4.85%{transform:translateX(-140px)}6.62%{transform:translateX(-280px)}6.66%{transform:translateX(-420px)}6.66%{transform:translateX(-560px)}6.67%{transform:translateX(-700px)}9.26%{transform:translateX(-840px)}10.56%{transform:translateX(-980px)}11.8%{transform:translateX(-1120px)}13.04%{transform:translateX(-1260px)}17.47%{transform:translateX(-1400px)}17.48%{transform:translateX(-1540px)}20.07%{transform:translateX(-1680px)}20.07%{transform:translateX(-1820px)}24.28%{transform:translateX(-1960px)}28.24%{transform:translateX(-2100px)}29.67%{transform:translateX(-2240px)}29.98%{transform:translateX(-2380px)}29.98%{transform:translateX(-2520px)}29.99%{transform:translateX(-2660px)}29.99%{transform:translateX(-2800px)}30%{transform:translateX(-2940px)}30%{transform:translateX(-3080px)}30.02%{transform:translateX(-3220px)}30.02%{transform:translateX(-3360px)}30.03%{transform:translateX(-3500px)}30.03%{transform:translateX(-3640px)}30.04%{transform:translateX(-3780px)}30.04%{transform:translateX(-3920px)}30.05%{transform:translateX(-4060px)}30.06%{transform:translateX(-4200px)}31.04%{transform:translateX(-4340px)}31.04%{transform:translateX(-4480px)}31.19%{transform:translateX(-4620px)}31.19%{transform:translateX(-4760px)}31.21%{transform:translateX(-4900px)}32.19%{transform:translateX(-5040px)}32.19%{transform:translateX(-5180px)}32.2%{transform:translateX(-5320px)}32.22%{transform:translateX(-5460px)}34.69%{transform:translateX(-5600px)}41.07%{transform:translateX(-5740px)}46.49%{transform:translateX(-5880px)}46.5%{transform:translateX(-6020px)}46.82%{transform:translateX(-6160px)}46.82%{transform:translateX(-6300px)}49.1%{transform:translateX(-6440px)}49.84%{transform:translateX(-6580px)}49.87%{transform:translateX(-6720px)}50.44%{transform:translateX(-6860px)}50.45%{transform:translateX(-7000px)}50.45%{transform:translateX(-7140px)}50.45%{transform:translateX(-7280px)}50.46%{transform:translateX(-7420px)}50.6%{transform:translateX(-7560px)}50.6%{transform:translateX(-7700px)}52.72%{transform:translateX(-7840px)}52.97%{transform:translateX(-7980px)}52.98%{transform:translateX(-8120px)}53.47%{transform:translateX(-8260px)}53.48%{transform:translateX(-8400px)}53.48%{transform:translateX(-8540px)}53.49%{transform:translateX(-8680px)}53.99%{transform:translateX(-8820px)}54.14%{transform:translateX(-8960px)}54.37%{transform:translateX(-9100px)}54.64%{transform:translateX(-9240px)}55.33%{transform:translateX(-9380px)}55.6%{transform:translateX(-9520px)}56.41%{transform:translateX(-9660px)}56.69%{transform:translateX(-9800px)}57.27%{transform:translateX(-9940px)}57.53%{transform:translateX(-10080px)}58.08%{transform:translateX(-10220px)}58.31%{transform:translateX(-10360px)}58.79%{transform:translateX(-10500px)}58.99%{transform:translateX(-10640px)}59.47%{transform:translateX(-10780px)}59.72%{transform:translateX(-10920px)}60.54%{transform:translateX(-11060px)}61.06%{transform:translateX(-11200px)}61.59%{transform:translateX(-11340px)}62.18%{transform:translateX(-11480px)}62.62%{transform:translateX(-11620px)}62.96%{transform:translateX(-11760px)}63.19%{transform:translateX(-11900px)}63.45%{transform:translateX(-12040px)}63.58%{transform:translateX(-12180px)}63.58%{transform:translateX(-12320px)}63.59%{transform:translateX(-12460px)}63.9%{transform:translateX(-12600px)}64.19%{transform:translateX(-12740px)}64.34%{transform:translateX(-12880px)}65.16%{transform:translateX(-13020px)}68.11%{transform:translateX(-13160px)}68.55%{transform:translateX(-13300px)}68.55%{transform:translateX(-13440px)}68.56%{transform:translateX(-13580px)}73.65%{transform:translateX(-13720px)}74.33%{transform:translateX(-13860px)}74.45%{transform:translateX(-14000px)}75.35%{transform:translateX(-14140px)}78%{transform:translateX(-14280px)}78.33%{transform:translateX(-14420px)}78.33%{transform:translateX(-14560px)}78.33%{transform:translateX(-14700px)}78.34%{transform:translateX(-14840px)}78.35%{transform:translateX(-14980px)}78.48%{transform:translateX(-15120px)}78.54%{transform:translateX(-15260px)}78.54%{transform:translateX(-15400px)}78.55%{transform:translateX(-15540px)}78.55%{transform:translateX(-15680px)}78.55%{transform:translateX(-15820px)}78.55%{transform:translateX(-15960px)}78.78%{transform:translateX(-16100px)}78.87%{transform:translateX(-16240px)}78.91%{transform:translateX(-16380px)}79.01%{transform:translateX(-16520px)}79.02%{transform:translateX(-16660px)}93.63%{transform:translateX(-16800px)}93.96%{transform:translateX(-16940px)}93.97%{transform:translateX(-17080px)}93.98%{transform:translateX(-17220px)}94.5%{transform:translateX(-17360px)}94.51%{transform:translateX(-17500px)}94.52%{transform:translateX(-17640px)}94.52%{transform:translateX(-17780px)}94.53%{transform:translateX(-17920px)}94.68%{transform:translateX(-18060px)}94.69%{transform:translateX(-18200px)}94.69%{transform:translateX(-18340px)}94.7%{transform:translateX(-18480px)}99.63%{transform:translateX(-18620px)}99.63%{transform:translateX(-18760px)}99.71%{transform:translateX(-18900px)}99.71%{transform:translateX(-19040px)}99.71%{transform:translateX(-19180px)}99.74%{transform:translateX(-19320px)}}</style><g font-family="Consolas, &quot;Courier New&quot;, Courier, &quot;Liberation Mono&quot;, monospace" font-size="1.67" class="b"><defs><symbol id="1"><text x="0" y="1.67" class="c">.</text></symbol><symbol id="2"><text x="0" y="1.67" class="c">..</text></symbol><symbol id="3"><text x="0" y="1.67" class="c">...</text></symbol><symbol id="4"><text x="0" y="1.67" class="c">....</text></symbol><symbol id="5"><text x="0" y="1.67" class="c">.....</text></symbol><symbol id="6"><text x="0" y="1.67" class="c">......</text></symbol><symbol id="7"><text x="0" y="1.67" class="c">.......</text></symbol><symbol id="8"><text x="0" y="1.67" class="c">........</text></symbol><symbol id="9"><text x="0" y="1.67" class="c">.........</text></symbol><symbol id="10"><text x="0" y="1.67" class="c">..........</text></symbol><symbol id="11"><text x="0" y="1.67" class="c">...........</text></symbol><symbol id="12"><text x="0" y="1.67" class="c">............</text></symbol><symbol id="13"><text x="0" y="1.67" class="c">.............</text></symbol><symbol id="14"><text x="0" y="1.67" class="c">..............</text></symbol><symbol id="15"><text x="0" y="1.67" class="c">...............</text></symbol><symbol id="16"><text x="0" y="1.67" class="c">................</text></symbol><symbol id="17"><text x="0" y="1.67" class="c">.................</text></symbol><symbol id="18"><text x="0" y="1.67" class="c">..................</text></symbol><symbol id="19"><text x="0" y="1.67" class="c">...................</text></symbol><symbol id="20"><text x="0" y="1.67" class="c">....................</text></symbol><symbol id="21"><text x="0" y="1.67" class="c">.....................</text></symbol><symbol id="22"><text x="0" y="1.67" class="c">......................</text></symbol><symbol id="23"><text x="0" y="1.67" class="c">.......................</text></symbol><symbol id="24"><text x="0" y="1.67" class="c">........................</text></symbol><symbol id="25"><text x="0" y="1.67" class="c">.........................</text></symbol><symbol id="26"><text x="0" y="1.67" class="c">..........................</text></symbol><symbol id="27"><text x="0" y="1.67" class="c">...........................</text></symbol><symbol id="28"><text x="0" y="1.67" class="c">............................</text></symbol><symbol id="29"><text x="0" y="1.67" class="c">.............................</text></symbol><symbol id="30"><text x="0" y="1.67" class="c">..............................</text></symbol><symbol id="31"><text x="0" y="1.67" class="c">...............................</text></symbol><symbol id="32"><text x="0" y="1.67" class="c">................................</text></symbol><symbol id="33"><text x="0" y="1.67" class="c">.................................</text></symbol><symbol id="34"><text x="0" y="1.67" class="c">..................................</text></symbol><symbol id="35"><text x="0" y="1.67" class="c">...................................</text></symbol><symbol id="36"><text x="0" y="1.67" class="c">....................................</text></symbol><symbol id="37"><text x="0" y="1.67" class="c">....................................</text><text x="36.071999999999996" y="1.67" class="d">[Deprecation]</text><text x="50.1" y="1.67" class="d">Configuring</text><text x="62.123999999999995" y="1.67" class="d">message</text><text x="70.13999999999999" y="1.67" class="d">selectors</text><text x="80.16" y="1.67" class="d">as</text><text x="83.16599999999998" y="1.67" class="d">flat</text><text x="88.17599999999999" y="1.67" class="d">keys</text><text x="93.18599999999999" y="1.67" class="d">under</text><text x="99.198" y="1.67" class="d">&quot;Drupal\DrupalExtension.selectors:&quot;</text><text x="135.26999999999998" y="1.67" class="d">is</text><text x="138.27599999999998" y="1.67" class="d">de</text></symbol><symbol id="38"><text x="0" y="1.67" class="d">precated</text><text x="9.017999999999999" y="1.67" class="d">in</text><text x="12.024" y="1.67" class="d">drupal-extension:6.0.0</text><text x="35.06999999999999" y="1.67" class="d">and</text><text x="39.077999999999996" y="1.67" class="d">is</text><text x="42.083999999999996" y="1.67" class="d">removed</text><text x="50.1" y="1.67" class="d">from</text><text x="55.10999999999999" y="1.67" class="d">drupal-extension:6.1.0.</text><text x="79.158" y="1.67" class="d">Move</text><text x="84.16799999999999" y="1.67" class="d">them</text><text x="89.178" y="1.67" class="d">under</text><text x="95.19" y="1.67" class="d">&quot;Drupal\DrupalExtension.selectors.messages:&quot;</text></symbol><symbol id="39"><text x="0" y="1.67" class="d">with</text><text x="5.01" y="1.67" class="d">keys</text><text x="10.02" y="1.67" class="d">&quot;default&quot;,</text><text x="21.041999999999998" y="1.67" class="d">&quot;error&quot;,</text><text x="30.059999999999995" y="1.67" class="d">&quot;success&quot;,</text><text x="41.082" y="1.67" class="d">&quot;warning&quot;.</text><text x="52.104" y="1.67" class="d">See</text><text x="56.111999999999995" y="1.67" class="d">https://github.com/jhedstrom/drupalextension/blob/main/UPGRADING.md</text></symbol><symbol id="40"><text x="0" y="1.67" class="c">..................................</text><text x="35.06999999999999" y="1.67" class="d">70</text></symbol><symbol id="41"><text x="0" y="1.67" class="c">..................................................................</text></symbol><symbol id="a"><rect height="42" width="140" x="0" y="0" class="e"></rect></symbol><symbol id="b"><rect height="1.837" width="1.1022" class="f"></rect></symbol></defs><rect height="77.15400000000001" width="140" class="a"></rect><g class="h"><svg x="0" y="0" width="19460"><svg x="0"><use xlink:href="#a"></use><use xlink:href="#b" x="-0.0040000000000000036" y="0"></use></svg><svg x="140"><use xlink:href="#a"></use><use xlink:href="#b" x="0.996" y="0"></use><use xlink:href="#1" y="0"></use></svg><svg x="280"><use xlink:href="#a"></use><use xlink:href="#b" x="1.996" y="0"></use><use xlink:href="#2" y="0"></use></svg><svg x="420"><use xlink:href="#a"></use><use xlink:href="#b" x="2.996" y="0"></use><use xlink:href="#3" y="0"></use></svg><svg x="560"><use xlink:href="#a"></use><use xlink:href="#b" x="3.996" y="0"></use><use xlink:href="#4" y="0"></use></svg><svg x="700"><use xlink:href="#a"></use><use xlink:href="#b" x="4.996" y="0"></use><use xlink:href="#5" y="0"></use></svg><svg x="840"><use xlink:href="#a"></use><use xlink:href="#b" x="5.996" y="0"></use><use xlink:href="#6" y="0"></use></svg><svg x="980"><use xlink:href="#a"></use><use xlink:href="#b" x="6.996" y="0"></use><use xlink:href="#7" y="0"></use></svg><svg x="1120"><use xlink:href="#a"></use><use xlink:href="#b" x="7.996" y="0"></use><use xlink:href="#8" y="0"></use></svg><svg x="1260"><use xlink:href="#a"></use><use xlink:href="#b" x="8.996" y="0"></use><use xlink:href="#9" y="0"></use></svg><svg x="1400"><use xlink:href="#a"></use><use xlink:href="#b" x="9.996" y="0"></use><use xlink:href="#10" y="0"></use></svg><svg x="1540"><use xlink:href="#a"></use><use xlink:href="#b" x="10.996" y="0"></use><use xlink:href="#11" y="0"></use></svg><svg x="1680"><use xlink:href="#a"></use><use xlink:href="#b" x="11.996" y="0"></use><use xlink:href="#12" y="0"></use></svg><svg x="1820"><use xlink:href="#a"></use><use xlink:href="#b" x="12.996" y="0"></use><use xlink:href="#13" y="0"></use></svg><svg x="1960"><use xlink:href="#a"></use><use xlink:href="#b" x="13.996" y="0"></use><use xlink:href="#14" y="0"></use></svg><svg x="2100"><use xlink:href="#a"></use><use xlink:href="#b" x="14.996" y="0"></use><use xlink:href="#15" y="0"></use></svg><svg x="2240"><use xlink:href="#a"></use><use xlink:href="#b" x="15.996" y="0"></use><use xlink:href="#16" y="0"></use></svg><svg x="2380"><use xlink:href="#a"></use><use xlink:href="#b" x="16.996" y="0"></use><use xlink:href="#17" y="0"></use></svg><svg x="2520"><use xlink:href="#a"></use><use xlink:href="#b" x="17.996" y="0"></use><use xlink:href="#18" y="0"></use></svg><svg x="2660"><use xlink:href="#a"></use><use xlink:href="#b" x="18.996" y="0"></use><use xlink:href="#19" y="0"></use></svg><svg x="2800"><use xlink:href="#a"></use><use xlink:href="#b" x="19.996" y="0"></use><use xlink:href="#20" y="0"></use></svg><svg x="2940"><use xlink:href="#a"></use><use xlink:href="#b" x="20.996" y="0"></use><use xlink:href="#21" y="0"></use></svg><svg x="3080"><use xlink:href="#a"></use><use xlink:href="#b" x="21.996" y="0"></use><use xlink:href="#22" y="0"></use></svg><svg x="3220"><use xlink:href="#a"></use><use xlink:href="#b" x="22.996" y="0"></use><use xlink:href="#23" y="0"></use></svg><svg x="3360"><use xlink:href="#a"></use><use xlink:href="#b" x="23.996" y="0"></use><use xlink:href="#24" y="0"></use></svg><svg x="3500"><use xlink:href="#a"></use><use xlink:href="#b" x="24.996" y="0"></use><use xlink:href="#25" y="0"></use></svg><svg x="3640"><use xlink:href="#a"></use><use xlink:href="#b" x="25.996" y="0"></use><use xlink:href="#26" y="0"></use></svg><svg x="3780"><use xlink:href="#a"></use><use xlink:href="#b" x="26.996" y="0"></use><use xlink:href="#27" y="0"></use></svg><svg x="3920"><use xlink:href="#a"></use><use xlink:href="#b" x="27.996" y="0"></use><use xlink:href="#28" y="0"></use></svg><svg x="4060"><use xlink:href="#a"></use><use xlink:href="#b" x="28.996" y="0"></use><use xlink:href="#29" y="0"></use></svg><svg x="4200"><use xlink:href="#a"></use><use xlink:href="#b" x="29.996" y="0"></use><use xlink:href="#30" y="0"></use></svg><svg x="4340"><use xlink:href="#a"></use><use xlink:href="#b" x="30.996" y="0"></use><use xlink:href="#31" y="0"></use></svg><svg x="4480"><use xlink:href="#a"></use><use xlink:href="#b" x="31.996" y="0"></use><use xlink:href="#32" y="0"></use></svg><svg x="4620"><use xlink:href="#a"></use><use xlink:href="#b" x="32.996" y="0"></use><use xlink:href="#33" y="0"></use></svg><svg x="4760"><use xlink:href="#a"></use><use xlink:href="#b" x="33.996" y="0"></use><use xlink:href="#34" y="0"></use></svg><svg x="4900"><use xlink:href="#a"></use><use xlink:href="#b" x="34.996" y="0"></use><use xlink:href="#35" y="0"></use></svg><svg x="5040"><use xlink:href="#a"></use><use xlink:href="#b" x="35.996" y="0"></use><use xlink:href="#36" y="0"></use></svg><svg x="5180"><use xlink:href="#a"></use><use xlink:href="#b" x="-0.0040000000000000036" y="5.336"></use><use xlink:href="#37" y="0"></use><use xlink:href="#38" y="1.837"></use><use xlink:href="#39" y="3.674"></use></svg><svg x="5320"><use xlink:href="#a"></use><use xlink:href="#b" x="0.996" y="5.336"></use><use xlink:href="#37" y="0"></use><use xlink:href="#38" y="1.837"></use><use xlink:href="#39" y="3.674"></use><use xlink:href="#1" y="5.511"></use></svg><svg x="5460"><use xlink:href="#a"></use><use xlink:href="#b" x="1.996" y="5.336"></use><use xlink:href="#37" y="0"></use><use xlink:href="#38" y="1.837"></use><use xlink:href="#39" y="3.674"></use><use xlink:href="#2" y="5.511"></use></svg><svg x="5600"><use xlink:href="#a"></use><use xlink:href="#b" x="2.996" y="5.336"></use><use xlink:href="#37" y="0"></use><use xlink:href="#38" y="1.837"></use><use xlink:href="#39" y="3.674"></use><use xlink:href="#3" y="5.511"></use></svg><svg x="5740"><use xlink:href="#a"></use><use xlink:href="#b" x="3.996" y="5.336"></use><use xlink:href="#37" y="0"></use><use xlink:href="#38" y="1.837"></use><use xlink:href="#39" y="3.674"></use><use xlink:href="#4" y="5.511"></use></svg><svg x="5880"><use xlink:href="#a"></use><use xlink:href="#b" x="4.996" y="5.336"></use><use xlink:href="#37" y="0"></use><use xlink:href="#38" y="1.837"></use><use xlink:href="#39" y="3.674"></use><use xlink:href="#5" y="5.511"></use></svg><svg x="6020"><use xlink:href="#a"></use><use xlink:href="#b" x="5.996" y="5.336"></use><use xlink:href="#37" y="0"></use><use xlink:href="#38" y="1.837"></use><use xlink:href="#39" y="3.674"></use><use xlink:href="#6" y="5.511"></use></svg><svg x="6160"><use xlink:href="#a"></use><use xlink:href="#b" x="6.996" y="5.336"></use><use xlink:href="#37" y="0"></use><use xlink:href="#38" y="1.837"></use><use xlink:href="#39" y="3.674"></use><use xlink:href="#7" y="5.511"></use></svg><svg x="6300"><use xlink:href="#a"></use><use xlink:href="#b" x="7.996" y="5.336"></use><use xlink:href="#37" y="0"></use><use xlink:href="#38" y="1.837"></use><use xlink:href="#39" y="3.674"></use><use xlink:href="#8" y="5.511"></use></svg><svg x="6440"><use xlink:href="#a"></use><use xlink:href="#b" x="8.996" y="5.336"></use><use xlink:href="#37" y="0"></use><use xlink:href="#38" y="1.837"></use><use xlink:href="#39" y="3.674"></use><use xlink:href="#9" y="5.511"></use></svg><svg x="6580"><use xlink:href="#a"></use><use xlink:href="#b" x="9.996" y="5.336"></use><use xlink:href="#37" y="0"></use><use xlink:href="#38" y="1.837"></use><use xlink:href="#39" y="3.674"></use><use xlink:href="#10" y="5.511"></use></svg><svg x="6720"><use xlink:href="#a"></use><use xlink:href="#b" x="10.996" y="5.336"></use><use xlink:href="#37" y="0"></use><use xlink:href="#38" y="1.837"></use><use xlink:href="#39" y="3.674"></use><use xlink:href="#11" y="5.511"></use></svg><svg x="6860"><use xlink:href="#a"></use><use xlink:href="#b" x="11.996" y="5.336"></use><use xlink:href="#37" y="0"></use><use xlink:href="#38" y="1.837"></use><use xlink:href="#39" y="3.674"></use><use xlink:href="#12" y="5.511"></use></svg><svg x="7000"><use xlink:href="#a"></use><use xlink:href="#b" x="12.996" y="5.336"></use><use xlink:href="#37" y="0"></use><use xlink:href="#38" y="1.837"></use><use xlink:href="#39" y="3.674"></use><use xlink:href="#13" y="5.511"></use></svg><svg x="7140"><use xlink:href="#a"></use><use xlink:href="#b" x="13.996" y="5.336"></use><use xlink:href="#37" y="0"></use><use xlink:href="#38" y="1.837"></use><use xlink:href="#39" y="3.674"></use><use xlink:href="#14" y="5.511"></use></svg><svg x="7280"><use xlink:href="#a"></use><use xlink:href="#b" x="14.996" y="5.336"></use><use xlink:href="#37" y="0"></use><use xlink:href="#38" y="1.837"></use><use xlink:href="#39" y="3.674"></use><use xlink:href="#15" y="5.511"></use></svg><svg x="7420"><use xlink:href="#a"></use><use xlink:href="#b" x="15.996" y="5.336"></use><use xlink:href="#37" y="0"></use><use xlink:href="#38" y="1.837"></use><use xlink:href="#39" y="3.674"></use><use xlink:href="#16" y="5.511"></use></svg><svg x="7560"><use xlink:href="#a"></use><use xlink:href="#b" x="16.996" y="5.336"></use><use xlink:href="#37" y="0"></use><use xlink:href="#38" y="1.837"></use><use xlink:href="#39" y="3.674"></use><use xlink:href="#17" y="5.511"></use></svg><svg x="7700"><use xlink:href="#a"></use><use xlink:href="#b" x="17.996" y="5.336"></use><use xlink:href="#37" y="0"></use><use xlink:href="#38" y="1.837"></use><use xlink:href="#39" y="3.674"></use><use xlink:href="#18" y="5.511"></use></svg><svg x="7840"><use xlink:href="#a"></use><use xlink:href="#b" x="18.996" y="5.336"></use><use xlink:href="#37" y="0"></use><use xlink:href="#38" y="1.837"></use><use xlink:href="#39" y="3.674"></use><use xlink:href="#19" y="5.511"></use></svg><svg x="7980"><use xlink:href="#a"></use><use xlink:href="#b" x="19.996" y="5.336"></use><use xlink:href="#37" y="0"></use><use xlink:href="#38" y="1.837"></use><use xlink:href="#39" y="3.674"></use><use xlink:href="#20" y="5.511"></use></svg><svg x="8120"><use xlink:href="#a"></use><use xlink:href="#b" x="20.996" y="5.336"></use><use xlink:href="#37" y="0"></use><use xlink:href="#38" y="1.837"></use><use xlink:href="#39" y="3.674"></use><use xlink:href="#21" y="5.511"></use></svg><svg x="8260"><use xlink:href="#a"></use><use xlink:href="#b" x="21.996" y="5.336"></use><use xlink:href="#37" y="0"></use><use xlink:href="#38" y="1.837"></use><use xlink:href="#39" y="3.674"></use><use xlink:href="#22" y="5.511"></use></svg><svg x="8400"><use xlink:href="#a"></use><use xlink:href="#b" x="22.996" y="5.336"></use><use xlink:href="#37" y="0"></use><use xlink:href="#38" y="1.837"></use><use xlink:href="#39" y="3.674"></use><use xlink:href="#23" y="5.511"></use></svg><svg x="8540"><use xlink:href="#a"></use><use xlink:href="#b" x="23.996" y="5.336"></use><use xlink:href="#37" y="0"></use><use xlink:href="#38" y="1.837"></use><use xlink:href="#39" y="3.674"></use><use xlink:href="#24" y="5.511"></use></svg><svg x="8680"><use xlink:href="#a"></use><use xlink:href="#b" x="24.996" y="5.336"></use><use xlink:href="#37" y="0"></use><use xlink:href="#38" y="1.837"></use><use xlink:href="#39" y="3.674"></use><use xlink:href="#25" y="5.511"></use></svg><svg x="8820"><use xlink:href="#a"></use><use xlink:href="#b" x="25.996" y="5.336"></use><use xlink:href="#37" y="0"></use><use xlink:href="#38" y="1.837"></use><use xlink:href="#39" y="3.674"></use><use xlink:href="#26" y="5.511"></use></svg><svg x="8960"><use xlink:href="#a"></use><use xlink:href="#b" x="26.996" y="5.336"></use><use xlink:href="#37" y="0"></use><use xlink:href="#38" y="1.837"></use><use xlink:href="#39" y="3.674"></use><use xlink:href="#27" y="5.511"></use></svg><svg x="9100"><use xlink:href="#a"></use><use xlink:href="#b" x="27.996" y="5.336"></use><use xlink:href="#37" y="0"></use><use xlink:href="#38" y="1.837"></use><use xlink:href="#39" y="3.674"></use><use xlink:href="#28" y="5.511"></use></svg><svg x="9240"><use xlink:href="#a"></use><use xlink:href="#b" x="28.996" y="5.336"></use><use xlink:href="#37" y="0"></use><use xlink:href="#38" y="1.837"></use><use xlink:href="#39" y="3.674"></use><use xlink:href="#29" y="5.511"></use></svg><svg x="9380"><use xlink:href="#a"></use><use xlink:href="#b" x="29.996" y="5.336"></use><use xlink:href="#37" y="0"></use><use xlink:href="#38" y="1.837"></use><use xlink:href="#39" y="3.674"></use><use xlink:href="#30" y="5.511"></use></svg><svg x="9520"><use xlink:href="#a"></use><use xlink:href="#b" x="30.996" y="5.336"></use><use xlink:href="#37" y="0"></use><use xlink:href="#38" y="1.837"></use><use xlink:href="#39" y="3.674"></use><use xlink:href="#31" y="5.511"></use></svg><svg x="9660"><use xlink:href="#a"></use><use xlink:href="#b" x="31.996" y="5.336"></use><use xlink:href="#37" y="0"></use><use xlink:href="#38" y="1.837"></use><use xlink:href="#39" y="3.674"></use><use xlink:href="#32" y="5.511"></use></svg><svg x="9800"><use xlink:href="#a"></use><use xlink:href="#b" x="32.996" y="5.336"></use><use xlink:href="#37" y="0"></use><use xlink:href="#38" y="1.837"></use><use xlink:href="#39" y="3.674"></use><use xlink:href="#33" y="5.511"></use></svg><svg x="9940"><use xlink:href="#a"></use><use xlink:href="#b" x="-0.0040000000000000036" y="7.173"></use><use xlink:href="#37" y="0"></use><use xlink:href="#38" y="1.837"></use><use xlink:href="#39" y="3.674"></use><use xlink:href="#40" y="5.511"></use></svg><svg x="10080"><use xlink:href="#a"></use><use xlink:href="#b" x="0.996" y="7.173"></use><use xlink:href="#37" y="0"></use><use xlink:href="#38" y="1.837"></use><use xlink:href="#39" y="3.674"></use><use xlink:href="#40" y="5.511"></use><use xlink:href="#1" y="7.348"></use></svg><svg x="10220"><use xlink:href="#a"></use><use xlink:href="#b" x="1.996" y="7.173"></use><use xlink:href="#37" y="0"></use><use xlink:href="#38" y="1.837"></use><use xlink:href="#39" y="3.674"></use><use xlink:href="#40" y="5.511"></use><use xlink:href="#2" y="7.348"></use></svg><svg x="10360"><use xlink:href="#a"></use><use xlink:href="#b" x="2.996" y="7.173"></use><use xlink:href="#37" y="0"></use><use xlink:href="#38" y="1.837"></use><use xlink:href="#39" y="3.674"></use><use xlink:href="#40" y="5.511"></use><use xlink:href="#3" y="7.348"></use></svg><svg x="10500"><use xlink:href="#a"></use><use xlink:href="#b" x="3.996" y="7.173"></use><use xlink:href="#37" y="0"></use><use xlink:href="#38" y="1.837"></use><use xlink:href="#39" y="3.674"></use><use xlink:href="#40" y="5.511"></use><use xlink:href="#4" y="7.348"></use></svg><svg x="10640"><use xlink:href="#a"></use><use xlink:href="#b" x="4.996" y="7.173"></use><use xlink:href="#37" y="0"></use><use xlink:href="#38" y="1.837"></use><use xlink:href="#39" y="3.674"></use><use xlink:href="#40" y="5.511"></use><use xlink:href="#5" y="7.348"></use></svg><svg x="10780"><use xlink:href="#a"></use><use xlink:href="#b" x="5.996" y="7.173"></use><use xlink:href="#37" y="0"></use><use xlink:href="#38" y="1.837"></use><use xlink:href="#39" y="3.674"></use><use xlink:href="#40" y="5.511"></use><use xlink:href="#6" y="7.348"></use></svg><svg x="10920"><use xlink:href="#a"></use><use xlink:href="#b" x="6.996" y="7.173"></use><use xlink:href="#37" y="0"></use><use xlink:href="#38" y="1.837"></use><use xlink:href="#39" y="3.674"></use><use xlink:href="#40" y="5.511"></use><use xlink:href="#7" y="7.348"></use></svg><svg x="11060"><use xlink:href="#a"></use><use xlink:href="#b" x="7.996" y="7.173"></use><use xlink:href="#37" y="0"></use><use xlink:href="#38" y="1.837"></use><use xlink:href="#39" y="3.674"></use><use xlink:href="#40" y="5.511"></use><use xlink:href="#8" y="7.348"></use></svg><svg x="11200"><use xlink:href="#a"></use><use xlink:href="#b" x="8.996" y="7.173"></use><use xlink:href="#37" y="0"></use><use xlink:href="#38" y="1.837"></use><use xlink:href="#39" y="3.674"></use><use xlink:href="#40" y="5.511"></use><use xlink:href="#9" y="7.348"></use></svg><svg x="11340"><use xlink:href="#a"></use><use xlink:href="#b" x="9.996" y="7.173"></use><use xlink:href="#37" y="0"></use><use xlink:href="#38" y="1.837"></use><use xlink:href="#39" y="3.674"></use><use xlink:href="#40" y="5.511"></use><use xlink:href="#10" y="7.348"></use></svg><svg x="11480"><use xlink:href="#a"></use><use xlink:href="#b" x="10.996" y="7.173"></use><use xlink:href="#37" y="0"></use><use xlink:href="#38" y="1.837"></use><use xlink:href="#39" y="3.674"></use><use xlink:href="#40" y="5.511"></use><use xlink:href="#11" y="7.348"></use></svg><svg x="11620"><use xlink:href="#a"></use><use xlink:href="#b" x="11.996" y="7.173"></use><use xlink:href="#37" y="0"></use><use xlink:href="#38" y="1.837"></use><use xlink:href="#39" y="3.674"></use><use xlink:href="#40" y="5.511"></use><use xlink:href="#12" y="7.348"></use></svg><svg x="11760"><use xlink:href="#a"></use><use xlink:href="#b" x="12.996" y="7.173"></use><use xlink:href="#37" y="0"></use><use xlink:href="#38" y="1.837"></use><use xlink:href="#39" y="3.674"></use><use xlink:href="#40" y="5.511"></use><use xlink:href="#13" y="7.348"></use></svg><svg x="11900"><use xlink:href="#a"></use><use xlink:href="#b" x="13.996" y="7.173"></use><use xlink:href="#37" y="0"></use><use xlink:href="#38" y="1.837"></use><use xlink:href="#39" y="3.674"></use><use xlink:href="#40" y="5.511"></use><use xlink:href="#14" y="7.348"></use></svg><svg x="12040"><use xlink:href="#a"></use><use xlink:href="#b" x="14.996" y="7.173"></use><use xlink:href="#37" y="0"></use><use xlink:href="#38" y="1.837"></use><use xlink:href="#39" y="3.674"></use><use xlink:href="#40" y="5.511"></use><use xlink:href="#15" y="7.348"></use></svg><svg x="12180"><use xlink:href="#a"></use><use xlink:href="#b" x="15.996" y="7.173"></use><use xlink:href="#37" y="0"></use><use xlink:href="#38" y="1.837"></use><use xlink:href="#39" y="3.674"></use><use xlink:href="#40" y="5.511"></use><use xlink:href="#16" y="7.348"></use></svg><svg x="12320"><use xlink:href="#a"></use><use xlink:href="#b" x="16.996" y="7.173"></use><use xlink:href="#37" y="0"></use><use xlink:href="#38" y="1.837"></use><use xlink:href="#39" y="3.674"></use><use xlink:href="#40" y="5.511"></use><use xlink:href="#17" y="7.348"></use></svg><svg x="12460"><use xlink:href="#a"></use><use xlink:href="#b" x="17.996" y="7.173"></use><use xlink:href="#37" y="0"></use><use xlink:href="#38" y="1.837"></use><use xlink:href="#39" y="3.674"></use><use xlink:href="#40" y="5.511"></use><use xlink:href="#18" y="7.348"></use></svg><svg x="12600"><use xlink:href="#a"></use><use xlink:href="#b" x="18.996" y="7.173"></use><use xlink:href="#37" y="0"></use><use xlink:href="#38" y="1.837"></use><use xlink:href="#39" y="3.674"></use><use xlink:href="#40" y="5.511"></use><use xlink:href="#19" y="7.348"></use></svg><svg x="12740"><use xlink:href="#a"></use><use xlink:href="#b" x="19.996" y="7.173"></use><use xlink:href="#37" y="0"></use><use xlink:href="#38" y="1.837"></use><use xlink:href="#39" y="3.674"></use><use xlink:href="#40" y="5.511"></use><use xlink:href="#20" y="7.348"></use></svg><svg x="12880"><use xlink:href="#a"></use><use xlink:href="#b" x="20.996" y="7.173"></use><use xlink:href="#37" y="0"></use><use xlink:href="#38" y="1.837"></use><use xlink:href="#39" y="3.674"></use><use xlink:href="#40" y="5.511"></use><use xlink:href="#21" y="7.348"></use></svg><svg x="13020"><use xlink:href="#a"></use><use xlink:href="#b" x="21.996" y="7.173"></use><use xlink:href="#37" y="0"></use><use xlink:href="#38" y="1.837"></use><use xlink:href="#39" y="3.674"></use><use xlink:href="#40" y="5.511"></use><use xlink:href="#22" y="7.348"></use></svg><svg x="13160"><use xlink:href="#a"></use><use xlink:href="#b" x="22.996" y="7.173"></use><use xlink:href="#37" y="0"></use><use xlink:href="#38" y="1.837"></use><use xlink:href="#39" y="3.674"></use><use xlink:href="#40" y="5.511"></use><use xlink:href="#23" y="7.348"></use></svg><svg x="13300"><use xlink:href="#a"></use><use xlink:href="#b" x="23.996" y="7.173"></use><use xlink:href="#37" y="0"></use><use xlink:href="#38" y="1.837"></use><use xlink:href="#39" y="3.674"></use><use xlink:href="#40" y="5.511"></use><use xlink:href="#24" y="7.348"></use></svg><svg x="13440"><use xlink:href="#a"></use><use xlink:href="#b" x="24.996" y="7.173"></use><use xlink:href="#37" y="0"></use><use xlink:href="#38" y="1.837"></use><use xlink:href="#39" y="3.674"></use><use xlink:href="#40" y="5.511"></use><use xlink:href="#25" y="7.348"></use></svg><svg x="13580"><use xlink:href="#a"></use><use xlink:href="#b" x="25.996" y="7.173"></use><use xlink:href="#37" y="0"></use><use xlink:href="#38" y="1.837"></use><use xlink:href="#39" y="3.674"></use><use xlink:href="#40" y="5.511"></use><use xlink:href="#26" y="7.348"></use></svg><svg x="13720"><use xlink:href="#a"></use><use xlink:href="#b" x="26.996" y="7.173"></use><use xlink:href="#37" y="0"></use><use xlink:href="#38" y="1.837"></use><use xlink:href="#39" y="3.674"></use><use xlink:href="#40" y="5.511"></use><use xlink:href="#27" y="7.348"></use></svg><svg x="13860"><use xlink:href="#a"></use><use xlink:href="#b" x="27.996" y="7.173"></use><use xlink:href="#37" y="0"></use><use xlink:href="#38" y="1.837"></use><use xlink:href="#39" y="3.674"></use><use xlink:href="#40" y="5.511"></use><use xlink:href="#28" y="7.348"></use></svg><svg x="14000"><use xlink:href="#a"></use><use xlink:href="#b" x="28.996" y="7.173"></use><use xlink:href="#37" y="0"></use><use xlink:href="#38" y="1.837"></use><use xlink:href="#39" y="3.674"></use><use xlink:href="#40" y="5.511"></use><use xlink:href="#29" y="7.348"></use></svg><svg x="14140"><use xlink:href="#a"></use><use xlink:href="#b" x="29.996" y="7.173"></use><use xlink:href="#37" y="0"></use><use xlink:href="#38" y="1.837"></use><use xlink:href="#39" y="3.674"></use><use xlink:href="#40" y="5.511"></use><use xlink:href="#30" y="7.348"></use></svg><svg x="14280"><use xlink:href="#a"></use><use xlink:href="#b" x="30.996" y="7.173"></use><use xlink:href="#37" y="0"></use><use xlink:href="#38" y="1.837"></use><use xlink:href="#39" y="3.674"></use><use xlink:href="#40" y="5.511"></use><use xlink:href="#31" y="7.348"></use></svg><svg x="14420"><use xlink:href="#a"></use><use xlink:href="#b" x="31.996" y="7.173"></use><use xlink:href="#37" y="0"></use><use xlink:href="#38" y="1.837"></use><use xlink:href="#39" y="3.674"></use><use xlink:href="#40" y="5.511"></use><use xlink:href="#32" y="7.348"></use></svg><svg x="14560"><use xlink:href="#a"></use><use xlink:href="#b" x="32.996" y="7.173"></use><use xlink:href="#37" y="0"></use><use xlink:href="#38" y="1.837"></use><use xlink:href="#39" y="3.674"></use><use xlink:href="#40" y="5.511"></use><use xlink:href="#33" y="7.348"></use></svg><svg x="14700"><use xlink:href="#a"></use><use xlink:href="#b" x="33.996" y="7.173"></use><use xlink:href="#37" y="0"></use><use xlink:href="#38" y="1.837"></use><use xlink:href="#39" y="3.674"></use><use xlink:href="#40" y="5.511"></use><use xlink:href="#34" y="7.348"></use></svg><svg x="14840"><use xlink:href="#a"></use><use xlink:href="#b" x="34.996" y="7.173"></use><use xlink:href="#37" y="0"></use><use xlink:href="#38" y="1.837"></use><use xlink:href="#39" y="3.674"></use><use xlink:href="#40" y="5.511"></use><use xlink:href="#35" y="7.348"></use></svg><svg x="14980"><use xlink:href="#a"></use><use xlink:href="#b" x="35.996" y="7.173"></use><use xlink:href="#37" y="0"></use><use xlink:href="#38" y="1.837"></use><use xlink:href="#39" y="3.674"></use><use xlink:href="#40" y="5.511"></use><use xlink:href="#36" y="7.348"></use></svg><svg x="15120"><use xlink:href="#a"></use><use xlink:href="#b" x="36.996" y="7.173"></use><use xlink:href="#37" y="0"></use><use xlink:href="#38" y="1.837"></use><use xlink:href="#39" y="3.674"></use><use xlink:href="#40" y="5.511"></use><text x="0" y="9.018" class="c">.....................................</text></svg><svg x="15260"><use xlink:href="#a"></use><use xlink:href="#b" x="37.996" y="7.173"></use><use xlink:href="#37" y="0"></use><use xlink:href="#38" y="1.837"></use><use xlink:href="#39" y="3.674"></use><use xlink:href="#40" y="5.511"></use><text x="0" y="9.018" class="c">......................................</text></svg><svg x="15400"><use xlink:href="#a"></use><use xlink:href="#b" x="38.996" y="7.173"></use><use xlink:href="#37" y="0"></use><use xlink:href="#38" y="1.837"></use><use xlink:href="#39" y="3.674"></use><use xlink:href="#40" y="5.511"></use><text x="0" y="9.018" class="c">.......................................</text></svg><svg x="15540"><use xlink:href="#a"></use><use xlink:href="#b" x="39.996" y="7.173"></use><use xlink:href="#37" y="0"></use><use xlink:href="#38" y="1.837"></use><use xlink:href="#39" y="3.674"></use><use xlink:href="#40" y="5.511"></use><text x="0" y="9.018" class="c">........................................</text></svg><svg x="15680"><use xlink:href="#a"></use><use xlink:href="#b" x="40.996" y="7.173"></use><use xlink:href="#37" y="0"></use><use xlink:href="#38" y="1.837"></use><use xlink:href="#39" y="3.674"></use><use xlink:href="#40" y="5.511"></use><text x="0" y="9.018" class="c">.........................................</text></svg><svg x="15820"><use xlink:href="#a"></use><use xlink:href="#b" x="41.996" y="7.173"></use><use xlink:href="#37" y="0"></use><use xlink:href="#38" y="1.837"></use><use xlink:href="#39" y="3.674"></use><use xlink:href="#40" y="5.511"></use><text x="0" y="9.018" class="c">..........................................</text></svg><svg x="15960"><use xlink:href="#a"></use><use xlink:href="#b" x="42.996" y="7.173"></use><use xlink:href="#37" y="0"></use><use xlink:href="#38" y="1.837"></use><use xlink:href="#39" y="3.674"></use><use xlink:href="#40" y="5.511"></use><text x="0" y="9.018" class="c">...........................................</text></svg><svg x="16100"><use xlink:href="#a"></use><use xlink:href="#b" x="43.996" y="7.173"></use><use xlink:href="#37" y="0"></use><use xlink:href="#38" y="1.837"></use><use xlink:href="#39" y="3.674"></use><use xlink:href="#40" y="5.511"></use><text x="0" y="9.018" class="c">............................................</text></svg><svg x="16240"><use xlink:href="#a"></use><use xlink:href="#b" x="44.996" y="7.173"></use><use xlink:href="#37" y="0"></use><use xlink:href="#38" y="1.837"></use><use xlink:href="#39" y="3.674"></use><use xlink:href="#40" y="5.511"></use><text x="0" y="9.018" class="c">.............................................</text></svg><svg x="16380"><use xlink:href="#a"></use><use xlink:href="#b" x="45.996" y="7.173"></use><use xlink:href="#37" y="0"></use><use xlink:href="#38" y="1.837"></use><use xlink:href="#39" y="3.674"></use><use xlink:href="#40" y="5.511"></use><text x="0" y="9.018" class="c">..............................................</text></svg><svg x="16520"><use xlink:href="#a"></use><use xlink:href="#b" x="46.996" y="7.173"></use><use xlink:href="#37" y="0"></use><use xlink:href="#38" y="1.837"></use><use xlink:href="#39" y="3.674"></use><use xlink:href="#40" y="5.511"></use><text x="0" y="9.018" class="c">...............................................</text></svg><svg x="16660"><use xlink:href="#a"></use><use xlink:href="#b" x="47.996" y="7.173"></use><use xlink:href="#37" y="0"></use><use xlink:href="#38" y="1.837"></use><use xlink:href="#39" y="3.674"></use><use xlink:href="#40" y="5.511"></use><text x="0" y="9.018" class="c">................................................</text></svg><svg x="16800"><use xlink:href="#a"></use><use xlink:href="#b" x="48.996" y="7.173"></use><use xlink:href="#37" y="0"></use><use xlink:href="#38" y="1.837"></use><use xlink:href="#39" y="3.674"></use><use xlink:href="#40" y="5.511"></use><text x="0" y="9.018" class="c">.................................................</text></svg><svg x="16940"><use xlink:href="#a"></use><use xlink:href="#b" x="49.996" y="7.173"></use><use xlink:href="#37" y="0"></use><use xlink:href="#38" y="1.837"></use><use xlink:href="#39" y="3.674"></use><use xlink:href="#40" y="5.511"></use><text x="0" y="9.018" class="c">..................................................</text></svg><svg x="17080"><use xlink:href="#a"></use><use xlink:href="#b" x="50.996" y="7.173"></use><use xlink:href="#37" y="0"></use><use xlink:href="#38" y="1.837"></use><use xlink:href="#39" y="3.674"></use><use xlink:href="#40" y="5.511"></use><text x="0" y="9.018" class="c">...................................................</text></svg><svg x="17220"><use xlink:href="#a"></use><use xlink:href="#b" x="51.996" y="7.173"></use><use xlink:href="#37" y="0"></use><use xlink:href="#38" y="1.837"></use><use xlink:href="#39" y="3.674"></use><use xlink:href="#40" y="5.511"></use><text x="0" y="9.018" class="c">....................................................</text></svg><svg x="17360"><use xlink:href="#a"></use><use xlink:href="#b" x="52.996" y="7.173"></use><use xlink:href="#37" y="0"></use><use xlink:href="#38" y="1.837"></use><use xlink:href="#39" y="3.674"></use><use xlink:href="#40" y="5.511"></use><text x="0" y="9.018" class="c">.....................................................</text></svg><svg x="17500"><use xlink:href="#a"></use><use xlink:href="#b" x="53.996" y="7.173"></use><use xlink:href="#37" y="0"></use><use xlink:href="#38" y="1.837"></use><use xlink:href="#39" y="3.674"></use><use xlink:href="#40" y="5.511"></use><text x="0" y="9.018" class="c">......................................................</text></svg><svg x="17640"><use xlink:href="#a"></use><use xlink:href="#b" x="54.996" y="7.173"></use><use xlink:href="#37" y="0"></use><use xlink:href="#38" y="1.837"></use><use xlink:href="#39" y="3.674"></use><use xlink:href="#40" y="5.511"></use><text x="0" y="9.018" class="c">.......................................................</text></svg><svg x="17780"><use xlink:href="#a"></use><use xlink:href="#b" x="55.996" y="7.173"></use><use xlink:href="#37" y="0"></use><use xlink:href="#38" y="1.837"></use><use xlink:href="#39" y="3.674"></use><use xlink:href="#40" y="5.511"></use><text x="0" y="9.018" class="c">........................................................</text></svg><svg x="17920"><use xlink:href="#a"></use><use xlink:href="#b" x="56.996" y="7.173"></use><use xlink:href="#37" y="0"></use><use xlink:href="#38" y="1.837"></use><use xlink:href="#39" y="3.674"></use><use xlink:href="#40" y="5.511"></use><text x="0" y="9.018" class="c">.........................................................</text></svg><svg x="18060"><use xlink:href="#a"></use><use xlink:href="#b" x="57.996" y="7.173"></use><use xlink:href="#37" y="0"></use><use xlink:href="#38" y="1.837"></use><use xlink:href="#39" y="3.674"></use><use xlink:href="#40" y="5.511"></use><text x="0" y="9.018" class="c">..........................................................</text></svg><svg x="18200"><use xlink:href="#a"></use><use xlink:href="#b" x="58.996" y="7.173"></use><use xlink:href="#37" y="0"></use><use xlink:href="#38" y="1.837"></use><use xlink:href="#39" y="3.674"></use><use xlink:href="#40" y="5.511"></use><text x="0" y="9.018" class="c">...........................................................</text></svg><svg x="18340"><use xlink:href="#a"></use><use xlink:href="#b" x="59.996" y="7.173"></use><use xlink:href="#37" y="0"></use><use xlink:href="#38" y="1.837"></use><use xlink:href="#39" y="3.674"></use><use xlink:href="#40" y="5.511"></use><text x="0" y="9.018" class="c">............................................................</text></svg><svg x="18480"><use xlink:href="#a"></use><use xlink:href="#b" x="60.996" y="7.173"></use><use xlink:href="#37" y="0"></use><use xlink:href="#38" y="1.837"></use><use xlink:href="#39" y="3.674"></use><use xlink:href="#40" y="5.511"></use><text x="0" y="9.018" class="c">.............................................................</text></svg><svg x="18620"><use xlink:href="#a"></use><use xlink:href="#b" x="61.996" y="7.173"></use><use xlink:href="#37" y="0"></use><use xlink:href="#38" y="1.837"></use><use xlink:href="#39" y="3.674"></use><use xlink:href="#40" y="5.511"></use><text x="0" y="9.018" class="c">..............................................................</text></svg><svg x="18760"><use xlink:href="#a"></use><use xlink:href="#b" x="62.996" y="7.173"></use><use xlink:href="#37" y="0"></use><use xlink:href="#38" y="1.837"></use><use xlink:href="#39" y="3.674"></use><use xlink:href="#40" y="5.511"></use><text x="0" y="9.018" class="c">...............................................................</text></svg><svg x="18900"><use xlink:href="#a"></use><use xlink:href="#b" x="63.996" y="7.173"></use><use xlink:href="#37" y="0"></use><use xlink:href="#38" y="1.837"></use><use xlink:href="#39" y="3.674"></use><use xlink:href="#40" y="5.511"></use><text x="0" y="9.018" class="c">................................................................</text></svg><svg x="19040"><use xlink:href="#a"></use><use xlink:href="#b" x="64.996" y="7.173"></use><use xlink:href="#37" y="0"></use><use xlink:href="#38" y="1.837"></use><use xlink:href="#39" y="3.674"></use><use xlink:href="#40" y="5.511"></use><text x="0" y="9.018" class="c">.................................................................</text></svg><svg x="19180"><use xlink:href="#a"></use><use xlink:href="#b" x="65.996" y="7.173"></use><use xlink:href="#37" y="0"></use><use xlink:href="#38" y="1.837"></use><use xlink:href="#39" y="3.674"></use><use xlink:href="#40" y="5.511"></use><use xlink:href="#41" y="7.348"></use></svg><svg x="19320"><use xlink:href="#a"></use><use xlink:href="#b" x="-0.0040000000000000036" y="16.358"></use><use xlink:href="#37" y="0"></use><use xlink:href="#38" y="1.837"></use><use xlink:href="#39" y="3.674"></use><use xlink:href="#40" y="5.511"></use><use xlink:href="#41" y="7.348"></use><text x="0" y="12.692" class="d">17</text><text x="3.006" y="12.692" class="d">scenarios</text><text x="13.026" y="12.692" class="d">(</text><text x="14.027999999999999" y="12.692" class="c">17</text><text x="17.034" y="12.692" class="c">passed</text><text x="23.045999999999996" y="12.692" class="d">)</text><text x="0" y="14.529" class="d">136</text><text x="4.008" y="14.529" class="d">steps</text><text x="10.02" y="14.529" class="d">(</text><text x="11.021999999999998" y="14.529" class="c">136</text><text x="15.029999999999998" y="14.529" class="c">passed</text><text x="21.041999999999998" y="14.529" class="d">)</text><text x="0" y="16.366" class="d">0m33.35s</text><text x="9.017999999999999" y="16.366" class="d">(64.00Mb)</text></svg></svg></g></g></svg></svg>