<svg xmlns="http://www.w3.org/2000/svg" xmlns:xlink="http://www.w3.org/1999/xlink" contentStyleType="text/css" data-diagram-type="DESCRIPTION" height="564px" preserveAspectRatio="none" style="width:2087px;height:564px;background:#FFFFFF;" version="1.1" viewBox="0 0 2087 564" width="2087px" zoomAndPan="magnify"><?plantuml 1.2026.6?><defs/><g><g class="title" data-source-line="9"><text fill="#000000" font-family="Helvetica" font-size="22" font-weight="700" lengthAdjust="spacing" textLength="388.7275" x="848.1362" y="31.9404">drevops/tui - component architecture</text></g><!--cluster Builder--><g class="cluster" data-qualified-name="Builder" data-source-line="11" id="ent0001"><path d="M540.5,161 L589.7275,161 A3.75,3.75 0 0 1 592.2275,163.5 L599.2275,181 L619.5,181 A2.5,2.5 0 0 1 622,183.5 L622,241.5 A2.5,2.5 0 0 1 619.5,244 L540.5,244 A2.5,2.5 0 0 1 538,241.5 L538,163.5 A2.5,2.5 0 0 1 540.5,161" fill="#F0F4C3" style="stroke:#000000;stroke-width:1;"/><line style="stroke:#000000;stroke-width:1;" x1="538" x2="599.2275" y1="181" y2="181"/><text fill="#000000" font-family="Helvetica" font-size="14" font-weight="700" lengthAdjust="spacing" textLength="48.2275" x="542" y="173.7803">Builder</text></g><!--cluster Configuration--><g class="cluster" data-qualified-name="Configuration" data-source-line="15" id="ent0003"><path d="M1116.5,268 L1209.2588,268 A3.75,3.75 0 0 1 1211.7588,270.5 L1218.7588,288 L1218.5,288 A2.5,2.5 0 0 1 1221,290.5 L1221,546.5 A2.5,2.5 0 0 1 1218.5,549 L1116.5,549 A2.5,2.5 0 0 1 1114,546.5 L1114,270.5 A2.5,2.5 0 0 1 1116.5,268" fill="#E3F2FD" style="stroke:#000000;stroke-width:1;"/><line style="stroke:#000000;stroke-width:1;" x1="1114" x2="1218.7588" y1="288" y2="288"/><text fill="#000000" font-family="Helvetica" font-size="14" font-weight="700" lengthAdjust="spacing" textLength="91.7588" x="1118" y="280.7803">Configuration</text></g><!--cluster Core--><g class="cluster" data-qualified-name="Core" data-source-line="21" id="ent0007"><path d="M412.5,54 L445.3965,54 A3.75,3.75 0 0 1 447.8965,56.5 L454.8965,74 L503.5,74 A2.5,2.5 0 0 1 506,76.5 L506,134.5 A2.5,2.5 0 0 1 503.5,137 L412.5,137 A2.5,2.5 0 0 1 410,134.5 L410,56.5 A2.5,2.5 0 0 1 412.5,54" fill="#FFF3E0" style="stroke:#000000;stroke-width:1;"/><line style="stroke:#000000;stroke-width:1;" x1="410" x2="454.8965" y1="74" y2="74"/><text fill="#000000" font-family="Helvetica" font-size="14" font-weight="700" lengthAdjust="spacing" textLength="31.8965" x="414" y="66.7803">Core</text></g><!--cluster Resolution--><g class="cluster" data-qualified-name="Resolution" data-source-line="25" id="ent0009"><path d="M13.5,161 L86.8311,161 A3.75,3.75 0 0 1 89.3311,163.5 L96.3311,181 L511.5,181 A2.5,2.5 0 0 1 514,183.5 L514,452.5 A2.5,2.5 0 0 1 511.5,455 L13.5,455 A2.5,2.5 0 0 1 11,452.5 L11,163.5 A2.5,2.5 0 0 1 13.5,161" fill="#E8F5E9" style="stroke:#000000;stroke-width:1;"/><line style="stroke:#000000;stroke-width:1;" x1="11" x2="96.3311" y1="181" y2="181"/><text fill="#000000" font-family="Helvetica" font-size="14" font-weight="700" lengthAdjust="spacing" textLength="72.3311" x="15" y="173.7803">Resolution</text></g><!--cluster Handlers--><g class="cluster" data-qualified-name="Handlers" data-source-line="34" id="ent0016"><path d="M648.5,161 L709.4102,161 A3.75,3.75 0 0 1 711.9102,163.5 L718.9102,181 L898.5,181 A2.5,2.5 0 0 1 901,183.5 L901,241.5 A2.5,2.5 0 0 1 898.5,244 L648.5,244 A2.5,2.5 0 0 1 646,241.5 L646,163.5 A2.5,2.5 0 0 1 648.5,161" fill="#F3E5F5" style="stroke:#000000;stroke-width:1;"/><line style="stroke:#000000;stroke-width:1;" x1="646" x2="718.9102" y1="181" y2="181"/><text fill="#000000" font-family="Helvetica" font-size="14" font-weight="700" lengthAdjust="spacing" textLength="59.9102" x="650" y="173.7803">Handlers</text></g><!--cluster Output--><g class="cluster" data-qualified-name="Output" data-source-line="39" id="ent0019"><path d="M977.5,161 L1024.3691,161 A3.75,3.75 0 0 1 1026.8691,163.5 L1033.8691,181 L1409.5,181 A2.5,2.5 0 0 1 1412,183.5 L1412,241.5 A2.5,2.5 0 0 1 1409.5,244 L977.5,244 A2.5,2.5 0 0 1 975,241.5 L975,163.5 A2.5,2.5 0 0 1 977.5,161" fill="#ECEFF1" style="stroke:#000000;stroke-width:1;"/><line style="stroke:#000000;stroke-width:1;" x1="975" x2="1033.8691" y1="181" y2="181"/><text fill="#000000" font-family="Helvetica" font-size="14" font-weight="700" lengthAdjust="spacing" textLength="45.8691" x="979" y="173.7803">Output</text></g><!--cluster Interactive TUI--><g class="cluster" data-qualified-name="Interactive TUI" data-source-line="45" id="ent0023"><path d="M1488.5,54 L1585.9756,54 A3.75,3.75 0 0 1 1588.4756,56.5 L1595.4756,74 L2069.5,74 A2.5,2.5 0 0 1 2072,76.5 L2072,358.5 A2.5,2.5 0 0 1 2069.5,361 L1488.5,361 A2.5,2.5 0 0 1 1486,358.5 L1486,56.5 A2.5,2.5 0 0 1 1488.5,54" fill="#FFEBEE" style="stroke:#000000;stroke-width:1;"/><line style="stroke:#000000;stroke-width:1;" x1="1486" x2="1595.4756" y1="74" y2="74"/><text fill="#000000" font-family="Helvetica" font-size="14" font-weight="700" lengthAdjust="spacing" textLength="96.4756" x="1490" y="66.7803">Interactive TUI</text></g><!--entity Form--><g class="entity" data-qualified-name="Builder.Form" data-source-line="12" id="ent0002"><rect fill="#FFFFFF" height="34" rx="2.5" ry="2.5" style="stroke:#000000;stroke-width:1;" width="52.6621" x="553.67" y="194"/><text fill="#000000" font-family="Helvetica" font-size="14" lengthAdjust="spacing" textLength="32.6621" x="563.67" y="214.7803">Form</text></g><!--entity Config--><g class="entity" data-qualified-name="Configuration.Config" data-source-line="16" id="ent0004"><rect fill="#FFFFFF" height="34" rx="2.5" ry="2.5" style="stroke:#000000;stroke-width:1;" width="60.4688" x="1136.77" y="301"/><text fill="#000000" font-family="Helvetica" font-size="14" lengthAdjust="spacing" textLength="40.4688" x="1146.77" y="321.7803">Config</text></g><!--entity Panel--><g class="entity" data-qualified-name="Configuration.Panel" data-source-line="17" id="ent0005"><rect fill="#FFFFFF" height="34" rx="2.5" ry="2.5" style="stroke:#000000;stroke-width:1;" width="55.8066" x="1139.1" y="405"/><text fill="#000000" font-family="Helvetica" font-size="14" lengthAdjust="spacing" textLength="35.8066" x="1149.1" y="425.7803">Panel</text></g><!--entity Field--><g class="entity" data-qualified-name="Configuration.Field" data-source-line="18" id="ent0006"><rect fill="#FFFFFF" height="34" rx="2.5" ry="2.5" style="stroke:#000000;stroke-width:1;" width="50.3447" x="1141.83" y="499"/><text fill="#000000" font-family="Helvetica" font-size="14" lengthAdjust="spacing" textLength="30.3447" x="1151.83" y="519.7803">Field</text></g><!--entity Engine--><g class="entity" data-qualified-name="Core.Engine" data-source-line="22" id="ent0008"><rect fill="#FFFFFF" height="34" rx="2.5" ry="2.5" style="stroke:#000000;stroke-width:1;" width="63.5928" x="426.2" y="87"/><text fill="#000000" font-family="Helvetica" font-size="14" lengthAdjust="spacing" textLength="43.5928" x="436.2" y="107.7803">Engine</text></g><!--entity InputResolver--><g class="entity" data-qualified-name="Resolution.InputResolver" data-source-line="26" id="ent0010"><rect fill="#FFFFFF" height="34" rx="2.5" ry="2.5" style="stroke:#000000;stroke-width:1;" width="106.3789" x="26.81" y="194"/><text fill="#000000" font-family="Helvetica" font-size="14" lengthAdjust="spacing" textLength="86.3789" x="36.81" y="214.7803">InputResolver</text></g><!--entity Discover specs--><g class="entity" data-qualified-name="Resolution.Discover specs" data-source-line="27" id="ent0011"><rect fill="#FFFFFF" height="34" rx="2.5" ry="2.5" style="stroke:#000000;stroke-width:1;" width="114.917" x="168.54" y="194"/><text fill="#000000" font-family="Helvetica" font-size="14" lengthAdjust="spacing" textLength="94.917" x="178.54" y="214.7803">Discover specs</text></g><!--entity Deriver--><g class="entity" data-qualified-name="Resolution.Deriver" data-source-line="28" id="ent0012"><rect fill="#FFFFFF" height="34" rx="2.5" ry="2.5" style="stroke:#000000;stroke-width:1;" width="65.1172" x="318.44" y="194"/><text fill="#000000" font-family="Helvetica" font-size="14" lengthAdjust="spacing" textLength="45.1172" x="328.44" y="214.7803">Deriver</text></g><!--entity Derive--><g class="entity" data-qualified-name="Resolution.Derive" data-source-line="29" id="ent0013"><rect fill="#FFFFFF" height="34" rx="2.5" ry="2.5" style="stroke:#000000;stroke-width:1;" width="60.4551" x="320.77" y="301"/><text fill="#000000" font-family="Helvetica" font-size="14" lengthAdjust="spacing" textLength="40.4551" x="330.77" y="321.7803">Derive</text></g><!--entity Transform--><g class="entity" data-qualified-name="Resolution.Transform" data-source-line="30" id="ent0014"><rect fill="#FFFFFF" height="34" rx="2.5" ry="2.5" style="stroke:#000000;stroke-width:1;" width="83.7861" x="309.11" y="405"/><text fill="#000000" font-family="Helvetica" font-size="14" lengthAdjust="spacing" textLength="63.7861" x="319.11" y="425.7803">Transform</text></g><!--entity Condition--><g class="entity" data-qualified-name="Resolution.Condition" data-source-line="31" id="ent0015"><rect fill="#FFFFFF" height="34" rx="2.5" ry="2.5" style="stroke:#000000;stroke-width:1;" width="79.1514" x="418.42" y="194"/><text fill="#000000" font-family="Helvetica" font-size="14" lengthAdjust="spacing" textLength="59.1514" x="428.42" y="214.7803">Condition</text></g><!--entity HandlerRegistry--><g class="entity" data-qualified-name="Handlers.HandlerRegistry" data-source-line="35" id="ent0017"><rect fill="#FFFFFF" height="34" rx="2.5" ry="2.5" style="stroke:#000000;stroke-width:1;" width="120.3721" x="661.81" y="194"/><text fill="#000000" font-family="Helvetica" font-size="14" lengthAdjust="spacing" textLength="100.3721" x="671.81" y="214.7803">HandlerRegistry</text></g><!--entity Context--><g class="entity" data-qualified-name="Handlers.Context" data-source-line="36" id="ent0018"><rect fill="#FFFFFF" height="34" rx="2.5" ry="2.5" style="stroke:#000000;stroke-width:1;" width="68.248" x="816.88" y="194"/><text fill="#000000" font-family="Helvetica" font-size="14" lengthAdjust="spacing" textLength="48.248" x="826.88" y="214.7803">Context</text></g><!--entity Answers--><g class="entity" data-qualified-name="Output.Answers" data-source-line="40" id="ent0020"><rect fill="#FFFFFF" height="34" rx="2.5" ry="2.5" style="stroke:#000000;stroke-width:1;" width="73.6826" x="991.16" y="194"/><text fill="#000000" font-family="Helvetica" font-size="14" lengthAdjust="spacing" textLength="53.6826" x="1001.16" y="214.7803">Answers</text></g><!--entity SchemaGenerator--><g class="entity" data-qualified-name="Output.SchemaGenerator" data-source-line="41" id="ent0021"><rect fill="#FFFFFF" height="34" rx="2.5" ry="2.5" style="stroke:#000000;stroke-width:1;" width="134.3926" x="1099.8" y="194"/><text fill="#000000" font-family="Helvetica" font-size="14" lengthAdjust="spacing" textLength="114.3926" x="1109.8" y="214.7803">SchemaGenerator</text></g><!--entity SchemaValidator--><g class="entity" data-qualified-name="Output.SchemaValidator" data-source-line="42" id="ent0022"><rect fill="#FFFFFF" height="34" rx="2.5" ry="2.5" style="stroke:#000000;stroke-width:1;" width="126.6133" x="1269.69" y="194"/><text fill="#000000" font-family="Helvetica" font-size="14" lengthAdjust="spacing" textLength="106.6133" x="1279.69" y="214.7803">SchemaValidator</text></g><!--entity PanelController--><g class="entity" data-qualified-name="Interactive TUI.PanelController" data-source-line="46" id="ent0024"><rect fill="#FFFFFF" height="34" rx="2.5" ry="2.5" style="stroke:#000000;stroke-width:1;" width="116.4961" x="1597.75" y="87"/><text fill="#000000" font-family="Helvetica" font-size="14" lengthAdjust="spacing" textLength="96.4961" x="1607.75" y="107.7803">PanelController</text></g><!--entity Theme--><g class="entity" data-qualified-name="Interactive TUI.Theme" data-source-line="47" id="ent0025"><rect fill="#FFFFFF" height="34" rx="2.5" ry="2.5" style="stroke:#000000;stroke-width:1;" width="63.5723" x="1502.21" y="194"/><text fill="#000000" font-family="Helvetica" font-size="14" lengthAdjust="spacing" textLength="43.5723" x="1512.21" y="214.7803">Theme</text></g><!--entity WidgetFactory--><g class="entity" data-qualified-name="Interactive TUI.WidgetFactory" data-source-line="48" id="ent0026"><rect fill="#FFFFFF" height="34" rx="2.5" ry="2.5" style="stroke:#000000;stroke-width:1;" width="110.248" x="1600.88" y="194"/><text fill="#000000" font-family="Helvetica" font-size="14" lengthAdjust="spacing" textLength="90.248" x="1610.88" y="214.7803">WidgetFactory</text></g><!--entity WidgetInterface--><g class="entity" data-qualified-name="Interactive TUI.WidgetInterface" data-source-line="49" id="ent0027"><ellipse cx="1656" cy="318" fill="#FFFFFF" rx="8" ry="8" style="stroke:#000000;stroke-width:1;"/><text fill="#000000" font-family="Helvetica" font-size="14" lengthAdjust="spacing" textLength="98.0479" x="1606.9761" y="345.7803">WidgetInterface</text></g><!--entity Navigator--><g class="entity" data-qualified-name="Interactive TUI.Navigator" data-source-line="50" id="ent0028"><rect fill="#FFFFFF" height="34" rx="2.5" ry="2.5" style="stroke:#000000;stroke-width:1;" width="79.917" x="1746.04" y="194"/><text fill="#000000" font-family="Helvetica" font-size="14" lengthAdjust="spacing" textLength="59.917" x="1756.04" y="214.7803">Navigator</text></g><!--entity Terminal--><g class="entity" data-qualified-name="Interactive TUI.Terminal" data-source-line="51" id="ent0029"><rect fill="#FFFFFF" height="34" rx="2.5" ry="2.5" style="stroke:#000000;stroke-width:1;" width="74.4551" x="1860.77" y="194"/><text fill="#000000" font-family="Helvetica" font-size="14" lengthAdjust="spacing" textLength="54.4551" x="1870.77" y="214.7803">Terminal</text></g><!--entity KeyParser--><g class="entity" data-qualified-name="Interactive TUI.KeyParser" data-source-line="52" id="ent0030"><rect fill="#FFFFFF" height="34" rx="2.5" ry="2.5" style="stroke:#000000;stroke-width:1;" width="85.3584" x="1970.32" y="194"/><text fill="#000000" font-family="Helvetica" font-size="14" lengthAdjust="spacing" textLength="65.3584" x="1980.32" y="214.7803">KeyParser</text></g><!--link Form to Config--><g class="link" data-entity-1="ent0002" data-entity-2="ent0004" data-link-type="dependency" data-source-line="55" id="lnk31"><path d="M601.73,228.38 C614.07,236.84 630.18,246.5 646,252 C824.01,313.87 1049.3101,318.2378 1131.3401,317.6178" fill="none" id="Form-to-Config" style="stroke:#000000;stroke-width:1;"/><polygon fill="#000000" points="1136.34,317.58,1127.31,313.6481,1131.3401,317.6178,1127.3705,321.6479,1136.34,317.58" style="stroke:#000000;stroke-width:1;stroke-linejoin:miter;stroke-miterlimit:10;"/></g><!--reverse link Config to Panel--><g class="link" data-entity-1="ent0004" data-entity-2="ent0005" data-link-type="composition" data-source-line="56" id="lnk32"><path d="M1167,347.39 C1167,366.42 1167,385.64 1167,404.65" fill="none" id="Config-backto-Panel" style="stroke:#000000;stroke-width:1;"/><polygon fill="#000000" points="1167,335.39,1163,341.39,1167,347.39,1171,341.39,1167,335.39" style="stroke:#000000;stroke-width:1;stroke-linejoin:miter;stroke-miterlimit:10;"/></g><!--reverse link Panel to Field--><g class="link" data-entity-1="ent0005" data-entity-2="ent0006" data-link-type="composition" data-source-line="57" id="lnk33"><path d="M1167,451.45 C1167,468.19 1167,482 1167,498.69" fill="none" id="Panel-backto-Field" style="stroke:#000000;stroke-width:1;"/><polygon fill="#000000" points="1167,439.45,1163,445.45,1167,451.45,1171,445.45,1167,439.45" style="stroke:#000000;stroke-width:1;stroke-linejoin:miter;stroke-miterlimit:10;"/></g><!--link Engine to Config--><g class="link" data-entity-1="ent0008" data-entity-2="ent0004" data-link-type="dependency" data-source-line="59" id="lnk34"><path d="M490.21,105.21 C579.95,106.3 830.78,112.94 901,153 C948.72,180.22 930.54,219.74 975,252 C1024.85,288.17 1091.3483,304.3785 1131.5483,311.5785" fill="none" id="Engine-to-Config" style="stroke:#000000;stroke-width:1;"/><polygon fill="#000000" points="1136.47,312.46,1128.3162,306.936,1131.5483,311.5785,1126.9058,314.8107,1136.47,312.46" style="stroke:#000000;stroke-width:1;stroke-linejoin:miter;stroke-miterlimit:10;"/></g><!--link Engine to InputResolver--><g class="link" data-entity-1="ent0008" data-entity-2="ent0010" data-link-type="dependency" data-source-line="60" id="lnk35"><path d="M426,104.67 C368.46,105.21 244.77,111.6 151,153 C129.31,162.58 112.2194,176.9885 98.8394,190.1885" fill="none" id="Engine-to-InputResolver" style="stroke:#000000;stroke-width:1;"/><polygon fill="#000000" points="95.28,193.7,104.4961,190.2268,98.8394,190.1885,98.8777,184.5318,95.28,193.7" style="stroke:#000000;stroke-width:1;stroke-linejoin:miter;stroke-miterlimit:10;"/></g><!--link Engine to Discover specs--><g class="link" data-entity-1="ent0008" data-entity-2="ent0011" data-link-type="dependency" data-source-line="61" id="lnk36"><path d="M425.75,111.35 C393.09,118.58 341.72,132.15 301,153 C279.75,163.88 262.1095,177.605 247.6395,190.215" fill="none" id="Engine-to-Discover specs" style="stroke:#000000;stroke-width:1;"/><polygon fill="#000000" points="243.87,193.5,253.283,190.6027,247.6395,190.215,248.0271,184.5715,243.87,193.5" style="stroke:#000000;stroke-width:1;stroke-linejoin:miter;stroke-miterlimit:10;"/></g><!--link Engine to Deriver--><g class="link" data-entity-1="ent0008" data-entity-2="ent0012" data-link-type="dependency" data-source-line="62" id="lnk37"><path d="M437.03,121.39 C425.97,130.35 412.36,141.86 401,153 C387.65,166.08 376.9248,178.3438 367.1648,190.0938" fill="none" id="Engine-to-Deriver" style="stroke:#000000;stroke-width:1;"/><polygon fill="#000000" points="363.97,193.94,372.7976,189.5727,367.1648,190.0938,366.6437,184.461,363.97,193.94" style="stroke:#000000;stroke-width:1;stroke-linejoin:miter;stroke-miterlimit:10;"/></g><!--link Deriver to Derive--><g class="link" data-entity-1="ent0012" data-entity-2="ent0013" data-link-type="dependency" data-source-line="63" id="lnk38"><path d="M351,228.41 C351,248.13 351,276.03 351,295.71" fill="none" id="Deriver-to-Derive" style="stroke:#000000;stroke-width:1;"/><polygon fill="#000000" points="351,300.71,355,291.71,351,295.71,347,291.71,351,300.71" style="stroke:#000000;stroke-width:1;stroke-linejoin:miter;stroke-miterlimit:10;"/></g><!--link Derive to Transform--><g class="link" data-entity-1="ent0013" data-entity-2="ent0014" data-link-type="dependency" data-source-line="64" id="lnk39"><path d="M351,335.39 C351,354.42 351,380.64 351,399.65" fill="none" id="Derive-to-Transform" style="stroke:#000000;stroke-width:1;"/><polygon fill="#000000" points="351,404.65,355,395.65,351,399.65,347,395.65,351,404.65" style="stroke:#000000;stroke-width:1;stroke-linejoin:miter;stroke-miterlimit:10;"/></g><!--link Engine to Condition--><g class="link" data-entity-1="ent0008" data-entity-2="ent0015" data-link-type="dependency" data-source-line="65" id="lnk40"><path d="M458,121.41 C458,141.13 458,169.03 458,188.71" fill="none" id="Engine-to-Condition" style="stroke:#000000;stroke-width:1;"/><polygon fill="#000000" points="458,193.71,462,184.71,458,188.71,454,184.71,458,193.71" style="stroke:#000000;stroke-width:1;stroke-linejoin:miter;stroke-miterlimit:10;"/></g><!--link Engine to HandlerRegistry--><g class="link" data-entity-1="ent0008" data-entity-2="ent0017" data-link-type="dependency" data-source-line="66" id="lnk41"><path d="M490.2,112.07 C523.84,119.99 577.76,134.22 622,153 C648.67,164.32 672.9789,178.4358 692.7189,190.8658" fill="none" id="Engine-to-HandlerRegistry" style="stroke:#000000;stroke-width:1;"/><polygon fill="#000000" points="696.95,193.53,691.4655,185.3495,692.7189,190.8658,687.2027,192.1192,696.95,193.53" style="stroke:#000000;stroke-width:1;stroke-linejoin:miter;stroke-miterlimit:10;"/></g><!--link Engine to Answers--><g class="link" data-entity-1="ent0008" data-entity-2="ent0020" data-link-type="dependency" data-source-line="67" id="lnk42"><path d="M490.11,105.45 C587.52,107.23 878.26,115.62 964,153 C984.6,161.98 999.8645,176.4397 1011.6345,189.8697" fill="none" id="Engine-to-Answers" style="stroke:#000000;stroke-width:1;"/><polygon fill="#000000" points="1014.93,193.63,1012.0063,184.2251,1011.6345,189.8697,1005.9899,189.4979,1014.93,193.63" style="stroke:#000000;stroke-width:1;stroke-linejoin:miter;stroke-miterlimit:10;"/></g><!--link SchemaGenerator to Config--><g class="link" data-entity-1="ent0021" data-entity-2="ent0004" data-link-type="dependency" data-source-line="69" id="lnk43"><path d="M1167,228.41 C1167,248.13 1167,276.03 1167,295.71" fill="none" id="SchemaGenerator-to-Config" style="stroke:#000000;stroke-width:1;"/><polygon fill="#000000" points="1167,300.71,1171,291.71,1167,295.71,1163,291.71,1167,300.71" style="stroke:#000000;stroke-width:1;stroke-linejoin:miter;stroke-miterlimit:10;"/></g><!--link SchemaValidator to Config--><g class="link" data-entity-1="ent0022" data-entity-2="ent0004" data-link-type="dependency" data-source-line="70" id="lnk44"><path d="M1307.06,228.41 C1275.97,248.07 1228.3851,278.1663 1197.2551,297.8663" fill="none" id="SchemaValidator-to-Config" style="stroke:#000000;stroke-width:1;"/><polygon fill="#000000" points="1193.03,300.54,1202.7741,299.1073,1197.2551,297.8663,1198.4961,292.3472,1193.03,300.54" style="stroke:#000000;stroke-width:1;stroke-linejoin:miter;stroke-miterlimit:10;"/></g><!--link PanelController to Config--><g class="link" data-entity-1="ent0024" data-entity-2="ent0004" data-link-type="dependency" data-source-line="72" id="lnk45"><path d="M1597.28,111.73 C1562.23,118.01 1518.23,130.04 1485,153 C1440.02,184.07 1457.2,221.25 1412,252 C1344.69,297.79 1251.7036,310.9456 1202.5336,314.9356" fill="none" id="PanelController-to-Config" style="stroke:#000000;stroke-width:1;"/><polygon fill="#000000" points="1197.55,315.34,1206.844,318.599,1202.5336,314.9356,1206.197,310.6252,1197.55,315.34" style="stroke:#000000;stroke-width:1;stroke-linejoin:miter;stroke-miterlimit:10;"/></g><!--link PanelController to Theme--><g class="link" data-entity-1="ent0024" data-entity-2="ent0025" data-link-type="dependency" data-source-line="73" id="lnk46"><path d="M1627.3,121.29 C1613.28,129.87 1596.56,141.08 1583,153 C1568.99,165.32 1558.4022,177.7074 1549.0822,189.7374" fill="none" id="PanelController-to-Theme" style="stroke:#000000;stroke-width:1;"/><polygon fill="#000000" points="1546.02,193.69,1554.694,189.0251,1549.0822,189.7374,1548.3699,184.1256,1546.02,193.69" style="stroke:#000000;stroke-width:1;stroke-linejoin:miter;stroke-miterlimit:10;"/></g><!--link PanelController to WidgetFactory--><g class="link" data-entity-1="ent0024" data-entity-2="ent0026" data-link-type="dependency" data-source-line="74" id="lnk47"><path d="M1656,121.41 C1656,141.13 1656,169.03 1656,188.71" fill="none" id="PanelController-to-WidgetFactory" style="stroke:#000000;stroke-width:1;"/><polygon fill="#000000" points="1656,193.71,1660,184.71,1656,188.71,1652,184.71,1656,193.71" style="stroke:#000000;stroke-width:1;stroke-linejoin:miter;stroke-miterlimit:10;"/></g><!--link WidgetFactory to WidgetInterface--><g class="link" data-entity-1="ent0026" data-entity-2="ent0027" data-link-type="dependency" data-source-line="75" id="lnk48"><path d="M1656,228.41 C1656,251.36 1656,287.16 1656,304.19" fill="none" id="WidgetFactory-to-WidgetInterface" style="stroke:#000000;stroke-width:1;"/><polygon fill="#000000" points="1656,309.19,1660,300.19,1656,304.19,1652,300.19,1656,309.19" style="stroke:#000000;stroke-width:1;stroke-linejoin:miter;stroke-miterlimit:10;"/></g><!--link PanelController to Navigator--><g class="link" data-entity-1="ent0024" data-entity-2="ent0028" data-link-type="dependency" data-source-line="76" id="lnk49"><path d="M1683.62,121.3 C1697.68,130.05 1714.77,141.41 1729,153 C1744.41,165.55 1756.8561,178.0576 1767.9161,189.9576" fill="none" id="PanelController-to-Navigator" style="stroke:#000000;stroke-width:1;"/><polygon fill="#000000" points="1771.32,193.62,1768.1229,184.3045,1767.9161,189.9576,1762.263,189.7507,1771.32,193.62" style="stroke:#000000;stroke-width:1;stroke-linejoin:miter;stroke-miterlimit:10;"/></g><!--link PanelController to Terminal--><g class="link" data-entity-1="ent0024" data-entity-2="ent0029" data-link-type="dependency" data-source-line="77" id="lnk50"><path d="M1714.35,111.56 C1752.92,117.86 1803.46,129.98 1843,153 C1860.59,163.24 1873.1452,176.7472 1883.2052,189.6472" fill="none" id="PanelController-to-Terminal" style="stroke:#000000;stroke-width:1;"/><polygon fill="#000000" points="1886.28,193.59,1883.8996,184.0331,1883.2052,189.6472,1877.5912,188.9528,1886.28,193.59" style="stroke:#000000;stroke-width:1;stroke-linejoin:miter;stroke-miterlimit:10;"/></g><!--link PanelController to KeyParser--><g class="link" data-entity-1="ent0024" data-entity-2="ent0030" data-link-type="dependency" data-source-line="78" id="lnk51"><path d="M1714.62,104.43 C1776.86,106.05 1876.6,115.15 1953,153 C1972.31,162.57 1986.3905,176.6477 1997.3905,189.8577" fill="none" id="PanelController-to-KeyParser" style="stroke:#000000;stroke-width:1;"/><polygon fill="#000000" points="2000.59,193.7,1997.9048,184.2243,1997.3905,189.8577,1991.7571,189.3435,2000.59,193.7" style="stroke:#000000;stroke-width:1;stroke-linejoin:miter;stroke-miterlimit:10;"/></g><!--link PanelController to Answers--><g class="link" data-entity-1="ent0024" data-entity-2="ent0020" data-link-type="dependency" data-source-line="79" id="lnk52"><path d="M1597.6,104.67 C1470.28,104.78 1171.91,109.8 1082,153 C1063.45,161.91 1050.8833,176.0621 1041.3333,189.5221" fill="none" id="PanelController-to-Answers" style="stroke:#000000;stroke-width:1;"/><polygon fill="#000000" points="1038.44,193.6,1046.9102,188.5745,1041.3333,189.5221,1040.3856,183.9452,1038.44,193.6" style="stroke:#000000;stroke-width:1;stroke-linejoin:miter;stroke-miterlimit:10;"/></g><?plantuml-src ZLDDRzim3BtxLt3TeK21DDso0li01gofrGO3kg39kiFGWoenZb1PCYGvQJ3ilqyViMSx2x1JQBv7yebyEGLkSAChEtQrW14mNLPQeN903LiBXypL1i-pKvXJzamBj50AOxG1jqQmXet1razS64_KHg3zv0kDtbgmQxsDf98A1HmhL1mLyvJGxHuBL6YeGy0DcXqi7cvWAzpw8q0bgN9rAM7axAO0hfaTTzMCpyuh3sUlVFSI0rsep3uBLL53ItZoGWkZQyMdMdgXsr3OmJckQ2qTqShTKLz_YtA3JZ3QuTWrvNehL04hAcstkbtGmkqaGdWtLON4p0ddl_zdcrbMfLt2oLKj94Tp0g_91NatdS2l3E0dqQPyp7vtU5EjLgAe_Rw4LfwTJyXRSftO2NiCuPmgb34Y0YKVzZ0O1X4ooIzIQQuAeR1FkqUhPTtCUKykym-9F5DLxIBg3nQ7N0lBjFy0Mo6pAOL6j72COxWqLDbLV5PIp4MOq9zyInMNQ6mGESaloMMQkqzxnmZhpAxfuF35zUk_rSuh3AgdEI5lKlKNPRU-PwnQC6yOUfECfqqdzq2bu2dNxJZpKmnbpZy3bjzdSNlvLPwdrd7RGOdHKkxVl0oMZD4FmGjqX8R_HHGjGhCLPGW9cZNVWNr7Dw9eHItHb4BHTCglk9jJOp5fI-Q0qUZptyit0PoDHgq9zhyfjxT3rbnyKD_B3kxS1uSd7w3DzTkecs_J-sp750Uw6d_qWGChzE7srjd1gGSF7bwz3sS7fnsK_nlUt_u8El33u3joXhuuqgdZbMDAMlyS8NGyTOJHxF8F?></g></svg>