<svg xmlns="http://www.w3.org/2000/svg" xmlns:xlink="http://www.w3.org/1999/xlink" contentStyleType="text/css" data-diagram-type="DESCRIPTION" height="564px" preserveAspectRatio="none" style="width:2242px;height:564px;background:#FFFFFF;" version="1.1" viewBox="0 0 2242 564" width="2242px" zoomAndPan="magnify"><?plantuml 1.2026.6?><defs/><g><g class="title" data-source-line="9"><text fill="#000000" font-family="Helvetica" font-size="22" font-weight="700" lengthAdjust="spacing" textLength="388.7275" x="925.6362" y="31.9404">drevops/tui - component architecture</text></g><!--cluster Builder--><g class="cluster" data-qualified-name="Builder" data-source-line="11" id="ent0001"><path d="M623.5,161 L672.7275,161 A3.75,3.75 0 0 1 675.2275,163.5 L682.2275,181 L702.5,181 A2.5,2.5 0 0 1 705,183.5 L705,241.5 A2.5,2.5 0 0 1 702.5,244 L623.5,244 A2.5,2.5 0 0 1 621,241.5 L621,163.5 A2.5,2.5 0 0 1 623.5,161" fill="#F0F4C3" style="stroke:#000000;stroke-width:1;"/><line style="stroke:#000000;stroke-width:1;" x1="621" x2="682.2275" y1="181" y2="181"/><text fill="#000000" font-family="Helvetica" font-size="14" font-weight="700" lengthAdjust="spacing" textLength="48.2275" x="625" y="173.7803">Builder</text></g><!--cluster Configuration--><g class="cluster" data-qualified-name="Configuration" data-source-line="15" id="ent0003"><path d="M920.5,268 L1013.2588,268 A3.75,3.75 0 0 1 1015.7588,270.5 L1022.7588,288 L1022.5,288 A2.5,2.5 0 0 1 1025,290.5 L1025,546.5 A2.5,2.5 0 0 1 1022.5,549 L920.5,549 A2.5,2.5 0 0 1 918,546.5 L918,270.5 A2.5,2.5 0 0 1 920.5,268" fill="#E3F2FD" style="stroke:#000000;stroke-width:1;"/><line style="stroke:#000000;stroke-width:1;" x1="918" x2="1022.7588" y1="288" y2="288"/><text fill="#000000" font-family="Helvetica" font-size="14" font-weight="700" lengthAdjust="spacing" textLength="91.7588" x="922" y="280.7803">Configuration</text></g><!--cluster Core--><g class="cluster" data-qualified-name="Core" data-source-line="21" id="ent0007"><path d="M1459.5,54 L1492.3965,54 A3.75,3.75 0 0 1 1494.8965,56.5 L1501.8965,74 L1550.5,74 A2.5,2.5 0 0 1 1553,76.5 L1553,134.5 A2.5,2.5 0 0 1 1550.5,137 L1459.5,137 A2.5,2.5 0 0 1 1457,134.5 L1457,56.5 A2.5,2.5 0 0 1 1459.5,54" fill="#FFF3E0" style="stroke:#000000;stroke-width:1;"/><line style="stroke:#000000;stroke-width:1;" x1="1457" x2="1501.8965" y1="74" y2="74"/><text fill="#000000" font-family="Helvetica" font-size="14" font-weight="700" lengthAdjust="spacing" textLength="31.8965" x="1461" y="66.7803">Core</text></g><!--cluster Resolution--><g class="cluster" data-qualified-name="Resolution" data-source-line="25" id="ent0009"><path d="M1292.5,161 L1365.8311,161 A3.75,3.75 0 0 1 1368.3311,163.5 L1375.3311,181 L1790.5,181 A2.5,2.5 0 0 1 1793,183.5 L1793,452.5 A2.5,2.5 0 0 1 1790.5,455 L1292.5,455 A2.5,2.5 0 0 1 1290,452.5 L1290,163.5 A2.5,2.5 0 0 1 1292.5,161" fill="#E8F5E9" style="stroke:#000000;stroke-width:1;"/><line style="stroke:#000000;stroke-width:1;" x1="1290" x2="1375.3311" y1="181" y2="181"/><text fill="#000000" font-family="Helvetica" font-size="14" font-weight="700" lengthAdjust="spacing" textLength="72.3311" x="1294" y="173.7803">Resolution</text></g><!--cluster Handlers--><g class="cluster" data-qualified-name="Handlers" data-source-line="34" id="ent0016"><path d="M1819.5,161 L1880.4102,161 A3.75,3.75 0 0 1 1882.9102,163.5 L1889.9102,181 L2224.5,181 A2.5,2.5 0 0 1 2227,183.5 L2227,358.5 A2.5,2.5 0 0 1 2224.5,361 L1819.5,361 A2.5,2.5 0 0 1 1817,358.5 L1817,163.5 A2.5,2.5 0 0 1 1819.5,161" fill="#F3E5F5" style="stroke:#000000;stroke-width:1;"/><line style="stroke:#000000;stroke-width:1;" x1="1817" x2="1889.9102" y1="181" y2="181"/><text fill="#000000" font-family="Helvetica" font-size="14" font-weight="700" lengthAdjust="spacing" textLength="59.9102" x="1821" y="173.7803">Handlers</text></g><!--cluster Output--><g class="cluster" data-qualified-name="Output" data-source-line="41" id="ent0021"><path d="M781.5,161 L828.3691,161 A3.75,3.75 0 0 1 830.8691,163.5 L837.8691,181 L1213.5,181 A2.5,2.5 0 0 1 1216,183.5 L1216,241.5 A2.5,2.5 0 0 1 1213.5,244 L781.5,244 A2.5,2.5 0 0 1 779,241.5 L779,163.5 A2.5,2.5 0 0 1 781.5,161" fill="#ECEFF1" style="stroke:#000000;stroke-width:1;"/><line style="stroke:#000000;stroke-width:1;" x1="779" x2="837.8691" y1="181" y2="181"/><text fill="#000000" font-family="Helvetica" font-size="14" font-weight="700" lengthAdjust="spacing" textLength="45.8691" x="783" y="173.7803">Output</text></g><!--cluster Interactive TUI--><g class="cluster" data-qualified-name="Interactive TUI" data-source-line="47" id="ent0025"><path d="M13.5,54 L110.9756,54 A3.75,3.75 0 0 1 113.4756,56.5 L120.4756,74 L594.5,74 A2.5,2.5 0 0 1 597,76.5 L597,358.5 A2.5,2.5 0 0 1 594.5,361 L13.5,361 A2.5,2.5 0 0 1 11,358.5 L11,56.5 A2.5,2.5 0 0 1 13.5,54" fill="#FFEBEE" style="stroke:#000000;stroke-width:1;"/><line style="stroke:#000000;stroke-width:1;" x1="11" x2="120.4756" y1="74" y2="74"/><text fill="#000000" font-family="Helvetica" font-size="14" font-weight="700" lengthAdjust="spacing" textLength="96.4756" x="15" y="66.7803">Interactive TUI</text></g><!--entity Form--><g class="entity" data-qualified-name="Builder.Form" data-source-line="12" id="ent0002"><rect fill="#FFFFFF" height="34" rx="2.5" ry="2.5" style="stroke:#000000;stroke-width:1;" width="52.6621" x="636.67" y="194"/><text fill="#000000" font-family="Helvetica" font-size="14" lengthAdjust="spacing" textLength="32.6621" x="646.67" y="214.7803">Form</text></g><!--entity Config--><g class="entity" data-qualified-name="Configuration.Config" data-source-line="16" id="ent0004"><rect fill="#FFFFFF" height="34" rx="2.5" ry="2.5" style="stroke:#000000;stroke-width:1;" width="60.4688" x="940.77" y="301"/><text fill="#000000" font-family="Helvetica" font-size="14" lengthAdjust="spacing" textLength="40.4688" x="950.77" y="321.7803">Config</text></g><!--entity Panel--><g class="entity" data-qualified-name="Configuration.Panel" data-source-line="17" id="ent0005"><rect fill="#FFFFFF" height="34" rx="2.5" ry="2.5" style="stroke:#000000;stroke-width:1;" width="55.8066" x="943.1" y="405"/><text fill="#000000" font-family="Helvetica" font-size="14" lengthAdjust="spacing" textLength="35.8066" x="953.1" y="425.7803">Panel</text></g><!--entity Field--><g class="entity" data-qualified-name="Configuration.Field" data-source-line="18" id="ent0006"><rect fill="#FFFFFF" height="34" rx="2.5" ry="2.5" style="stroke:#000000;stroke-width:1;" width="50.3447" x="945.83" y="499"/><text fill="#000000" font-family="Helvetica" font-size="14" lengthAdjust="spacing" textLength="30.3447" x="955.83" y="519.7803">Field</text></g><!--entity Engine--><g class="entity" data-qualified-name="Core.Engine" data-source-line="22" id="ent0008"><rect fill="#FFFFFF" height="34" rx="2.5" ry="2.5" style="stroke:#000000;stroke-width:1;" width="63.5928" x="1473.2" y="87"/><text fill="#000000" font-family="Helvetica" font-size="14" lengthAdjust="spacing" textLength="43.5928" x="1483.2" y="107.7803">Engine</text></g><!--entity InputResolver--><g class="entity" data-qualified-name="Resolution.InputResolver" data-source-line="26" id="ent0010"><rect fill="#FFFFFF" height="34" rx="2.5" ry="2.5" style="stroke:#000000;stroke-width:1;" width="106.3789" x="1305.81" y="194"/><text fill="#000000" font-family="Helvetica" font-size="14" lengthAdjust="spacing" textLength="86.3789" x="1315.81" y="214.7803">InputResolver</text></g><!--entity Discover specs--><g class="entity" data-qualified-name="Resolution.Discover specs" data-source-line="27" id="ent0011"><rect fill="#FFFFFF" height="34" rx="2.5" ry="2.5" style="stroke:#000000;stroke-width:1;" width="114.917" x="1447.54" y="194"/><text fill="#000000" font-family="Helvetica" font-size="14" lengthAdjust="spacing" textLength="94.917" x="1457.54" y="214.7803">Discover specs</text></g><!--entity Deriver--><g class="entity" data-qualified-name="Resolution.Deriver" data-source-line="28" id="ent0012"><rect fill="#FFFFFF" height="34" rx="2.5" ry="2.5" style="stroke:#000000;stroke-width:1;" width="65.1172" x="1597.44" y="194"/><text fill="#000000" font-family="Helvetica" font-size="14" lengthAdjust="spacing" textLength="45.1172" x="1607.44" y="214.7803">Deriver</text></g><!--entity Derive--><g class="entity" data-qualified-name="Resolution.Derive" data-source-line="29" id="ent0013"><rect fill="#FFFFFF" height="34" rx="2.5" ry="2.5" style="stroke:#000000;stroke-width:1;" width="60.4551" x="1599.77" y="301"/><text fill="#000000" font-family="Helvetica" font-size="14" lengthAdjust="spacing" textLength="40.4551" x="1609.77" y="321.7803">Derive</text></g><!--entity Transform--><g class="entity" data-qualified-name="Resolution.Transform" data-source-line="30" id="ent0014"><rect fill="#FFFFFF" height="34" rx="2.5" ry="2.5" style="stroke:#000000;stroke-width:1;" width="83.7861" x="1588.11" y="405"/><text fill="#000000" font-family="Helvetica" font-size="14" lengthAdjust="spacing" textLength="63.7861" x="1598.11" y="425.7803">Transform</text></g><!--entity Condition--><g class="entity" data-qualified-name="Resolution.Condition" data-source-line="31" id="ent0015"><rect fill="#FFFFFF" height="34" rx="2.5" ry="2.5" style="stroke:#000000;stroke-width:1;" width="79.1514" x="1697.42" y="194"/><text fill="#000000" font-family="Helvetica" font-size="14" lengthAdjust="spacing" textLength="59.1514" x="1707.42" y="214.7803">Condition</text></g><!--entity HandlerRegistry--><g class="entity" data-qualified-name="Handlers.HandlerRegistry" data-source-line="35" id="ent0017"><rect fill="#FFFFFF" height="34" rx="2.5" ry="2.5" style="stroke:#000000;stroke-width:1;" width="120.3721" x="1832.81" y="194"/><text fill="#000000" font-family="Helvetica" font-size="14" lengthAdjust="spacing" textLength="100.3721" x="1842.81" y="214.7803">HandlerRegistry</text></g><!--entity HandlerInterface--><g class="entity" data-qualified-name="Handlers.HandlerInterface" data-source-line="36" id="ent0018"><ellipse cx="1970" cy="318" fill="#FFFFFF" rx="8" ry="8" style="stroke:#000000;stroke-width:1;"/><text fill="#000000" font-family="Helvetica" font-size="14" lengthAdjust="spacing" textLength="103.5029" x="1918.2485" y="345.7803">HandlerInterface</text></g><!--entity AbstractHandler--><g class="entity" data-qualified-name="Handlers.AbstractHandler" data-source-line="37" id="ent0019"><rect fill="#FFFFFF" height="34" rx="2.5" ry="2.5" style="stroke:#000000;stroke-width:1;" width="120.3789" x="1987.81" y="194"/><text fill="#000000" font-family="Helvetica" font-size="14" lengthAdjust="spacing" textLength="100.3789" x="1997.81" y="214.7803">AbstractHandler</text></g><!--entity Context--><g class="entity" data-qualified-name="Handlers.Context" data-source-line="38" id="ent0020"><rect fill="#FFFFFF" height="34" rx="2.5" ry="2.5" style="stroke:#000000;stroke-width:1;" width="68.248" x="2142.88" y="194"/><text fill="#000000" font-family="Helvetica" font-size="14" lengthAdjust="spacing" textLength="48.248" x="2152.88" y="214.7803">Context</text></g><!--entity Answers--><g class="entity" data-qualified-name="Output.Answers" data-source-line="42" id="ent0022"><rect fill="#FFFFFF" height="34" rx="2.5" ry="2.5" style="stroke:#000000;stroke-width:1;" width="73.6826" x="795.16" y="194"/><text fill="#000000" font-family="Helvetica" font-size="14" lengthAdjust="spacing" textLength="53.6826" x="805.16" y="214.7803">Answers</text></g><!--entity SchemaGenerator--><g class="entity" data-qualified-name="Output.SchemaGenerator" data-source-line="43" id="ent0023"><rect fill="#FFFFFF" height="34" rx="2.5" ry="2.5" style="stroke:#000000;stroke-width:1;" width="134.3926" x="903.8" y="194"/><text fill="#000000" font-family="Helvetica" font-size="14" lengthAdjust="spacing" textLength="114.3926" x="913.8" y="214.7803">SchemaGenerator</text></g><!--entity SchemaValidator--><g class="entity" data-qualified-name="Output.SchemaValidator" data-source-line="44" id="ent0024"><rect fill="#FFFFFF" height="34" rx="2.5" ry="2.5" style="stroke:#000000;stroke-width:1;" width="126.6133" x="1073.69" y="194"/><text fill="#000000" font-family="Helvetica" font-size="14" lengthAdjust="spacing" textLength="106.6133" x="1083.69" y="214.7803">SchemaValidator</text></g><!--entity PanelController--><g class="entity" data-qualified-name="Interactive TUI.PanelController" data-source-line="48" id="ent0026"><rect fill="#FFFFFF" height="34" rx="2.5" ry="2.5" style="stroke:#000000;stroke-width:1;" width="116.4961" x="364.75" y="87"/><text fill="#000000" font-family="Helvetica" font-size="14" lengthAdjust="spacing" textLength="96.4961" x="374.75" y="107.7803">PanelController</text></g><!--entity Theme--><g class="entity" data-qualified-name="Interactive TUI.Theme" data-source-line="49" id="ent0027"><rect fill="#FFFFFF" height="34" rx="2.5" ry="2.5" style="stroke:#000000;stroke-width:1;" width="63.5723" x="27.21" y="194"/><text fill="#000000" font-family="Helvetica" font-size="14" lengthAdjust="spacing" textLength="43.5723" x="37.21" y="214.7803">Theme</text></g><!--entity WidgetFactory--><g class="entity" data-qualified-name="Interactive TUI.WidgetFactory" data-source-line="50" id="ent0028"><rect fill="#FFFFFF" height="34" rx="2.5" ry="2.5" style="stroke:#000000;stroke-width:1;" width="110.248" x="125.88" y="194"/><text fill="#000000" font-family="Helvetica" font-size="14" lengthAdjust="spacing" textLength="90.248" x="135.88" y="214.7803">WidgetFactory</text></g><!--entity WidgetInterface--><g class="entity" data-qualified-name="Interactive TUI.WidgetInterface" data-source-line="51" id="ent0029"><ellipse cx="181" cy="318" fill="#FFFFFF" rx="8" ry="8" style="stroke:#000000;stroke-width:1;"/><text fill="#000000" font-family="Helvetica" font-size="14" lengthAdjust="spacing" textLength="98.0479" x="131.9761" y="345.7803">WidgetInterface</text></g><!--entity Navigator--><g class="entity" data-qualified-name="Interactive TUI.Navigator" data-source-line="52" id="ent0030"><rect fill="#FFFFFF" height="34" rx="2.5" ry="2.5" style="stroke:#000000;stroke-width:1;" width="79.917" x="271.04" y="194"/><text fill="#000000" font-family="Helvetica" font-size="14" lengthAdjust="spacing" textLength="59.917" x="281.04" y="214.7803">Navigator</text></g><!--entity Terminal--><g class="entity" data-qualified-name="Interactive TUI.Terminal" data-source-line="53" id="ent0031"><rect fill="#FFFFFF" height="34" rx="2.5" ry="2.5" style="stroke:#000000;stroke-width:1;" width="74.4551" x="385.77" y="194"/><text fill="#000000" font-family="Helvetica" font-size="14" lengthAdjust="spacing" textLength="54.4551" x="395.77" y="214.7803">Terminal</text></g><!--entity KeyParser--><g class="entity" data-qualified-name="Interactive TUI.KeyParser" data-source-line="54" id="ent0032"><rect fill="#FFFFFF" height="34" rx="2.5" ry="2.5" style="stroke:#000000;stroke-width:1;" width="85.3584" x="495.32" y="194"/><text fill="#000000" font-family="Helvetica" font-size="14" lengthAdjust="spacing" textLength="65.3584" x="505.32" y="214.7803">KeyParser</text></g><!--link Form to Config--><g class="link" data-entity-1="ent0002" data-entity-2="ent0004" data-link-type="dependency" data-source-line="57" id="lnk33"><path d="M680.94,228.4 C690.69,236.54 703.32,245.91 716,252 C792.18,288.61 886.4694,305.5487 935.6694,312.5187" fill="none" id="Form-to-Config" style="stroke:#000000;stroke-width:1;"/><polygon fill="#000000" points="940.62,313.22,932.27,307.9971,935.6694,312.5187,931.1479,315.9181,940.62,313.22" style="stroke:#000000;stroke-width:1;stroke-linejoin:miter;stroke-miterlimit:10;"/></g><!--reverse link Config to Panel--><g class="link" data-entity-1="ent0004" data-entity-2="ent0005" data-link-type="composition" data-source-line="58" id="lnk34"><path d="M971,347.39 C971,366.42 971,385.64 971,404.65" fill="none" id="Config-backto-Panel" style="stroke:#000000;stroke-width:1;"/><polygon fill="#000000" points="971,335.39,967,341.39,971,347.39,975,341.39,971,335.39" style="stroke:#000000;stroke-width:1;stroke-linejoin:miter;stroke-miterlimit:10;"/></g><!--reverse link Panel to Field--><g class="link" data-entity-1="ent0005" data-entity-2="ent0006" data-link-type="composition" data-source-line="59" id="lnk35"><path d="M971,451.45 C971,468.19 971,482 971,498.69" fill="none" id="Panel-backto-Field" style="stroke:#000000;stroke-width:1;"/><polygon fill="#000000" points="971,439.45,967,445.45,971,451.45,975,445.45,971,439.45" style="stroke:#000000;stroke-width:1;stroke-linejoin:miter;stroke-miterlimit:10;"/></g><!--link Engine to Config--><g class="link" data-entity-1="ent0008" data-entity-2="ent0004" data-link-type="dependency" data-source-line="61" id="lnk36"><path d="M1472.83,105.37 C1428.31,107.31 1347,116.12 1290,153 C1243.88,182.84 1261.52,221.25 1216,252 C1148.54,297.57 1055.6129,310.807 1006.5029,314.877" fill="none" id="Engine-to-Config" style="stroke:#000000;stroke-width:1;"/><polygon fill="#000000" points="1001.52,315.29,1010.8196,318.533,1006.5029,314.877,1010.1589,310.5603,1001.52,315.29" style="stroke:#000000;stroke-width:1;stroke-linejoin:miter;stroke-miterlimit:10;"/></g><!--link Engine to InputResolver--><g class="link" data-entity-1="ent0008" data-entity-2="ent0010" data-link-type="dependency" data-source-line="62" id="lnk37"><path d="M1477.81,121.42 C1463.36,130.39 1445.44,141.91 1430,153 C1411.9,166 1396.0382,178.7656 1381.9882,190.4956" fill="none" id="Engine-to-InputResolver" style="stroke:#000000;stroke-width:1;"/><polygon fill="#000000" points="1378.15,193.7,1387.6223,191.0026,1381.9882,190.4956,1382.4952,184.8615,1378.15,193.7" style="stroke:#000000;stroke-width:1;stroke-linejoin:miter;stroke-miterlimit:10;"/></g><!--link Engine to Discover specs--><g class="link" data-entity-1="ent0008" data-entity-2="ent0011" data-link-type="dependency" data-source-line="63" id="lnk38"><path d="M1505,121.41 C1505,141.13 1505,169.03 1505,188.71" fill="none" id="Engine-to-Discover specs" style="stroke:#000000;stroke-width:1;"/><polygon fill="#000000" points="1505,193.71,1509,184.71,1505,188.71,1501,184.71,1505,193.71" style="stroke:#000000;stroke-width:1;stroke-linejoin:miter;stroke-miterlimit:10;"/></g><!--link Engine to Deriver--><g class="link" data-entity-1="ent0008" data-entity-2="ent0012" data-link-type="dependency" data-source-line="64" id="lnk39"><path d="M1534.83,121.44 C1549.15,129.98 1566.17,141.11 1580,153 C1594.28,165.27 1605.0988,177.6979 1614.6188,189.7379" fill="none" id="Engine-to-Deriver" style="stroke:#000000;stroke-width:1;"/><polygon fill="#000000" points="1617.72,193.66,1615.2755,184.1193,1614.6188,189.7379,1609.0002,189.0812,1617.72,193.66" style="stroke:#000000;stroke-width:1;stroke-linejoin:miter;stroke-miterlimit:10;"/></g><!--link Deriver to Derive--><g class="link" data-entity-1="ent0012" data-entity-2="ent0013" data-link-type="dependency" data-source-line="65" id="lnk40"><path d="M1630,228.41 C1630,248.13 1630,276.03 1630,295.71" fill="none" id="Deriver-to-Derive" style="stroke:#000000;stroke-width:1;"/><polygon fill="#000000" points="1630,300.71,1634,291.71,1630,295.71,1626,291.71,1630,300.71" style="stroke:#000000;stroke-width:1;stroke-linejoin:miter;stroke-miterlimit:10;"/></g><!--link Derive to Transform--><g class="link" data-entity-1="ent0013" data-entity-2="ent0014" data-link-type="dependency" data-source-line="66" id="lnk41"><path d="M1630,335.39 C1630,354.42 1630,380.64 1630,399.65" fill="none" id="Derive-to-Transform" style="stroke:#000000;stroke-width:1;"/><polygon fill="#000000" points="1630,404.65,1634,395.65,1630,399.65,1626,395.65,1630,404.65" style="stroke:#000000;stroke-width:1;stroke-linejoin:miter;stroke-miterlimit:10;"/></g><!--link Engine to Condition--><g class="link" data-entity-1="ent0008" data-entity-2="ent0015" data-link-type="dependency" data-source-line="67" id="lnk42"><path d="M1537.25,108.78 C1573.9,114.19 1634.51,126.56 1680,153 C1697.91,163.41 1710.9909,176.9626 1721.5209,189.8126" fill="none" id="Engine-to-Condition" style="stroke:#000000;stroke-width:1;"/><polygon fill="#000000" points="1724.69,193.68,1722.0794,184.1834,1721.5209,189.8126,1715.8917,189.254,1724.69,193.68" style="stroke:#000000;stroke-width:1;stroke-linejoin:miter;stroke-miterlimit:10;"/></g><!--link Engine to HandlerRegistry--><g class="link" data-entity-1="ent0008" data-entity-2="ent0017" data-link-type="dependency" data-source-line="68" id="lnk43"><path d="M1537.02,106.66 C1591.18,110.27 1703.69,121.25 1793,153 C1821.05,162.97 1846.1681,177.879 1865.7381,190.909" fill="none" id="Engine-to-HandlerRegistry" style="stroke:#000000;stroke-width:1;"/><polygon fill="#000000" points="1869.9,193.68,1864.6254,185.3626,1865.7381,190.909,1860.1918,192.0216,1869.9,193.68" style="stroke:#000000;stroke-width:1;stroke-linejoin:miter;stroke-miterlimit:10;"/></g><!--link HandlerRegistry to HandlerInterface--><g class="link" data-entity-1="ent0017" data-entity-2="ent0018" data-link-type="dependency" data-source-line="69" id="lnk44"><path d="M1905.03,228.41 C1921.87,251.36 1948.833,288.1281 1961.323,305.1581" fill="none" id="HandlerRegistry-to-HandlerInterface" style="stroke:#000000;stroke-width:1;"/><polygon fill="#000000" points="1964.28,309.19,1962.1829,299.567,1961.323,305.1581,1955.7319,304.2982,1964.28,309.19" style="stroke:#000000;stroke-width:1;stroke-linejoin:miter;stroke-miterlimit:10;"/></g><!--link AbstractHandler to HandlerInterface--><g class="link" data-entity-1="ent0019" data-entity-2="ent0018" data-link-type="extension" data-source-line="70" id="lnk45"><path d="M2035.81,228.41 C2018.76,251.36 1999.1834,277.7103 1986.5334,294.7403" fill="none" id="AbstractHandler-to-HandlerInterface" style="stroke:#000000;stroke-width:1;stroke-dasharray:7,7;"/><polygon fill="none" points="1975.8,309.19,1991.3499,298.3181,1981.7168,291.1625,1975.8,309.19" style="stroke:#000000;stroke-width:1;stroke-linejoin:miter;stroke-miterlimit:10;"/></g><!--link Engine to Answers--><g class="link" data-entity-1="ent0008" data-entity-2="ent0022" data-link-type="dependency" data-source-line="71" id="lnk46"><path d="M1472.86,104.49 C1361.22,103.17 991.32,102.78 886,153 C867.42,161.86 854.8619,176.0211 845.3119,189.4911" fill="none" id="Engine-to-Answers" style="stroke:#000000;stroke-width:1;"/><polygon fill="#000000" points="842.42,193.57,850.8884,188.5415,845.3119,189.4911,844.3622,183.9145,842.42,193.57" style="stroke:#000000;stroke-width:1;stroke-linejoin:miter;stroke-miterlimit:10;"/></g><!--link SchemaGenerator to Config--><g class="link" data-entity-1="ent0023" data-entity-2="ent0004" data-link-type="dependency" data-source-line="73" id="lnk47"><path d="M971,228.41 C971,248.13 971,276.03 971,295.71" fill="none" id="SchemaGenerator-to-Config" style="stroke:#000000;stroke-width:1;"/><polygon fill="#000000" points="971,300.71,975,291.71,971,295.71,967,291.71,971,300.71" style="stroke:#000000;stroke-width:1;stroke-linejoin:miter;stroke-miterlimit:10;"/></g><!--link SchemaValidator to Config--><g class="link" data-entity-1="ent0024" data-entity-2="ent0004" data-link-type="dependency" data-source-line="74" id="lnk48"><path d="M1111.06,228.41 C1079.97,248.07 1032.3851,278.1663 1001.2551,297.8663" fill="none" id="SchemaValidator-to-Config" style="stroke:#000000;stroke-width:1;"/><polygon fill="#000000" points="997.03,300.54,1006.7741,299.1073,1001.2551,297.8663,1002.4961,292.3472,997.03,300.54" style="stroke:#000000;stroke-width:1;stroke-linejoin:miter;stroke-miterlimit:10;"/></g><!--link PanelController to Config--><g class="link" data-entity-1="ent0026" data-entity-2="ent0004" data-link-type="dependency" data-source-line="76" id="lnk49"><path d="M481.46,109.83 C552.79,116.59 668.4,130.62 705,153 C751.87,181.65 734.54,219.74 779,252 C828.85,288.17 895.3483,304.3785 935.5483,311.5785" fill="none" id="PanelController-to-Config" style="stroke:#000000;stroke-width:1;"/><polygon fill="#000000" points="940.47,312.46,932.3162,306.936,935.5483,311.5785,930.9058,314.8107,940.47,312.46" style="stroke:#000000;stroke-width:1;stroke-linejoin:miter;stroke-miterlimit:10;"/></g><!--link PanelController to Theme--><g class="link" data-entity-1="ent0026" data-entity-2="ent0027" data-link-type="dependency" data-source-line="77" id="lnk50"><path d="M364.42,109.06 C285.77,115.33 150.94,129.21 108,153 C90.88,162.49 79.7176,176.233 71.1576,189.453" fill="none" id="PanelController-to-Theme" style="stroke:#000000;stroke-width:1;"/><polygon fill="#000000" points="68.44,193.65,76.6892,188.2695,71.1576,189.453,69.974,183.9213,68.44,193.65" style="stroke:#000000;stroke-width:1;stroke-linejoin:miter;stroke-miterlimit:10;"/></g><!--link PanelController to WidgetFactory--><g class="link" data-entity-1="ent0026" data-entity-2="ent0028" data-link-type="dependency" data-source-line="78" id="lnk51"><path d="M364.61,115.74 C331.06,123.32 288.81,135.32 254,153 C232.92,163.7 215.6832,177.5505 201.6732,190.2605" fill="none" id="PanelController-to-WidgetFactory" style="stroke:#000000;stroke-width:1;"/><polygon fill="#000000" points="197.97,193.62,207.3233,190.5353,201.6732,190.2605,201.9481,184.6103,197.97,193.62" style="stroke:#000000;stroke-width:1;stroke-linejoin:miter;stroke-miterlimit:10;"/></g><!--link WidgetFactory to WidgetInterface--><g class="link" data-entity-1="ent0028" data-entity-2="ent0029" data-link-type="dependency" data-source-line="79" id="lnk52"><path d="M181,228.41 C181,251.36 181,287.16 181,304.19" fill="none" id="WidgetFactory-to-WidgetInterface" style="stroke:#000000;stroke-width:1;"/><polygon fill="#000000" points="181,309.19,185,300.19,181,304.19,177,300.19,181,309.19" style="stroke:#000000;stroke-width:1;stroke-linejoin:miter;stroke-miterlimit:10;"/></g><!--link PanelController to Navigator--><g class="link" data-entity-1="ent0026" data-entity-2="ent0030" data-link-type="dependency" data-source-line="80" id="lnk53"><path d="M403.63,121.35 C392.96,130.49 379.58,142.18 368,153 C353.68,166.38 341.472,178.5914 330.182,190.1614" fill="none" id="PanelController-to-Navigator" style="stroke:#000000;stroke-width:1;"/><polygon fill="#000000" points="326.69,193.74,335.8384,190.0921,330.182,190.1614,330.1127,184.505,326.69,193.74" style="stroke:#000000;stroke-width:1;stroke-linejoin:miter;stroke-miterlimit:10;"/></g><!--link PanelController to Terminal--><g class="link" data-entity-1="ent0026" data-entity-2="ent0031" data-link-type="dependency" data-source-line="81" id="lnk54"><path d="M423,121.41 C423,141.13 423,169.03 423,188.71" fill="none" id="PanelController-to-Terminal" style="stroke:#000000;stroke-width:1;"/><polygon fill="#000000" points="423,193.71,427,184.71,423,188.71,419,184.71,423,193.71" style="stroke:#000000;stroke-width:1;stroke-linejoin:miter;stroke-miterlimit:10;"/></g><!--link PanelController to KeyParser--><g class="link" data-entity-1="ent0026" data-entity-2="ent0032" data-link-type="dependency" data-source-line="82" id="lnk55"><path d="M442.27,121.46 C452.9,130.64 466.29,142.33 478,153 C492.77,166.45 505.5901,178.63 517.5101,190.12" fill="none" id="PanelController-to-KeyParser" style="stroke:#000000;stroke-width:1;"/><polygon fill="#000000" points="521.11,193.59,517.4062,184.4641,517.5101,190.12,511.8542,190.2239,521.11,193.59" style="stroke:#000000;stroke-width:1;stroke-linejoin:miter;stroke-miterlimit:10;"/></g><!--link PanelController to Answers--><g class="link" data-entity-1="ent0026" data-entity-2="ent0022" data-link-type="dependency" data-source-line="83" id="lnk56"><path d="M481.69,109.03 C566.43,115.55 718.32,130.04 768,153 C788.26,162.36 803.4212,176.5892 815.2612,189.8592" fill="none" id="PanelController-to-Answers" style="stroke:#000000;stroke-width:1;"/><polygon fill="#000000" points="818.59,193.59,815.5828,184.2115,815.2612,189.8592,809.6135,189.5375,818.59,193.59" style="stroke:#000000;stroke-width:1;stroke-linejoin:miter;stroke-miterlimit:10;"/></g><?plantuml-src ZLFBRjim4BphAxRf8K00ssbT0tq01H97J8m2QP2uwQ78WHRNCX6A54ZAhj7styk7fUeH0prvjJExExiSdmBJk5MbcTYAmmWoLPHAehH0TRRX5ZDRQHmdft17isUQeu62Qwqqs0s2qTa4JBLYN3kYqXpD9rUerSw0sQXT81MKIs1OecGeCqVntUunHucQMWJSejx3m-CrxBZTV0Ge1PMsAWIChDdcm5Hc9cqraxDnwU3abUjUeATpcPXdBakgQG4h9pJNgf9iheGJklE5BPpXcbR24YNjBNNrDoYsQ7b6MnopeKpjkCnXJOLfLpS7Uh1xWU3tfZ8Nc5XktVV_N3D9odXBEBcik62eJ-0rEIVlvbFubG3y84eNJycV5c-kv9hdbRiNLzAnqobvIwuYEs9FFhoZ4aM824V1-Zqq-a64JDFpM9hAd4liqkxHA57LSzwJMVeXaXUoh6n0tOE58LVSPCfzW2anCp65cZTmY4Eur5IQTLWhAcRSJ-XElg6I2TJ6YvocCpABSmzfvnXkhDxx3bnQr6kQkSUBuA9E-8ABbUFHp1wmUgJ5dxOxy6jbtKf-pNbAo9iuxaAQdHCHgXuovp1w7PsgT2ltI0LdCTVk67IuqMvlM7vRX7EdbsaQMuVdyKgq4hMmfVTmYBvpbgCbrF-HUbj6gBFaBTtol16rH5rmIUFRVy7z7TK6exRe9XYDFl-pIXt0sMZKkERm6tC7_oIrHNhrdMpF65smxv4UMjkbYThv9dt8jbmqq5KRgWiCl3F81Dx0HGCFmNZy-oLUPrfZdMJWdDxz-YRgmid0ARtob-63bOwWFNlrlWEdRxCZdLhMEwQaiUCHGikYHnZrBVy2?></g></svg>