<svg xmlns="http://www.w3.org/2000/svg" xmlns:xlink="http://www.w3.org/1999/xlink" contentStyleType="text/css" data-diagram-type="DESCRIPTION" height="564px" preserveAspectRatio="none" style="width:2318px;height:564px;background:#FFFFFF;" version="1.1" viewBox="0 0 2318 564" width="2318px" zoomAndPan="magnify"><?plantuml 1.2026.6?><defs/><g><g class="title" data-source-line="9"><text fill="#000000" font-family="Helvetica" font-size="22" font-weight="700" lengthAdjust="spacing" textLength="477.9951" x="919.0024" y="31.9404">drevops/customizer - component architecture</text></g><!--cluster Builder--><g class="cluster" data-qualified-name="Builder" data-source-line="11" id="ent0001"><path d="M1050.5,161 L1099.7275,161 A3.75,3.75 0 0 1 1102.2275,163.5 L1109.2275,181 L1129.5,181 A2.5,2.5 0 0 1 1132,183.5 L1132,241.5 A2.5,2.5 0 0 1 1129.5,244 L1050.5,244 A2.5,2.5 0 0 1 1048,241.5 L1048,163.5 A2.5,2.5 0 0 1 1050.5,161" fill="#F0F4C3" style="stroke:#000000;stroke-width:1;"/><line style="stroke:#000000;stroke-width:1;" x1="1048" x2="1109.2275" y1="181" y2="181"/><text fill="#000000" font-family="Helvetica" font-size="14" font-weight="700" lengthAdjust="spacing" textLength="48.2275" x="1052" y="173.7803">Builder</text></g><!--cluster Configuration--><g class="cluster" data-qualified-name="Configuration" data-source-line="15" id="ent0003"><path d="M1347.5,268 L1440.2588,268 A3.75,3.75 0 0 1 1442.7588,270.5 L1449.7588,288 L1449.5,288 A2.5,2.5 0 0 1 1452,290.5 L1452,546.5 A2.5,2.5 0 0 1 1449.5,549 L1347.5,549 A2.5,2.5 0 0 1 1345,546.5 L1345,270.5 A2.5,2.5 0 0 1 1347.5,268" fill="#E3F2FD" style="stroke:#000000;stroke-width:1;"/><line style="stroke:#000000;stroke-width:1;" x1="1345" x2="1449.7588" y1="288" y2="288"/><text fill="#000000" font-family="Helvetica" font-size="14" font-weight="700" lengthAdjust="spacing" textLength="91.7588" x="1349" y="280.7803">Configuration</text></g><!--cluster Core--><g class="cluster" data-qualified-name="Core" data-source-line="21" id="ent0007"><path d="M430.5,54 L463.3965,54 A3.75,3.75 0 0 1 465.8965,56.5 L472.8965,74 L639.5,74 A2.5,2.5 0 0 1 642,76.5 L642,134.5 A2.5,2.5 0 0 1 639.5,137 L430.5,137 A2.5,2.5 0 0 1 428,134.5 L428,56.5 A2.5,2.5 0 0 1 430.5,54" fill="#FFF3E0" style="stroke:#000000;stroke-width:1;"/><line style="stroke:#000000;stroke-width:1;" x1="428" x2="472.8965" y1="74" y2="74"/><text fill="#000000" font-family="Helvetica" font-size="14" font-weight="700" lengthAdjust="spacing" textLength="31.8965" x="432" y="66.7803">Core</text></g><!--cluster Resolution--><g class="cluster" data-qualified-name="Resolution" data-source-line="26" id="ent0010"><path d="M13.5,161 L86.8311,161 A3.75,3.75 0 0 1 89.3311,163.5 L96.3311,181 L537.5,181 A2.5,2.5 0 0 1 540,183.5 L540,348.5 A2.5,2.5 0 0 1 537.5,351 L13.5,351 A2.5,2.5 0 0 1 11,348.5 L11,163.5 A2.5,2.5 0 0 1 13.5,161" fill="#E8F5E9" style="stroke:#000000;stroke-width:1;"/><line style="stroke:#000000;stroke-width:1;" x1="11" x2="96.3311" y1="181" y2="181"/><text fill="#000000" font-family="Helvetica" font-size="14" font-weight="700" lengthAdjust="spacing" textLength="72.3311" x="15" y="173.7803">Resolution</text></g><!--cluster Handlers--><g class="cluster" data-qualified-name="Handlers" data-source-line="34" id="ent0016"><path d="M616.5,161 L677.4102,161 A3.75,3.75 0 0 1 679.9102,163.5 L686.9102,181 L1021.5,181 A2.5,2.5 0 0 1 1024,183.5 L1024,358.5 A2.5,2.5 0 0 1 1021.5,361 L616.5,361 A2.5,2.5 0 0 1 614,358.5 L614,163.5 A2.5,2.5 0 0 1 616.5,161" fill="#F3E5F5" style="stroke:#000000;stroke-width:1;"/><line style="stroke:#000000;stroke-width:1;" x1="614" x2="686.9102" y1="181" y2="181"/><text fill="#000000" font-family="Helvetica" font-size="14" font-weight="700" lengthAdjust="spacing" textLength="59.9102" x="618" y="173.7803">Handlers</text></g><!--cluster Output--><g class="cluster" data-qualified-name="Output" data-source-line="41" id="ent0021"><path d="M1208.5,161 L1255.3691,161 A3.75,3.75 0 0 1 1257.8691,163.5 L1264.8691,181 L1640.5,181 A2.5,2.5 0 0 1 1643,183.5 L1643,241.5 A2.5,2.5 0 0 1 1640.5,244 L1208.5,244 A2.5,2.5 0 0 1 1206,241.5 L1206,163.5 A2.5,2.5 0 0 1 1208.5,161" fill="#ECEFF1" style="stroke:#000000;stroke-width:1;"/><line style="stroke:#000000;stroke-width:1;" x1="1206" x2="1264.8691" y1="181" y2="181"/><text fill="#000000" font-family="Helvetica" font-size="14" font-weight="700" lengthAdjust="spacing" textLength="45.8691" x="1210" y="173.7803">Output</text></g><!--cluster Interactive TUI--><g class="cluster" data-qualified-name="Interactive TUI" data-source-line="47" id="ent0025"><path d="M1719.5,54 L1816.9756,54 A3.75,3.75 0 0 1 1819.4756,56.5 L1826.4756,74 L2300.5,74 A2.5,2.5 0 0 1 2303,76.5 L2303,358.5 A2.5,2.5 0 0 1 2300.5,361 L1719.5,361 A2.5,2.5 0 0 1 1717,358.5 L1717,56.5 A2.5,2.5 0 0 1 1719.5,54" fill="#FFEBEE" style="stroke:#000000;stroke-width:1;"/><line style="stroke:#000000;stroke-width:1;" x1="1717" x2="1826.4756" y1="74" y2="74"/><text fill="#000000" font-family="Helvetica" font-size="14" font-weight="700" lengthAdjust="spacing" textLength="96.4756" x="1721" y="66.7803">Interactive TUI</text></g><!--entity Form--><g class="entity" data-qualified-name="Builder.Form" data-source-line="12" id="ent0002"><rect fill="#FFFFFF" height="34" rx="2.5" ry="2.5" style="stroke:#000000;stroke-width:1;" width="52.6621" x="1063.67" y="194"/><text fill="#000000" font-family="Helvetica" font-size="14" lengthAdjust="spacing" textLength="32.6621" x="1073.67" y="214.7803">Form</text></g><!--entity Config--><g class="entity" data-qualified-name="Configuration.Config" data-source-line="16" id="ent0004"><rect fill="#FFFFFF" height="34" rx="2.5" ry="2.5" style="stroke:#000000;stroke-width:1;" width="60.4688" x="1367.77" y="301"/><text fill="#000000" font-family="Helvetica" font-size="14" lengthAdjust="spacing" textLength="40.4688" x="1377.77" y="321.7803">Config</text></g><!--entity Panel--><g class="entity" data-qualified-name="Configuration.Panel" data-source-line="17" id="ent0005"><rect fill="#FFFFFF" height="34" rx="2.5" ry="2.5" style="stroke:#000000;stroke-width:1;" width="55.8066" x="1370.1" y="405"/><text fill="#000000" font-family="Helvetica" font-size="14" lengthAdjust="spacing" textLength="35.8066" x="1380.1" y="425.7803">Panel</text></g><!--entity Field--><g class="entity" data-qualified-name="Configuration.Field" data-source-line="18" id="ent0006"><rect fill="#FFFFFF" height="34" rx="2.5" ry="2.5" style="stroke:#000000;stroke-width:1;" width="50.3447" x="1372.83" y="499"/><text fill="#000000" font-family="Helvetica" font-size="14" lengthAdjust="spacing" textLength="30.3447" x="1382.83" y="519.7803">Field</text></g><!--entity Engine--><g class="entity" data-qualified-name="Core.Engine" data-source-line="22" id="ent0008"><rect fill="#FFFFFF" height="34" rx="2.5" ry="2.5" style="stroke:#000000;stroke-width:1;" width="63.5928" x="444.2" y="87"/><text fill="#000000" font-family="Helvetica" font-size="14" lengthAdjust="spacing" textLength="43.5928" x="454.2" y="107.7803">Engine</text></g><!--entity Processor--><g class="entity" data-qualified-name="Core.Processor" data-source-line="23" id="ent0009"><rect fill="#FFFFFF" height="34" rx="2.5" ry="2.5" style="stroke:#000000;stroke-width:1;" width="83.0205" x="542.49" y="87"/><text fill="#000000" font-family="Helvetica" font-size="14" lengthAdjust="spacing" textLength="63.0205" x="552.49" y="107.7803">Processor</text></g><!--entity InputResolver--><g class="entity" data-qualified-name="Resolution.InputResolver" data-source-line="27" id="ent0011"><rect fill="#FFFFFF" height="34" rx="2.5" ry="2.5" style="stroke:#000000;stroke-width:1;" width="106.3789" x="300.81" y="194"/><text fill="#000000" font-family="Helvetica" font-size="14" lengthAdjust="spacing" textLength="86.3789" x="310.81" y="214.7803">InputResolver</text></g><!--entity Discovery--><g class="entity" data-qualified-name="Resolution.Discovery" data-source-line="28" id="ent0012"><rect fill="#FFFFFF" height="34" rx="2.5" ry="2.5" style="stroke:#000000;stroke-width:1;" width="81.4551" x="442.27" y="194"/><text fill="#000000" font-family="Helvetica" font-size="14" lengthAdjust="spacing" textLength="61.4551" x="452.27" y="214.7803">Discovery</text></g><!--entity Deriver--><g class="entity" data-qualified-name="Resolution.Deriver" data-source-line="29" id="ent0013"><rect fill="#FFFFFF" height="34" rx="2.5" ry="2.5" style="stroke:#000000;stroke-width:1;" width="65.1172" x="27.44" y="194"/><text fill="#000000" font-family="Helvetica" font-size="14" lengthAdjust="spacing" textLength="45.1172" x="37.44" y="214.7803">Deriver</text></g><!--entity Transform--><g class="entity" data-qualified-name="Resolution.Transform" data-source-line="30" id="ent0014"><rect fill="#FFFFFF" height="34" rx="2.5" ry="2.5" style="stroke:#000000;stroke-width:1;" width="83.7861" x="27.11" y="301"/><text fill="#000000" font-family="Helvetica" font-size="14" lengthAdjust="spacing" textLength="63.7861" x="37.11" y="321.7803">Transform</text></g><!--entity ConditionEvaluator--><g class="entity" data-qualified-name="Resolution.ConditionEvaluator" data-source-line="31" id="ent0015"><rect fill="#FFFFFF" height="34" rx="2.5" ry="2.5" style="stroke:#000000;stroke-width:1;" width="138.2959" x="127.85" y="194"/><text fill="#000000" font-family="Helvetica" font-size="14" lengthAdjust="spacing" textLength="118.2959" x="137.85" y="214.7803">ConditionEvaluator</text></g><!--entity HandlerRegistry--><g class="entity" data-qualified-name="Handlers.HandlerRegistry" data-source-line="35" id="ent0017"><rect fill="#FFFFFF" height="34" rx="2.5" ry="2.5" style="stroke:#000000;stroke-width:1;" width="120.3721" x="784.81" y="194"/><text fill="#000000" font-family="Helvetica" font-size="14" lengthAdjust="spacing" textLength="100.3721" x="794.81" y="214.7803">HandlerRegistry</text></g><!--entity HandlerInterface--><g class="entity" data-qualified-name="Handlers.HandlerInterface" data-source-line="36" id="ent0018"><ellipse cx="690" cy="318" fill="#FFFFFF" rx="8" ry="8" style="stroke:#000000;stroke-width:1;"/><text fill="#000000" font-family="Helvetica" font-size="14" lengthAdjust="spacing" textLength="103.5029" x="638.2485" y="345.7803">HandlerInterface</text></g><!--entity AbstractHandler--><g class="entity" data-qualified-name="Handlers.AbstractHandler" data-source-line="37" id="ent0019"><rect fill="#FFFFFF" height="34" rx="2.5" ry="2.5" style="stroke:#000000;stroke-width:1;" width="120.3789" x="629.81" y="194"/><text fill="#000000" font-family="Helvetica" font-size="14" lengthAdjust="spacing" textLength="100.3789" x="639.81" y="214.7803">AbstractHandler</text></g><!--entity Context--><g class="entity" data-qualified-name="Handlers.Context" data-source-line="38" id="ent0020"><rect fill="#FFFFFF" height="34" rx="2.5" ry="2.5" style="stroke:#000000;stroke-width:1;" width="68.248" x="939.88" y="194"/><text fill="#000000" font-family="Helvetica" font-size="14" lengthAdjust="spacing" textLength="48.248" x="949.88" y="214.7803">Context</text></g><!--entity Answers--><g class="entity" data-qualified-name="Output.Answers" data-source-line="42" id="ent0022"><rect fill="#FFFFFF" height="34" rx="2.5" ry="2.5" style="stroke:#000000;stroke-width:1;" width="73.6826" x="1222.16" y="194"/><text fill="#000000" font-family="Helvetica" font-size="14" lengthAdjust="spacing" textLength="53.6826" x="1232.16" y="214.7803">Answers</text></g><!--entity SchemaGenerator--><g class="entity" data-qualified-name="Output.SchemaGenerator" data-source-line="43" id="ent0023"><rect fill="#FFFFFF" height="34" rx="2.5" ry="2.5" style="stroke:#000000;stroke-width:1;" width="134.3926" x="1330.8" y="194"/><text fill="#000000" font-family="Helvetica" font-size="14" lengthAdjust="spacing" textLength="114.3926" x="1340.8" y="214.7803">SchemaGenerator</text></g><!--entity SchemaValidator--><g class="entity" data-qualified-name="Output.SchemaValidator" data-source-line="44" id="ent0024"><rect fill="#FFFFFF" height="34" rx="2.5" ry="2.5" style="stroke:#000000;stroke-width:1;" width="126.6133" x="1500.69" y="194"/><text fill="#000000" font-family="Helvetica" font-size="14" lengthAdjust="spacing" textLength="106.6133" x="1510.69" y="214.7803">SchemaValidator</text></g><!--entity PanelController--><g class="entity" data-qualified-name="Interactive TUI.PanelController" data-source-line="48" id="ent0026"><rect fill="#FFFFFF" height="34" rx="2.5" ry="2.5" style="stroke:#000000;stroke-width:1;" width="116.4961" x="1828.75" y="87"/><text fill="#000000" font-family="Helvetica" font-size="14" lengthAdjust="spacing" textLength="96.4961" x="1838.75" y="107.7803">PanelController</text></g><!--entity Theme--><g class="entity" data-qualified-name="Interactive TUI.Theme" data-source-line="49" id="ent0027"><rect fill="#FFFFFF" height="34" rx="2.5" ry="2.5" style="stroke:#000000;stroke-width:1;" width="63.5723" x="1733.21" y="194"/><text fill="#000000" font-family="Helvetica" font-size="14" lengthAdjust="spacing" textLength="43.5723" x="1743.21" y="214.7803">Theme</text></g><!--entity WidgetFactory--><g class="entity" data-qualified-name="Interactive TUI.WidgetFactory" data-source-line="50" id="ent0028"><rect fill="#FFFFFF" height="34" rx="2.5" ry="2.5" style="stroke:#000000;stroke-width:1;" width="110.248" x="1831.88" y="194"/><text fill="#000000" font-family="Helvetica" font-size="14" lengthAdjust="spacing" textLength="90.248" x="1841.88" y="214.7803">WidgetFactory</text></g><!--entity WidgetInterface--><g class="entity" data-qualified-name="Interactive TUI.WidgetInterface" data-source-line="51" id="ent0029"><ellipse cx="1887" cy="318" fill="#FFFFFF" rx="8" ry="8" style="stroke:#000000;stroke-width:1;"/><text fill="#000000" font-family="Helvetica" font-size="14" lengthAdjust="spacing" textLength="98.0479" x="1837.9761" y="345.7803">WidgetInterface</text></g><!--entity Navigator--><g class="entity" data-qualified-name="Interactive TUI.Navigator" data-source-line="52" id="ent0030"><rect fill="#FFFFFF" height="34" rx="2.5" ry="2.5" style="stroke:#000000;stroke-width:1;" width="79.917" x="1977.04" y="194"/><text fill="#000000" font-family="Helvetica" font-size="14" lengthAdjust="spacing" textLength="59.917" x="1987.04" y="214.7803">Navigator</text></g><!--entity Terminal--><g class="entity" data-qualified-name="Interactive TUI.Terminal" data-source-line="53" id="ent0031"><rect fill="#FFFFFF" height="34" rx="2.5" ry="2.5" style="stroke:#000000;stroke-width:1;" width="74.4551" x="2091.77" y="194"/><text fill="#000000" font-family="Helvetica" font-size="14" lengthAdjust="spacing" textLength="54.4551" x="2101.77" y="214.7803">Terminal</text></g><!--entity KeyParser--><g class="entity" data-qualified-name="Interactive TUI.KeyParser" data-source-line="54" id="ent0032"><rect fill="#FFFFFF" height="34" rx="2.5" ry="2.5" style="stroke:#000000;stroke-width:1;" width="85.3584" x="2201.32" y="194"/><text fill="#000000" font-family="Helvetica" font-size="14" lengthAdjust="spacing" textLength="65.3584" x="2211.32" y="214.7803">KeyParser</text></g><!--link Form to Config--><g class="link" data-entity-1="ent0002" data-entity-2="ent0004" data-link-type="dependency" data-source-line="57" id="lnk33"><path d="M1107.94,228.4 C1117.69,236.54 1130.32,245.91 1143,252 C1219.18,288.61 1313.4694,305.5487 1362.6694,312.5187" fill="none" id="Form-to-Config" style="stroke:#000000;stroke-width:1;"/><polygon fill="#000000" points="1367.62,313.22,1359.27,307.9971,1362.6694,312.5187,1358.1479,315.9181,1367.62,313.22" style="stroke:#000000;stroke-width:1;stroke-linejoin:miter;stroke-miterlimit:10;"/></g><!--reverse link Config to Panel--><g class="link" data-entity-1="ent0004" data-entity-2="ent0005" data-link-type="composition" data-source-line="58" id="lnk34"><path d="M1398,347.39 C1398,366.42 1398,385.64 1398,404.65" fill="none" id="Config-backto-Panel" style="stroke:#000000;stroke-width:1;"/><polygon fill="#000000" points="1398,335.39,1394,341.39,1398,347.39,1402,341.39,1398,335.39" style="stroke:#000000;stroke-width:1;stroke-linejoin:miter;stroke-miterlimit:10;"/></g><!--reverse link Panel to Field--><g class="link" data-entity-1="ent0005" data-entity-2="ent0006" data-link-type="composition" data-source-line="59" id="lnk35"><path d="M1398,451.45 C1398,468.19 1398,482 1398,498.69" fill="none" id="Panel-backto-Field" style="stroke:#000000;stroke-width:1;"/><polygon fill="#000000" points="1398,439.45,1394,445.45,1398,451.45,1402,445.45,1398,439.45" style="stroke:#000000;stroke-width:1;stroke-linejoin:miter;stroke-miterlimit:10;"/></g><!--link Engine to Config--><g class="link" data-entity-1="ent0008" data-entity-2="ent0004" data-link-type="dependency" data-source-line="61" id="lnk36"><path d="M490.59,121.4 C499.54,130.19 511.79,140.19 525,145 C556.69,156.53 1101.95,137.69 1132,153 C1180.95,177.93 1161.54,219.74 1206,252 C1255.85,288.17 1322.3483,304.3785 1362.5483,311.5785" fill="none" id="Engine-to-Config" style="stroke:#000000;stroke-width:1;"/><polygon fill="#000000" points="1367.47,312.46,1359.3162,306.936,1362.5483,311.5785,1357.9058,314.8107,1367.47,312.46" style="stroke:#000000;stroke-width:1;stroke-linejoin:miter;stroke-miterlimit:10;"/></g><!--link Engine to InputResolver--><g class="link" data-entity-1="ent0008" data-entity-2="ent0011" data-link-type="dependency" data-source-line="62" id="lnk37"><path d="M456.94,121.41 C434.02,141.13 399.5793,170.7679 376.7193,190.4479" fill="none" id="Engine-to-InputResolver" style="stroke:#000000;stroke-width:1;"/><polygon fill="#000000" points="372.93,193.71,382.3604,190.8696,376.7193,190.4479,377.1409,184.8067,372.93,193.71" style="stroke:#000000;stroke-width:1;stroke-linejoin:miter;stroke-miterlimit:10;"/></g><!--link Engine to Discovery--><g class="link" data-entity-1="ent0008" data-entity-2="ent0012" data-link-type="dependency" data-source-line="63" id="lnk38"><path d="M477.09,121.41 C478.41,141.13 480.2679,169.041 481.5779,188.721" fill="none" id="Engine-to-Discovery" style="stroke:#000000;stroke-width:1;"/><polygon fill="#000000" points="481.91,193.71,485.3034,184.4642,481.5779,188.721,477.3211,184.9955,481.91,193.71" style="stroke:#000000;stroke-width:1;stroke-linejoin:miter;stroke-miterlimit:10;"/></g><!--link Engine to Deriver--><g class="link" data-entity-1="ent0008" data-entity-2="ent0013" data-link-type="dependency" data-source-line="64" id="lnk39"><path d="M443.97,106.32 C365.84,110.01 167.66,122.2 110,153 C92.58,162.3 81.1595,176.0939 72.4095,189.3839" fill="none" id="Engine-to-Deriver" style="stroke:#000000;stroke-width:1;"/><polygon fill="#000000" points="69.66,193.56,77.9501,188.2426,72.4095,189.3839,71.2682,183.8433,69.66,193.56" style="stroke:#000000;stroke-width:1;stroke-linejoin:miter;stroke-miterlimit:10;"/></g><!--link Deriver to Transform--><g class="link" data-entity-1="ent0013" data-entity-2="ent0014" data-link-type="dependency" data-source-line="65" id="lnk40"><path d="M61.41,228.41 C63.1,248.13 65.4947,276.0481 67.1747,295.7281" fill="none" id="Deriver-to-Transform" style="stroke:#000000;stroke-width:1;"/><polygon fill="#000000" points="67.6,300.71,70.82,291.4024,67.1747,295.7281,62.849,292.0828,67.6,300.71" style="stroke:#000000;stroke-width:1;stroke-linejoin:miter;stroke-miterlimit:10;"/></g><!--link Engine to ConditionEvaluator--><g class="link" data-entity-1="ent0008" data-entity-2="ent0015" data-link-type="dependency" data-source-line="66" id="lnk41"><path d="M443.83,109.55 C404.6,115.87 336.88,129.29 283,153 C258.9,163.61 238.0979,177.8008 221.3679,190.5408" fill="none" id="Engine-to-ConditionEvaluator" style="stroke:#000000;stroke-width:1;"/><polygon fill="#000000" points="217.39,193.57,226.9736,191.2998,221.3679,190.5408,222.1269,184.9351,217.39,193.57" style="stroke:#000000;stroke-width:1;stroke-linejoin:miter;stroke-miterlimit:10;"/></g><!--link Engine to HandlerRegistry--><g class="link" data-entity-1="ent0008" data-entity-2="ent0017" data-link-type="dependency" data-source-line="67" id="lnk42"><path d="M490.63,121.3 C499.59,130.06 511.84,140.06 525,145 C575.59,163.97 716.98,135.23 768,153 C791.88,161.31 810.9067,176.415 825.3867,190.105" fill="none" id="Engine-to-HandlerRegistry" style="stroke:#000000;stroke-width:1;"/><polygon fill="#000000" points="829.02,193.54,825.2282,184.4503,825.3867,190.105,819.7321,190.2635,829.02,193.54" style="stroke:#000000;stroke-width:1;stroke-linejoin:miter;stroke-miterlimit:10;"/></g><!--link HandlerRegistry to HandlerInterface--><g class="link" data-entity-1="ent0017" data-entity-2="ent0018" data-link-type="dependency" data-source-line="68" id="lnk43"><path d="M820.78,228.41 C785.53,252.29 725.9192,292.6652 702.8092,308.3252" fill="none" id="HandlerRegistry-to-HandlerInterface" style="stroke:#000000;stroke-width:1;"/><polygon fill="#000000" points="698.67,311.13,708.3644,309.3927,702.8092,308.3252,703.8767,302.7699,698.67,311.13" style="stroke:#000000;stroke-width:1;stroke-linejoin:miter;stroke-miterlimit:10;"/></g><!--link AbstractHandler to HandlerInterface--><g class="link" data-entity-1="ent0019" data-entity-2="ent0018" data-link-type="extension" data-source-line="69" id="lnk44"><path d="M690,228.41 C690,251.36 690,274.16 690,291.19" fill="none" id="AbstractHandler-to-HandlerInterface" style="stroke:#000000;stroke-width:1;stroke-dasharray:7,7;"/><polygon fill="none" points="690,309.19,696,291.19,684,291.19,690,309.19" style="stroke:#000000;stroke-width:1;stroke-linejoin:miter;stroke-miterlimit:10;"/></g><!--link Engine to Answers--><g class="link" data-entity-1="ent0008" data-entity-2="ent0022" data-link-type="dependency" data-source-line="70" id="lnk45"><path d="M490.59,121.4 C499.54,130.2 511.79,140.2 525,145 C559.99,157.7 1160.29,139.55 1195,153 C1216.23,161.23 1231.714,176.1599 1243.334,189.9199" fill="none" id="Engine-to-Answers" style="stroke:#000000;stroke-width:1;"/><polygon fill="#000000" points="1246.56,193.74,1243.8093,184.2831,1243.334,189.9199,1237.6972,189.4446,1246.56,193.74" style="stroke:#000000;stroke-width:1;stroke-linejoin:miter;stroke-miterlimit:10;"/></g><!--link Processor to HandlerInterface--><g class="link" data-entity-1="ent0009" data-entity-2="ent0018" data-link-type="dependency" data-source-line="71" id="lnk46"><path d="M583.63,121.24 C583.7,149.73 587.09,209.69 612,252 C629.17,281.16 660.0852,300.719 676.6552,309.889" fill="none" id="Processor-to-HandlerInterface" style="stroke:#000000;stroke-width:1;"/><polygon fill="#000000" points="681.03,312.31,675.0923,304.4523,676.6552,309.889,671.2186,311.4519,681.03,312.31" style="stroke:#000000;stroke-width:1;stroke-linejoin:miter;stroke-miterlimit:10;"/></g><!--link SchemaGenerator to Config--><g class="link" data-entity-1="ent0023" data-entity-2="ent0004" data-link-type="dependency" data-source-line="73" id="lnk47"><path d="M1398,228.41 C1398,248.13 1398,276.03 1398,295.71" fill="none" id="SchemaGenerator-to-Config" style="stroke:#000000;stroke-width:1;"/><polygon fill="#000000" points="1398,300.71,1402,291.71,1398,295.71,1394,291.71,1398,300.71" style="stroke:#000000;stroke-width:1;stroke-linejoin:miter;stroke-miterlimit:10;"/></g><!--link SchemaValidator to Config--><g class="link" data-entity-1="ent0024" data-entity-2="ent0004" data-link-type="dependency" data-source-line="74" id="lnk48"><path d="M1538.06,228.41 C1506.97,248.07 1459.3851,278.1663 1428.2551,297.8663" fill="none" id="SchemaValidator-to-Config" style="stroke:#000000;stroke-width:1;"/><polygon fill="#000000" points="1424.03,300.54,1433.7741,299.1073,1428.2551,297.8663,1429.4961,292.3472,1424.03,300.54" style="stroke:#000000;stroke-width:1;stroke-linejoin:miter;stroke-miterlimit:10;"/></g><!--link PanelController to Config--><g class="link" data-entity-1="ent0026" data-entity-2="ent0004" data-link-type="dependency" data-source-line="76" id="lnk49"><path d="M1828.28,111.73 C1793.23,118.01 1749.23,130.04 1716,153 C1671.02,184.07 1688.2,221.25 1643,252 C1575.69,297.79 1482.7036,310.9456 1433.5336,314.9356" fill="none" id="PanelController-to-Config" style="stroke:#000000;stroke-width:1;"/><polygon fill="#000000" points="1428.55,315.34,1437.844,318.599,1433.5336,314.9356,1437.197,310.6252,1428.55,315.34" style="stroke:#000000;stroke-width:1;stroke-linejoin:miter;stroke-miterlimit:10;"/></g><!--link PanelController to Theme--><g class="link" data-entity-1="ent0026" data-entity-2="ent0027" data-link-type="dependency" data-source-line="77" id="lnk50"><path d="M1858.3,121.29 C1844.28,129.87 1827.56,141.08 1814,153 C1799.99,165.32 1789.4022,177.7074 1780.0822,189.7374" fill="none" id="PanelController-to-Theme" style="stroke:#000000;stroke-width:1;"/><polygon fill="#000000" points="1777.02,193.69,1785.694,189.0251,1780.0822,189.7374,1779.3699,184.1256,1777.02,193.69" style="stroke:#000000;stroke-width:1;stroke-linejoin:miter;stroke-miterlimit:10;"/></g><!--link PanelController to WidgetFactory--><g class="link" data-entity-1="ent0026" data-entity-2="ent0028" data-link-type="dependency" data-source-line="78" id="lnk51"><path d="M1887,121.41 C1887,141.13 1887,169.03 1887,188.71" fill="none" id="PanelController-to-WidgetFactory" style="stroke:#000000;stroke-width:1;"/><polygon fill="#000000" points="1887,193.71,1891,184.71,1887,188.71,1883,184.71,1887,193.71" style="stroke:#000000;stroke-width:1;stroke-linejoin:miter;stroke-miterlimit:10;"/></g><!--link WidgetFactory to WidgetInterface--><g class="link" data-entity-1="ent0028" data-entity-2="ent0029" data-link-type="dependency" data-source-line="79" id="lnk52"><path d="M1887,228.41 C1887,251.36 1887,287.16 1887,304.19" fill="none" id="WidgetFactory-to-WidgetInterface" style="stroke:#000000;stroke-width:1;"/><polygon fill="#000000" points="1887,309.19,1891,300.19,1887,304.19,1883,300.19,1887,309.19" style="stroke:#000000;stroke-width:1;stroke-linejoin:miter;stroke-miterlimit:10;"/></g><!--link PanelController to Navigator--><g class="link" data-entity-1="ent0026" data-entity-2="ent0030" data-link-type="dependency" data-source-line="80" id="lnk53"><path d="M1914.62,121.3 C1928.68,130.05 1945.77,141.41 1960,153 C1975.41,165.55 1987.8561,178.0576 1998.9161,189.9576" fill="none" id="PanelController-to-Navigator" style="stroke:#000000;stroke-width:1;"/><polygon fill="#000000" points="2002.32,193.62,1999.1229,184.3045,1998.9161,189.9576,1993.263,189.7507,2002.32,193.62" style="stroke:#000000;stroke-width:1;stroke-linejoin:miter;stroke-miterlimit:10;"/></g><!--link PanelController to Terminal--><g class="link" data-entity-1="ent0026" data-entity-2="ent0031" data-link-type="dependency" data-source-line="81" id="lnk54"><path d="M1945.35,111.56 C1983.92,117.86 2034.46,129.98 2074,153 C2091.59,163.24 2104.1452,176.7472 2114.2052,189.6472" fill="none" id="PanelController-to-Terminal" style="stroke:#000000;stroke-width:1;"/><polygon fill="#000000" points="2117.28,193.59,2114.8996,184.0331,2114.2052,189.6472,2108.5912,188.9528,2117.28,193.59" style="stroke:#000000;stroke-width:1;stroke-linejoin:miter;stroke-miterlimit:10;"/></g><!--link PanelController to KeyParser--><g class="link" data-entity-1="ent0026" data-entity-2="ent0032" data-link-type="dependency" data-source-line="82" id="lnk55"><path d="M1945.62,104.43 C2007.86,106.05 2107.6,115.15 2184,153 C2203.31,162.57 2217.3905,176.6477 2228.3905,189.8577" fill="none" id="PanelController-to-KeyParser" style="stroke:#000000;stroke-width:1;"/><polygon fill="#000000" points="2231.59,193.7,2228.9048,184.2243,2228.3905,189.8577,2222.7571,189.3435,2231.59,193.7" style="stroke:#000000;stroke-width:1;stroke-linejoin:miter;stroke-miterlimit:10;"/></g><!--link PanelController to Answers--><g class="link" data-entity-1="ent0026" data-entity-2="ent0022" data-link-type="dependency" data-source-line="83" id="lnk56"><path d="M1828.6,104.67 C1701.28,104.78 1402.91,109.8 1313,153 C1294.45,161.91 1281.8833,176.0621 1272.3333,189.5221" fill="none" id="PanelController-to-Answers" style="stroke:#000000;stroke-width:1;"/><polygon fill="#000000" points="1269.44,193.6,1277.9102,188.5745,1272.3333,189.5221,1271.3856,183.9452,1269.44,193.6" style="stroke:#000000;stroke-width:1;stroke-linejoin:miter;stroke-miterlimit:10;"/></g><?plantuml-src bPDBJnin4CVl-occz824b8GsHUf3gWHX3QWIZI2bXug3iISR2w-z6diJwEExrxlEfliWXvxMdldFqxyz14cujeMRYD9vcwkVI302OVF26ZGUE8cLyYXyIJXE3c7EnIFFq46kY2o1No4u4XDmvODK58IM5BfF8P3ine5RsKqjohao8B508z688AcotM261ebx15mZFSFjtGLib5zz12WqDxxCDOoyMsSWhN2JTZUJet4HtCcha3t7IgvCuXwLAJZn71v2endPqiYPrQ7HJHNOyajSyb9xPes_vY7-4lKQlHAyfN4hBkr6cGoMNBjsz6v1j_vP8rHpSvDfJBpouVuVIqsI8guK3ivAfINI0Rncn-pTR0g_4e0Vp59-d_nfwMRMB5LMXhKfQu8wdRAtx3oge---EiwvGLsVc48j-pa8gqACJTFZ69gQJ1cCeMG5EcUf6tI3pkgogVgUdQGVOkYLAKfVUyChrXdEbHEsUj9uGrADPq7Sk6KzLEnNgYfZkkQwvBvVyf8RgP5SrUiqFM4diU3M7FXHpiSYodYa9HVXAQFpgZ5K0QSFGSU5t_gQsXwVVBVWrzA7MQhvPYbZRsAvK-CseOawwbO4tlX5vDPIotR7jPB34Ue-Gkcm0LXykwgtdfwbQKnTlrBL2LdTDBQeYAvFtvNCq3DU_LQzAQEhC-GrNwjirzG2ALU6HmI-uFESayFOMuGAHgFF_uXf3d0q6ktWsNwZROjHqf3IY-zOUqHqdIquUew6azqfsblC38eFyEag1gGCBBLkmCo061YFVx-awrJRWTBwXLxEdmn0wgspprJNdGp0wOM_xDwIjSVRewrthpLzwlPaQf6uhvCTdNi4BMBtA9fb_mK0?></g></svg>