<svg width="546" height="600" viewBox="0 0 546 600" fill="none" xmlns="http://www.w3.org/2000/svg">
<path fill-rule="evenodd" clip-rule="evenodd" d="M88.097 41.4431C101.996 45.9428 105.733 54.7159 99.3072 67.7625C96.9696 70.3048 94.208 71.9298 91.0214 72.6365C85.3774 73.0303 79.8542 72.5429 74.4499 71.1743C72.6378 69.6556 71.1756 67.8688 70.0634 65.813C66.5755 50.7007 72.5871 42.5768 88.097 41.4431Z" fill="#A963E8"/>
<path fill-rule="evenodd" clip-rule="evenodd" d="M390.283 24.8717C398.961 24.6065 404.972 28.5057 408.317 36.5692C409.489 51.7078 402.503 57.3937 387.359 53.6281C379.096 48.0562 377.31 40.7452 381.997 31.6952C384.377 28.8157 387.139 26.5415 390.283 24.8717Z" fill="#A963E8"/>
<path fill-rule="evenodd" clip-rule="evenodd" d="M147.559 24.8716C161.698 23.8997 168.034 30.3986 166.568 44.3674C164.258 51.6258 159.221 54.8757 151.459 54.1154C144.049 54.7344 139.663 51.4844 138.299 44.3674C136.458 35.3925 139.546 28.8936 147.559 24.8716Z" fill="#A963E8"/>
<path fill-rule="evenodd" clip-rule="evenodd" d="M287.93 6.3505C292.911 15.3011 293.073 24.3998 288.417 33.6447C281.771 40.3845 273.811 42.6587 264.535 40.4683C254.986 34.3495 251.249 25.5764 253.325 14.1488C262.037 -0.812288 273.572 -3.41109 287.93 6.3505Z" fill="#A963E8"/>
<path fill-rule="evenodd" clip-rule="evenodd" d="M270.383 13.174C277.84 12.9927 280.926 16.5673 279.644 23.8968C274.871 29.1295 270.322 28.8039 265.997 22.922C265.347 21.6226 265.347 20.3222 265.997 19.0228C267.295 16.9173 268.758 14.9677 270.383 13.174Z" fill="#A963E8"/>
<path fill-rule="evenodd" clip-rule="evenodd" d="M453.645 42.4178C463.076 41.0434 470.387 44.2933 475.578 52.1658C478.037 68.2226 471.052 74.8833 454.62 72.1491C441.352 67.4388 438.59 59.1531 446.334 47.2918C448.75 45.5235 451.187 43.8986 453.645 42.4178Z" fill="#A963E8"/>
<path fill-rule="evenodd" clip-rule="evenodd" d="M298.652 40.4682C296.321 39.2575 296.484 37.9581 299.14 36.5691C299.932 34.6819 300.42 32.7323 300.602 30.7203C301.546 28.6664 301.871 26.3912 301.577 23.8967C326.133 34.5473 350.503 45.7575 374.686 57.5271C383.082 61.3317 401.457 68.1426 402.955 69.2246C417.35 76.1769 431.485 83.4878 445.359 91.1575C445.314 97.6409 444.989 104.14 444.384 110.653C433.73 104.594 422.844 98.9081 411.729 93.5945C374.163 75.6242 336.471 57.9151 298.652 40.4682Z" fill="#A963E8"/>
<path fill-rule="evenodd" clip-rule="evenodd" d="M120.265 101.88C119.39 101.239 118.415 100.59 117.341 99.9307C122.539 98.6313 122.539 97.3309 117.341 96.0315C118.5 95.126 119.799 94.8014 121.24 95.0567C120.552 90.7823 121.851 87.3705 125.139 84.8214C124.815 84.4968 124.489 84.1712 124.164 83.8466C131.569 84.2092 137.092 81.2849 140.736 75.0735C140.408 74.0694 139.758 73.582 138.786 73.6113C142.741 70.8926 175.026 57.5779 186.551 51.6784C205.189 41.9539 223.872 32.3677 242.602 22.922C243.207 29.1685 245.32 34.8554 248.938 39.9809C206.115 60.9078 163.224 81.5403 120.265 101.88Z" fill="#A963E8"/>
<path fill-rule="evenodd" clip-rule="evenodd" d="M138.786 73.6112C139.758 73.582 140.408 74.0694 140.736 75.0734C137.092 81.2848 131.569 84.2092 124.164 83.8466C124.489 84.1712 124.815 84.4968 125.139 84.8214C121.851 87.3704 120.552 90.7822 121.24 95.0567C119.799 94.8013 118.5 95.1259 117.341 96.0315C122.539 97.3309 122.539 98.6313 117.341 99.9307C118.415 100.59 119.39 101.239 120.265 101.88C113.878 104.993 107.542 108.242 101.257 111.628C101.088 105.928 100.601 100.403 99.7946 95.0567C100.83 92.2512 102.779 90.3016 105.643 89.2079C116.687 84.0113 127.734 78.8127 138.786 73.6112Z" fill="#A963E8"/>
<path fill-rule="evenodd" clip-rule="evenodd" d="M386.384 90.1827C391.182 93.1295 396.219 95.4037 401.493 97.0063C402.143 122.351 402.143 147.696 401.493 173.04C396.805 170.504 391.769 169.529 386.384 170.116C385.103 143.467 385.103 116.823 386.384 90.1827Z" fill="#A963E8"/>
<path fill-rule="evenodd" clip-rule="evenodd" d="M264.535 50.2162C270.038 51.2777 275.562 51.2777 281.106 50.2162C281.269 60.6192 281.106 71.0173 280.619 81.4096C275.75 78.0894 270.713 77.7648 265.51 80.4348C264.536 70.3827 264.211 60.3102 264.535 50.2162Z" fill="#A963E8"/>
<path fill-rule="evenodd" clip-rule="evenodd" d="M160.232 97.9811C160.232 122.676 160.232 147.371 160.232 172.065C154.527 171.443 149.166 172.417 144.148 174.99C143.662 171.756 143.499 168.507 143.66 165.242C143.66 142.497 143.66 119.751 143.66 97.0063C148.707 95.8278 153.581 94.2028 158.282 92.1323C158.934 94.2096 159.584 96.1592 160.232 97.9811Z" fill="#A963E8"/>
<path fill-rule="evenodd" clip-rule="evenodd" d="M475.09 102.855C483.731 106.444 492.017 110.668 499.947 115.527C497.645 120.344 496.183 125.542 495.561 131.124C488.116 131.08 481.456 128.805 475.578 124.301C475.09 117.159 474.928 110.011 475.09 102.855Z" fill="#A963E8"/>
<path fill-rule="evenodd" clip-rule="evenodd" d="M466.317 82.3845C466.376 81.8551 466.7 81.5305 467.292 81.4097C468.267 109.671 468.591 137.94 468.267 166.217C468.589 187.506 468.264 208.626 467.292 229.578C467.615 180.348 467.291 131.284 466.317 82.3845Z" fill="#A963E8"/>
<path fill-rule="evenodd" clip-rule="evenodd" d="M527.729 152.57C523.783 152.672 519.884 152.347 516.032 151.595C502.91 141.297 501.935 129.762 513.107 116.99C516.693 114.765 520.593 113.628 524.805 113.578C533.901 113.749 540.238 117.974 543.813 126.25C546.342 140.065 540.98 148.838 527.729 152.57Z" fill="#A963E8"/>
<path fill-rule="evenodd" clip-rule="evenodd" d="M521.88 125.275C527.778 125.49 530.864 128.414 531.141 134.049C527.415 140.137 523.191 140.462 518.469 135.023C517.671 131.094 518.809 127.845 521.88 125.275Z" fill="#A963E8"/>
<path fill-rule="evenodd" clip-rule="evenodd" d="M73.4751 104.805C72.668 110.803 72.1806 116.977 72.013 123.326C65.6115 127.594 58.6251 129.707 51.0549 129.662C48.8986 126.815 47.1118 123.727 45.6935 120.401C44.8708 118.488 45.3582 117.188 47.1557 116.502C55.0818 112.702 62.8801 108.641 70.5508 104.317C71.7683 103.596 72.7431 103.759 73.4751 104.805Z" fill="#A963E8"/>
<path fill-rule="evenodd" clip-rule="evenodd" d="M25.7102 151.595C18.2686 152.798 11.6069 151.173 5.72691 146.721C-2.31807 134.381 -0.531271 123.658 11.0883 114.553C13.9961 114.165 16.9205 113.839 19.8614 113.578C29.4485 112.93 35.7847 117.153 38.8699 126.25C40.8292 138.26 36.4427 146.708 25.7102 151.595Z" fill="#A963E8"/>
<path fill-rule="evenodd" clip-rule="evenodd" d="M16.9371 126.25C24.0794 125.109 27.1666 128.033 26.1976 135.023C22.0002 139.093 18.101 138.768 14.5001 134.048C13.5429 130.856 14.3549 128.257 16.9371 126.25Z" fill="#A963E8"/>
<path fill-rule="evenodd" clip-rule="evenodd" d="M452.67 82.3844C457.195 83.5278 461.744 83.5278 466.317 82.3844C467.291 131.284 467.615 180.348 467.292 229.578C467.292 247.125 467.292 264.671 467.292 282.217C466.318 216.421 465.992 150.459 466.317 84.334C462.093 84.334 457.868 84.334 453.645 84.334C453.807 91.8146 453.645 99.2883 453.157 106.754C452.67 98.6371 452.508 90.5142 452.67 82.3844Z" fill="#A963E8"/>
<path fill-rule="evenodd" clip-rule="evenodd" d="M493.611 135.998C495.393 140.821 497.83 145.37 500.922 149.645C501.572 150.62 501.572 151.595 500.922 152.57C492.764 157.348 484.317 161.573 475.578 165.242C474.768 158.395 474.93 151.571 476.065 144.771C482.186 142.202 488.034 139.277 493.611 135.998Z" fill="#A963E8"/>
<path fill-rule="evenodd" clip-rule="evenodd" d="M92.9709 118.452C93.6172 178.573 92.967 238.36 91.0213 297.814C86.9369 295.133 82.3885 293.508 77.3742 292.94C77.537 273.441 77.3742 253.945 76.8868 234.452C75.216 233.063 73.9166 233.388 72.9876 235.427C72.8209 240.656 72.3335 245.855 71.5254 251.024C63.6462 256.02 55.685 260.894 47.643 265.646C45.1368 260.056 41.4004 255.507 36.4329 251.999C39.1818 249.81 42.1062 247.861 45.206 246.15C54.4276 241.781 63.5253 237.231 72.5002 232.503C73.7996 232.503 75.1 232.503 76.3994 232.503C76.726 182.293 77.7008 132.254 79.3238 82.3844C83.8576 82.2099 88.2441 82.2099 92.4835 82.3844C92.9709 94.4026 93.1337 106.425 92.9709 118.452Z" fill="#A963E8"/>
<path fill-rule="evenodd" clip-rule="evenodd" d="M71.5256 165.242C62.4278 160.043 53.3291 154.844 44.2313 149.645C46.7521 144.684 48.7017 139.486 50.0801 134.048C56.2535 137.136 62.4278 140.222 68.6012 143.309C70.888 144.296 72.513 145.92 73.4751 148.183C72.8844 154.01 72.2342 159.696 71.5256 165.242Z" fill="#A963E8"/>
<path fill-rule="evenodd" clip-rule="evenodd" d="M15.9622 249.074C14.1403 246.993 13.4901 244.393 14.0126 241.276C13.8498 215.605 14.0126 189.934 14.5 164.267C17.4741 162.786 20.5613 161.812 23.7606 161.343C25.7101 161.018 27.6597 160.693 29.6093 160.368C29.6093 189.936 29.6093 219.506 29.6093 249.074C24.903 248.1 20.3537 248.1 15.9622 249.074Z" fill="#A963E8"/>
<path fill-rule="evenodd" clip-rule="evenodd" d="M23.7606 161.343C20.5613 161.812 17.4741 162.786 14.5 164.267C14.0126 189.934 13.8499 215.605 14.0126 241.276C13.688 241.276 13.3625 241.276 13.0378 241.276C12.7132 214.298 13.0378 187.33 14.0126 160.368C17.1885 161.262 20.4375 161.587 23.7606 161.343Z" fill="#A963E8"/>
<path fill-rule="evenodd" clip-rule="evenodd" d="M452.67 82.3844C452.508 90.5142 452.67 98.6371 453.157 106.754C453.645 99.2883 453.807 91.8146 453.645 84.334C457.868 84.334 462.093 84.334 466.317 84.334C465.992 150.459 466.318 216.421 467.292 282.217C467.726 285.01 467.075 287.447 465.342 289.528C460.736 291.275 456.35 293.387 452.183 295.864C451.695 261.423 451.532 226.98 451.695 192.536C451.371 155.653 451.697 118.935 452.67 82.3844Z" fill="#A963E8"/>
<path fill-rule="evenodd" clip-rule="evenodd" d="M444.872 159.393C446.133 160.902 446.783 162.852 446.821 165.242C447.404 169.471 447.567 173.695 447.309 177.914C437.885 183.438 428.463 188.962 419.04 194.486C415.995 188.557 412.583 182.871 408.804 177.427C420.886 171.386 432.908 165.375 444.872 159.393Z" fill="#A963E8"/>
<path fill-rule="evenodd" clip-rule="evenodd" d="M126.114 171.091C129.787 173.747 133.686 176.184 137.811 178.402C134.098 182.415 131.824 187.127 130.988 192.536C130.353 193.112 129.703 193.761 129.038 194.486C119.226 190.151 109.965 184.952 101.257 178.889C100.606 172.065 100.606 165.242 101.257 158.418C109.214 163.29 117.5 167.515 126.114 171.091Z" fill="#A963E8"/>
<path fill-rule="evenodd" clip-rule="evenodd" d="M180.702 176.939C179.116 179.016 177.33 180.965 175.341 182.788C174.841 181.787 174.354 180.812 173.879 179.864C175.616 178.054 177.89 177.079 180.702 176.939Z" fill="#A963E8"/>
<path fill-rule="evenodd" clip-rule="evenodd" d="M361.039 174.015C365.377 173.938 369.601 174.588 373.712 175.965C372.987 176.629 372.338 177.28 371.762 177.914C370.808 179.518 369.508 180.818 367.863 181.813C364.867 179.797 362.593 177.197 361.039 174.015Z" fill="#A963E8"/>
<path fill-rule="evenodd" clip-rule="evenodd" d="M153.408 181.813C160.279 180.864 165.477 183.301 169.005 189.124C162.312 196.793 155.976 204.754 149.996 213.007C136.828 201.044 137.965 190.646 153.408 181.813Z" fill="#A963E8"/>
<path fill-rule="evenodd" clip-rule="evenodd" d="M404.905 206.183C401.82 209.343 398.245 211.454 394.182 212.519C388.378 205.296 382.692 197.985 377.123 190.587C376.559 189.194 376.722 187.894 377.611 186.687C380.051 184.413 382.65 182.302 385.409 180.351C387.683 179.701 389.959 179.701 392.233 180.351C404.245 185.365 408.47 193.975 404.905 206.183Z" fill="#A963E8"/>
<path fill-rule="evenodd" clip-rule="evenodd" d="M130.988 202.284C132.275 207.451 135.036 211.676 139.274 214.956C139.948 215.87 139.785 216.519 138.786 216.906C126.625 224.043 114.114 230.541 101.257 236.402C101.072 230.635 100.584 224.949 99.7946 219.343C100.769 218.368 101.744 217.393 102.719 216.419C112.194 211.681 121.616 206.97 130.988 202.284Z" fill="#A963E8"/>
<path fill-rule="evenodd" clip-rule="evenodd" d="M433.174 211.057C437.629 212.77 441.853 215.044 445.846 217.881C446.808 221.066 447.133 224.316 446.821 227.629C446.023 230.363 445.535 233.287 445.359 236.402C433.779 230.855 422.244 225.169 410.754 219.343C409.895 218.653 409.246 217.84 408.804 216.906C411.106 212.99 413.38 209.091 415.628 205.208C416.262 204.632 416.913 203.983 417.577 203.259C422.526 206.383 427.725 208.983 433.174 211.057Z" fill="#A963E8"/>
<path fill-rule="evenodd" clip-rule="evenodd" d="M520.906 256.873C524.558 256.767 528.133 257.255 531.628 258.335C540.545 260.755 545.093 266.604 545.275 275.881C544.692 290.273 537.22 296.935 522.855 295.864C511.945 294.047 506.096 287.548 505.309 276.368C506.584 266.653 511.782 260.155 520.906 256.873Z" fill="#A963E8"/>
<path fill-rule="evenodd" clip-rule="evenodd" d="M24.7353 256.873C35.7837 260.763 40.333 268.561 38.3825 280.268C37.7323 279.943 37.0831 279.617 36.4329 279.293C35.8431 276.732 35.3557 274.133 34.9707 271.494C29.6356 270.787 26.5494 267.701 25.7101 262.234C20.5252 260.169 15.3266 259.844 10.1134 261.259C4.19936 266.254 1.27498 272.59 1.34029 280.268C0.228052 277.207 0.0652616 273.958 0.852895 270.52C5.11664 259.533 13.0778 254.983 24.7353 256.873Z" fill="#A963E8"/>
<path fill-rule="evenodd" clip-rule="evenodd" d="M36.4329 279.293C36.4631 280.394 36.1385 281.694 35.4581 283.192C33.9247 285.469 32.6253 285.469 31.5589 283.192C30.3999 282.286 29.1005 281.962 27.6597 282.217C27.921 280.658 27.5954 279.359 26.6849 278.318C27.1499 271.26 23.9009 268.498 16.937 270.032C15.3188 271.483 14.3441 273.27 14.0126 275.394C13.4112 275.285 12.9238 274.961 12.5504 274.419C12.0728 275.679 11.91 276.98 12.063 278.318C6.2172 277.884 4.59222 279.997 7.18907 284.654C6.65878 286.199 6.00859 287.661 5.23948 289.041C2.82784 286.703 1.52746 283.779 1.3403 280.268C1.27499 272.59 4.19937 266.254 10.1134 261.259C15.3266 259.844 20.5252 260.169 25.7102 262.234C26.5494 267.701 29.6356 270.787 34.9707 271.494C35.3557 274.133 35.8431 276.732 36.4329 279.293Z" fill="#A963E8"/>
<path fill-rule="evenodd" clip-rule="evenodd" d="M521.88 269.545C530.389 269.666 532.988 273.728 529.679 281.73C526.633 283.374 523.546 283.537 520.418 282.217C518.218 277.641 518.705 273.417 521.88 269.545Z" fill="#A963E8"/>
<path fill-rule="evenodd" clip-rule="evenodd" d="M26.685 278.318C23.3581 283.882 19.2961 284.532 14.5001 280.268C14.0186 278.675 13.8567 277.05 14.0127 275.394C14.3441 273.27 15.3189 271.483 16.9371 270.032C23.901 268.498 27.15 271.26 26.685 278.318Z" fill="#A963E8"/>
<path fill-rule="evenodd" clip-rule="evenodd" d="M14.0126 275.394C13.8567 277.05 14.0185 278.675 14.5 280.268C19.296 284.532 23.358 283.882 26.685 278.318C27.5954 279.359 27.921 280.658 27.6598 282.217C29.1005 281.962 30.3999 282.286 31.5589 283.192C32.6254 285.469 33.9248 285.469 35.4581 283.192C36.1385 281.694 36.4631 280.394 36.4329 279.293C37.0831 279.617 37.7323 279.943 38.3825 280.268C37.7898 283.023 36.815 285.622 35.4581 288.066C32.7443 292.195 28.8451 294.632 23.7606 295.377C20.5272 295.862 17.2782 296.025 14.0126 295.864C11.6215 295.165 9.34631 294.028 7.18909 292.453C5.89944 291.657 5.25022 290.519 5.2395 289.041C6.00861 287.661 6.6588 286.199 7.18909 284.654C4.59224 279.997 6.21722 277.884 12.0631 278.318C11.91 276.98 12.0728 275.679 12.5505 274.419C12.9238 274.961 13.4112 275.285 14.0126 275.394Z" fill="#A963E8"/>
<path fill-rule="evenodd" clip-rule="evenodd" d="M496.536 264.671C489.286 260.229 481.812 256.005 474.115 251.999C474.004 245.422 474.654 238.924 476.065 232.503C487.571 237.114 498.294 242.963 508.233 250.049C503.48 254.452 499.581 259.326 496.536 264.671Z" fill="#A963E8"/>
<path fill-rule="evenodd" clip-rule="evenodd" d="M531.628 249.074C526.509 247.133 521.31 246.809 516.032 248.099C516.352 219.271 516.027 190.514 515.057 161.83C520.543 162.595 526.066 162.433 531.628 161.343C531.628 190.587 531.628 219.83 531.628 249.074Z" fill="#A963E8"/>
<path fill-rule="evenodd" clip-rule="evenodd" d="M91.0214 305.612C93.0968 308 95.6966 309.625 98.8198 310.486C104.849 314.728 111.185 318.627 117.828 322.184C118.426 329.134 119.401 335.958 120.753 342.654C109.036 336.066 97.1753 329.892 85.1727 324.133C70.853 315.998 56.231 308.362 41.307 301.226C39.7833 300.486 38.8086 299.348 38.3826 297.814C43.3374 295.116 45.9362 290.892 46.1809 285.142C47.3877 284.253 48.6881 284.09 50.0801 284.654C63.6268 291.914 77.2739 298.901 91.0214 305.612Z" fill="#A963E8"/>
<path fill-rule="evenodd" clip-rule="evenodd" d="M496.536 285.142C500.08 289.586 503.655 294.134 507.258 298.789C507.342 299.76 507.017 300.572 506.284 301.226C492.539 306.312 479.542 312.648 467.292 320.234C462.414 322.716 457.54 324.99 452.67 327.058C442.437 331.282 432.526 336.155 422.939 341.68C422.55 341.457 422.388 341.132 422.451 340.705C424.551 334.059 425.85 327.235 426.351 320.234C428.326 319.247 430.276 318.272 432.199 317.31C439.268 314.125 446.091 310.551 452.67 306.587C459.475 303.834 465.974 300.585 472.166 296.839C480.233 292.642 488.357 288.742 496.536 285.142Z" fill="#A963E8"/>
<path fill-rule="evenodd" clip-rule="evenodd" d="M517.981 404.066C516.682 387.833 516.032 371.262 516.032 354.352C516.032 337.615 516.356 321.043 517.006 304.637C521.889 306.212 526.601 305.886 531.141 303.663C531.628 337.454 531.791 371.247 531.628 405.041C528.654 403.966 525.567 403.317 522.368 403.092C520.704 403.099 519.242 403.425 517.981 404.066Z" fill="#A963E8"/>
<path fill-rule="evenodd" clip-rule="evenodd" d="M128.063 381.646C126.439 382.296 124.815 382.946 123.19 383.596C121.81 381.798 120.186 381.148 118.316 381.646C117.113 379.796 117.437 378.171 119.29 376.772C118.094 375.71 117.282 374.409 116.853 372.873C115.147 372.169 113.684 371.194 112.467 369.949C117.576 367.394 122.775 364.795 128.063 362.15C130.014 367.507 132.613 372.544 135.862 377.26C133.109 378.473 130.509 379.935 128.063 381.646Z" fill="#A963E8"/>
<path fill-rule="evenodd" clip-rule="evenodd" d="M517.006 304.637C516.356 321.043 516.032 337.615 516.032 354.352C516.032 371.262 516.682 387.833 517.981 404.066C517.29 404.948 516.315 405.272 515.057 405.041C514.732 371.242 515.057 337.449 516.032 303.663C516.623 303.784 516.948 304.108 517.006 304.637Z" fill="#A963E8"/>
<path fill-rule="evenodd" clip-rule="evenodd" d="M416.603 358.251C426.576 364.133 436.811 369.657 447.309 374.823C447.095 381.032 446.283 387.205 444.872 393.344C440.956 391.042 437.057 388.768 433.174 386.52C425.402 382.308 417.604 378.084 409.779 373.848C412.103 368.561 414.377 363.363 416.603 358.251Z" fill="#A963E8"/>
<path fill-rule="evenodd" clip-rule="evenodd" d="M467.292 327.058C468.558 367.338 468.558 407.629 467.292 447.932C462.398 450.05 457.849 452.649 453.645 455.731C452.994 453.131 452.345 450.532 451.695 447.932C451.532 410.889 451.695 373.847 452.182 336.806C452.413 334.52 453.226 332.57 454.619 330.957C459.02 330.228 462.757 328.278 465.83 325.108C466.101 326.001 466.588 326.65 467.292 327.058Z" fill="#A963E8"/>
<path fill-rule="evenodd" clip-rule="evenodd" d="M112.467 369.949C113.684 371.194 115.147 372.169 116.853 372.873C117.282 374.409 118.094 375.71 119.29 376.772C117.437 378.171 117.113 379.796 118.316 381.646C120.186 381.148 121.81 381.798 123.19 383.596C116.273 387.379 109.124 390.629 101.744 393.344C102.145 388.314 101.495 383.115 99.7946 377.747C103.187 373.932 107.411 371.333 112.467 369.949Z" fill="#A963E8"/>
<path fill-rule="evenodd" clip-rule="evenodd" d="M72.5003 388.47C73.6457 388.256 74.6205 388.581 75.4247 389.444C73.8182 395.477 73.0052 401.651 72.9877 407.966C64.6522 412.216 56.6911 417.09 49.1052 422.587C48.4463 421.513 47.7971 420.538 47.1557 419.663C46.6897 414.496 44.0899 410.922 39.3573 408.94C39.4168 406.901 40.3916 405.439 42.2817 404.554C52.4449 399.15 62.5184 393.788 72.5003 388.47Z" fill="#A963E8"/>
<path fill-rule="evenodd" clip-rule="evenodd" d="M92.971 442.083C92.3695 442.192 91.8821 442.516 91.5088 443.058C91.4259 441.513 91.2641 440.214 91.0214 439.159C90.3712 440.134 89.722 441.109 89.0718 442.083C87.9761 440.262 87.1641 438.312 86.6348 436.235C86.1572 437.495 85.9944 438.795 86.1474 440.134C84.2056 440.301 82.5816 439.651 81.2734 438.184C80.5638 440.828 79.7518 443.428 78.8365 445.983C78.6698 438.661 78.1824 431.512 77.3743 424.537C77.3743 393.994 77.3743 363.45 77.3743 332.906C82.53 333.87 87.7285 334.52 92.971 334.856C92.971 370.599 92.971 406.341 92.971 442.083Z" fill="#A963E8"/>
<path fill-rule="evenodd" clip-rule="evenodd" d="M506.284 406.016C501.052 409.953 497.803 415.152 496.536 421.613C489.435 417.604 482.45 413.38 475.578 408.94C474.927 402.441 474.927 395.943 475.578 389.445C486.386 394.115 496.621 399.638 506.284 406.016Z" fill="#A963E8"/>
<path fill-rule="evenodd" clip-rule="evenodd" d="M401.981 475.226C396.533 474.741 391.334 475.39 386.384 477.176C385.403 453.789 385.241 430.394 385.897 406.991C391.324 402.873 395.223 397.674 397.594 391.394C398.646 389.548 399.946 389.223 401.493 390.419C401.981 418.686 402.143 446.955 401.981 475.226Z" fill="#A963E8"/>
<path fill-rule="evenodd" clip-rule="evenodd" d="M160.232 408.94C159.259 433.793 158.934 458.812 159.257 484C154.224 482.359 149.026 481.709 143.66 482.05C143.66 452.806 143.66 423.562 143.66 394.318C144.058 393.204 144.708 392.23 145.61 391.394C147.48 394.81 149.591 398.059 151.946 401.142C155.267 403.33 158.029 405.93 160.232 408.94Z" fill="#A963E8"/>
<path fill-rule="evenodd" clip-rule="evenodd" d="M29.6094 303.663C29.7722 336.808 29.6094 369.951 29.122 403.092C24.4596 403.038 19.7474 403.364 14.9875 404.066C14.0381 401.88 13.7125 399.606 14.0127 397.243C13.8499 366.048 14.0127 334.854 14.5001 303.663C16.1953 305.022 18.1449 305.672 20.3489 305.612C23.4682 305.059 26.5554 304.408 29.6094 303.663Z" fill="#A963E8"/>
<path fill-rule="evenodd" clip-rule="evenodd" d="M39.3573 428.436C38.8612 444.853 30.4126 452.326 14.0127 450.857C13.0379 450.857 12.0631 450.857 11.0883 450.857C7.8676 448.446 5.10503 445.521 2.80257 442.083C-2.94189 429.102 0.144306 419.03 12.0631 411.865C15.9262 410.948 19.8254 410.786 23.7606 411.377C32.9559 413.579 38.1544 419.265 39.3573 428.436Z" fill="#A963E8"/>
<path fill-rule="evenodd" clip-rule="evenodd" d="M26.685 427.461C24.5443 426.23 22.2691 425.255 19.8614 424.537C17.6535 425.446 15.7039 426.745 14.0126 428.436C12.6879 428.93 11.7131 429.905 11.0883 431.361C10.3845 427.123 9.73525 422.899 9.13867 418.688C9.46328 418.038 9.78886 417.389 10.1135 416.739C15.6737 413.851 21.5225 413.201 27.6598 414.789C27.1129 417.136 26.6255 419.411 26.1976 421.613C32.7443 423.861 32.9071 425.81 26.685 427.461Z" fill="#A963E8"/>
<path fill-rule="evenodd" clip-rule="evenodd" d="M26.685 427.461C28.5 435.554 25.2511 438.641 16.937 436.722C14.3782 434.581 13.4034 431.819 14.0127 428.436C15.7039 426.745 17.6535 425.446 19.8614 424.537C22.2692 425.256 24.5443 426.23 26.685 427.461Z" fill="#A963E8"/>
<path fill-rule="evenodd" clip-rule="evenodd" d="M544.301 423.562C547.318 441.988 539.519 451.087 520.905 450.857C514.536 448.552 509.824 444.327 506.771 438.184C503.157 423.639 508.682 414.866 523.342 411.865C532.626 412.055 539.613 415.954 544.301 423.562Z" fill="#A963E8"/>
<path fill-rule="evenodd" clip-rule="evenodd" d="M521.88 424.537C529.561 424.26 532.322 427.835 530.166 435.26C527.762 437.483 525.532 438.337 523.475 437.821C521.673 437.369 520.004 435.865 518.469 433.31C517.963 429.77 519.099 426.845 521.88 424.537Z" fill="#A963E8"/>
<path fill-rule="evenodd" clip-rule="evenodd" d="M77.3742 424.537C78.1824 431.512 78.6698 438.661 78.8364 445.983C79.7518 443.428 80.5638 440.828 81.2734 438.184C82.5816 439.651 84.2056 440.301 86.1474 440.134C85.9944 438.795 86.1571 437.495 86.6348 436.235C87.1641 438.312 87.9761 440.262 89.0718 442.083C89.722 441.109 90.3712 440.134 91.0214 439.159C91.2641 440.214 91.4259 441.513 91.5088 443.058C91.8821 442.516 92.3695 442.192 92.971 442.083C92.971 446.957 92.971 451.831 92.971 456.705C88.3953 453.527 83.3595 451.251 77.8616 449.882C77.3742 441.44 77.2124 432.991 77.3742 424.537Z" fill="#A963E8"/>
<path fill-rule="evenodd" clip-rule="evenodd" d="M288.905 460.604C282.051 468.106 273.928 470.055 264.535 466.453C260.636 464.504 257.711 461.579 255.762 457.68C251.062 442.703 256.262 433.28 271.358 429.411C289.383 432.969 295.232 443.367 288.905 460.604Z" fill="#A963E8"/>
<path fill-rule="evenodd" clip-rule="evenodd" d="M270.383 441.109C277.639 441.612 280.401 445.511 278.669 452.806C270.333 457.507 266.434 454.907 266.972 445.008C268.313 443.833 269.45 442.534 270.383 441.109Z" fill="#A963E8"/>
<path fill-rule="evenodd" clip-rule="evenodd" d="M451.695 447.932C452.345 450.532 452.995 453.131 453.645 455.73C453.586 456.26 453.262 456.584 452.67 456.705C451.711 453.851 451.386 450.927 451.695 447.932Z" fill="#A963E8"/>
<path fill-rule="evenodd" clip-rule="evenodd" d="M236.266 450.857C236.916 452.482 237.565 454.106 238.215 455.731C238.485 458.604 238.161 461.366 237.24 464.016C216.953 473.995 197.133 484.718 177.778 496.184C176.672 496.915 175.697 496.753 174.854 495.697C173.349 493.176 171.725 490.739 169.98 488.386C167.922 487.562 165.972 486.75 164.131 485.949C164.455 485.299 164.781 484.65 165.106 484C168.463 480.528 172.362 477.767 176.803 475.714C190.431 468.598 204.078 461.45 217.745 454.268C222.19 452.208 226.738 450.421 231.392 448.907C233.026 449.577 234.651 450.227 236.266 450.857Z" fill="#A963E8"/>
<path fill-rule="evenodd" clip-rule="evenodd" d="M381.51 480.1C376.885 484.094 373.31 488.968 370.787 494.722C356.538 485.017 341.59 476.569 325.947 469.378C321.055 466.491 315.857 464.054 310.35 462.067C306.531 459.652 305.231 456.403 306.451 452.319C311.234 451.049 315.946 449.586 320.585 447.932C337.542 456.329 354.601 464.615 371.762 472.789C375.466 474.718 378.716 477.155 381.51 480.1Z" fill="#A963E8"/>
<path fill-rule="evenodd" clip-rule="evenodd" d="M510.183 454.756C475.33 472.67 440.563 490.867 405.88 509.344C405.748 505.545 404.449 501.809 401.981 498.134C402.281 495.234 403.906 493.61 406.855 493.26C408.294 488.409 411.543 485.972 416.603 485.949C416.603 484.974 416.603 484 416.603 483.025C441.031 471.948 464.752 459.601 487.763 445.983C491.223 444.24 494.798 443.102 498.485 442.571C501.9 447.122 505.799 451.184 510.183 454.756Z" fill="#A963E8"/>
<path fill-rule="evenodd" clip-rule="evenodd" d="M49.1053 440.134C55.9337 444.525 63.0829 448.424 70.5508 451.831C78.0216 456.869 85.8199 461.418 93.9458 465.478C96.2688 467.29 98.8685 468.59 101.744 469.378C146.513 493.388 191.028 517.92 235.291 542.975C240.165 545.899 245.039 548.823 249.913 551.748C251.562 553.022 252.862 554.484 253.812 556.134C250.466 559.157 247.866 562.732 246.014 566.857C244.769 569.21 243.145 569.373 241.14 567.344C215.869 553.437 190.849 539.141 166.081 524.453C141.658 512.695 117.938 499.698 94.9206 485.462C77.2037 475.791 59.3319 466.367 41.307 457.193C40.3322 456.218 39.3574 455.243 38.3826 454.268C41.9991 450.822 44.5988 446.761 46.1809 442.083C46.4938 440.574 47.4686 439.924 49.1053 440.134Z" fill="#A963E8"/>
<path fill-rule="evenodd" clip-rule="evenodd" d="M280.131 476.201C280.131 500.896 280.131 525.591 280.131 550.286C278.832 550.286 277.532 550.286 276.232 550.286C272.587 550.033 269.013 550.358 265.51 551.26C264.373 526.897 264.21 502.527 265.022 478.151C265.347 476.851 265.672 475.551 265.997 474.252C266.484 474.739 266.972 475.226 267.459 475.714C271.877 475.862 276.101 476.025 280.131 476.201Z" fill="#A963E8"/>
<path fill-rule="evenodd" clip-rule="evenodd" d="M416.603 483.025C416.603 484 416.603 484.974 416.603 485.949C411.543 485.972 408.294 488.409 406.855 493.26C403.906 493.61 402.281 495.234 401.981 498.134C404.449 501.809 405.748 505.545 405.88 509.344C392.917 516.478 379.919 523.626 366.888 530.79C368.298 528.328 370.247 526.379 372.737 524.941C373.896 524.035 375.195 523.711 376.636 523.966C378.396 519.255 379.695 514.381 380.535 509.344C378.727 509.566 377.915 508.916 378.098 507.395C379.42 506.537 380.882 506.211 382.485 506.42C382.895 504.071 384.195 502.284 386.384 501.058C385.805 500.606 385.155 500.443 384.434 500.571C394.681 493.91 405.404 488.061 416.603 483.025Z" fill="#A963E8"/>
<path fill-rule="evenodd" clip-rule="evenodd" d="M384.434 500.571C385.155 500.443 385.805 500.606 386.384 501.058C384.195 502.284 382.895 504.071 382.485 506.42C380.882 506.211 379.42 506.537 378.098 507.395C377.915 508.916 378.727 509.566 380.535 509.344C379.695 514.381 378.396 519.255 376.636 523.966C375.195 523.711 373.896 524.035 372.737 524.941C370.247 526.379 368.298 528.328 366.888 530.79C344.8 543.289 322.705 555.474 300.602 567.344C300.05 566.375 299.4 565.562 298.653 564.907C298.449 563.521 297.961 562.222 297.19 561.008C294.528 559.138 292.091 557.188 289.879 555.16C295.367 551.11 301.216 547.536 307.426 544.437C333.28 530.05 358.95 515.428 384.434 500.571Z" fill="#A963E8"/>
<path fill-rule="evenodd" clip-rule="evenodd" d="M269.409 600C257.484 597.002 252.285 589.203 253.812 576.605C254.599 568.174 259.148 562.813 267.459 560.521C275.921 560.418 283.558 562.855 290.367 567.832C296.599 587.217 289.613 597.939 269.409 600Z" fill="#A963E8"/>
<path fill-rule="evenodd" clip-rule="evenodd" d="M270.383 572.706C277.446 572.182 280.207 575.431 278.669 582.454C276.175 585.231 273.088 586.044 269.409 584.891C265.49 580.555 265.815 576.493 270.383 572.706Z" fill="#A963E8"/>
<path fill-rule="evenodd" clip-rule="evenodd" d="M274.283 105.292C276.72 108.704 284.41 119.337 289.6 126.227L291.829 129.175C297.352 135.513 302.714 142.012 307.913 148.67C328.152 167.931 347.323 188.077 365.426 209.108C373.228 219.52 380.539 230.243 387.359 241.276C402.409 266.573 407.607 293.867 402.955 323.159C399.66 338.725 394.298 353.672 386.871 367.999L370.3 391.394C367.014 394.516 363.927 397.765 361.039 401.142C342.509 416.705 321.226 426.778 297.19 431.361C294.663 429.121 292.226 426.684 289.879 424.05C286.598 421.921 283.024 420.621 279.157 420.151C270.245 418.509 261.959 419.877 254.3 424.254L253.812 424.537C251.985 428.255 249.061 430.205 245.039 430.386C237.114 429.212 229.315 427.101 221.644 424.05C212.508 419.809 203.735 415.098 195.324 409.915C190.488 406.381 185.939 402.481 181.677 398.218C145.951 363.565 133.279 321.649 143.66 272.469C145.942 265.614 148.541 258.79 151.459 251.999C168.044 221.09 189.489 193.796 215.795 170.116C223.621 161.967 231.419 153.844 239.19 145.746C249.802 132.693 259.875 119.208 269.409 105.292C271.846 100.906 271.846 101.88 274.283 105.292ZM188.501 254.923H176.803C169.591 258.247 166.644 263.964 167.963 272.075L168.03 272.469C170.246 277.034 173.495 280.771 177.778 283.679C193.27 285.064 198.956 278.077 194.837 262.721C192.886 259.962 190.775 257.363 188.501 254.923ZM222.619 193.024C207.005 200.685 195.145 212.22 187.039 227.629C185.011 231.559 185.11 235.357 187.336 239.021L187.526 239.326C191.768 244.53 197.292 246.804 204.098 246.15C227.698 239.297 240.209 223.7 241.627 199.36C240.329 197.254 238.866 195.305 237.241 193.511C232.469 191.171 227.595 191.008 222.619 193.024Z" fill="#53B0EB"/>
</svg>
