<svg xmlns="http://www.w3.org/2000/svg" xmlns:xlink="http://www.w3.org/1999/xlink" contentStyleType="text/css" data-diagram-type="DESCRIPTION" height="561px" preserveAspectRatio="none" style="width:2319px;height:561px;background:#FFFFFF;" version="1.1" viewBox="0 0 2319 561" width="2319px" zoomAndPan="magnify"><?plantuml 1.2026.6?><defs/><g><g class="title" data-source-line="9"><text fill="#000000" font-family="Helvetica" font-size="22" font-weight="700" lengthAdjust="spacing" textLength="477.9951" x="919.5024" y="31.9404">drevops/customizer - component architecture</text></g><!--cluster Configuration--><g class="cluster" data-qualified-name="Configuration" data-source-line="11" id="ent0001"><path d="M623.5,161 L716.2588,161 A3.75,3.75 0 0 1 718.7588,163.5 L725.7588,181 L754.5,181 A2.5,2.5 0 0 1 757,183.5 L757,543.5 A2.5,2.5 0 0 1 754.5,546 L623.5,546 A2.5,2.5 0 0 1 621,543.5 L621,163.5 A2.5,2.5 0 0 1 623.5,161" fill="#E3F2FD" style="stroke:#000000;stroke-width:1;"/><line style="stroke:#000000;stroke-width:1;" x1="621" x2="725.7588" y1="181" y2="181"/><text fill="#000000" font-family="Helvetica" font-size="14" font-weight="700" lengthAdjust="spacing" textLength="91.7588" x="625" y="173.7803">Configuration</text></g><!--cluster Core--><g class="cluster" data-qualified-name="Core" data-source-line="18" id="ent0006"><path d="M1494.5,54 L1527.3965,54 A3.75,3.75 0 0 1 1529.8965,56.5 L1536.8965,74 L1585.5,74 A2.5,2.5 0 0 1 1588,76.5 L1588,134.5 A2.5,2.5 0 0 1 1585.5,137 L1494.5,137 A2.5,2.5 0 0 1 1492,134.5 L1492,56.5 A2.5,2.5 0 0 1 1494.5,54" fill="#FFF3E0" style="stroke:#000000;stroke-width:1;"/><line style="stroke:#000000;stroke-width:1;" x1="1492" x2="1536.8965" y1="74" y2="74"/><text fill="#000000" font-family="Helvetica" font-size="14" font-weight="700" lengthAdjust="spacing" textLength="31.8965" x="1496" y="66.7803">Core</text></g><!--cluster Resolution--><g class="cluster" data-qualified-name="Resolution" data-source-line="22" id="ent0008"><path d="M1344.5,161 L1417.8311,161 A3.75,3.75 0 0 1 1420.3311,163.5 L1427.3311,181 L1867.5,181 A2.5,2.5 0 0 1 1870,183.5 L1870,345.5 A2.5,2.5 0 0 1 1867.5,348 L1344.5,348 A2.5,2.5 0 0 1 1342,345.5 L1342,163.5 A2.5,2.5 0 0 1 1344.5,161" fill="#E8F5E9" style="stroke:#000000;stroke-width:1;"/><line style="stroke:#000000;stroke-width:1;" x1="1342" x2="1427.3311" y1="181" y2="181"/><text fill="#000000" font-family="Helvetica" font-size="14" font-weight="700" lengthAdjust="spacing" textLength="72.3311" x="1346" y="173.7803">Resolution</text></g><!--cluster Handlers--><g class="cluster" data-qualified-name="Handlers" data-source-line="30" id="ent0014"><path d="M1896.5,161 L1957.4102,161 A3.75,3.75 0 0 1 1959.9102,163.5 L1966.9102,181 L2301.5,181 A2.5,2.5 0 0 1 2304,183.5 L2304,355.5 A2.5,2.5 0 0 1 2301.5,358 L1896.5,358 A2.5,2.5 0 0 1 1894,355.5 L1894,163.5 A2.5,2.5 0 0 1 1896.5,161" fill="#F3E5F5" style="stroke:#000000;stroke-width:1;"/><line style="stroke:#000000;stroke-width:1;" x1="1894" x2="1966.9102" y1="181" y2="181"/><text fill="#000000" font-family="Helvetica" font-size="14" font-weight="700" lengthAdjust="spacing" textLength="59.9102" x="1898" y="173.7803">Handlers</text></g><!--cluster Output--><g class="cluster" data-qualified-name="Output" data-source-line="37" id="ent0019"><path d="M833.5,161 L880.3691,161 A3.75,3.75 0 0 1 882.8691,163.5 L889.8691,181 L1265.5,181 A2.5,2.5 0 0 1 1268,183.5 L1268,241.5 A2.5,2.5 0 0 1 1265.5,244 L833.5,244 A2.5,2.5 0 0 1 831,241.5 L831,163.5 A2.5,2.5 0 0 1 833.5,161" fill="#ECEFF1" style="stroke:#000000;stroke-width:1;"/><line style="stroke:#000000;stroke-width:1;" x1="831" x2="889.8691" y1="181" y2="181"/><text fill="#000000" font-family="Helvetica" font-size="14" font-weight="700" lengthAdjust="spacing" textLength="45.8691" x="835" y="173.7803">Output</text></g><!--cluster Interactive TUI--><g class="cluster" data-qualified-name="Interactive TUI" data-source-line="43" id="ent0023"><path d="M13.5,54 L110.9756,54 A3.75,3.75 0 0 1 113.4756,56.5 L120.4756,74 L594.5,74 A2.5,2.5 0 0 1 597,76.5 L597,355.5 A2.5,2.5 0 0 1 594.5,358 L13.5,358 A2.5,2.5 0 0 1 11,355.5 L11,56.5 A2.5,2.5 0 0 1 13.5,54" fill="#FFEBEE" style="stroke:#000000;stroke-width:1;"/><line style="stroke:#000000;stroke-width:1;" x1="11" x2="120.4756" y1="74" y2="74"/><text fill="#000000" font-family="Helvetica" font-size="14" font-weight="700" lengthAdjust="spacing" textLength="96.4756" x="15" y="66.7803">Interactive TUI</text></g><!--entity ConfigLoader--><g class="entity" data-qualified-name="Configuration.ConfigLoader" data-source-line="12" id="ent0002"><rect fill="#FFFFFF" height="34" rx="2.5" ry="2.5" style="stroke:#000000;stroke-width:1;" width="104.0615" x="636.97" y="194"/><text fill="#000000" font-family="Helvetica" font-size="14" lengthAdjust="spacing" textLength="84.0615" x="646.97" y="214.7803">ConfigLoader</text></g><!--entity Config--><g class="entity" data-qualified-name="Configuration.Config" data-source-line="13" id="ent0003"><rect fill="#FFFFFF" height="34" rx="2.5" ry="2.5" style="stroke:#000000;stroke-width:1;" width="60.4688" x="680.77" y="298"/><text fill="#000000" font-family="Helvetica" font-size="14" lengthAdjust="spacing" textLength="40.4688" x="690.77" y="318.7803">Config</text></g><!--entity Panel--><g class="entity" data-qualified-name="Configuration.Panel" data-source-line="14" id="ent0004"><rect fill="#FFFFFF" height="34" rx="2.5" ry="2.5" style="stroke:#000000;stroke-width:1;" width="55.8066" x="683.1" y="402"/><text fill="#000000" font-family="Helvetica" font-size="14" lengthAdjust="spacing" textLength="35.8066" x="693.1" y="422.7803">Panel</text></g><!--entity Field--><g class="entity" data-qualified-name="Configuration.Field" data-source-line="15" id="ent0005"><rect fill="#FFFFFF" height="34" rx="2.5" ry="2.5" style="stroke:#000000;stroke-width:1;" width="50.3447" x="685.83" y="496"/><text fill="#000000" font-family="Helvetica" font-size="14" lengthAdjust="spacing" textLength="30.3447" x="695.83" y="516.7803">Field</text></g><!--entity Engine--><g class="entity" data-qualified-name="Core.Engine" data-source-line="19" id="ent0007"><rect fill="#FFFFFF" height="34" rx="2.5" ry="2.5" style="stroke:#000000;stroke-width:1;" width="63.5928" x="1508.2" y="87"/><text fill="#000000" font-family="Helvetica" font-size="14" lengthAdjust="spacing" textLength="43.5928" x="1518.2" y="107.7803">Engine</text></g><!--entity InputResolver--><g class="entity" data-qualified-name="Resolution.InputResolver" data-source-line="23" id="ent0009"><rect fill="#FFFFFF" height="34" rx="2.5" ry="2.5" style="stroke:#000000;stroke-width:1;" width="106.3789" x="1357.81" y="194"/><text fill="#000000" font-family="Helvetica" font-size="14" lengthAdjust="spacing" textLength="86.3789" x="1367.81" y="214.7803">InputResolver</text></g><!--entity Discovery--><g class="entity" data-qualified-name="Resolution.Discovery" data-source-line="24" id="ent0010"><rect fill="#FFFFFF" height="34" rx="2.5" ry="2.5" style="stroke:#000000;stroke-width:1;" width="81.4551" x="1499.27" y="194"/><text fill="#000000" font-family="Helvetica" font-size="14" lengthAdjust="spacing" textLength="61.4551" x="1509.27" y="214.7803">Discovery</text></g><!--entity Deriver--><g class="entity" data-qualified-name="Resolution.Deriver" data-source-line="25" id="ent0011"><rect fill="#FFFFFF" height="34" rx="2.5" ry="2.5" style="stroke:#000000;stroke-width:1;" width="65.1172" x="1615.44" y="194"/><text fill="#000000" font-family="Helvetica" font-size="14" lengthAdjust="spacing" textLength="45.1172" x="1625.44" y="214.7803">Deriver</text></g><!--entity Transform--><g class="entity" data-qualified-name="Resolution.Transform" data-source-line="26" id="ent0012"><rect fill="#FFFFFF" height="34" rx="2.5" ry="2.5" style="stroke:#000000;stroke-width:1;" width="83.7861" x="1606.11" y="298"/><text fill="#000000" font-family="Helvetica" font-size="14" lengthAdjust="spacing" textLength="63.7861" x="1616.11" y="318.7803">Transform</text></g><!--entity ConditionEvaluator--><g class="entity" data-qualified-name="Resolution.ConditionEvaluator" data-source-line="27" id="ent0013"><rect fill="#FFFFFF" height="34" rx="2.5" ry="2.5" style="stroke:#000000;stroke-width:1;" width="138.2959" x="1715.85" y="194"/><text fill="#000000" font-family="Helvetica" font-size="14" lengthAdjust="spacing" textLength="118.2959" x="1725.85" y="214.7803">ConditionEvaluator</text></g><!--entity HandlerRegistry--><g class="entity" data-qualified-name="Handlers.HandlerRegistry" data-source-line="31" id="ent0015"><rect fill="#FFFFFF" height="34" rx="2.5" ry="2.5" style="stroke:#000000;stroke-width:1;" width="120.3721" x="1909.81" y="194"/><text fill="#000000" font-family="Helvetica" font-size="14" lengthAdjust="spacing" textLength="100.3721" x="1919.81" y="214.7803">HandlerRegistry</text></g><!--entity HandlerInterface--><g class="entity" data-qualified-name="Handlers.HandlerInterface" data-source-line="32" id="ent0016"><ellipse cx="2047" cy="315" fill="#FFFFFF" rx="8" ry="8" style="stroke:#000000;stroke-width:1;"/><text fill="#000000" font-family="Helvetica" font-size="14" lengthAdjust="spacing" textLength="103.5029" x="1995.2485" y="342.7803">HandlerInterface</text></g><!--entity AbstractHandler--><g class="entity" data-qualified-name="Handlers.AbstractHandler" data-source-line="33" id="ent0017"><rect fill="#FFFFFF" height="34" rx="2.5" ry="2.5" style="stroke:#000000;stroke-width:1;" width="120.3789" x="2064.81" y="194"/><text fill="#000000" font-family="Helvetica" font-size="14" lengthAdjust="spacing" textLength="100.3789" x="2074.81" y="214.7803">AbstractHandler</text></g><!--entity Context--><g class="entity" data-qualified-name="Handlers.Context" data-source-line="34" id="ent0018"><rect fill="#FFFFFF" height="34" rx="2.5" ry="2.5" style="stroke:#000000;stroke-width:1;" width="68.248" x="2219.88" y="194"/><text fill="#000000" font-family="Helvetica" font-size="14" lengthAdjust="spacing" textLength="48.248" x="2229.88" y="214.7803">Context</text></g><!--entity Answers--><g class="entity" data-qualified-name="Output.Answers" data-source-line="38" id="ent0020"><rect fill="#FFFFFF" height="34" rx="2.5" ry="2.5" style="stroke:#000000;stroke-width:1;" width="73.6826" x="847.16" y="194"/><text fill="#000000" font-family="Helvetica" font-size="14" lengthAdjust="spacing" textLength="53.6826" x="857.16" y="214.7803">Answers</text></g><!--entity SchemaGenerator--><g class="entity" data-qualified-name="Output.SchemaGenerator" data-source-line="39" id="ent0021"><rect fill="#FFFFFF" height="34" rx="2.5" ry="2.5" style="stroke:#000000;stroke-width:1;" width="134.3926" x="955.8" y="194"/><text fill="#000000" font-family="Helvetica" font-size="14" lengthAdjust="spacing" textLength="114.3926" x="965.8" y="214.7803">SchemaGenerator</text></g><!--entity SchemaValidator--><g class="entity" data-qualified-name="Output.SchemaValidator" data-source-line="40" id="ent0022"><rect fill="#FFFFFF" height="34" rx="2.5" ry="2.5" style="stroke:#000000;stroke-width:1;" width="126.6133" x="1125.69" y="194"/><text fill="#000000" font-family="Helvetica" font-size="14" lengthAdjust="spacing" textLength="106.6133" x="1135.69" y="214.7803">SchemaValidator</text></g><!--entity PanelController--><g class="entity" data-qualified-name="Interactive TUI.PanelController" data-source-line="44" id="ent0024"><rect fill="#FFFFFF" height="34" rx="2.5" ry="2.5" style="stroke:#000000;stroke-width:1;" width="116.4961" x="364.75" y="87"/><text fill="#000000" font-family="Helvetica" font-size="14" lengthAdjust="spacing" textLength="96.4961" x="374.75" y="107.7803">PanelController</text></g><!--entity Theme--><g class="entity" data-qualified-name="Interactive TUI.Theme" data-source-line="45" id="ent0025"><rect fill="#FFFFFF" height="34" rx="2.5" ry="2.5" style="stroke:#000000;stroke-width:1;" width="63.5723" x="27.21" y="194"/><text fill="#000000" font-family="Helvetica" font-size="14" lengthAdjust="spacing" textLength="43.5723" x="37.21" y="214.7803">Theme</text></g><!--entity WidgetFactory--><g class="entity" data-qualified-name="Interactive TUI.WidgetFactory" data-source-line="46" id="ent0026"><rect fill="#FFFFFF" height="34" rx="2.5" ry="2.5" style="stroke:#000000;stroke-width:1;" width="110.248" x="125.88" y="194"/><text fill="#000000" font-family="Helvetica" font-size="14" lengthAdjust="spacing" textLength="90.248" x="135.88" y="214.7803">WidgetFactory</text></g><!--entity WidgetInterface--><g class="entity" data-qualified-name="Interactive TUI.WidgetInterface" data-source-line="47" id="ent0027"><ellipse cx="181" cy="315" fill="#FFFFFF" rx="8" ry="8" style="stroke:#000000;stroke-width:1;"/><text fill="#000000" font-family="Helvetica" font-size="14" lengthAdjust="spacing" textLength="98.0479" x="131.9761" y="342.7803">WidgetInterface</text></g><!--entity Navigator--><g class="entity" data-qualified-name="Interactive TUI.Navigator" data-source-line="48" id="ent0028"><rect fill="#FFFFFF" height="34" rx="2.5" ry="2.5" style="stroke:#000000;stroke-width:1;" width="79.917" x="271.04" y="194"/><text fill="#000000" font-family="Helvetica" font-size="14" lengthAdjust="spacing" textLength="59.917" x="281.04" y="214.7803">Navigator</text></g><!--entity Terminal--><g class="entity" data-qualified-name="Interactive TUI.Terminal" data-source-line="49" id="ent0029"><rect fill="#FFFFFF" height="34" rx="2.5" ry="2.5" style="stroke:#000000;stroke-width:1;" width="74.4551" x="385.77" y="194"/><text fill="#000000" font-family="Helvetica" font-size="14" lengthAdjust="spacing" textLength="54.4551" x="395.77" y="214.7803">Terminal</text></g><!--entity KeyParser--><g class="entity" data-qualified-name="Interactive TUI.KeyParser" data-source-line="50" id="ent0030"><rect fill="#FFFFFF" height="34" rx="2.5" ry="2.5" style="stroke:#000000;stroke-width:1;" width="85.3584" x="495.32" y="194"/><text fill="#000000" font-family="Helvetica" font-size="14" lengthAdjust="spacing" textLength="65.3584" x="505.32" y="214.7803">KeyParser</text></g><!--link ConfigLoader to Config--><g class="link" data-entity-1="ent0002" data-entity-2="ent0003" data-link-type="dependency" data-source-line="53" id="lnk31"><path d="M692.53,228.39 C696.64,247.42 702.3159,273.7524 706.4159,292.7624" fill="none" id="ConfigLoader-to-Config" style="stroke:#000000;stroke-width:1;"/><polygon fill="#000000" points="707.47,297.65,709.4826,288.009,706.4159,292.7624,701.6625,289.6956,707.47,297.65" style="stroke:#000000;stroke-width:1;stroke-linejoin:miter;stroke-miterlimit:10;"/></g><!--reverse link Config to Panel--><g class="link" data-entity-1="ent0003" data-entity-2="ent0004" data-link-type="composition" data-source-line="54" id="lnk32"><path d="M711,344.39 C711,363.42 711,382.64 711,401.65" fill="none" id="Config-backto-Panel" style="stroke:#000000;stroke-width:1;"/><polygon fill="#000000" points="711,332.39,707,338.39,711,344.39,715,338.39,711,332.39" style="stroke:#000000;stroke-width:1;stroke-linejoin:miter;stroke-miterlimit:10;"/></g><!--reverse link Panel to Field--><g class="link" data-entity-1="ent0004" data-entity-2="ent0005" data-link-type="composition" data-source-line="55" id="lnk33"><path d="M711,448.45 C711,465.19 711,479 711,495.69" fill="none" id="Panel-backto-Field" style="stroke:#000000;stroke-width:1;"/><polygon fill="#000000" points="711,436.45,707,442.45,711,448.45,715,442.45,711,436.45" style="stroke:#000000;stroke-width:1;stroke-linejoin:miter;stroke-miterlimit:10;"/></g><!--link Engine to Config--><g class="link" data-entity-1="ent0007" data-entity-2="ent0003" data-link-type="dependency" data-source-line="57" id="lnk34"><path d="M1507.88,106.18 C1466.38,109.11 1393.37,119.1 1342,153 C1296.15,183.26 1315.68,224.71 1268,252 C1177.01,304.08 849.5096,312.3449 746.5796,313.6849" fill="none" id="Engine-to-Config" style="stroke:#000000;stroke-width:1;"/><polygon fill="#000000" points="741.58,313.75,750.6313,317.6325,746.5796,313.6849,750.5272,309.6332,741.58,313.75" style="stroke:#000000;stroke-width:1;stroke-linejoin:miter;stroke-miterlimit:10;"/></g><!--link Engine to InputResolver--><g class="link" data-entity-1="ent0007" data-entity-2="ent0009" data-link-type="dependency" data-source-line="58" id="lnk35"><path d="M1519.84,121.41 C1495.61,141.13 1459.0679,170.8738 1434.8879,190.5538" fill="none" id="Engine-to-InputResolver" style="stroke:#000000;stroke-width:1;"/><polygon fill="#000000" points="1431.01,193.71,1440.5152,191.1311,1434.8879,190.5538,1435.4653,184.9265,1431.01,193.71" style="stroke:#000000;stroke-width:1;stroke-linejoin:miter;stroke-miterlimit:10;"/></g><!--link Engine to Discovery--><g class="link" data-entity-1="ent0007" data-entity-2="ent0010" data-link-type="dependency" data-source-line="59" id="lnk36"><path d="M1540,121.41 C1540,141.13 1540,169.03 1540,188.71" fill="none" id="Engine-to-Discovery" style="stroke:#000000;stroke-width:1;"/><polygon fill="#000000" points="1540,193.71,1544,184.71,1540,188.71,1536,184.71,1540,193.71" style="stroke:#000000;stroke-width:1;stroke-linejoin:miter;stroke-miterlimit:10;"/></g><!--link Engine to Deriver--><g class="link" data-entity-1="ent0007" data-entity-2="ent0011" data-link-type="dependency" data-source-line="60" id="lnk37"><path d="M1561.36,121.33 C1572.63,130.28 1586.47,141.8 1598,153 C1611.41,166.03 1622.1323,178.2879 1631.8723,190.0579" fill="none" id="Engine-to-Deriver" style="stroke:#000000;stroke-width:1;"/><polygon fill="#000000" points="1635.06,193.91,1632.4038,184.4261,1631.8723,190.0579,1626.2405,189.5264,1635.06,193.91" style="stroke:#000000;stroke-width:1;stroke-linejoin:miter;stroke-miterlimit:10;"/></g><!--link Deriver to Transform--><g class="link" data-entity-1="ent0011" data-entity-2="ent0012" data-link-type="dependency" data-source-line="61" id="lnk38"><path d="M1648,228.39 C1648,247.42 1648,273.64 1648,292.65" fill="none" id="Deriver-to-Transform" style="stroke:#000000;stroke-width:1;"/><polygon fill="#000000" points="1648,297.65,1652,288.65,1648,292.65,1644,288.65,1648,297.65" style="stroke:#000000;stroke-width:1;stroke-linejoin:miter;stroke-miterlimit:10;"/></g><!--link Engine to ConditionEvaluator--><g class="link" data-entity-1="ent0007" data-entity-2="ent0013" data-link-type="dependency" data-source-line="62" id="lnk39"><path d="M1572.16,111.92 C1604.8,119.59 1656.32,133.51 1698,153 C1721.88,164.17 1742.7923,178.1772 1759.8123,190.6972" fill="none" id="Engine-to-ConditionEvaluator" style="stroke:#000000;stroke-width:1;"/><polygon fill="#000000" points="1763.84,193.66,1758.9604,185.1049,1759.8123,190.6972,1754.22,191.5491,1763.84,193.66" style="stroke:#000000;stroke-width:1;stroke-linejoin:miter;stroke-miterlimit:10;"/></g><!--link Engine to HandlerRegistry--><g class="link" data-entity-1="ent0007" data-entity-2="ent0015" data-link-type="dependency" data-source-line="63" id="lnk40"><path d="M1571.85,105.72 C1631.82,107.92 1764.89,116.85 1870,153 C1898.16,162.68 1923.2599,177.6113 1942.7999,190.7413" fill="none" id="Engine-to-HandlerRegistry" style="stroke:#000000;stroke-width:1;"/><polygon fill="#000000" points="1946.95,193.53,1941.7108,185.1903,1942.7999,190.7413,1937.2489,191.8305,1946.95,193.53" style="stroke:#000000;stroke-width:1;stroke-linejoin:miter;stroke-miterlimit:10;"/></g><!--link HandlerRegistry to HandlerInterface--><g class="link" data-entity-1="ent0015" data-entity-2="ent0016" data-link-type="dependency" data-source-line="64" id="lnk41"><path d="M1982.37,228.39 C1999.21,250.69 2025.6473,285.7196 2038.1273,302.2496" fill="none" id="HandlerRegistry-to-HandlerInterface" style="stroke:#000000;stroke-width:1;"/><polygon fill="#000000" points="2041.14,306.24,2038.9094,296.6471,2038.1273,302.2496,2032.5247,301.4674,2041.14,306.24" style="stroke:#000000;stroke-width:1;stroke-linejoin:miter;stroke-miterlimit:10;"/></g><!--link AbstractHandler to HandlerInterface--><g class="link" data-entity-1="ent0017" data-entity-2="ent0016" data-link-type="extension" data-source-line="65" id="lnk42"><path d="M2112.47,228.39 C2095.41,250.69 2076.5192,275.4155 2063.8692,291.9455" fill="none" id="AbstractHandler-to-HandlerInterface" style="stroke:#000000;stroke-width:1;stroke-dasharray:7,7;"/><polygon fill="none" points="2052.93,306.24,2068.6341,295.5919,2059.1044,288.2991,2052.93,306.24" style="stroke:#000000;stroke-width:1;stroke-linejoin:miter;stroke-miterlimit:10;"/></g><!--link Engine to Answers--><g class="link" data-entity-1="ent0007" data-entity-2="ent0020" data-link-type="dependency" data-source-line="66" id="lnk43"><path d="M1507.98,104.57 C1398.5,103.56 1040.16,104.16 938,153 C919.43,161.88 906.8719,176.0311 897.3219,189.5011" fill="none" id="Engine-to-Answers" style="stroke:#000000;stroke-width:1;"/><polygon fill="#000000" points="894.43,193.58,902.8984,188.5515,897.3219,189.5011,896.3722,183.9245,894.43,193.58" style="stroke:#000000;stroke-width:1;stroke-linejoin:miter;stroke-miterlimit:10;"/></g><!--link SchemaGenerator to Config--><g class="link" data-entity-1="ent0021" data-entity-2="ent0003" data-link-type="dependency" data-source-line="68" id="lnk44"><path d="M991.67,228.34 C975.86,236.17 956.21,245.29 938,252 C869.39,277.3 790.6191,296.4372 746.5091,306.3172" fill="none" id="SchemaGenerator-to-Config" style="stroke:#000000;stroke-width:1;"/><polygon fill="#000000" points="741.63,307.41,751.2867,309.3462,746.5091,306.3172,749.5381,301.5396,741.63,307.41" style="stroke:#000000;stroke-width:1;stroke-linejoin:miter;stroke-miterlimit:10;"/></g><!--link SchemaValidator to Config--><g class="link" data-entity-1="ent0022" data-entity-2="ent0003" data-link-type="dependency" data-source-line="69" id="lnk45"><path d="M1161.02,228.45 C1145.81,236.71 1126.39,246.17 1108,252 C975.66,293.93 814.1701,307.8162 746.5901,312.0662" fill="none" id="SchemaValidator-to-Config" style="stroke:#000000;stroke-width:1;"/><polygon fill="#000000" points="741.6,312.38,750.8333,315.8072,746.5901,312.0662,750.3312,307.823,741.6,312.38" style="stroke:#000000;stroke-width:1;stroke-linejoin:miter;stroke-miterlimit:10;"/></g><!--link PanelController to Config--><g class="link" data-entity-1="ent0024" data-entity-2="ent0003" data-link-type="dependency" data-source-line="71" id="lnk46"><path d="M481.47,104.55 C568.01,105.28 723.77,112.38 759,153 C787.83,186.24 773.23,210.37 759,252 C752.92,269.78 742.9179,282.7981 731.7879,294.3581" fill="none" id="PanelController-to-Config" style="stroke:#000000;stroke-width:1;"/><polygon fill="#000000" points="728.32,297.96,737.4437,294.2509,731.7879,294.3581,731.6807,288.7023,728.32,297.96" style="stroke:#000000;stroke-width:1;stroke-linejoin:miter;stroke-miterlimit:10;"/></g><!--link PanelController to Theme--><g class="link" data-entity-1="ent0024" data-entity-2="ent0025" data-link-type="dependency" data-source-line="72" id="lnk47"><path d="M364.42,109.06 C285.77,115.33 150.94,129.21 108,153 C90.88,162.49 79.7176,176.233 71.1576,189.453" fill="none" id="PanelController-to-Theme" style="stroke:#000000;stroke-width:1;"/><polygon fill="#000000" points="68.44,193.65,76.6892,188.2695,71.1576,189.453,69.974,183.9213,68.44,193.65" style="stroke:#000000;stroke-width:1;stroke-linejoin:miter;stroke-miterlimit:10;"/></g><!--link PanelController to WidgetFactory--><g class="link" data-entity-1="ent0024" data-entity-2="ent0026" data-link-type="dependency" data-source-line="73" id="lnk48"><path d="M364.61,115.74 C331.06,123.32 288.81,135.32 254,153 C232.92,163.7 215.6832,177.5505 201.6732,190.2605" fill="none" id="PanelController-to-WidgetFactory" style="stroke:#000000;stroke-width:1;"/><polygon fill="#000000" points="197.97,193.62,207.3233,190.5353,201.6732,190.2605,201.9481,184.6103,197.97,193.62" style="stroke:#000000;stroke-width:1;stroke-linejoin:miter;stroke-miterlimit:10;"/></g><!--link WidgetFactory to WidgetInterface--><g class="link" data-entity-1="ent0026" data-entity-2="ent0027" data-link-type="dependency" data-source-line="74" id="lnk49"><path d="M181,228.39 C181,250.69 181,284.71 181,301.24" fill="none" id="WidgetFactory-to-WidgetInterface" style="stroke:#000000;stroke-width:1;"/><polygon fill="#000000" points="181,306.24,185,297.24,181,301.24,177,297.24,181,306.24" style="stroke:#000000;stroke-width:1;stroke-linejoin:miter;stroke-miterlimit:10;"/></g><!--link PanelController to Navigator--><g class="link" data-entity-1="ent0024" data-entity-2="ent0028" data-link-type="dependency" data-source-line="75" id="lnk50"><path d="M403.63,121.35 C392.96,130.49 379.58,142.18 368,153 C353.68,166.38 341.472,178.5914 330.182,190.1614" fill="none" id="PanelController-to-Navigator" style="stroke:#000000;stroke-width:1;"/><polygon fill="#000000" points="326.69,193.74,335.8384,190.0921,330.182,190.1614,330.1127,184.505,326.69,193.74" style="stroke:#000000;stroke-width:1;stroke-linejoin:miter;stroke-miterlimit:10;"/></g><!--link PanelController to Terminal--><g class="link" data-entity-1="ent0024" data-entity-2="ent0029" data-link-type="dependency" data-source-line="76" id="lnk51"><path d="M423,121.41 C423,141.13 423,169.03 423,188.71" fill="none" id="PanelController-to-Terminal" style="stroke:#000000;stroke-width:1;"/><polygon fill="#000000" points="423,193.71,427,184.71,423,188.71,419,184.71,423,193.71" style="stroke:#000000;stroke-width:1;stroke-linejoin:miter;stroke-miterlimit:10;"/></g><!--link PanelController to KeyParser--><g class="link" data-entity-1="ent0024" data-entity-2="ent0030" data-link-type="dependency" data-source-line="77" id="lnk52"><path d="M442.27,121.46 C452.9,130.64 466.29,142.33 478,153 C492.77,166.45 505.5901,178.63 517.5101,190.12" fill="none" id="PanelController-to-KeyParser" style="stroke:#000000;stroke-width:1;"/><polygon fill="#000000" points="521.11,193.59,517.4062,184.4641,517.5101,190.12,511.8542,190.2239,521.11,193.59" style="stroke:#000000;stroke-width:1;stroke-linejoin:miter;stroke-miterlimit:10;"/></g><!--link PanelController to Answers--><g class="link" data-entity-1="ent0024" data-entity-2="ent0020" data-link-type="dependency" data-source-line="78" id="lnk53"><path d="M481.46,107.78 C576.77,113.03 760.91,126.33 820,153 C840.48,162.24 855.7586,176.6637 867.5586,190.0137" fill="none" id="PanelController-to-Answers" style="stroke:#000000;stroke-width:1;"/><polygon fill="#000000" points="870.87,193.76,867.9066,184.3675,867.5586,190.0137,861.9125,189.6657,870.87,193.76" style="stroke:#000000;stroke-width:1;stroke-linejoin:miter;stroke-miterlimit:10;"/></g><?plantuml-src bPF9Rjim48RlUeffUWWGm7RR840Ne42QI4dG8WqIDpqKEOp5iKo48eKX9TTTthsKQ3bQuaDFfkR_P-7myo48fieKTfQMrfbS_YA62QGcBumcxG0vNKb7gIkPfj4Xt63wY1bPo2MpON0h0ilf36ov49AzqR0a-y4dibbRi2kpRamvIWs22jA2TEejTRLRoaWJeoEWYdW3T_SNi9PkzHwWKAXTcIkOE5jb84ngPzrfPaVJmilH2ryzfzekTMGVfIwGCOU57pHZKsfnPfGVT5qdTdH1IooLIunsr-ZpBqbLv6IA7OzTeJ1hgJDOehBTxDs2xjn64TJtHfqfYfnq_li_bXf5HLWf79mPlPHPwTSXZJw0b_5nyYOvXzyHm8-WVJ4eY1-U0itn1ZMfvfH8Kk8X-jihokHh9Kbo7ByAjMATIKrzsorPeygsyTla97uNp5UwA5sZLjlEvzAcfdwjy4KiMsNEgEtISDvEA6HTCQvGbUZ1wBUyH2qKiQsdEuvFafFGS1lsQ4ZhGXEf7V4IK_zAGRng0tN2wSBxC7LRhUtjwAVhD_nQEd-N-dvdSPAy3krEjLtx8PgikzIZX1S1ISETs3qgASPNQERmhVq6OFxjgjbp_2cEG-dcNUf9sAXsi7aDQtFwBaL6Bi7w7pEuPP1wbxp6IcQxeUR4kTGO7lqpRMwGBONP-gJ0PFBnYPNs04UJoGwRxM-8RG6AMaO6-RteW8o-s85a8BIyx4uXtc5dr7o4KTyn8cOKQNmZTaRam7JwvpbVhziEc6Z4os1RGtJwSZJYOv3-lBm5Q8ywW6hmtNY6SEsfr05ktoGx2FSOEc3kSRIx_0S0?></g></svg>