<svg xmlns="http://www.w3.org/2000/svg" xmlns:xlink="http://www.w3.org/1999/xlink" contentStyleType="text/css" data-diagram-type="DESCRIPTION" height="561px" preserveAspectRatio="none" style="width:2351px;height:561px;background:#FFFFFF;" version="1.1" viewBox="0 0 2351 561" width="2351px" zoomAndPan="magnify"><?plantuml 1.2026.6?><defs/><g><g class="title" data-source-line="9"><text fill="#000000" font-family="Helvetica" font-size="22" font-weight="700" lengthAdjust="spacing" textLength="477.9951" x="935.6174" y="31.9404">drevops/customizer - component architecture</text></g><!--cluster Configuration--><g class="cluster" data-qualified-name="Configuration" data-source-line="11" id="ent0001"><path d="M529.73,161 L622.4888,161 A3.75,3.75 0 0 1 624.9888,163.5 L631.9888,181 L660.73,181 A2.5,2.5 0 0 1 663.23,183.5 L663.23,543.5 A2.5,2.5 0 0 1 660.73,546 L529.73,546 A2.5,2.5 0 0 1 527.23,543.5 L527.23,163.5 A2.5,2.5 0 0 1 529.73,161" fill="#E3F2FD" style="stroke:#000000;stroke-width:1;"/><line style="stroke:#000000;stroke-width:1;" x1="527.23" x2="631.9888" y1="181" y2="181"/><text fill="#000000" font-family="Helvetica" font-size="14" font-weight="700" lengthAdjust="spacing" textLength="91.7588" x="531.23" y="173.7803">Configuration</text></g><!--cluster Core--><g class="cluster" data-qualified-name="Core" data-source-line="18" id="ent0006"><path d="M839.73,54 L872.6265,54 A3.75,3.75 0 0 1 875.1265,56.5 L882.1265,74 L1048.73,74 A2.5,2.5 0 0 1 1051.23,76.5 L1051.23,134.5 A2.5,2.5 0 0 1 1048.73,137 L839.73,137 A2.5,2.5 0 0 1 837.23,134.5 L837.23,56.5 A2.5,2.5 0 0 1 839.73,54" fill="#FFF3E0" style="stroke:#000000;stroke-width:1;"/><line style="stroke:#000000;stroke-width:1;" x1="837.23" x2="882.1265" y1="74" y2="74"/><text fill="#000000" font-family="Helvetica" font-size="14" font-weight="700" lengthAdjust="spacing" textLength="31.8965" x="841.23" y="66.7803">Core</text></g><!--cluster Resolution--><g class="cluster" data-qualified-name="Resolution" data-source-line="23" id="ent0009"><path d="M1200.73,161 L1274.0611,161 A3.75,3.75 0 0 1 1276.5611,163.5 L1283.5611,181 L1723.73,181 A2.5,2.5 0 0 1 1726.23,183.5 L1726.23,345.5 A2.5,2.5 0 0 1 1723.73,348 L1200.73,348 A2.5,2.5 0 0 1 1198.23,345.5 L1198.23,163.5 A2.5,2.5 0 0 1 1200.73,161" fill="#E8F5E9" style="stroke:#000000;stroke-width:1;"/><line style="stroke:#000000;stroke-width:1;" x1="1198.23" x2="1283.5611" y1="181" y2="181"/><text fill="#000000" font-family="Helvetica" font-size="14" font-weight="700" lengthAdjust="spacing" textLength="72.3311" x="1202.23" y="173.7803">Resolution</text></g><!--cluster Handlers--><g class="cluster" data-qualified-name="Handlers" data-source-line="31" id="ent0015"><path d="M45.73,161 L106.6402,161 A3.75,3.75 0 0 1 109.1402,163.5 L116.1402,181 L450.73,181 A2.5,2.5 0 0 1 453.23,183.5 L453.23,355.5 A2.5,2.5 0 0 1 450.73,358 L45.73,358 A2.5,2.5 0 0 1 43.23,355.5 L43.23,163.5 A2.5,2.5 0 0 1 45.73,161" fill="#F3E5F5" style="stroke:#000000;stroke-width:1;"/><line style="stroke:#000000;stroke-width:1;" x1="43.23" x2="116.1402" y1="181" y2="181"/><text fill="#000000" font-family="Helvetica" font-size="14" font-weight="700" lengthAdjust="spacing" textLength="59.9102" x="47.23" y="173.7803">Handlers</text></g><!--cluster Output--><g class="cluster" data-qualified-name="Output" data-source-line="38" id="ent0020"><path d="M689.73,161 L736.5991,161 A3.75,3.75 0 0 1 739.0991,163.5 L746.0991,181 L1121.73,181 A2.5,2.5 0 0 1 1124.23,183.5 L1124.23,241.5 A2.5,2.5 0 0 1 1121.73,244 L689.73,244 A2.5,2.5 0 0 1 687.23,241.5 L687.23,163.5 A2.5,2.5 0 0 1 689.73,161" fill="#ECEFF1" style="stroke:#000000;stroke-width:1;"/><line style="stroke:#000000;stroke-width:1;" x1="687.23" x2="746.0991" y1="181" y2="181"/><text fill="#000000" font-family="Helvetica" font-size="14" font-weight="700" lengthAdjust="spacing" textLength="45.8691" x="691.23" y="173.7803">Output</text></g><!--cluster Interactive TUI--><g class="cluster" data-qualified-name="Interactive TUI" data-source-line="44" id="ent0024"><path d="M1752.73,54 L1850.2056,54 A3.75,3.75 0 0 1 1852.7056,56.5 L1859.7056,74 L2333.73,74 A2.5,2.5 0 0 1 2336.23,76.5 L2336.23,355.5 A2.5,2.5 0 0 1 2333.73,358 L1752.73,358 A2.5,2.5 0 0 1 1750.23,355.5 L1750.23,56.5 A2.5,2.5 0 0 1 1752.73,54" fill="#FFEBEE" style="stroke:#000000;stroke-width:1;"/><line style="stroke:#000000;stroke-width:1;" x1="1750.23" x2="1859.7056" y1="74" y2="74"/><text fill="#000000" font-family="Helvetica" font-size="14" font-weight="700" lengthAdjust="spacing" textLength="96.4756" x="1754.23" y="66.7803">Interactive TUI</text></g><!--entity ConfigLoader--><g class="entity" data-qualified-name="Configuration.ConfigLoader" data-source-line="12" id="ent0002"><rect fill="#FFFFFF" height="34" rx="2.5" ry="2.5" style="stroke:#000000;stroke-width:1;" width="104.0615" x="543.2" y="194"/><text fill="#000000" font-family="Helvetica" font-size="14" lengthAdjust="spacing" textLength="84.0615" x="553.2" y="214.7803">ConfigLoader</text></g><!--entity Config--><g class="entity" data-qualified-name="Configuration.Config" data-source-line="13" id="ent0003"><rect fill="#FFFFFF" height="34" rx="2.5" ry="2.5" style="stroke:#000000;stroke-width:1;" width="60.4688" x="587" y="298"/><text fill="#000000" font-family="Helvetica" font-size="14" lengthAdjust="spacing" textLength="40.4688" x="597" y="318.7803">Config</text></g><!--entity Panel--><g class="entity" data-qualified-name="Configuration.Panel" data-source-line="14" id="ent0004"><rect fill="#FFFFFF" height="34" rx="2.5" ry="2.5" style="stroke:#000000;stroke-width:1;" width="55.8066" x="589.33" y="402"/><text fill="#000000" font-family="Helvetica" font-size="14" lengthAdjust="spacing" textLength="35.8066" x="599.33" y="422.7803">Panel</text></g><!--entity Field--><g class="entity" data-qualified-name="Configuration.Field" data-source-line="15" id="ent0005"><rect fill="#FFFFFF" height="34" rx="2.5" ry="2.5" style="stroke:#000000;stroke-width:1;" width="50.3447" x="592.06" y="496"/><text fill="#000000" font-family="Helvetica" font-size="14" lengthAdjust="spacing" textLength="30.3447" x="602.06" y="516.7803">Field</text></g><!--entity Engine--><g class="entity" data-qualified-name="Core.Engine" data-source-line="19" id="ent0007"><rect fill="#FFFFFF" height="34" rx="2.5" ry="2.5" style="stroke:#000000;stroke-width:1;" width="63.5928" x="971.43" y="87"/><text fill="#000000" font-family="Helvetica" font-size="14" lengthAdjust="spacing" textLength="43.5928" x="981.43" y="107.7803">Engine</text></g><!--entity Processor--><g class="entity" data-qualified-name="Core.Processor" data-source-line="20" id="ent0008"><rect fill="#FFFFFF" height="34" rx="2.5" ry="2.5" style="stroke:#000000;stroke-width:1;" width="83.0205" x="853.72" y="87"/><text fill="#000000" font-family="Helvetica" font-size="14" lengthAdjust="spacing" textLength="63.0205" x="863.72" y="107.7803">Processor</text></g><!--entity InputResolver--><g class="entity" data-qualified-name="Resolution.InputResolver" data-source-line="24" id="ent0010"><rect fill="#FFFFFF" height="34" rx="2.5" ry="2.5" style="stroke:#000000;stroke-width:1;" width="106.3789" x="1214.04" y="194"/><text fill="#000000" font-family="Helvetica" font-size="14" lengthAdjust="spacing" textLength="86.3789" x="1224.04" y="214.7803">InputResolver</text></g><!--entity Discovery--><g class="entity" data-qualified-name="Resolution.Discovery" data-source-line="25" id="ent0011"><rect fill="#FFFFFF" height="34" rx="2.5" ry="2.5" style="stroke:#000000;stroke-width:1;" width="81.4551" x="1355.5" y="194"/><text fill="#000000" font-family="Helvetica" font-size="14" lengthAdjust="spacing" textLength="61.4551" x="1365.5" y="214.7803">Discovery</text></g><!--entity Deriver--><g class="entity" data-qualified-name="Resolution.Deriver" data-source-line="26" id="ent0012"><rect fill="#FFFFFF" height="34" rx="2.5" ry="2.5" style="stroke:#000000;stroke-width:1;" width="65.1172" x="1471.67" y="194"/><text fill="#000000" font-family="Helvetica" font-size="14" lengthAdjust="spacing" textLength="45.1172" x="1481.67" y="214.7803">Deriver</text></g><!--entity Transform--><g class="entity" data-qualified-name="Resolution.Transform" data-source-line="27" id="ent0013"><rect fill="#FFFFFF" height="34" rx="2.5" ry="2.5" style="stroke:#000000;stroke-width:1;" width="83.7861" x="1462.34" y="298"/><text fill="#000000" font-family="Helvetica" font-size="14" lengthAdjust="spacing" textLength="63.7861" x="1472.34" y="318.7803">Transform</text></g><!--entity ConditionEvaluator--><g class="entity" data-qualified-name="Resolution.ConditionEvaluator" data-source-line="28" id="ent0014"><rect fill="#FFFFFF" height="34" rx="2.5" ry="2.5" style="stroke:#000000;stroke-width:1;" width="138.2959" x="1572.08" y="194"/><text fill="#000000" font-family="Helvetica" font-size="14" lengthAdjust="spacing" textLength="118.2959" x="1582.08" y="214.7803">ConditionEvaluator</text></g><!--entity HandlerRegistry--><g class="entity" data-qualified-name="Handlers.HandlerRegistry" data-source-line="32" id="ent0016"><rect fill="#FFFFFF" height="34" rx="2.5" ry="2.5" style="stroke:#000000;stroke-width:1;" width="120.3721" x="59.04" y="194"/><text fill="#000000" font-family="Helvetica" font-size="14" lengthAdjust="spacing" textLength="100.3721" x="69.04" y="214.7803">HandlerRegistry</text></g><!--entity HandlerInterface--><g class="entity" data-qualified-name="Handlers.HandlerInterface" data-source-line="33" id="ent0017"><ellipse cx="119.23" cy="315" fill="#FFFFFF" rx="8" ry="8" style="stroke:#000000;stroke-width:1;"/><text fill="#000000" font-family="Helvetica" font-size="14" lengthAdjust="spacing" textLength="103.5029" x="67.4785" y="342.7803">HandlerInterface</text></g><!--entity AbstractHandler--><g class="entity" data-qualified-name="Handlers.AbstractHandler" data-source-line="34" id="ent0018"><rect fill="#FFFFFF" height="34" rx="2.5" ry="2.5" style="stroke:#000000;stroke-width:1;" width="120.3789" x="214.04" y="194"/><text fill="#000000" font-family="Helvetica" font-size="14" lengthAdjust="spacing" textLength="100.3789" x="224.04" y="214.7803">AbstractHandler</text></g><!--entity Context--><g class="entity" data-qualified-name="Handlers.Context" data-source-line="35" id="ent0019"><rect fill="#FFFFFF" height="34" rx="2.5" ry="2.5" style="stroke:#000000;stroke-width:1;" width="68.248" x="369.11" y="194"/><text fill="#000000" font-family="Helvetica" font-size="14" lengthAdjust="spacing" textLength="48.248" x="379.11" y="214.7803">Context</text></g><!--entity Answers--><g class="entity" data-qualified-name="Output.Answers" data-source-line="39" id="ent0021"><rect fill="#FFFFFF" height="34" rx="2.5" ry="2.5" style="stroke:#000000;stroke-width:1;" width="73.6826" x="703.39" y="194"/><text fill="#000000" font-family="Helvetica" font-size="14" lengthAdjust="spacing" textLength="53.6826" x="713.39" y="214.7803">Answers</text></g><!--entity SchemaGenerator--><g class="entity" data-qualified-name="Output.SchemaGenerator" data-source-line="40" id="ent0022"><rect fill="#FFFFFF" height="34" rx="2.5" ry="2.5" style="stroke:#000000;stroke-width:1;" width="134.3926" x="812.03" y="194"/><text fill="#000000" font-family="Helvetica" font-size="14" lengthAdjust="spacing" textLength="114.3926" x="822.03" y="214.7803">SchemaGenerator</text></g><!--entity SchemaValidator--><g class="entity" data-qualified-name="Output.SchemaValidator" data-source-line="41" id="ent0023"><rect fill="#FFFFFF" height="34" rx="2.5" ry="2.5" style="stroke:#000000;stroke-width:1;" width="126.6133" x="981.92" y="194"/><text fill="#000000" font-family="Helvetica" font-size="14" lengthAdjust="spacing" textLength="106.6133" x="991.92" y="214.7803">SchemaValidator</text></g><!--entity PanelController--><g class="entity" data-qualified-name="Interactive TUI.PanelController" data-source-line="45" id="ent0025"><rect fill="#FFFFFF" height="34" rx="2.5" ry="2.5" style="stroke:#000000;stroke-width:1;" width="116.4961" x="1861.98" y="87"/><text fill="#000000" font-family="Helvetica" font-size="14" lengthAdjust="spacing" textLength="96.4961" x="1871.98" y="107.7803">PanelController</text></g><!--entity Theme--><g class="entity" data-qualified-name="Interactive TUI.Theme" data-source-line="46" id="ent0026"><rect fill="#FFFFFF" height="34" rx="2.5" ry="2.5" style="stroke:#000000;stroke-width:1;" width="63.5723" x="1766.44" y="194"/><text fill="#000000" font-family="Helvetica" font-size="14" lengthAdjust="spacing" textLength="43.5723" x="1776.44" y="214.7803">Theme</text></g><!--entity WidgetFactory--><g class="entity" data-qualified-name="Interactive TUI.WidgetFactory" data-source-line="47" id="ent0027"><rect fill="#FFFFFF" height="34" rx="2.5" ry="2.5" style="stroke:#000000;stroke-width:1;" width="110.248" x="1865.11" y="194"/><text fill="#000000" font-family="Helvetica" font-size="14" lengthAdjust="spacing" textLength="90.248" x="1875.11" y="214.7803">WidgetFactory</text></g><!--entity WidgetInterface--><g class="entity" data-qualified-name="Interactive TUI.WidgetInterface" data-source-line="48" id="ent0028"><ellipse cx="1920.23" cy="315" fill="#FFFFFF" rx="8" ry="8" style="stroke:#000000;stroke-width:1;"/><text fill="#000000" font-family="Helvetica" font-size="14" lengthAdjust="spacing" textLength="98.0479" x="1871.2061" y="342.7803">WidgetInterface</text></g><!--entity Navigator--><g class="entity" data-qualified-name="Interactive TUI.Navigator" data-source-line="49" id="ent0029"><rect fill="#FFFFFF" height="34" rx="2.5" ry="2.5" style="stroke:#000000;stroke-width:1;" width="79.917" x="2010.27" y="194"/><text fill="#000000" font-family="Helvetica" font-size="14" lengthAdjust="spacing" textLength="59.917" x="2020.27" y="214.7803">Navigator</text></g><!--entity Terminal--><g class="entity" data-qualified-name="Interactive TUI.Terminal" data-source-line="50" id="ent0030"><rect fill="#FFFFFF" height="34" rx="2.5" ry="2.5" style="stroke:#000000;stroke-width:1;" width="74.4551" x="2125" y="194"/><text fill="#000000" font-family="Helvetica" font-size="14" lengthAdjust="spacing" textLength="54.4551" x="2135" y="214.7803">Terminal</text></g><!--entity KeyParser--><g class="entity" data-qualified-name="Interactive TUI.KeyParser" data-source-line="51" id="ent0031"><rect fill="#FFFFFF" height="34" rx="2.5" ry="2.5" style="stroke:#000000;stroke-width:1;" width="85.3584" x="2234.55" y="194"/><text fill="#000000" font-family="Helvetica" font-size="14" lengthAdjust="spacing" textLength="65.3584" x="2244.55" y="214.7803">KeyParser</text></g><!--link ConfigLoader to Config--><g class="link" data-entity-1="ent0002" data-entity-2="ent0003" data-link-type="dependency" data-source-line="54" id="lnk32"><path d="M598.76,228.39 C602.87,247.42 608.5459,273.7524 612.6459,292.7624" fill="none" id="ConfigLoader-to-Config" style="stroke:#000000;stroke-width:1;"/><polygon fill="#000000" points="613.7,297.65,615.7126,288.009,612.6459,292.7624,607.8925,289.6956,613.7,297.65" style="stroke:#000000;stroke-width:1;stroke-linejoin:miter;stroke-miterlimit:10;"/></g><!--reverse link Config to Panel--><g class="link" data-entity-1="ent0003" data-entity-2="ent0004" data-link-type="composition" data-source-line="55" id="lnk33"><path d="M617.23,344.39 C617.23,363.42 617.23,382.64 617.23,401.65" fill="none" id="Config-backto-Panel" style="stroke:#000000;stroke-width:1;"/><polygon fill="#000000" points="617.23,332.39,613.23,338.39,617.23,344.39,621.23,338.39,617.23,332.39" style="stroke:#000000;stroke-width:1;stroke-linejoin:miter;stroke-miterlimit:10;"/></g><!--reverse link Panel to Field--><g class="link" data-entity-1="ent0004" data-entity-2="ent0005" data-link-type="composition" data-source-line="56" id="lnk34"><path d="M617.23,448.45 C617.23,465.19 617.23,479 617.23,495.69" fill="none" id="Panel-backto-Field" style="stroke:#000000;stroke-width:1;"/><polygon fill="#000000" points="617.23,436.45,613.23,442.45,617.23,448.45,621.23,442.45,617.23,436.45" style="stroke:#000000;stroke-width:1;stroke-linejoin:miter;stroke-miterlimit:10;"/></g><!--link Engine to Config--><g class="link" data-entity-1="ent0007" data-entity-2="ent0003" data-link-type="dependency" data-source-line="58" id="lnk35"><path d="M988.63,121.37 C979.68,130.16 967.43,140.16 954.23,145 C931.85,153.21 541.93,135.99 525.23,153 C494.41,184.4 504.57,213.15 525.23,252 C538.17,276.32 560.8135,290.7294 582.2935,300.5594" fill="none" id="Engine-to-Config" style="stroke:#000000;stroke-width:1;"/><polygon fill="#000000" points="586.84,302.64,580.3208,295.2576,582.2935,300.5594,576.9917,302.5321,586.84,302.64" style="stroke:#000000;stroke-width:1;stroke-linejoin:miter;stroke-miterlimit:10;"/></g><!--link Engine to InputResolver--><g class="link" data-entity-1="ent0007" data-entity-2="ent0010" data-link-type="dependency" data-source-line="59" id="lnk36"><path d="M1035.34,117.72 C1059.72,127.39 1094.1,141.02 1124.23,153 C1158.5,166.63 1192.7357,180.2778 1221.2957,191.6678" fill="none" id="Engine-to-InputResolver" style="stroke:#000000;stroke-width:1;"/><polygon fill="#000000" points="1225.94,193.52,1219.062,186.4706,1221.2957,191.6678,1216.0985,193.9015,1225.94,193.52" style="stroke:#000000;stroke-width:1;stroke-linejoin:miter;stroke-miterlimit:10;"/></g><!--link Engine to Discovery--><g class="link" data-entity-1="ent0007" data-entity-2="ent0011" data-link-type="dependency" data-source-line="60" id="lnk37"><path d="M1035.37,107.05 C1108.53,112.12 1285.24,126.78 1338.23,153 C1357.21,162.39 1370.7488,176.4359 1381.2888,189.6959" fill="none" id="Engine-to-Discovery" style="stroke:#000000;stroke-width:1;"/><polygon fill="#000000" points="1384.4,193.61,1381.9311,184.0756,1381.2888,189.6959,1375.6685,189.0536,1384.4,193.61" style="stroke:#000000;stroke-width:1;stroke-linejoin:miter;stroke-miterlimit:10;"/></g><!--link Engine to Deriver--><g class="link" data-entity-1="ent0007" data-entity-2="ent0012" data-link-type="dependency" data-source-line="61" id="lnk38"><path d="M1035.22,105.42 C1125.59,107.06 1381.01,115.03 1454.23,153 C1471.88,162.15 1483.3744,176.1482 1492.0744,189.5282" fill="none" id="Engine-to-Deriver" style="stroke:#000000;stroke-width:1;"/><polygon fill="#000000" points="1494.8,193.72,1493.2473,183.9943,1492.0744,189.5282,1486.5405,188.3553,1494.8,193.72" style="stroke:#000000;stroke-width:1;stroke-linejoin:miter;stroke-miterlimit:10;"/></g><!--link Deriver to Transform--><g class="link" data-entity-1="ent0012" data-entity-2="ent0013" data-link-type="dependency" data-source-line="62" id="lnk39"><path d="M1504.23,228.39 C1504.23,247.42 1504.23,273.64 1504.23,292.65" fill="none" id="Deriver-to-Transform" style="stroke:#000000;stroke-width:1;"/><polygon fill="#000000" points="1504.23,297.65,1508.23,288.65,1504.23,292.65,1500.23,288.65,1504.23,297.65" style="stroke:#000000;stroke-width:1;stroke-linejoin:miter;stroke-miterlimit:10;"/></g><!--link Engine to ConditionEvaluator--><g class="link" data-entity-1="ent0007" data-entity-2="ent0014" data-link-type="dependency" data-source-line="63" id="lnk40"><path d="M1035.38,105.75 C1138.09,108.45 1457.26,119.41 1554.23,153 C1579.99,161.92 1601.7359,177.0137 1618.4359,190.4637" fill="none" id="Engine-to-ConditionEvaluator" style="stroke:#000000;stroke-width:1;"/><polygon fill="#000000" points="1622.33,193.6,1617.8296,184.8395,1618.4359,190.4637,1612.8116,191.07,1622.33,193.6" style="stroke:#000000;stroke-width:1;stroke-linejoin:miter;stroke-miterlimit:10;"/></g><!--link Engine to HandlerRegistry--><g class="link" data-entity-1="ent0007" data-entity-2="ent0016" data-link-type="dependency" data-source-line="64" id="lnk41"><path d="M988.64,121.41 C979.7,130.21 967.45,140.21 954.23,145 C914.64,159.35 236.15,139.6 196.23,153 C172.11,161.1 152.9235,176.4242 138.4935,190.2242" fill="none" id="Engine-to-HandlerRegistry" style="stroke:#000000;stroke-width:1;"/><polygon fill="#000000" points="134.88,193.68,144.149,190.3504,138.4935,190.2242,138.6197,184.5688,134.88,193.68" style="stroke:#000000;stroke-width:1;stroke-linejoin:miter;stroke-miterlimit:10;"/></g><!--link HandlerRegistry to HandlerInterface--><g class="link" data-entity-1="ent0016" data-entity-2="ent0017" data-link-type="dependency" data-source-line="65" id="lnk42"><path d="M119.23,228.39 C119.23,250.69 119.23,284.71 119.23,301.24" fill="none" id="HandlerRegistry-to-HandlerInterface" style="stroke:#000000;stroke-width:1;"/><polygon fill="#000000" points="119.23,306.24,123.23,297.24,119.23,301.24,115.23,297.24,119.23,306.24" style="stroke:#000000;stroke-width:1;stroke-linejoin:miter;stroke-miterlimit:10;"/></g><!--link AbstractHandler to HandlerInterface--><g class="link" data-entity-1="ent0018" data-entity-2="ent0017" data-link-type="extension" data-source-line="66" id="lnk43"><path d="M249.33,228.39 C214.07,251.59 166.3466,282.9955 143.1866,298.2355" fill="none" id="AbstractHandler-to-HandlerInterface" style="stroke:#000000;stroke-width:1;stroke-dasharray:7,7;"/><polygon fill="none" points="128.15,308.13,146.4847,303.2477,139.8884,293.2233,128.15,308.13" style="stroke:#000000;stroke-width:1;stroke-linejoin:miter;stroke-miterlimit:10;"/></g><!--link Engine to Answers--><g class="link" data-entity-1="ent0007" data-entity-2="ent0021" data-link-type="dependency" data-source-line="67" id="lnk44"><path d="M988.57,121.21 C979.6,129.95 967.35,139.95 954.23,145 C921,157.78 826.57,138.12 794.23,153 C775.41,161.66 762.7641,176.0316 753.2741,189.6116" fill="none" id="Engine-to-Answers" style="stroke:#000000;stroke-width:1;"/><polygon fill="#000000" points="750.41,193.71,758.8441,188.6241,753.2741,189.6116,752.2866,184.0416,750.41,193.71" style="stroke:#000000;stroke-width:1;stroke-linejoin:miter;stroke-miterlimit:10;"/></g><!--link Processor to HandlerInterface--><g class="link" data-entity-1="ent0008" data-entity-2="ent0017" data-link-type="dependency" data-source-line="68" id="lnk45"><path d="M853.29,105.77 C685.38,109.08 69.41,123.19 41.23,153 C11,184.97 22.11,212.37 41.23,252 C55.81,282.22 88.5484,300.1587 105.7484,308.0787" fill="none" id="Processor-to-HandlerInterface" style="stroke:#000000;stroke-width:1;"/><polygon fill="#000000" points="110.29,310.17,103.788,302.7724,105.7484,308.0787,100.442,310.039,110.29,310.17" style="stroke:#000000;stroke-width:1;stroke-linejoin:miter;stroke-miterlimit:10;"/></g><!--link SchemaGenerator to Config--><g class="link" data-entity-1="ent0022" data-entity-2="ent0003" data-link-type="dependency" data-source-line="70" id="lnk46"><path d="M846.48,228.38 C830.83,235.95 811.74,244.84 794.23,252 C743.6,272.71 687.9588,291.4059 652.4088,302.8659" fill="none" id="SchemaGenerator-to-Config" style="stroke:#000000;stroke-width:1;"/><polygon fill="#000000" points="647.65,304.4,657.4432,305.4457,652.4088,302.8659,654.9887,297.8316,647.65,304.4" style="stroke:#000000;stroke-width:1;stroke-linejoin:miter;stroke-miterlimit:10;"/></g><!--link SchemaValidator to Config--><g class="link" data-entity-1="ent0023" data-entity-2="ent0003" data-link-type="dependency" data-source-line="71" id="lnk47"><path d="M1016.82,228.49 C1001.65,236.66 982.41,246.02 964.23,252 C850.87,289.28 713.8482,305.2741 652.6182,311.0041" fill="none" id="SchemaValidator-to-Config" style="stroke:#000000;stroke-width:1;"/><polygon fill="#000000" points="647.64,311.47,656.9735,314.614,652.6182,311.0041,656.2282,306.6488,647.64,311.47" style="stroke:#000000;stroke-width:1;stroke-linejoin:miter;stroke-miterlimit:10;"/></g><!--link PanelController to Config--><g class="link" data-entity-1="ent0025" data-entity-2="ent0003" data-link-type="dependency" data-source-line="73" id="lnk48"><path d="M1861.7,106.1 C1700.1,109.52 1255.87,121.69 1198.23,153 C1149.96,179.22 1171.76,224.45 1124.23,252 C1042.33,299.47 749.3983,310.7512 652.7383,313.2412" fill="none" id="PanelController-to-Config" style="stroke:#000000;stroke-width:1;"/><polygon fill="#000000" points="647.74,313.37,656.84,317.1369,652.7383,313.2412,656.634,309.1396,647.74,313.37" style="stroke:#000000;stroke-width:1;stroke-linejoin:miter;stroke-miterlimit:10;"/></g><!--link PanelController to Theme--><g class="link" data-entity-1="ent0025" data-entity-2="ent0026" data-link-type="dependency" data-source-line="74" id="lnk49"><path d="M1891.53,121.29 C1877.51,129.87 1860.79,141.08 1847.23,153 C1833.22,165.32 1822.6322,177.7074 1813.3122,189.7374" fill="none" id="PanelController-to-Theme" style="stroke:#000000;stroke-width:1;"/><polygon fill="#000000" points="1810.25,193.69,1818.924,189.0251,1813.3122,189.7374,1812.5999,184.1256,1810.25,193.69" style="stroke:#000000;stroke-width:1;stroke-linejoin:miter;stroke-miterlimit:10;"/></g><!--link PanelController to WidgetFactory--><g class="link" data-entity-1="ent0025" data-entity-2="ent0027" data-link-type="dependency" data-source-line="75" id="lnk50"><path d="M1920.23,121.41 C1920.23,141.13 1920.23,169.03 1920.23,188.71" fill="none" id="PanelController-to-WidgetFactory" style="stroke:#000000;stroke-width:1;"/><polygon fill="#000000" points="1920.23,193.71,1924.23,184.71,1920.23,188.71,1916.23,184.71,1920.23,193.71" style="stroke:#000000;stroke-width:1;stroke-linejoin:miter;stroke-miterlimit:10;"/></g><!--link WidgetFactory to WidgetInterface--><g class="link" data-entity-1="ent0027" data-entity-2="ent0028" data-link-type="dependency" data-source-line="76" id="lnk51"><path d="M1920.23,228.39 C1920.23,250.69 1920.23,284.71 1920.23,301.24" fill="none" id="WidgetFactory-to-WidgetInterface" style="stroke:#000000;stroke-width:1;"/><polygon fill="#000000" points="1920.23,306.24,1924.23,297.24,1920.23,301.24,1916.23,297.24,1920.23,306.24" style="stroke:#000000;stroke-width:1;stroke-linejoin:miter;stroke-miterlimit:10;"/></g><!--link PanelController to Navigator--><g class="link" data-entity-1="ent0025" data-entity-2="ent0029" data-link-type="dependency" data-source-line="77" id="lnk52"><path d="M1947.85,121.3 C1961.91,130.05 1979,141.41 1993.23,153 C2008.64,165.55 2021.0861,178.0576 2032.1461,189.9576" fill="none" id="PanelController-to-Navigator" style="stroke:#000000;stroke-width:1;"/><polygon fill="#000000" points="2035.55,193.62,2032.3529,184.3045,2032.1461,189.9576,2026.493,189.7507,2035.55,193.62" style="stroke:#000000;stroke-width:1;stroke-linejoin:miter;stroke-miterlimit:10;"/></g><!--link PanelController to Terminal--><g class="link" data-entity-1="ent0025" data-entity-2="ent0030" data-link-type="dependency" data-source-line="78" id="lnk53"><path d="M1978.58,111.56 C2017.15,117.86 2067.69,129.98 2107.23,153 C2124.82,163.24 2137.3752,176.7472 2147.4352,189.6472" fill="none" id="PanelController-to-Terminal" style="stroke:#000000;stroke-width:1;"/><polygon fill="#000000" points="2150.51,193.59,2148.1296,184.0331,2147.4352,189.6472,2141.8212,188.9528,2150.51,193.59" style="stroke:#000000;stroke-width:1;stroke-linejoin:miter;stroke-miterlimit:10;"/></g><!--link PanelController to KeyParser--><g class="link" data-entity-1="ent0025" data-entity-2="ent0031" data-link-type="dependency" data-source-line="79" id="lnk54"><path d="M1978.85,104.43 C2041.09,106.05 2140.83,115.15 2217.23,153 C2236.54,162.57 2250.6205,176.6477 2261.6205,189.8577" fill="none" id="PanelController-to-KeyParser" style="stroke:#000000;stroke-width:1;"/><polygon fill="#000000" points="2264.82,193.7,2262.1348,184.2243,2261.6205,189.8577,2255.9871,189.3435,2264.82,193.7" style="stroke:#000000;stroke-width:1;stroke-linejoin:miter;stroke-miterlimit:10;"/></g><!--link PanelController to Answers--><g class="link" data-entity-1="ent0025" data-entity-2="ent0021" data-link-type="dependency" data-source-line="80" id="lnk55"><path d="M1861.5,108.01 C1721.35,115.11 1356.27,133.23 1051.23,145 C1036.96,145.55 807.26,147.15 794.23,153 C775.33,161.48 762.6809,175.8824 753.2209,189.5124" fill="none" id="PanelController-to-Answers" style="stroke:#000000;stroke-width:1;"/><polygon fill="#000000" points="750.37,193.62,758.7877,188.5071,753.2209,189.5124,752.2156,183.9456,750.37,193.62" style="stroke:#000000;stroke-width:1;stroke-linejoin:miter;stroke-miterlimit:10;"/></g><?plantuml-src bPDBJzmm4CVl-HHJUa12sjss2AaFgHA5150hYc1B3nM7mPxDMZXsD7PsIn_VlKwyMV9W3pt5cVyy_fxyiW-IQMLBDnELyxPGluXX0i8MfJLaF22BfV8aVCKqJVRX2iK3vkIWKCoMmIy978iPkEfUAWw9bXMv3w6GxTg1MzfrarIWCY2f92F9Y91ITxkcd0mnUW9Q4J_2pUqPh9LVlWSeDHfV5Hectgroa5QuMTVDx61Q1Zbv4ReNLAShaxW7PKfaBE0-6CtPLaQUM1sChkl2ZYvfWPNscJN-4aFzEUaLUIMma-EMAErQcHmMg5stUhkW6_-e2Ufxeyar9LxvyFuVIqsICguKzawiMQYy2kjGrkp1o_GmUvETmky4u4VKlbYKn7TFWUPuXOPqSyeKQNcN_EqrPGgziYmxJ5_5Ngd9bQ5OobQGSvRxHTVahAvQ6s-pe_HTBBqmPUKRTRNnSQgSiFMtYs_4gbNcZCOjB1UjNwdgZkaATOL-EF8SZTJ4hlPwc1vbHt7W9Xn0KSx78SfuuWMAyCsYUD46weBZ-v27mc-qThQddxu_y6lbmrtg-vsaMVOwZZisRXrCD5Kt8e25Pn5GovtOBMebnrTeV8JHOGCm_tRHR3tzbAQnTVELQYTiTMjiNgFRdBuhcPFFiFv_1hUCKk-IbxXI-TRKdBXG1YC2d-dn2jbHzDRd1YQJZq_aj0Suc4os46sUCRR1AMc96TJteWCo-c87ae7Gyh8znNY7dT7m4KRzZ14neqYJDs9dH0vCft-Uo-jDsmBJ-PMUxv-CW1giSyXMNqv600tAdvStXErG1zGDtfkS8NqxEdM8tELaI-cEX0wvEpBQPVy3?></g></svg>